<svg width="257" height="71" viewBox="0 0 257 71" fill="none" xmlns="http://www.w3.org/2000/svg">
<path d="M6.05583e-05 5.96155H7.45557V20.846H6.05583e-05V5.96155Z" fill="#3AB244"/>
<path d="M0.0012595 5.96164C0.00125946 5.17858 0.13718 4.40319 0.401263 3.67976C0.665346 2.95634 1.05241 2.29904 1.54036 1.74543C2.02831 1.19181 2.60757 0.752725 3.24506 0.45324C3.88255 0.153755 4.56579 -0.000257432 5.25573 3.22998e-07H7.4585V11.9233H5.25573C4.56579 11.9235 3.88255 11.7695 3.24506 11.47C2.60757 11.1706 2.02831 10.7315 1.54036 10.1778C1.05241 9.62423 0.665346 8.96694 0.401263 8.24351C0.13718 7.52008 0.00125946 6.7447 0.0012595 5.96164Z" fill="#0B6C26"/>
<path d="M0.00133291 11.9234V64.8461C0.00133259 65.6548 0.141755 66.4555 0.41457 67.2025C0.687384 67.9495 1.08725 68.6282 1.5913 69.1997C2.09535 69.7712 2.69369 70.2244 3.35214 70.5333C4.01059 70.8422 4.71622 71.0009 5.42871 71.0001H254.284C254.805 71.0003 255.315 70.8302 255.752 70.5101C256.19 70.1899 256.538 69.7334 256.753 69.195C256.968 68.6566 257.042 68.0593 256.965 67.4746C256.889 66.8898 256.666 66.3424 256.322 65.898L240.92 45.9192C239.969 44.686 239.445 43.1027 239.445 41.4637C239.445 39.8247 239.969 38.2414 240.92 37.0081L256.322 17.0235C256.667 16.5793 256.89 16.0318 256.967 15.4468C257.044 14.8617 256.97 14.264 256.755 13.7253C256.54 13.1866 256.192 12.7299 255.754 12.4099C255.315 12.0899 254.805 11.9203 254.284 11.9214L0.00133291 11.9234Z" fill="#3AB244"/>
<path d="M21.688 28.566C22.648 28.746 23.434 29.16 24.046 29.808C24.658 30.456 24.964 31.278 24.964 32.274C24.964 33.498 24.544 34.464 23.704 35.172C22.864 35.88 21.844 36.234 20.644 36.234C19.684 36.234 18.832 36.018 18.088 35.586C17.344 35.142 16.816 34.506 16.504 33.678L17.908 32.85C18.28 34.014 19.192 34.596 20.644 34.596C21.424 34.596 22.06 34.392 22.552 33.984C23.044 33.576 23.29 33.006 23.29 32.274C23.29 31.542 23.044 30.972 22.552 30.564C22.06 30.144 21.424 29.934 20.644 29.934H20.212L19.546 28.908L22.462 24.966H16.864V23.4H24.424V24.876L21.688 28.566ZM34.8848 34.452C34.0328 35.64 32.8388 36.234 31.3028 36.234C29.7668 36.234 28.5728 35.64 27.7208 34.452C26.8688 33.264 26.4428 31.68 26.4428 29.7C26.4428 27.72 26.8688 26.136 27.7208 24.948C28.5728 23.76 29.7668 23.166 31.3028 23.166C32.8388 23.166 34.0328 23.76 34.8848 24.948C35.7368 26.136 36.1628 27.72 36.1628 29.7C36.1628 31.68 35.7368 33.264 34.8848 34.452ZM28.9448 33.318C29.4968 34.17 30.2828 34.596 31.3028 34.596C32.3228 34.596 33.1088 34.17 33.6608 33.318C34.2248 32.466 34.5068 31.26 34.5068 29.7C34.5068 28.14 34.2248 26.934 33.6608 26.082C33.1088 25.218 32.3228 24.786 31.3028 24.786C30.2828 24.786 29.4968 25.212 28.9448 26.064C28.3928 26.916 28.1168 28.128 28.1168 29.7C28.1168 31.26 28.3928 32.466 28.9448 33.318ZM45.7547 28.944V30.438H42.6227V33.57H41.1287V30.438H38.0147V28.944H41.1287V25.83H42.6227V28.944H45.7547ZM59.0013 27H60.2613V36H58.7133V29.682L53.7273 36H52.4673V27H54.0153V33.318L59.0013 27ZM70.385 34.506H71.627V38.412H70.079V36H63.329V38.412H61.781V34.506H62.879C63.455 33.714 63.743 32.604 63.743 31.176V27H70.385V34.506ZM64.661 34.506H68.837V28.458H65.291V31.176C65.291 32.52 65.081 33.63 64.661 34.506ZM74.0614 32.22C74.2174 33.024 74.5834 33.648 75.1594 34.092C75.7474 34.536 76.4674 34.758 77.3194 34.758C78.5074 34.758 79.3714 34.32 79.9114 33.444L81.2434 34.2C80.3674 35.556 79.0474 36.234 77.2834 36.234C75.8554 36.234 74.6914 35.79 73.7914 34.902C72.9034 34.002 72.4594 32.868 72.4594 31.5C72.4594 30.144 72.8974 29.016 73.7734 28.116C74.6494 27.216 75.7834 26.766 77.1754 26.766C78.4954 26.766 79.5694 27.234 80.3974 28.17C81.2374 29.094 81.6574 30.21 81.6574 31.518C81.6574 31.746 81.6394 31.98 81.6034 32.22H74.0614ZM77.1754 28.242C76.3354 28.242 75.6394 28.482 75.0874 28.962C74.5354 29.43 74.1934 30.06 74.0614 30.852H80.0734C79.9414 30 79.6054 29.352 79.0654 28.908C78.5254 28.464 77.8954 28.242 77.1754 28.242ZM84.9335 25.65V24.282H89.7935V25.65H84.9335ZM89.9915 27H91.2515V36H89.7035V29.682L84.7175 36H83.4575V27H85.0055V33.318L89.9915 27ZM105.875 34.506H107.117V38.412H105.569V36H98.8193V38.412H97.2713V34.506H98.3693C98.9453 33.714 99.2333 32.604 99.2333 31.176V27H105.875V34.506ZM100.151 34.506H104.327V28.458H100.781V31.176C100.781 32.52 100.571 33.63 100.151 34.506ZM116.311 27V36H114.745V28.512H111.199V32.184C111.199 33.66 110.899 34.692 110.299 35.28C109.711 35.856 108.877 36.096 107.797 36V34.524C108.409 34.608 108.865 34.476 109.165 34.128C109.477 33.768 109.633 33.108 109.633 32.148V27H116.311ZM125.416 27V36H123.868V32.76H122.554L120.034 36H118.126L120.754 32.67C120.082 32.502 119.536 32.166 119.116 31.662C118.696 31.158 118.486 30.57 118.486 29.898C118.486 29.07 118.78 28.38 119.368 27.828C119.956 27.276 120.694 27 121.582 27H125.416ZM121.636 31.356H123.868V28.458H121.636C121.192 28.458 120.814 28.59 120.502 28.854C120.19 29.118 120.034 29.472 120.034 29.916C120.034 30.348 120.19 30.696 120.502 30.96C120.814 31.224 121.192 31.356 121.636 31.356ZM25.144 45.4H26.8V58H25.144V52.33H19.024V58H17.35V45.4H19.024V50.746H25.144V45.4ZM36.9305 56.866C36.0065 57.778 34.8845 58.234 33.5645 58.234C32.2445 58.234 31.1225 57.778 30.1985 56.866C29.2865 55.954 28.8305 54.832 28.8305 53.5C28.8305 52.168 29.2865 51.046 30.1985 50.134C31.1225 49.222 32.2445 48.766 33.5645 48.766C34.8845 48.766 36.0065 49.222 36.9305 50.134C37.8545 51.046 38.3165 52.168 38.3165 53.5C38.3165 54.832 37.8545 55.954 36.9305 56.866ZM33.5645 56.704C34.4645 56.704 35.2205 56.398 35.8325 55.786C36.4445 55.174 36.7505 54.412 36.7505 53.5C36.7505 52.588 36.4445 51.826 35.8325 51.214C35.2205 50.602 34.4645 50.296 33.5645 50.296C32.6765 50.296 31.9265 50.602 31.3145 51.214C30.7025 51.826 30.3965 52.588 30.3965 53.5C30.3965 54.412 30.7025 55.174 31.3145 55.786C31.9265 56.398 32.6765 56.704 33.5645 56.704ZM46.1566 53.374C47.0806 53.758 47.5426 54.454 47.5426 55.462C47.5426 56.206 47.2906 56.818 46.7866 57.298C46.2946 57.766 45.5866 58 44.6626 58H40.1626V49H44.3026C45.2026 49 45.8986 49.228 46.3906 49.684C46.8826 50.128 47.1286 50.716 47.1286 51.448C47.1286 52.312 46.8046 52.954 46.1566 53.374ZM44.2306 50.404H41.6926V52.762H44.2306C45.1426 52.762 45.5986 52.36 45.5986 51.556C45.5986 50.788 45.1426 50.404 44.2306 50.404ZM44.5726 56.578C45.0286 56.578 45.3766 56.47 45.6166 56.254C45.8686 56.038 45.9946 55.732 45.9946 55.336C45.9946 54.964 45.8686 54.676 45.6166 54.472C45.3766 54.256 45.0286 54.148 44.5726 54.148H41.6926V56.578H44.5726ZM56.8289 56.866C55.9049 57.778 54.7829 58.234 53.4629 58.234C52.1429 58.234 51.0209 57.778 50.0969 56.866C49.1849 55.954 48.7289 54.832 48.7289 53.5C48.7289 52.168 49.1849 51.046 50.0969 50.134C51.0209 49.222 52.1429 48.766 53.4629 48.766C54.7829 48.766 55.9049 49.222 56.8289 50.134C57.7529 51.046 58.2149 52.168 58.2149 53.5C58.2149 54.832 57.7529 55.954 56.8289 56.866ZM53.4629 56.704C54.3629 56.704 55.1189 56.398 55.7309 55.786C56.3429 55.174 56.6489 54.412 56.6489 53.5C56.6489 52.588 56.3429 51.826 55.7309 51.214C55.1189 50.602 54.3629 50.296 53.4629 50.296C52.5749 50.296 51.8249 50.602 51.2129 51.214C50.6009 51.826 50.2949 52.588 50.2949 53.5C50.2949 54.412 50.6009 55.174 51.2129 55.786C51.8249 56.398 52.5749 56.704 53.4629 56.704ZM65.965 49V50.512H61.627V58H60.061V49H65.965ZM74.5828 56.866C73.6588 57.778 72.5368 58.234 71.2168 58.234C69.8968 58.234 68.7748 57.778 67.8508 56.866C66.9388 55.954 66.4828 54.832 66.4828 53.5C66.4828 52.168 66.9388 51.046 67.8508 50.134C68.7748 49.222 69.8968 48.766 71.2168 48.766C72.5368 48.766 73.6588 49.222 74.5828 50.134C75.5068 51.046 75.9688 52.168 75.9688 53.5C75.9688 54.832 75.5068 55.954 74.5828 56.866ZM71.2168 56.704C72.1168 56.704 72.8728 56.398 73.4848 55.786C74.0968 55.174 74.4028 54.412 74.4028 53.5C74.4028 52.588 74.0968 51.826 73.4848 51.214C72.8728 50.602 72.1168 50.296 71.2168 50.296C70.3288 50.296 69.5788 50.602 68.9668 51.214C68.3548 51.826 68.0488 52.588 68.0488 53.5C68.0488 54.412 68.3548 55.174 68.9668 55.786C69.5788 56.398 70.3288 56.704 71.2168 56.704ZM85.2034 56.506H86.4454V60.412H84.8974V58H78.1474V60.412H76.5994V56.506H77.6974C78.2734 55.714 78.5614 54.604 78.5614 53.176V49H85.2034V56.506ZM79.4794 56.506H83.6554V50.458H80.1094V53.176C80.1094 54.52 79.8994 55.63 79.4794 56.506ZM94.3613 49H95.9273V58H94.3613V54.238H89.6993V58H88.1333V49H89.6993V52.744H94.3613V49ZM99.409 54.22C99.565 55.024 99.931 55.648 100.507 56.092C101.095 56.536 101.815 56.758 102.667 56.758C103.855 56.758 104.719 56.32 105.259 55.444L106.591 56.2C105.715 57.556 104.395 58.234 102.631 58.234C101.203 58.234 100.039 57.79 99.139 56.902C98.251 56.002 97.807 54.868 97.807 53.5C97.807 52.144 98.245 51.016 99.121 50.116C99.997 49.216 101.131 48.766 102.523 48.766C103.843 48.766 104.917 49.234 105.745 50.17C106.585 51.094 107.005 52.21 107.005 53.518C107.005 53.746 106.987 53.98 106.951 54.22H99.409ZM102.523 50.242C101.683 50.242 100.987 50.482 100.435 50.962C99.883 51.43 99.541 52.06 99.409 52.852H105.421C105.289 52 104.953 51.352 104.413 50.908C103.873 50.464 103.243 50.242 102.523 50.242ZM114.709 49V50.512H110.371V58H108.805V49H114.709ZM123.327 56.866C122.403 57.778 121.281 58.234 119.961 58.234C118.641 58.234 117.519 57.778 116.595 56.866C115.683 55.954 115.227 54.832 115.227 53.5C115.227 52.168 115.683 51.046 116.595 50.134C117.519 49.222 118.641 48.766 119.961 48.766C121.281 48.766 122.403 49.222 123.327 50.134C124.251 51.046 124.713 52.168 124.713 53.5C124.713 54.832 124.251 55.954 123.327 56.866ZM119.961 56.704C120.861 56.704 121.617 56.398 122.229 55.786C122.841 55.174 123.147 54.412 123.147 53.5C123.147 52.588 122.841 51.826 122.229 51.214C121.617 50.602 120.861 50.296 119.961 50.296C119.073 50.296 118.323 50.602 117.711 51.214C117.099 51.826 116.793 52.588 116.793 53.5C116.793 54.412 117.099 55.174 117.711 55.786C118.323 56.398 119.073 56.704 119.961 56.704ZM137.755 49V50.512H134.695V58H133.129V50.512H130.051V49H137.755ZM145.121 53.374C146.045 53.758 146.507 54.454 146.507 55.462C146.507 56.206 146.255 56.818 145.751 57.298C145.259 57.766 144.551 58 143.627 58H139.127V49H143.267C144.167 49 144.863 49.228 145.355 49.684C145.847 50.128 146.093 50.716 146.093 51.448C146.093 52.312 145.769 52.954 145.121 53.374ZM143.195 50.404H140.657V52.762H143.195C144.107 52.762 144.563 52.36 144.563 51.556C144.563 50.788 144.107 50.404 143.195 50.404ZM143.537 56.578C143.993 56.578 144.341 56.47 144.581 56.254C144.833 56.038 144.959 55.732 144.959 55.336C144.959 54.964 144.833 54.676 144.581 54.472C144.341 54.256 143.993 54.148 143.537 54.148H140.657V56.578H143.537ZM155.794 56.866C154.87 57.778 153.748 58.234 152.428 58.234C151.108 58.234 149.986 57.778 149.062 56.866C148.15 55.954 147.694 54.832 147.694 53.5C147.694 52.168 148.15 51.046 149.062 50.134C149.986 49.222 151.108 48.766 152.428 48.766C153.748 48.766 154.87 49.222 155.794 50.134C156.718 51.046 157.18 52.168 157.18 53.5C157.18 54.832 156.718 55.954 155.794 56.866ZM152.428 56.704C153.328 56.704 154.084 56.398 154.696 55.786C155.308 55.174 155.614 54.412 155.614 53.5C155.614 52.588 155.308 51.826 154.696 51.214C154.084 50.602 153.328 50.296 152.428 50.296C151.54 50.296 150.79 50.602 150.178 51.214C149.566 51.826 149.26 52.588 149.26 53.5C149.26 54.412 149.566 55.174 150.178 55.786C150.79 56.398 151.54 56.704 152.428 56.704ZM163.994 48.766C165.254 48.766 166.328 49.228 167.216 50.152C168.104 51.064 168.548 52.18 168.548 53.5C168.548 54.82 168.104 55.942 167.216 56.866C166.328 57.778 165.254 58.234 163.994 58.234C162.506 58.234 161.372 57.64 160.592 56.452V61.6H159.026V49H160.592V50.548C161.372 49.36 162.506 48.766 163.994 48.766ZM163.796 56.722C164.696 56.722 165.452 56.416 166.064 55.804C166.676 55.18 166.982 54.412 166.982 53.5C166.982 52.588 166.676 51.826 166.064 51.214C165.452 50.59 164.696 50.278 163.796 50.278C162.884 50.278 162.122 50.59 161.51 51.214C160.898 51.826 160.592 52.588 160.592 53.5C160.592 54.412 160.898 55.18 161.51 55.804C162.122 56.416 162.884 56.722 163.796 56.722ZM175.893 49H177.459V58H175.893V54.76C175.173 55.072 174.363 55.228 173.463 55.228C172.311 55.228 171.417 54.958 170.781 54.418C170.157 53.866 169.845 53.056 169.845 51.988V49H171.411V51.898C171.411 52.57 171.591 53.05 171.951 53.338C172.323 53.626 172.863 53.77 173.571 53.77C174.423 53.77 175.197 53.614 175.893 53.302V49ZM180.936 54.22C181.092 55.024 181.458 55.648 182.034 56.092C182.622 56.536 183.342 56.758 184.194 56.758C185.382 56.758 186.246 56.32 186.786 55.444L188.118 56.2C187.242 57.556 185.922 58.234 184.158 58.234C182.73 58.234 181.566 57.79 180.666 56.902C179.778 56.002 179.334 54.868 179.334 53.5C179.334 52.144 179.772 51.016 180.648 50.116C181.524 49.216 182.658 48.766 184.05 48.766C185.37 48.766 186.444 49.234 187.272 50.17C188.112 51.094 188.532 52.21 188.532 53.518C188.532 53.746 188.514 53.98 188.478 54.22H180.936ZM184.05 50.242C183.21 50.242 182.514 50.482 181.962 50.962C181.41 51.43 181.068 52.06 180.936 52.852H186.948C186.816 52 186.48 51.352 185.94 50.908C185.4 50.464 184.77 50.242 184.05 50.242ZM194.545 58.234C193.189 58.234 192.061 57.784 191.161 56.884C190.261 55.972 189.811 54.844 189.811 53.5C189.811 52.156 190.261 51.034 191.161 50.134C192.061 49.222 193.189 48.766 194.545 48.766C195.433 48.766 196.231 48.982 196.939 49.414C197.647 49.834 198.175 50.404 198.523 51.124L197.209 51.88C196.981 51.4 196.627 51.016 196.147 50.728C195.679 50.44 195.145 50.296 194.545 50.296C193.645 50.296 192.889 50.602 192.277 51.214C191.677 51.826 191.377 52.588 191.377 53.5C191.377 54.4 191.677 55.156 192.277 55.768C192.889 56.38 193.645 56.686 194.545 56.686C195.145 56.686 195.685 56.548 196.165 56.272C196.645 55.984 197.011 55.6 197.263 55.12L198.595 55.894C198.211 56.602 197.659 57.172 196.939 57.604C196.219 58.024 195.421 58.234 194.545 58.234ZM206.697 49V50.512H203.637V58H202.071V50.512H198.993V49H206.697ZM214.063 53.374C214.987 53.758 215.449 54.454 215.449 55.462C215.449 56.206 215.197 56.818 214.693 57.298C214.201 57.766 213.493 58 212.569 58H208.069V49H212.209C213.109 49 213.805 49.228 214.297 49.684C214.789 50.128 215.035 50.716 215.035 51.448C215.035 52.312 214.711 52.954 214.063 53.374ZM212.137 50.404H209.599V52.762H212.137C213.049 52.762 213.505 52.36 213.505 51.556C213.505 50.788 213.049 50.404 212.137 50.404ZM212.479 56.578C212.935 56.578 213.283 56.47 213.523 56.254C213.775 56.038 213.901 55.732 213.901 55.336C213.901 54.964 213.775 54.676 213.523 54.472C213.283 54.256 212.935 54.148 212.479 54.148H209.599V56.578H212.479ZM224.591 49H226.157V58H224.591V56.452C223.811 57.64 222.677 58.234 221.189 58.234C219.929 58.234 218.855 57.778 217.967 56.866C217.079 55.942 216.635 54.82 216.635 53.5C216.635 52.18 217.079 51.064 217.967 50.152C218.855 49.228 219.929 48.766 221.189 48.766C222.677 48.766 223.811 49.36 224.591 50.548V49ZM221.387 56.722C222.299 56.722 223.061 56.416 223.673 55.804C224.285 55.18 224.591 54.412 224.591 53.5C224.591 52.588 224.285 51.826 223.673 51.214C223.061 50.59 222.299 50.278 221.387 50.278C220.487 50.278 219.731 50.59 219.119 51.214C218.507 51.826 218.201 52.588 218.201 53.5C218.201 54.412 218.507 55.18 219.119 55.804C219.731 56.416 220.487 56.722 221.387 56.722Z" fill="white"/>
</svg>
