<svg width="48" height="55" viewBox="0 0 48 55" fill="none" xmlns="http://www.w3.org/2000/svg">
<g clip-path="url(#clip0_452_240)">
<path d="M37.6909 28.3129C38.0535 26.0809 37.8641 23.794 37.1391 21.6521C36.4141 19.5101 35.1756 17.5783 33.5318 16.0254C31.888 14.4725 29.889 13.3457 27.7094 12.7435C25.5297 12.1413 23.2358 12.0821 21.0279 12.5709C18.8201 13.0597 16.7655 14.0817 15.0437 15.5476C13.322 17.0136 11.9853 18.8788 11.1507 20.9804C10.316 23.0821 10.0087 25.3561 10.2555 27.6039C10.5024 29.8517 11.2959 32.0048 12.5668 33.8752C15.7504 39.0036 16.4655 40.4572 16.5494 44.2721C16.5779 45.6929 16.8848 46.4761 18.2334 46.6943L23.0211 47.4691C24.3698 47.6873 24.908 47.0409 25.3876 45.7022C26.6659 42.1078 27.8022 40.9584 32.4414 37.0913C35.2505 34.9451 37.1293 31.8032 37.6909 28.3129Z" fill="url(#paint0_linear_452_240)"/>
<path d="M28.1289 8.80635C28.073 9.14399 27.8856 9.44572 27.6077 9.64546C27.3298 9.8452 26.9841 9.92666 26.6463 9.87199C26.3089 9.81739 26.007 9.63099 25.807 9.35379C25.607 9.07659 25.5253 8.73131 25.5799 8.39389L26.2426 4.29848C26.2972 3.96106 26.4836 3.65915 26.7608 3.45917C27.038 3.25919 27.3833 3.17751 27.7207 3.23211C28.0585 3.28678 28.3609 3.47311 28.5617 3.75029C28.7624 4.02748 28.8451 4.37292 28.7916 4.71094L28.1289 8.80635Z" fill="url(#paint1_linear_452_240)"/>
<path d="M41.055 21.0102C40.737 21.1338 40.3829 21.1263 40.0704 20.9893C39.7579 20.8522 39.5125 20.5968 39.388 20.2791C39.2643 19.9611 39.2718 19.607 39.4089 19.2945C39.5459 18.982 39.8013 18.7366 40.1191 18.6121L43.997 17.1406C44.315 17.0169 44.6692 17.0244 44.9817 17.1615C45.2942 17.2985 45.5396 17.5539 45.664 17.8717C45.7864 18.1898 45.7783 18.5434 45.6414 18.8556C45.5045 19.1677 45.2499 19.4132 44.933 19.5387L41.055 21.0102Z" fill="url(#paint2_linear_452_240)"/>
<path d="M36.9464 38.3045C36.6841 38.0862 36.5191 37.7728 36.4876 37.433C36.4561 37.0932 36.5607 36.7548 36.7783 36.492C36.9967 36.2298 37.3101 36.0648 37.6499 36.0333C37.9896 36.0018 38.328 36.1063 38.5908 36.324L41.8023 38.9427C42.0635 39.1617 42.2277 39.475 42.2592 39.8144C42.2906 40.1538 42.1868 40.4919 41.9703 40.7552C41.7511 41.0176 41.4369 41.1825 41.0964 41.2139C40.7559 41.2452 40.4168 41.1405 40.1533 40.9225L36.9464 38.3045Z" fill="url(#paint3_linear_452_240)"/>
<path d="M11.0905 13.9194C11.3527 14.1377 11.5177 14.4511 11.5492 14.7909C11.5807 15.1307 11.4762 15.4691 11.2585 15.7319C11.0402 15.9941 10.7268 16.1591 10.387 16.1906C10.0472 16.2221 9.70883 16.1176 9.44602 15.8999L6.25325 13.2796C5.99099 13.0613 5.82603 12.7479 5.79453 12.4081C5.76303 12.0683 5.86757 11.7299 6.08522 11.4671C6.30354 11.2049 6.61696 11.0399 6.95674 11.0084C7.29651 10.9769 7.63492 11.0814 7.89773 11.2991L11.0905 13.9194Z" fill="url(#paint4_linear_452_240)"/>
<path d="M6.98998 31.1922C7.30802 31.0686 7.66213 31.0761 7.97463 31.2131C8.28714 31.3502 8.53253 31.6056 8.657 31.9233C8.78066 32.2413 8.77314 32.5954 8.63609 32.9079C8.49904 33.2204 8.24365 33.4658 7.92593 33.5903L4.03158 35.0776C3.71354 35.2013 3.35944 35.1937 3.04694 35.0567C2.73443 34.9196 2.48904 34.6643 2.36456 34.3465C2.2409 34.0285 2.24842 33.6744 2.38547 33.3619C2.52252 33.0494 2.77791 32.804 3.09564 32.6795L6.98998 31.1922Z" fill="url(#paint5_linear_452_240)"/>
<path d="M23.664 51.1944C23.5936 51.3323 23.4812 51.4442 23.3431 51.5139C23.2049 51.5836 23.0481 51.6075 22.8954 51.5821L17.0512 50.6364C16.8982 50.6112 16.757 50.5387 16.6473 50.4291C16.5376 50.3196 16.465 50.1784 16.4397 50.0254L15.7857 42.663C15.7226 41.97 16.0795 41.4465 16.592 41.5294L26.2258 43.0883C26.7338 43.1705 26.9119 43.7806 26.6334 44.4183L23.664 51.1944Z" fill="url(#paint6_linear_452_240)"/>
<path d="M19.9097 42.0663L21.9124 29.6902C21.9641 29.3761 21.9215 29.0537 21.7898 28.7639C21.6581 28.4741 21.4433 28.2299 21.1727 28.0623C20.9021 27.8946 20.5878 27.8111 20.2696 27.8224C19.9515 27.8336 19.6438 27.939 19.3857 28.1252C19.1275 28.3115 18.9305 28.5702 18.8195 28.8685C18.7085 29.1669 18.6886 29.4915 18.7624 29.8012C18.8361 30.1109 19.0001 30.3917 19.2336 30.608C19.4671 30.8244 19.7595 30.9666 20.0739 31.0166L26.2193 32.011C26.5333 32.0618 26.8554 32.0183 27.1447 31.886C27.434 31.7536 27.6776 31.5384 27.8445 31.2676C28.0115 30.9968 28.0943 30.6825 28.0825 30.3646C28.0708 30.0467 27.9649 29.7394 27.7784 29.4817C27.5919 29.2239 27.3332 29.0273 27.0348 28.9167C26.7365 28.8062 26.4121 28.7866 26.1027 28.8605C25.7933 28.9344 25.5127 29.0984 25.2966 29.3318C25.0804 29.5653 24.9384 29.8576 24.8884 30.1718L22.8858 42.5479" stroke="white" stroke-width="0.910798" stroke-miterlimit="10"/>
<g style="mix-blend-mode:overlay">
<path d="M23.1664 15.8965C22.945 15.8614 22.7444 15.7458 22.6029 15.5719C22.4614 15.3981 22.389 15.1781 22.3996 14.9542C22.4101 14.7303 22.5028 14.5182 22.66 14.3584C22.8172 14.1986 23.0278 14.1023 23.2514 14.0881C23.4333 14.076 23.61 14.0677 23.7904 14.0646C23.9101 14.0621 24.0292 14.0833 24.1407 14.1269C24.2523 14.1705 24.3542 14.2356 24.4406 14.3185C24.5269 14.4015 24.5962 14.5006 24.6442 14.6103C24.6923 14.72 24.7183 14.8381 24.7207 14.9578C24.7232 15.0776 24.702 15.1966 24.6584 15.3082C24.6148 15.4197 24.5497 15.5216 24.4668 15.608C24.3838 15.6944 24.2847 15.7636 24.175 15.8117C24.0653 15.8597 23.9472 15.8857 23.8274 15.8882C23.6747 15.8911 23.522 15.8941 23.3633 15.9053C23.2976 15.9091 23.2316 15.9062 23.1664 15.8965ZM16.542 19.2025C17.7614 17.8631 19.3166 16.8741 21.0467 16.3378C21.1612 16.3024 21.2676 16.2448 21.3598 16.1683C21.452 16.0918 21.5282 15.9979 21.5842 15.8919C21.6401 15.7859 21.6746 15.67 21.6857 15.5507C21.6968 15.4314 21.6843 15.311 21.6489 15.1966C21.6135 15.0821 21.5559 14.9757 21.4794 14.8835C21.4029 14.7913 21.309 14.7151 21.203 14.6591C21.097 14.6032 20.9811 14.5687 20.8618 14.5576C20.7425 14.5465 20.6222 14.559 20.5077 14.5944C18.4685 15.2301 16.6351 16.3966 15.1953 17.9743C15.0313 18.151 14.944 18.3855 14.9526 18.6264C14.9611 18.8673 15.0649 19.095 15.241 19.2596C15.3718 19.3775 15.5339 19.455 15.7078 19.4827C15.8592 19.5103 16.0151 19.4991 16.161 19.4501C16.3068 19.4011 16.4379 19.3159 16.542 19.2025Z" fill="white"/>
</g>
</g>
<defs>
<linearGradient id="paint0_linear_452_240" x1="24.5688" y1="17.3783" x2="21.3318" y2="69.1131" gradientUnits="userSpaceOnUse">
<stop stop-color="#FFD52E"/>
<stop offset="1" stop-color="#FF9000"/>
</linearGradient>
<linearGradient id="paint1_linear_452_240" x1="27.3329" y1="4.17504" x2="26.7183" y2="14.0171" gradientUnits="userSpaceOnUse">
<stop stop-color="#FFD52E"/>
<stop offset="1" stop-color="#FF9000"/>
</linearGradient>
<linearGradient id="paint2_linear_452_240" x1="44.6517" y1="18.0039" x2="35.8209" y2="22.3927" gradientUnits="userSpaceOnUse">
<stop stop-color="#FFD52E"/>
<stop offset="1" stop-color="#FF9000"/>
</linearGradient>
<linearGradient id="paint3_linear_452_240" x1="41.3299" y1="39.9388" x2="33.1137" y2="34.4855" gradientUnits="userSpaceOnUse">
<stop stop-color="#FFD52E"/>
<stop offset="1" stop-color="#FF9000"/>
</linearGradient>
<linearGradient id="paint4_linear_452_240" x1="6.68734" y1="12.2596" x2="14.9" y2="17.71" gradientUnits="userSpaceOnUse">
<stop stop-color="#FFD52E"/>
<stop offset="1" stop-color="#FF9000"/>
</linearGradient>
<linearGradient id="paint5_linear_452_240" x1="3.38283" y1="34.1742" x2="12.2093" y2="29.7871" gradientUnits="userSpaceOnUse">
<stop stop-color="#FFD52E"/>
<stop offset="1" stop-color="#FF9000"/>
</linearGradient>
<linearGradient id="paint6_linear_452_240" x1="21.6588" y1="40.6932" x2="19.4314" y2="54.4584" gradientUnits="userSpaceOnUse">
<stop stop-color="#586578"/>
<stop offset="1" stop-color="#3F4E63"/>
</linearGradient>
<clipPath id="clip0_452_240">
<rect width="40.4713" height="48.5" fill="white" transform="translate(7.74731) rotate(9.19172)"/>
</clipPath>
</defs>
</svg>
