<svg width="67" height="46" viewBox="0 0 67 46" fill="none" xmlns="http://www.w3.org/2000/svg">
<path d="M8.98579 8.49256C9.30653 8.96102 9.48156 9.46853 9.51088 10.0151C9.54944 10.567 9.41938 11.1016 9.12072 11.6189C8.67272 12.3948 8.02421 12.8887 7.17519 13.1006C6.32617 13.3125 5.50906 13.1918 4.72387 12.7384L0.539231 10.3224L6.13923 0.622947L10.019 2.86295C10.7765 3.30028 11.2719 3.92498 11.5051 4.73705C11.7383 5.54912 11.6389 6.32927 11.2069 7.07752C10.7109 7.93662 9.97052 8.4083 8.98579 8.49256ZM9.32302 4.06845L6.73188 2.57245L5.01988 5.53773L7.61102 7.03373C8.01748 7.26839 8.44194 7.32254 8.8844 7.19618C9.32686 7.06981 9.66809 6.79878 9.90809 6.38309C10.1428 5.97664 10.1996 5.54756 10.0785 5.09586C9.97208 4.64026 9.72024 4.29779 9.32302 4.06845ZM5.41987 11.5329C5.85403 11.7836 6.30692 11.8418 6.77852 11.7077C7.25013 11.5735 7.61393 11.2847 7.86993 10.8413C8.12059 10.4071 8.18151 9.94962 8.05267 9.46878C7.93306 8.99327 7.6608 8.63285 7.23587 8.38752L4.33988 6.71552L2.52388 9.86092L5.41987 11.5329ZM21.6478 9.57682C22.5438 10.0942 23.1141 10.8237 23.3587 11.7655C23.6178 12.7034 23.4913 13.6157 22.9793 14.5025C22.4727 15.3801 21.7458 15.9458 20.7987 16.1995C19.8608 16.4586 18.9438 16.3295 18.0478 15.8122L15.8169 14.5242L13.8169 17.9883L12.5283 17.2443L18.1283 7.54482L21.6478 9.57682ZM18.7438 14.6067C19.2796 14.916 19.827 14.9919 20.386 14.8343C20.9504 14.6675 21.3899 14.3115 21.7046 13.7665C22.0246 13.2123 22.113 12.6537 21.97 12.0907C21.827 11.5278 21.4876 11.0917 20.9518 10.7823L18.7209 9.49433L16.5129 13.3187L18.7438 14.6067ZM26.1014 25.0807L26.5676 22.4493L22.2028 19.9293L20.157 21.6487L18.7852 20.8567L28.0017 13.2453L29.4566 14.0853L27.4732 25.8727L26.1014 25.0807ZM23.3422 18.9798L26.8202 20.9878L27.8343 15.1993L23.3422 18.9798ZM35.6616 22.7484C36.5023 23.2337 37.0482 23.9308 37.2995 24.8395C37.5562 25.739 37.4471 26.5998 36.9725 27.422C36.4871 28.2626 35.7908 28.7966 34.8835 29.0241C33.9855 29.257 33.1115 29.128 32.2616 28.6374L28.6174 26.5334L34.2174 16.8339L40.0371 20.1939L39.3331 21.4132L34.802 18.7972L33.306 21.3884L35.6616 22.7484ZM32.9576 27.4319C33.438 27.7092 33.9404 27.7776 34.465 27.637C34.9988 27.5018 35.4097 27.1848 35.6977 26.686C35.9804 26.1964 36.0468 25.6866 35.897 25.1567C35.7564 24.6322 35.446 24.2312 34.9656 23.9539L32.61 22.5939L30.602 26.0719L32.9576 27.4319ZM45.4636 34.5413C43.9283 34.9605 42.4586 34.7648 41.0545 33.9541C39.6504 33.1435 38.746 31.9685 38.3414 30.4293C37.9368 28.8902 38.1372 27.4231 38.9425 26.0283C39.7532 24.6241 40.9235 23.7171 42.4534 23.3072C43.9887 22.888 45.4584 23.0837 46.8625 23.8944C48.2666 24.705 49.171 25.88 49.5756 27.4192C49.9948 28.9544 49.7991 30.4241 48.9884 31.8283C48.1831 33.2231 47.0081 34.1275 45.4636 34.5413ZM39.7322 30.0684C40.0368 31.2049 40.7202 32.0799 41.7825 32.6932C42.8449 33.3065 43.9397 33.4583 45.067 33.1484C46.2088 32.8346 47.0864 32.1466 47.6998 31.0843C48.3184 30.0127 48.4755 28.9086 48.171 27.7721C47.881 26.6317 47.2049 25.7548 46.1425 25.1415C45.0802 24.5281 43.9781 24.3783 42.8362 24.6921C41.7089 25.002 40.836 25.6927 40.2173 26.7643C39.604 27.8266 39.4423 28.928 39.7322 30.0684ZM58.9905 31.1366L58.2865 32.356L55.4182 30.7L50.5222 39.1801L49.2474 38.4441L54.1434 29.964L51.289 28.316L51.993 27.0966L58.9905 31.1366ZM56.6585 41.0971L61.1618 43.6971L60.4578 44.9164L54.6658 41.5724L60.2658 31.8729L65.9885 35.1769L65.2845 36.3963L60.8505 33.8363L59.1305 36.8154L63.2181 39.1754L62.5221 40.3809L58.4345 38.0209L56.6585 41.0971Z" fill="#CB1F24"/>
</svg>
