<svg width="42" height="42" viewBox="0 0 42 42" fill="none" xmlns="http://www.w3.org/2000/svg">
<g clip-path="url(#clip0_125_126)">
<mask id="mask0_125_126" style="mask-type:luminance" maskUnits="userSpaceOnUse" x="0" y="0" width="42" height="42">
<path d="M21 42C32.598 42 42 32.598 42 21C42 9.40202 32.598 0 21 0C9.40202 0 0 9.40202 0 21C0 32.598 9.40202 42 21 42Z" fill="white"/>
</mask>
<g mask="url(#mask0_125_126)">
<path d="M9.02344 84.9844C33.941 84.9844 54.1406 64.7847 54.1406 39.8672C54.1406 14.9497 33.941 -5.25 9.02344 -5.25C-15.8941 -5.25 -36.0938 14.9497 -36.0938 39.8672C-36.0938 64.7847 -15.8941 84.9844 9.02344 84.9844Z" fill="url(#paint0_radial_125_126)"/>
</g>
<path d="M26.9062 16.7344C27.8123 16.7344 28.5469 15.9998 28.5469 15.0938C28.5469 14.1877 27.8123 13.4531 26.9062 13.4531C26.0002 13.4531 25.2656 14.1877 25.2656 15.0938C25.2656 15.9998 26.0002 16.7344 26.9062 16.7344Z" fill="white"/>
<path d="M21 15.75C19.9616 15.75 18.9466 16.0579 18.0833 16.6348C17.2199 17.2117 16.547 18.0316 16.1496 18.9909C15.7523 19.9502 15.6483 21.0058 15.8509 22.0242C16.0534 23.0426 16.5535 23.9781 17.2877 24.7123C18.0219 25.4465 18.9574 25.9466 19.9758 26.1491C20.9942 26.3517 22.0498 26.2477 23.0091 25.8504C23.9684 25.453 24.7883 24.7801 25.3652 23.9167C25.9421 23.0534 26.25 22.0384 26.25 21C26.25 19.6076 25.6969 18.2723 24.7123 17.2877C23.7277 16.3031 22.3924 15.75 21 15.75ZM21 23.625C20.4808 23.625 19.9733 23.471 19.5416 23.1826C19.1099 22.8942 18.7735 22.4842 18.5748 22.0045C18.3761 21.5249 18.3242 20.9971 18.4254 20.4879C18.5267 19.9787 18.7767 19.511 19.1438 19.1438C19.511 18.7767 19.9787 18.5267 20.4879 18.4254C20.9971 18.3242 21.5249 18.3761 22.0045 18.5748C22.4842 18.7735 22.8942 19.1099 23.1826 19.5416C23.471 19.9733 23.625 20.4808 23.625 21C23.625 21.6962 23.3484 22.3639 22.8562 22.8562C22.3639 23.3484 21.6962 23.625 21 23.625Z" fill="white"/>
<path d="M27.5625 10.5H14.4375C12.2629 10.5 10.5 12.2629 10.5 14.4375V27.5625C10.5 29.7371 12.2629 31.5 14.4375 31.5H27.5625C29.7371 31.5 31.5 29.7371 31.5 27.5625V14.4375C31.5 12.2629 29.7371 10.5 27.5625 10.5Z" stroke="white" stroke-width="2.625" stroke-miterlimit="10"/>
</g>
<defs>
<radialGradient id="paint0_radial_125_126" cx="0" cy="0" r="1" gradientUnits="userSpaceOnUse" gradientTransform="translate(9.02344 39.8672) scale(45.1172)">
<stop stop-color="#FFD676"/>
<stop offset="0.25" stop-color="#F2A454"/>
<stop offset="0.38" stop-color="#F05C3C"/>
<stop offset="0.7" stop-color="#C22F86"/>
<stop offset="0.96" stop-color="#6666AD"/>
<stop offset="0.99" stop-color="#5C6CB2"/>
</radialGradient>
<clipPath id="clip0_125_126">
<rect width="42" height="42" fill="white"/>
</clipPath>
</defs>
</svg>
