<svg width="15" height="15" viewBox="0 0 15 15" fill="none" xmlns="http://www.w3.org/2000/svg">
<g clip-path="url(#clip0_1_129)">
<path d="M12.0755 14.2086C11.9583 14.2086 11.8419 14.1739 11.7421 14.1062L7.9705 11.5479L5.94763 13.0034C5.78898 13.1175 5.58449 13.1462 5.40027 13.0804C5.21628 13.0143 5.07655 12.8619 5.02668 12.673L4.01097 8.82372L0.381716 7.436C0.15324 7.3486 0.00171447 7.13002 5.19622e-05 6.8854C-0.00161054 6.64077 0.146907 6.42013 0.374274 6.32965L14.174 0.838627C14.2366 0.812027 14.3029 0.796669 14.3697 0.792552C14.3936 0.791127 14.4176 0.791127 14.4414 0.792473C14.5798 0.800706 14.7158 0.857073 14.8218 0.961099C14.8329 0.971865 14.8433 0.98287 14.8532 0.994349C14.9411 1.09473 14.9894 1.21712 14.9985 1.34181C15.0007 1.37316 15.0005 1.40491 14.9978 1.43665C14.9959 1.4593 14.9926 1.48186 14.988 1.50426L12.6587 13.726C12.6212 13.9223 12.4876 14.0867 12.303 14.1632C12.2298 14.1936 12.1524 14.2086 12.0755 14.2086ZM8.30166 10.3376L11.6613 12.6164L13.4737 3.10652L6.92763 9.40552L8.28582 10.3269C8.29129 10.3303 8.29651 10.3339 8.30166 10.3376ZM5.50493 9.8308L5.95475 11.5353L6.92391 10.8379L5.65487 9.97703C5.59589 9.93713 5.54538 9.88741 5.50493 9.8308ZM2.22749 6.87028L4.71951 7.82305C4.89803 7.89129 5.03277 8.04139 5.08154 8.22617L5.39758 9.42389C5.41206 9.28574 5.47468 9.15575 5.57641 9.05782L11.8139 3.05586L2.22749 6.87028Z" fill="white"/>
</g>
<defs>
<clipPath id="clip0_1_129">
<rect width="15" height="15" fill="white"/>
</clipPath>
</defs>
</svg>
