<svg width="42" height="45" viewBox="0 0 42 45" fill="none" xmlns="http://www.w3.org/2000/svg">
<g clip-path="url(#clip0_1_31)">
<path d="M19.4735 27.5048C12.8665 26.1221 2.62344 25.0667 1.38996 30.9609C0.156486 36.8551 12.3709 40.1913 16.632 41.083C20.893 41.9747 33.4182 43.8256 34.6537 37.922C35.8891 32.0184 26.0804 28.8874 19.4735 27.5048Z" fill="#26A9E0"/>
<path d="M26.8295 32.3965C26.7016 33.0079 23.0037 32.75 18.58 31.8243C14.1563 30.8985 10.6653 29.652 10.7933 29.0406C10.9213 28.4291 14.6196 28.6847 19.0433 29.6104C23.467 30.5362 26.9575 31.785 26.8295 32.3965Z" fill="#608E2B"/>
<g style="mix-blend-mode:multiply" opacity="0.14">
<path d="M16.6323 41.083C20.8979 41.9756 33.4186 43.8256 34.654 37.922C35.1159 35.7152 34.0353 33.8972 32.1537 32.4104C35.5801 36.5361 32.1046 43.0884 16.3113 39.7834C0.517858 36.4783 1.39031 30.9609 1.39031 30.9609C0.154875 36.8645 12.3713 40.1913 16.6323 41.083Z" fill="#231F20"/>
</g>
<path opacity="0.14" d="M9.04151 28.6743C9.04151 28.6743 8.66506 30.7131 18.367 32.7434C28.0689 34.7737 28.5805 32.7632 28.5805 32.7632C28.5805 32.7632 28.2306 35.5778 18.2125 33.4814C8.19449 31.3849 9.04151 28.6743 9.04151 28.6743Z" fill="white"/>
<path opacity="0.28" d="M5.18099 33.9478C4.16159 33.3115 3.6986 32.3245 4.14727 31.7459C4.59594 31.1674 5.78715 31.2112 6.80654 31.8476C7.82594 32.484 8.29172 33.4691 7.84255 34.05C7.39339 34.6309 6.20267 34.5847 5.18099 33.9478Z" fill="white"/>
<path d="M20.717 21.5638C14.9898 20.3652 6.12281 19.4071 5.09426 24.322C4.06571 29.237 14.6545 32.0911 18.352 32.8649C22.0495 33.6387 32.8971 35.2681 33.9251 30.3554C34.9532 25.4428 26.4442 22.7623 20.717 21.5638Z" fill="#FFF365"/>
<path d="M19.9647 25.1574C23.8072 25.9616 27.0084 26.2012 27.1148 25.6927C27.2212 25.1843 24.1925 24.1202 20.35 23.3161C16.5075 22.512 13.3063 22.2723 13.1999 22.7808C13.0935 23.2893 16.1222 24.3533 19.9647 25.1574Z" fill="#608E2B"/>
<g style="mix-blend-mode:multiply" opacity="0.14">
<path d="M18.352 32.8649C22.0495 33.6387 32.897 35.2681 33.9251 30.3555C34.3095 28.5188 33.3615 26.9926 31.7231 25.7377C34.7167 29.2007 31.754 34.6401 18.0659 31.7756C4.37782 28.9111 5.09524 24.3174 5.09524 24.3174C4.0662 29.2347 14.6545 32.0911 18.352 32.8649Z" fill="#231F20"/>
</g>
<path opacity="0.14" d="M11.7075 22.4682C11.7075 22.4682 11.3953 24.1659 19.8051 25.9259C28.215 27.6858 28.6349 26.0106 28.6349 26.0106C28.6349 26.0106 28.3431 28.3533 19.6767 26.5397C11.0103 24.726 11.7075 22.4682 11.7075 22.4682Z" fill="white"/>
<path opacity="0.28" d="M8.39586 26.8372C7.50887 26.2995 7.10073 25.4732 7.48561 24.9937C7.87049 24.5143 8.89955 24.556 9.78834 25.0966C10.6771 25.6372 11.0812 26.4602 10.6986 26.9401C10.316 27.42 9.28286 27.375 8.39586 26.8372Z" fill="white"/>
<path d="M22.0873 15.016C17.4161 14.0385 10.1482 13.4149 9.12014 18.3276C8.09208 23.2402 16.7052 25.6857 19.7223 26.3171C22.7394 26.9485 31.6099 28.1642 32.6384 23.2492C33.667 18.3343 26.7607 15.994 22.0873 15.016Z" fill="#EC1C24"/>
<path d="M21.3364 18.6073C24.4716 19.2634 27.0995 19.3831 27.2059 18.8746C27.3123 18.3661 24.857 17.422 21.7217 16.7659C18.5865 16.1098 15.9587 15.9901 15.8523 16.4986C15.7458 17.0071 18.2012 17.9512 21.3364 18.6073Z" fill="#608E2B"/>
<g style="mix-blend-mode:multiply" opacity="0.14">
<path d="M19.7218 26.3171C22.7389 26.9485 31.6094 28.1641 32.638 23.2492C33.0223 21.4125 32.2984 19.9357 30.9972 18.7489C33.3334 22.0743 30.6936 27.5813 19.5278 25.2446C8.36202 22.9079 9.12068 18.3229 9.12068 18.3229C8.09115 23.2425 16.7047 25.6857 19.7218 26.3171Z" fill="#231F20"/>
</g>
<path opacity="0.14" d="M14.6352 16.244C14.6352 16.244 14.3138 17.9398 21.175 19.3757C28.0362 20.8115 28.4493 19.1349 28.4493 19.1349C28.4493 19.1349 28.1208 21.4699 21.0466 19.9895C13.9723 18.509 14.6352 16.244 14.6352 16.244Z" fill="white"/>
<path opacity="0.28" d="M11.7458 20.7013C11.0352 20.2004 10.7297 19.398 11.0646 18.9057C11.3996 18.4134 12.2472 18.4196 12.9568 18.9251C13.6664 19.4306 13.9729 20.2284 13.638 20.7207C13.303 21.213 12.4564 21.2021 11.7458 20.7013Z" fill="white"/>
<path d="M23.097 10.1877C19.372 9.40818 13.579 8.91236 12.7593 12.8293C11.9396 16.7463 18.806 18.6943 21.2115 19.1977C23.6169 19.7011 30.6883 20.6698 31.508 16.7528C32.3277 12.8359 26.822 10.9672 23.097 10.1877Z" fill="#8BC53F"/>
<path d="M22.4989 13.0504C24.9977 13.5734 27.0921 13.669 27.1768 13.264C27.2616 12.8591 25.3046 12.1069 22.8058 11.5839C20.3069 11.061 18.2125 10.9654 18.1278 11.3703C18.0431 11.7753 20 12.5275 22.4989 13.0504Z" fill="#608E2B"/>
<g style="mix-blend-mode:multiply" opacity="0.14">
<path d="M21.2122 19.1977C23.6176 19.7011 30.689 20.6698 31.5087 16.7529C31.8151 15.2887 31.2365 14.1112 30.2 13.1681C32.0626 15.8198 29.9581 20.2088 21.058 18.3463C12.1579 16.4837 12.76 12.8293 12.76 12.8293C11.9403 16.7463 18.8067 18.6943 21.2122 19.1977Z" fill="#231F20"/>
</g>
<path opacity="0.14" d="M17.1546 11.1672C17.1546 11.1672 16.9002 12.52 22.3709 13.6648C27.8415 14.8097 28.1692 13.4722 28.1692 13.4722C28.1692 13.4722 27.9086 15.3348 22.2684 14.1544C16.6282 12.9741 17.1546 11.1672 17.1546 11.1672Z" fill="white"/>
<path opacity="0.28" d="M14.8524 14.7223C14.2857 14.3225 14.0442 13.6826 14.3103 13.2908C14.5764 12.8991 15.2517 12.9059 15.8189 13.3033C16.3861 13.7008 16.629 14.3458 16.3611 14.7348C16.0931 15.1238 15.4197 15.1198 14.8524 14.7223Z" fill="white"/>
<path d="M24.501 3.48053C23.4693 3.26504 22.3961 3.35331 21.4063 3.7351C20.4165 4.11688 19.5506 4.77651 18.9092 5.63735C18.2679 6.4982 17.8773 7.52493 17.7829 8.59829C17.6885 9.67166 17.8942 10.7476 18.3761 11.7011C20.9754 13.0559 23.8912 13.6661 26.8157 13.4673C27.6395 12.787 28.2593 11.8838 28.6033 10.8627C28.9472 9.84153 29.0011 8.74434 28.7587 7.69854C28.5163 6.65275 27.9876 5.70127 27.2339 4.95463C26.4803 4.20799 25.5326 3.69683 24.501 3.48053Z" fill="#FAAF40"/>
<path opacity="0.1" d="M24.059 3.40764C23.2479 3.30717 22.4235 3.39019 21.6442 3.65081C20.8649 3.91144 20.1498 4.34329 19.5495 4.91577C18.9491 5.48825 18.4783 6.18735 18.1704 6.96355C17.8624 7.73974 17.7249 8.57403 17.7675 9.40731C18.1193 10.0116 19.1938 11.173 22.2301 11.4611C26.3376 11.8414 28.134 4.92553 24.059 3.40764Z" fill="white"/>
<path opacity="0.29" d="M20.6263 6.99298C20.2042 7.75316 19.5455 8.19241 19.1788 7.99096C18.8121 7.7895 18.842 6.98392 19.2664 6.22422C19.6908 5.46453 20.338 5.02288 20.7114 5.23796C21.0849 5.45305 21.0507 6.23329 20.6263 6.99298Z" fill="white"/>
<g style="mix-blend-mode:multiply" opacity="0.14">
<path d="M26.8102 13.4664C27.6086 12.8067 28.2159 11.9372 28.5655 10.953C28.915 9.96874 28.9935 8.90777 28.7923 7.88612C28.5911 6.86448 28.118 5.92152 27.4247 5.16043C26.7314 4.39933 25.8446 3.84943 24.8614 3.57088C28.9229 5.27912 28.6135 10.7798 26.1925 12.293C23.7716 13.8062 18.3752 11.7012 18.3752 11.7012C20.9733 13.0548 23.8873 13.6647 26.8102 13.4664Z" fill="#231F20"/>
</g>
</g>
<defs>
<clipPath id="clip0_1_31">
<rect width="33.9843" height="38.417" fill="white" transform="translate(7.86914) rotate(11.8197)"/>
</clipPath>
</defs>
</svg>
