<svg width="15" height="15" viewBox="0 0 15 15" fill="none" xmlns="http://www.w3.org/2000/svg">
<path d="M14.3009 11.0006C13.7394 9.99 12.2928 8.77563 11.6956 8.24719C11.5322 8.10251 11.5147 7.85219 11.6634 7.69219C12.8031 6.4675 13.7147 5.06032 14.0284 4.21C14.1669 3.83438 13.8803 3.4375 13.4766 3.4375H12.3037C11.9172 3.4375 11.6909 3.57625 11.5831 3.79719C10.6359 5.73813 9.82344 6.57813 9.25469 7.06907C8.93625 7.34407 8.43969 7.11626 8.43969 6.69782C8.43969 5.89157 8.43969 4.84938 8.43969 4.11032C8.43969 3.75188 8.14656 3.46188 7.785 3.46188L5.6425 3.4375C5.37281 3.4375 5.21875 3.74282 5.38062 3.95688L5.73437 4.46469C5.8675 4.64063 5.93937 4.85469 5.93937 5.07438L5.9375 7.36125C5.9375 7.75907 5.45531 7.95344 5.16906 7.67469C4.20062 6.73157 3.36031 4.80563 3.05781 3.88469C2.97031 3.61813 2.72062 3.43813 2.4375 3.4375L1.28219 3.43469C0.848749 3.43469 0.531874 3.84563 0.649687 4.25938C1.70531 7.96469 3.87125 11.4897 7.73125 11.8719C8.11156 11.9094 8.43969 11.6031 8.43969 11.2241V10.0222C8.43969 9.6775 8.71 9.38125 9.0575 9.3725C9.06969 9.37219 9.08187 9.37219 9.09406 9.37219C10.115 9.37219 11.2584 10.8581 11.6584 11.5531C11.7734 11.7531 11.9884 11.875 12.2209 11.875H13.775C14.2284 11.875 14.5194 11.3941 14.3009 11.0006Z" fill="white"/>
</svg>
