<svg width="91" height="91" viewBox="0 0 91 91" fill="none" xmlns="http://www.w3.org/2000/svg">
<path d="M46.9159 0.0206105C23.6203 -0.679042 3.44155 16.5164 0.392965 39.0788C-2.94162 63.748 15.4057 85.9444 37.9795 89.4995C66.0577 93.9214 93.292 68.3403 90.8468 40.5884C89.0045 19.6797 70.5963 0.732005 46.9159 0.0206105Z" fill="white"/>
<path d="M25.8977 76.5159C23.0237 73.8732 21 70.4111 19.6277 66.7545C18.2554 63.0979 17.4961 59.2443 16.8471 55.3907C16.0855 50.8692 15.4636 46.3277 14.9814 41.7661" stroke="#499280" stroke-width="0.67" stroke-linecap="round" stroke-linejoin="round"/>
<path d="M14.9885 41.9126C13.4774 39.4059 12.7036 36.5217 12.7564 33.5927C12.743 33.0367 12.8467 32.4841 13.0606 31.971C13.1096 31.8671 13.1797 31.7746 13.2663 31.6995C13.353 31.6243 13.4543 31.568 13.5638 31.5343C13.6734 31.5007 13.7887 31.4903 13.9025 31.5038C14.0162 31.5174 14.1259 31.5546 14.2246 31.6131C14.3366 31.6862 14.4287 31.7861 14.4928 31.9038C14.6862 32.3001 14.8024 32.7298 14.8353 33.1699C15.2227 36.0684 15.2741 39.0022 14.9885 41.9126Z" fill="#27725D"/>
<path d="M15.1396 43.3301C15.72 40.9015 16.9728 38.687 18.7536 36.9418C19.0779 36.5965 19.4713 36.3238 19.908 36.1418C19.9995 36.1081 20.0969 36.094 20.1942 36.1004C20.2914 36.1067 20.3862 36.1333 20.4726 36.1786C20.5589 36.2238 20.6349 36.2866 20.6957 36.3631C20.7564 36.4395 20.8005 36.5278 20.8253 36.6223C20.8538 36.7334 20.8538 36.8499 20.8253 36.9611C20.7069 37.3174 20.5216 37.6477 20.2792 37.9341C18.7798 39.926 17.0551 41.7368 15.1396 43.3301Z" fill="#499280"/>
<path d="M15.1415 43.2266C12.72 42.6446 10.5122 41.3868 8.77331 39.5989C8.42893 39.2746 8.1571 38.8808 7.97579 38.4433C7.92782 38.3248 7.91399 38.1952 7.9359 38.0692C7.95782 37.9432 8.01458 37.8259 8.09972 37.7308C8.18486 37.6356 8.29496 37.5663 8.41744 37.5309C8.53993 37.4954 8.66988 37.4952 8.79247 37.5303C9.14717 37.6514 9.47615 37.838 9.76243 38.0805C11.7481 39.5811 13.5532 41.308 15.1415 43.2266Z" fill="#499280"/>
<path d="M20.2285 68.3281C20.7219 65.8391 22.0678 63.4294 24.0604 61.4618C24.4361 61.0599 24.8848 60.7337 25.3825 60.5008C25.8351 60.3134 26.386 60.4695 26.5273 60.8563C26.5668 60.9658 26.5726 61.0846 26.544 61.1975C26.4204 61.5803 26.2235 61.9353 25.9644 62.2426C24.2832 64.4781 22.3594 66.5191 20.2285 68.3281Z" fill="#499280"/>
<path d="M20.2811 68.3016C17.4344 68.0881 14.6916 67.1378 12.3203 65.5436C11.8932 65.2807 11.5319 64.9232 11.2641 64.4985C11.2229 64.4011 11.2036 64.2959 11.2075 64.1903C11.2114 64.0847 11.2384 63.9812 11.2867 63.8872C11.3349 63.7932 11.4031 63.711 11.4866 63.6464C11.57 63.5818 11.6666 63.5364 11.7694 63.5134C11.9011 63.4731 12.0398 63.4608 12.1766 63.4774C12.6013 63.5451 13.0113 63.6857 13.3884 63.893C15.8482 65.0903 18.1612 66.5697 20.2811 68.3016Z" fill="#27725D"/>
<path d="M23.0664 73.2435C23.1957 70.7113 24.1801 68.131 25.8685 65.8943C26.1843 65.445 26.5816 65.0595 27.0396 64.7579C27.4612 64.5056 28.0288 64.5825 28.2371 64.9453C28.2925 65.0472 28.3151 65.1639 28.3018 65.2792C28.2367 65.6764 28.0925 66.0563 27.8779 66.3964C26.5333 68.8514 24.9194 71.148 23.0664 73.2435Z" fill="#499280"/>
<path d="M23.1269 73.3014C20.2787 73.5037 17.4268 72.9615 14.8499 71.7277C14.389 71.5292 13.9794 71.2276 13.6524 70.846C13.5977 70.7558 13.5635 70.6546 13.5521 70.5496C13.5407 70.4446 13.5524 70.3384 13.5865 70.2385C13.6205 70.1386 13.676 70.0474 13.7491 69.9713C13.8221 69.8953 13.911 69.8363 14.0093 69.7985C14.134 69.7402 14.2693 69.7083 14.4068 69.7048C14.8374 69.7119 15.2635 69.7931 15.6666 69.9451C18.2743 70.7709 20.7778 71.8972 23.1269 73.3014Z" fill="#499280"/>
<path d="M15.7021 47.8346C16.7564 45.5728 18.428 43.6569 20.5232 42.3089C20.9098 42.0354 21.3497 41.8471 21.8141 41.7563C21.9106 41.7418 22.0092 41.7477 22.1033 41.7736C22.1974 41.7996 22.2851 41.845 22.3607 41.907C22.4363 41.969 22.4981 42.0462 22.5421 42.1337C22.5862 42.2211 22.6115 42.3168 22.6164 42.4146C22.6183 42.529 22.5919 42.642 22.5398 42.7437C22.3505 43.0679 22.1028 43.3538 21.8093 43.587C19.9431 45.2337 17.8938 46.6589 15.7021 47.8346Z" fill="#499280"/>
<path d="M15.7264 47.7435C13.2399 47.6097 10.8419 46.7726 8.80976 45.329C8.41245 45.0722 8.07374 44.7341 7.81585 44.3368C7.76614 44.2528 7.73445 44.1594 7.7228 44.0625C7.71115 43.9655 7.71981 43.8672 7.74821 43.7738C7.77661 43.6804 7.82414 43.594 7.88775 43.5201C7.95136 43.4462 8.02966 43.3864 8.11762 43.3446C8.22247 43.2994 8.3369 43.2812 8.45052 43.2917C8.82095 43.3452 9.1778 43.4692 9.50191 43.6569C11.7273 44.773 13.8161 46.1444 15.7264 47.7435Z" fill="#27725D"/>
<path d="M16.3828 52.6902C17.5926 50.0969 19.5089 47.8997 21.9104 46.3524C22.3533 46.0384 22.8579 45.823 23.3905 45.7205C23.5009 45.704 23.6136 45.7107 23.7213 45.7404C23.829 45.77 23.9294 45.8219 24.0159 45.8927C24.1025 45.9634 24.1734 46.0516 24.224 46.1514C24.2747 46.2513 24.304 46.3606 24.3101 46.4725C24.3126 46.6045 24.2822 46.735 24.2215 46.8521C24.0039 47.2218 23.7196 47.5476 23.3833 47.8131C21.2462 49.7055 18.8969 51.3422 16.3828 52.6902Z" fill="#27725D"/>
<path d="M16.4112 52.5918C13.5605 52.4383 10.8114 51.4788 8.48145 49.8241C8.02627 49.5294 7.63854 49.1413 7.34385 48.6853C7.2873 48.5885 7.25149 48.481 7.23869 48.3695C7.22589 48.2581 7.23639 48.1452 7.26951 48.038C7.30264 47.9309 7.35766 47.8318 7.43108 47.7472C7.50449 47.6626 7.59469 47.5942 7.6959 47.5465C7.81694 47.4959 7.94858 47.4761 8.0791 47.4889C8.50092 47.5514 8.90719 47.6932 9.27658 47.9069C11.8276 49.186 14.2219 50.7582 16.4112 52.5918Z" fill="#499280"/>
<path d="M17.1895 57.3774C18.5233 54.7395 20.572 52.5328 23.1002 51.0108C23.5771 50.6927 24.1131 50.4745 24.6761 50.3693C24.79 50.3488 24.9069 50.3524 25.0194 50.3797C25.1318 50.4071 25.2374 50.4576 25.3293 50.5281C25.4212 50.5987 25.4975 50.6876 25.5533 50.7893C25.609 50.891 25.6431 51.0032 25.6532 51.1189C25.6551 51.2517 25.622 51.3826 25.5574 51.4985C25.3205 51.8722 25.0159 52.1982 24.6593 52.4595C22.3612 54.3748 19.8555 56.0245 17.1895 57.3774Z" fill="#499280"/>
<path d="M17.2185 57.2791C14.2187 57.152 11.309 56.2131 8.79786 54.5618C8.32355 54.2737 7.91544 53.888 7.60038 53.4303C7.5415 53.3321 7.50454 53.2222 7.49204 53.1083C7.47955 52.9944 7.49183 52.8791 7.52802 52.7704C7.56421 52.6617 7.62347 52.5622 7.7017 52.4787C7.77993 52.3952 7.87528 52.3297 7.98118 52.2867C8.11045 52.2354 8.24981 52.2148 8.38832 52.2266C8.83652 52.2854 9.27053 52.4245 9.66963 52.6374C12.3531 53.8927 14.8857 55.4499 17.2185 57.2791Z" fill="#27725D"/>
<path d="M18.2988 62.7952C19.635 60.1582 21.6842 57.9518 24.212 56.4285C24.689 56.1112 25.225 55.8938 25.7879 55.7895C25.9018 55.769 26.0187 55.7726 26.1311 55.7999C26.2436 55.8273 26.3491 55.8778 26.4411 55.9483C26.533 56.0188 26.6092 56.1078 26.665 56.2095C26.7208 56.3112 26.7548 56.4234 26.765 56.539C26.7669 56.6711 26.7338 56.8012 26.6692 56.9162C26.432 57.2898 26.1274 57.6157 25.7711 57.8772C23.4724 59.7929 20.9658 61.4426 18.2988 62.7952Z" fill="#499280"/>
<path d="M18.3291 62.6991C15.3281 62.5685 12.4183 61.6254 9.90843 59.9699C9.43348 59.6816 9.02525 59.295 8.71096 58.8359C8.64992 58.7386 8.61076 58.6292 8.59622 58.5152C8.58167 58.4011 8.59209 58.2853 8.62675 58.1758C8.66141 58.0662 8.71947 57.9655 8.79688 57.8808C8.8743 57.7961 8.9692 57.7293 9.07499 57.6851C9.20426 57.6338 9.34361 57.6133 9.48213 57.6251C9.93042 57.6834 10.3645 57.8226 10.7634 58.0359C13.4538 59.2968 15.9921 60.8613 18.3291 62.6991Z" fill="#499280"/>
<path d="M13.4434 72.5156C18.6189 74.267 23.7153 79.024 25.1571 84.3095C23.4423 84.4272 21.5838 83.6512 20.1924 82.6422C17.1316 80.4223 14.4205 76.1842 13.4434 72.5156Z" fill="#499280"/>
<path d="M13.5156 72.5806L18.0205 77.6643" stroke="#27725D" stroke-linecap="round" stroke-linejoin="round"/>
<path d="M10.1719 76.9818C15.6348 76.8737 22.0341 79.6246 25.1739 84.1028C23.6004 84.7972 21.5815 84.6987 19.9385 84.2206C16.3102 83.1707 12.3249 80.0931 10.1719 76.9818Z" fill="#27725D"/>
<path d="M10.2725 76.9841C14.5379 79.8671 19.5218 82.1303 24.4219 83.6871" stroke="#125943" stroke-linecap="round" stroke-linejoin="round"/>
<path d="M33.3232 37.3888L62.8289 18.7156L71.8179 25.4503C67.1868 27.019 62.1648 28.7686 57.5337 30.3373C55.6041 30.9909 53.6745 31.6445 51.7874 32.4037C50.0683 33.0976 48.3843 33.8769 46.6501 34.533C42.3624 36.1545 37.8967 37.3888 33.3232 37.3888Z" fill="#F3F3F3"/>
<path d="M36.7793 36.4913C46.3372 31.2323 55.8399 25.8852 65.2875 20.4502" stroke="#CCCEBA" stroke-width="0.88" stroke-linecap="round" stroke-linejoin="round"/>
<path d="M37.0293 36.3556C37.0293 36.3556 55.3732 28.4268 68.2265 22.8284" stroke="#CCCEBA" stroke-width="0.88" stroke-linecap="round" stroke-linejoin="round"/>
<path d="M30.6468 37.512C33.6156 33.1395 36.7063 28.8592 39.919 24.671V13.3409L39.8238 13.2454C35.1074 21.4643 30.8262 29.9269 26.998 38.598" fill="#E3E5D6"/>
<path d="M39.8639 13.1675C38.5081 12.4133 35.1551 11.6189 35.1551 11.6189C31.5289 19.2435 27.9829 27.1296 24.6299 34.8749C25.2839 35.0961 27.5669 36.1017 28.1132 36.2048C28.2536 35.9785 36.0948 20.6765 39.8639 13.1675Z" fill="#F3F3F3"/>
<path d="M26.3311 34.7893C29.8144 27.2158 33.4899 19.7336 37.3575 12.3428" stroke="#CCCEBA" stroke-width="0.88" stroke-linecap="round" stroke-linejoin="round"/>
<path d="M26.9355 35.3503L33.0928 23.9146" stroke="#CCCEBA" stroke-width="0.88" stroke-linecap="round" stroke-linejoin="round"/>
<path d="M34.5762 21.2772C35.8768 19.0927 37.9793 15.1685 39.1246 12.8984" stroke="#CCCEBA" stroke-width="0.88" stroke-linecap="round" stroke-linejoin="round"/>
<path d="M30.6006 36.602C36.5047 28.6078 43.3461 20.3672 49.5535 12.6094C49.5535 16.9735 49.5885 22.7404 49.581 27.1045C44.2207 30.4002 33.9937 37.0796 33.9937 37.0796" fill="#E3E5D6"/>
<path d="M49.5535 12.6093L48.4509 12.3655L29.2148 36.3857L30.3626 36.9614L49.5535 12.6093Z" fill="#F3F3F3"/>
<path d="M30.082 36.2326C30.082 36.2326 48.6665 12.8106 48.8194 12.6221" stroke="#CCCEBA" stroke-width="0.88" stroke-linecap="round" stroke-linejoin="round"/>
<path d="M34.0732 35.1817C38.8413 29.9678 43.6119 24.7549 48.385 19.5427" stroke="#CCCEBA" stroke-width="0.88" stroke-linecap="round" stroke-linejoin="round"/>
<path d="M41.251 30.1035L47.0423 24.0752" stroke="#CCCEBA" stroke-width="0.88" stroke-linecap="round" stroke-linejoin="round"/>
<path d="M38.7533 36.2775L72.2084 24.2938C72.2809 24.27 72.358 24.2638 72.4334 24.2756C72.5088 24.2874 72.5804 24.317 72.6422 24.3618C72.704 24.4067 72.7544 24.4656 72.7892 24.5337C72.824 24.6019 72.8422 24.6773 72.8424 24.7539V76.711C72.8425 76.9079 72.7825 77.1002 72.6705 77.262C72.5585 77.4237 72.3999 77.5473 72.2159 77.616L38.9087 90.1327L37.7158 89.3785" fill="#0064AC"/>
<path d="M40.0791 37.384L71.8552 25.8025" stroke="#003768" stroke-width="0.88" stroke-linecap="round" stroke-linejoin="round"/>
<path d="M71.8552 25.8025L71.6697 76.4801L40.0791 88.5392V37.3815" stroke="#003768" stroke-width="0.88" stroke-linecap="round" stroke-linejoin="round"/>
<path opacity="0.4" d="M43.2324 41.4639L69.1069 32.6401V40.5086L43.2324 49.5511V41.4639Z" fill="#003768"/>
<path opacity="0.4" d="M43.2324 51.4641L69.1069 42.6404V44.2568L43.2324 53.3018V51.4641Z" fill="#003768"/>
<path d="M69.4717 26.8027C69.7223 28.0069 70.5618 28.844 71.7897 28.8767" stroke="#003768" stroke-width="0.88" stroke-linecap="round" stroke-linejoin="round"/>
<path d="M40.2764 40.6392C40.6837 40.5191 41.063 40.3184 41.3917 40.0489C41.7204 39.7793 41.992 39.4464 42.1903 39.0698C42.3887 38.6933 42.5097 38.2806 42.5464 37.8563C42.5831 37.432 42.5347 37.0046 42.404 36.5994" stroke="#003768" stroke-width="0.88" stroke-linecap="round" stroke-linejoin="round"/>
<path d="M40.209 84.6148C40.592 84.5253 40.9906 84.5262 41.3733 84.6173C41.7559 84.7085 42.1123 84.8874 42.4144 85.14C42.7165 85.3926 42.9561 85.7121 43.1144 86.0733C43.2726 86.4345 43.3452 86.8276 43.3264 87.2217" stroke="#003768" stroke-width="0.88" stroke-linecap="round" stroke-linejoin="round"/>
<path d="M69.0528 77.4829C68.8423 75.7961 69.4488 73.712 71.6641 72.895" stroke="#003768" stroke-width="0.88" stroke-linecap="round" stroke-linejoin="round"/>
<path d="M44.7881 74.5917C44.7881 74.5917 44.9585 37.826 44.5375 35.0607C44.2869 33.3714 43.0765 32.1873 42.0866 31.853C42.0581 31.8431 42.033 31.8251 42.0143 31.8013C41.9956 31.7775 41.9841 31.7488 41.9812 31.7186C41.9783 31.6884 41.9841 31.658 41.9979 31.631C42.0117 31.6041 42.0329 31.5816 42.0591 31.5664L43.7832 30.5081C43.8065 30.4963 43.8323 30.4902 43.8584 30.4902C43.8845 30.4902 43.9102 30.4963 43.9335 30.5081C47.1387 31.853 46.7929 36.4534 46.7929 36.4534L46.7302 73.9104L45.6852 72.9049L44.7881 74.5917Z" fill="#DC849E"/>
<path d="M23.6094 33.907L34.122 11.1965C34.1561 11.1219 34.2162 11.0624 34.2909 11.029C34.3657 10.9957 34.45 10.9909 34.528 11.0155L34.9866 11.1588C35.0325 11.1727 35.0748 11.1964 35.1108 11.2281C35.1468 11.2598 35.1757 11.2989 35.1954 11.3427C35.2151 11.3865 35.2252 11.434 35.2251 11.4821C35.2249 11.5302 35.2145 11.5776 35.1946 11.6214L24.6243 34.8849L23.6094 33.907Z" fill="#003768"/>
<path d="M38.9136 90.1531V36.2175C36.2949 36.8111 33.5929 36.9412 30.9295 36.6021C28.1955 36.2477 25.4815 35.3779 23.6045 33.9072V85.1253C23.6045 88.5567 27.9073 89.8816 30.2529 90.1028C33.1248 90.3843 36.2899 90.5553 38.9136 90.1531Z" fill="#003768"/>
<path d="M31.1755 77.7494C33.5435 77.7494 35.4632 71.5276 35.4632 63.8526C35.4632 56.1776 33.5435 49.9558 31.1755 49.9558C28.8074 49.9558 26.8877 56.1776 26.8877 63.8526C26.8877 71.5276 28.8074 77.7494 31.1755 77.7494Z" fill="#0064AC"/>
<path d="M23.9082 38.8169C28.9235 40.9778 34.4342 41.7153 39.8388 40.9487" stroke="#0064AC" stroke-width="0.84" stroke-linecap="round" stroke-linejoin="round"/>
<path d="M23.6797 41.8965C28.6919 44.0558 34.199 44.7932 39.6003 44.0283" stroke="#0064AC" stroke-width="0.84" stroke-linecap="round" stroke-linejoin="round"/>
<path d="M23.9082 80.7283C28.9237 82.8885 34.4345 83.625 39.8388 82.8575" stroke="#0064AC" stroke-width="0.84" stroke-linecap="round" stroke-linejoin="round"/>
<path d="M23.6797 83.8079C28.6922 85.9664 34.1992 86.7029 39.6003 85.9371" stroke="#0064AC" stroke-width="0.84" stroke-linecap="round" stroke-linejoin="round"/>
<path d="M80.6849 60.5513C75.9884 63.3526 71.996 69.0705 71.6895 74.5434C73.3923 74.3032 75.0424 73.15 76.1968 71.8695C78.7258 69.0585 80.4909 64.3328 80.6849 60.5513Z" fill="#499280"/>
<path d="M80.5751 60.7219C79.3968 63.0283 78.1107 65.2763 76.7168 67.4657" stroke="#27725D" stroke-linecap="round" stroke-linejoin="round"/>
<path d="M84.8131 64.2344C79.4508 65.2747 73.7652 69.3012 71.6289 74.3441C73.3054 74.6925 75.2573 74.1735 76.7733 73.3615C80.1023 71.574 83.357 67.7276 84.8131 64.2344Z" fill="#27725D"/>
<path d="M84.7034 64.2993C81.9141 66.4744 79.1751 68.7111 76.4863 71.0095" stroke="#125943" stroke-linecap="round" stroke-linejoin="round"/>
<path d="M84.5547 71.6196C80.318 70.5144 74.8192 71.4586 71.5381 74.3657C72.6374 75.2017 74.2204 75.4996 75.5975 75.4372C78.62 75.2954 82.2986 73.6425 84.5547 71.6196Z" fill="#499280"/>
<path d="M71.9404 74.2959C76.1093 73.8122 80.2166 72.8935 84.1954 71.5547" stroke="#27725D" stroke-linecap="round" stroke-linejoin="round"/>
<path d="M40.5527 33.0512C40.5527 29.8967 41.8532 26.156 42.6507 23.1048C43.382 20.2947 43.5288 17.3637 43.0818 14.4942C42.5645 11.2052 41.2688 7.99067 41.4963 4.67041" stroke="#499280" stroke-width="0.88" stroke-linecap="round" stroke-linejoin="round"/>
<path d="M40.8498 29.9615C40.4855 29.9352 40.1346 29.8134 39.8319 29.6083C38.8179 29.0023 37.949 28.1801 37.2869 27.1999C36.6247 26.2197 36.1854 25.1054 36 23.936C36.958 23.8303 37.9016 24.318 38.5458 25.0268C39.1901 25.7355 39.5948 26.6244 39.9828 27.4989C40.3708 28.3734 40.4642 29.1086 40.8498 29.9615Z" fill="#499280"/>
<path d="M46.7154 24.7048C45.4302 25.0527 44.2409 25.6899 43.2379 26.5678C42.2349 27.4458 41.4445 28.5415 40.9268 29.7717C41.549 29.838 42.1771 29.7246 42.7373 29.445C44.536 28.6281 46.1214 26.5956 46.7154 24.7048Z" fill="#27725D"/>
<path d="M41.7715 25.9469C41.3837 25.7229 41.0474 25.4191 40.7848 25.0556C39.2814 23.172 38.4111 20.8591 38.2988 18.4487C39.3598 18.8427 40.0927 19.7485 40.586 20.7695C41.4817 22.6123 41.6302 23.9024 41.7715 25.9469Z" fill="#27725D"/>
<path d="M47.5194 20.9883L46.0824 21.6826C45.5017 21.9437 44.9454 22.2565 44.4203 22.6172C43.3138 23.4268 42.5666 24.6281 41.8457 25.7981C44.2287 25.2912 46.5614 23.2178 47.5194 20.9883Z" fill="#499280"/>
<path d="M43.1277 20.9713L41.2118 18.6265C40.671 17.9961 40.1786 17.3255 39.7389 16.6204C38.7751 14.9661 38.4177 13.0261 38.7282 11.1355C39.9575 11.8197 40.9393 12.8769 41.5327 14.1554C41.9925 15.1164 42.2129 16.188 42.426 17.2379C42.6823 18.4992 42.8667 19.698 43.1277 20.9713Z" fill="#499280"/>
<path d="M49.4356 12.123C47.8509 12.4714 46.449 13.3913 45.4958 14.7081C44.7606 15.7316 44.3343 16.9425 43.92 18.1317C43.6597 18.8733 43.4003 19.6157 43.1416 20.3588C44.6456 19.5492 46.0682 18.7996 47.249 17.5623C48.4297 16.325 49.3254 13.8312 49.4356 12.123Z" fill="#27725D"/>
<path d="M47.6249 7.73364C46.3412 8.39433 45.0168 9.12229 44.2097 10.3235C43.4912 11.4023 43.2517 12.726 43.0625 14.021C45.0521 12.3116 46.6147 10.1582 47.6249 7.73364Z" fill="#499280"/>
<path d="M44.8857 3.00781C43.9564 3.48831 42.9984 4.01206 42.4141 4.88176C41.8896 5.66258 41.7291 6.62598 41.583 7.55575C43.2571 6.78214 44.5504 5.40791 44.8857 3.00781Z" fill="#27725D"/>
<path d="M42.4906 12.0077C41.2909 11.7296 40.2111 11.0747 39.4082 10.1383C38.6053 9.20195 38.1212 8.03297 38.0264 6.80151C38.583 7.07405 39.0791 7.45647 39.4849 7.92589C40.6471 9.16006 41.6563 10.5306 42.4906 12.0077Z" fill="#27725D"/>
<path d="M41.8417 0C41.3236 0.67345 40.9597 1.45311 40.7759 2.28357C40.5921 3.11402 40.5929 3.9749 40.7783 4.805C40.9723 5.64588 41.3531 6.4339 41.5447 7.27478C42.0922 6.09166 42.3664 4.79986 42.347 3.49564C42.3135 2.19348 42.0692 1.28053 41.8417 0Z" fill="#499280"/>
<path d="M33.3271 30.9167C32.0578 23.4906 34.0264 24.5645 34.2132 16.8453C34.2779 14.2458 32.9511 14.2458 33.1619 6.86768" stroke="#27725D" stroke-width="0.88" stroke-linecap="round" stroke-linejoin="round"/>
<path d="M30.6953 2.72345C30.6953 2.72345 30.7145 5.69775 31.3563 6.91341C31.5647 7.31255 31.8966 7.63304 32.3022 7.82671C32.7077 8.02037 33.165 8.07674 33.6052 7.98733C35.7319 7.48761 35.2385 3.93671 35.1236 2.42554L30.6953 2.72345Z" fill="#E0638A"/>
<path d="M33.131 4.81597C33.1477 4.00392 32.9849 3.00448 32.5394 2.32698C32.4067 2.11909 32.2282 1.94451 32.0177 1.81665C31.8072 1.68878 31.5703 1.61104 31.3252 1.58941C31.0807 1.57562 30.8375 1.63319 30.625 1.75513C30.4125 1.87707 30.2398 2.05817 30.1277 2.27652C30.0167 2.54527 29.9771 2.83831 30.0127 3.12701C30.0534 3.60751 30.8462 6.26948 31.0833 6.68271C31.5623 6.81725 32.0412 6.94218 32.5202 7.07672" fill="#E0638A"/>
<path d="M33.2558 4.80634C33.1023 3.99058 33.1914 3.14753 33.5121 2.38221C33.6155 2.15831 33.7689 1.96126 33.9603 1.8063C34.1517 1.65133 34.3761 1.54259 34.6162 1.48848C34.8578 1.44115 35.108 1.46522 35.3363 1.55777C35.5646 1.65031 35.7612 1.80735 35.9022 2.00982C36.0468 2.25884 36.1251 2.54095 36.1298 2.82908C36.1537 3.30958 35.361 6.34394 35.1718 6.7836C34.7369 6.78102 34.3119 6.91363 33.9551 7.16319" fill="#E0638A"/>
<path d="M34.0983 2.58888C34.2215 2.33271 34.2417 2.0388 34.1548 1.76806C34.0679 1.49732 33.8805 1.2705 33.6314 1.1346C33.3823 0.998698 33.0907 0.964139 32.8169 1.03808C32.5431 1.11202 32.3081 1.2888 32.1607 1.53178C32.0616 1.68111 32.0168 1.86012 32.0338 2.0387C32.0892 2.27459 32.2144 2.48816 32.393 2.65134C32.6941 2.75131 33.0078 2.80794 33.3247 2.81952C33.6432 2.82913 33.9737 2.87477 34.0983 2.58888Z" fill="#E0638A"/>
<path d="M32.8414 7.48767C31.8691 5.70501 31.9984 3.45387 31.917 1.96191" stroke="#C93A6E" stroke-width="0.75" stroke-linecap="round" stroke-linejoin="round"/>
<path d="M33.5479 7.46349C33.9485 5.63423 34.1382 3.76482 34.1131 1.89209" stroke="#C93A6E" stroke-width="0.75" stroke-linecap="round" stroke-linejoin="round"/>
<path d="M33.1689 8.29013C32.8823 8.28553 32.6009 8.21309 32.3475 8.07872C32.1087 7.94335 31.8889 7.77693 31.6936 7.5838C31.4008 7.35427 31.1859 7.03961 31.0781 6.68286C31.5157 6.79783 31.9259 6.99921 32.2849 7.27519C32.644 7.55117 32.9445 7.89622 33.1689 8.29013Z" fill="#27725D"/>
<path d="M32.9971 8.26352C33.0929 7.99037 33.2512 7.74353 33.4593 7.54277C33.664 7.35914 33.8919 7.20325 34.1371 7.07909C34.4468 6.87376 34.8127 6.77046 35.1837 6.78358C34.9853 7.20452 34.6775 7.56408 34.2928 7.8245C33.908 8.08491 33.4604 8.23657 32.9971 8.26352Z" fill="#27725D"/>
<path d="M33.138 8.355C32.8649 8.14599 32.3835 7.09609 32.9895 6.07983C33.6505 6.9135 33.5427 7.4829 33.138 8.355Z" fill="#27725D"/>
<path d="M57.1996 12.0461C56.5225 12.1024 55.8702 12.3277 55.3021 12.7016C54.734 13.0755 54.2683 13.5861 53.9473 14.1868C55.2358 14.218 56.8476 13.269 57.1996 12.0461Z" fill="#499280"/>
<path d="M56.8299 20.1619C56.1529 20.2196 55.5009 20.4456 54.9327 20.8193C54.3645 21.193 53.898 21.7027 53.5752 22.3025C54.8685 22.3337 56.4803 21.3871 56.8299 20.1619Z" fill="#499280"/>
<path d="M58.2846 17.1299C56.5482 17.226 54.9101 18.0404 54.1006 19.2056C55.7627 19.2249 57.8343 18.3047 58.2846 17.1299Z" fill="#499280"/>
<path d="M58.1863 14.5614C57.7866 14.4362 57.3654 14.3952 56.9491 14.4411C56.5328 14.487 56.1305 14.6187 55.7674 14.8281C55.039 15.2551 54.4702 15.91 54.1484 16.6924C55.9207 16.5363 57.5253 15.6209 58.1863 14.5614Z" fill="#499280"/>
<path d="M53.6068 23.893C53.5542 23.4759 53.4165 23.0742 53.2022 22.7129C52.988 22.3516 52.7017 22.0385 52.3614 21.7932C51.673 21.3042 50.8429 21.0568 50 21.0893C50.867 22.6413 52.3638 23.7272 53.6068 23.893Z" fill="#499280"/>
<path d="M53.8918 20.2746C53.9275 19.8556 53.8768 19.4338 53.7429 19.0353C53.609 18.6369 53.3947 18.2703 53.1135 17.9586C52.5436 17.3373 51.7865 16.9204 50.958 16.7717C51.4825 18.4751 52.7183 19.8517 53.8918 20.2746Z" fill="#499280"/>
<path d="M54.1504 16.8007C54.1225 16.4326 54.0192 16.0743 53.8469 15.7482C53.6747 15.422 53.4372 15.135 53.1493 14.9051C52.5655 14.4467 51.8478 14.1934 51.1064 14.1843C51.8082 15.585 53.0727 16.6012 54.1504 16.8007Z" fill="#499280"/>
<path d="M53.8606 14.266C53.8404 13.9235 53.75 13.5889 53.595 13.283C53.4401 12.9771 53.224 12.7065 52.9601 12.4882C52.4268 12.0547 51.7662 11.809 51.0801 11.7891C51.7052 13.0984 52.8643 14.0618 53.8606 14.266Z" fill="#499280"/>
<path d="M53.8986 11.9331C53.972 13.7734 54.047 15.6153 54.1237 17.4589C54.2243 19.9262 53.2399 22.5498 53.7117 25.1325" stroke="#27725D" stroke-width="0.88" stroke-linecap="round" stroke-linejoin="round"/>
<path d="M51.502 6.73663C51.502 6.73663 51.5211 9.71093 52.163 10.9266C52.371 11.326 52.7029 11.6467 53.1086 11.8404C53.5142 12.0341 53.9716 12.0903 54.4118 12.0005C56.5385 11.5008 56.0452 7.94989 55.9302 6.43872L51.502 6.73663Z" fill="#E0638A"/>
<path d="M53.9378 8.82917C53.9522 8.01712 53.7917 7.01768 53.3462 6.34017C53.2135 6.13229 53.035 5.95771 52.8245 5.82985C52.614 5.70198 52.3771 5.62424 52.132 5.60261C51.8872 5.58874 51.6438 5.64653 51.4312 5.76894C51.2186 5.89136 51.046 6.07313 50.9345 6.29212C50.8232 6.55994 50.7835 6.85229 50.8196 7.14021C50.8603 7.62071 51.653 10.2827 51.8901 10.6959C52.3691 10.8305 52.8481 10.9554 53.3271 11.0899" fill="#E0638A"/>
<path d="M54.0676 8.81952C53.9148 8.00352 54.0048 7.16047 54.3262 6.3954C54.4297 6.1715 54.583 5.97445 54.7745 5.81948C54.9659 5.66451 55.1903 5.55577 55.4303 5.50167C55.672 5.45434 55.9222 5.47841 56.1504 5.57095C56.3787 5.6635 56.5754 5.82054 56.7164 6.02301C56.8613 6.27438 56.9389 6.55911 56.9415 6.84947C56.9631 7.32997 56.1727 10.3643 55.9835 10.804C55.5486 10.8014 55.1236 10.934 54.7669 11.1836" fill="#E0638A"/>
<path d="M54.9049 6.60198C55.0325 6.34536 55.0559 6.0491 54.9702 5.77551C54.8845 5.50193 54.6964 5.27236 54.4454 5.1351C54.1944 4.99784 53.9001 4.9636 53.6244 5.03958C53.3488 5.11556 53.1132 5.29583 52.9674 5.54247C52.8683 5.6918 52.8234 5.87082 52.8404 6.0494C52.8958 6.28529 53.0211 6.49885 53.1997 6.66204C53.5007 6.76201 53.8144 6.81864 54.1313 6.83022C54.4499 6.83022 54.7708 6.88787 54.9049 6.60198Z" fill="#E0638A"/>
<path d="M53.4999 11.4143C52.7935 9.61367 52.5681 7.65922 52.846 5.74438" stroke="#C93A6E" stroke-width="0.75" stroke-linecap="round" stroke-linejoin="round"/>
<path d="M54.3525 11.508C54.6724 9.522 54.8326 7.51344 54.8315 5.50171" stroke="#C93A6E" stroke-width="0.75" stroke-linecap="round" stroke-linejoin="round"/>
<path d="M53.9765 12.3031C53.6899 12.2985 53.4085 12.226 53.1551 12.0917C52.9159 11.957 52.696 11.7905 52.5012 11.5967C52.2078 11.3679 51.9926 11.053 51.8857 10.6958C52.3233 10.8108 52.7336 11.0121 53.0926 11.2881C53.4516 11.5641 53.7521 11.9092 53.9765 12.3031Z" fill="#27725D"/>
<path d="M53.8037 12.2768C53.9001 12.0039 54.0584 11.7572 54.2659 11.556C54.4707 11.3724 54.6985 11.2165 54.9437 11.0923C55.254 10.8882 55.6194 10.785 55.9903 10.7968C55.7919 11.2178 55.4842 11.5773 55.0994 11.8377C54.7147 12.0981 54.2671 12.2498 53.8037 12.2768Z" fill="#27725D"/>
<path d="M53.9446 12.3752C53.6716 12.1638 53.1902 11.1163 53.7961 10.0977C54.4571 10.9265 54.3493 11.4959 53.9446 12.3752Z" fill="#27725D"/>
</svg>
