<svg width="89" height="90" viewBox="0 0 89 90" fill="none" xmlns="http://www.w3.org/2000/svg">
<path d="M88.0378 53.925C89.2061 55.1569 89.1932 56.3686 87.4228 56.9433C86.1013 57.481 84.6144 57.5414 83.3064 58.0908C83.2639 58.1383 83.2189 58.1835 83.1717 58.2263C83.1874 58.2655 83.1955 58.3073 83.1957 58.3495C83.1926 58.4088 83.1771 58.4667 83.1504 58.5196C83.1236 58.5726 83.0861 58.6193 83.0402 58.6569C82.9944 58.6945 82.9412 58.722 82.8841 58.7378C82.827 58.7536 82.7673 58.7573 82.7087 58.7487C81.279 60.5085 79.4766 62.0096 78.5013 64.0842C77.5635 66.0455 77.462 68.1946 76.6196 70.1701C75.4253 72.7399 72.8684 74.9377 69.929 74.8749C65.3262 74.7671 62.5916 70.0222 58.2421 69.1648C56.3358 68.8476 54.4479 69.421 52.5631 69.6311C50.6833 69.8812 48.7696 69.8393 46.9125 69.4463C44.3162 68.8827 41.7507 68.0603 39.4311 66.7471C36.9713 65.2176 35.1265 63.3882 32.0408 63.2176C29.9401 62.9866 27.8592 63.4473 25.7776 63.6586C23.7791 63.7966 21.7331 63.7997 19.777 63.3223C18.7083 63.1375 12.1124 60.2424 12.6732 59.3308C11.4827 58.9914 10.9791 57.598 9.70678 57.3849C8.78437 57.0221 7.65288 57.048 6.79996 56.5355C6.74748 56.5419 6.69441 56.5419 6.64192 56.5355C4.77497 55.776 6.92664 53.9373 7.55818 53.0134C8.97685 51.1778 10.5216 49.4463 12.014 47.6716C14.4381 45.0026 16.8106 42.2462 19.5108 39.8488C19.7678 39.2267 21.5481 38.145 21.8248 37.7933C23.589 36.2644 25.9037 35.6134 27.9299 34.5625C30.009 33.1729 31.2161 30.2002 34.11 30.3739C34.8523 30.3468 35.5748 30.4915 36.2968 30.6363C36.7571 30.5163 37.2243 30.4243 37.6957 30.361C38.1735 30.361 39.3561 29.9033 39.6863 30.2926C41.3466 29.5534 42.3656 28.5913 45.2503 29.923C48.0753 31.4777 47.9369 27.9932 50.9612 28.999C51.5921 29.1475 52.2218 29.3027 52.8546 29.445C52.8927 29.4119 52.9372 29.3872 52.9854 29.3726C53.0337 29.3579 53.0844 29.3536 53.1344 29.36L53.2715 29.3692C53.2581 29.3134 53.2538 29.2558 53.2586 29.1986C53.2796 29.0962 53.3399 29.0062 53.4265 28.9479C53.5131 28.8896 53.6191 28.8677 53.7217 28.8869C55.3125 29.2387 56.9083 29.5707 58.5114 29.8633C60.1761 30.048 61.8456 30.2248 63.4746 30.6357C66.8844 31.2942 70.135 32.6068 72.9016 34.7344C72.9977 34.7427 73.0897 34.7775 73.1672 34.8351C73.2447 34.8926 73.3048 34.9705 73.3407 35.0602C74.6001 35.9842 75.6916 37.1225 76.7112 38.3008C78.6593 40.4894 79.9169 43.167 81.5618 45.5693C82.7917 47.2263 83.8605 48.9923 85.2201 50.5507C86.1031 51.7198 87.0877 52.8082 88.0378 53.925ZM19.3945 60.3096C19.1264 60.2775 18.8565 60.2621 18.5859 60.2449C18.367 60.2406 18.1481 60.2344 17.9291 60.2363C17.9863 60.4488 18.2292 60.4605 18.418 60.4679C18.7495 60.4648 19.0742 60.3878 19.3945 60.3096Z" fill="#C8E6F1"/>
<path d="M70.411 65.1304C70.3814 64.9671 70.3495 64.8045 70.3206 64.6376C70.1539 63.7549 69.9903 62.8704 69.7966 61.9926C69.6312 61.3089 69.5168 60.6178 69.3729 59.9279C69.3527 59.8275 69.333 59.7271 69.3115 59.626C69.3136 59.601 69.3115 59.5758 69.3053 59.5515C69.2967 59.5238 69.2887 59.4967 69.2807 59.4696C69.2463 59.2996 69.21 59.1296 69.1663 58.9614C69.1508 58.8563 69.1085 58.757 69.0433 58.6731C68.9769 58.4452 68.9111 58.2171 68.8459 57.9888C68.6 57.0999 68.354 56.2092 68.0324 55.3438C67.9328 55.0432 67.8479 54.7389 67.7612 54.434C67.6739 54.0539 67.5841 53.6739 67.4808 53.2994C67.4723 53.2737 67.4596 53.2495 67.4433 53.2279C67.4166 53.1191 67.3906 53.0101 67.3652 52.9008C67.3553 52.8472 67.3306 52.7975 67.2938 52.7573C67.1961 52.3662 67.1094 51.9726 67.0165 51.5802C66.4846 49.614 66.0098 47.6324 65.4558 45.6712C65.3715 45.3903 64.9638 45.5147 65.0333 45.7876C65.5603 47.6454 66.0086 49.5241 66.5141 51.3874C66.6371 51.9032 66.7633 52.4165 66.8929 52.9273C66.8929 52.9427 66.8929 52.9581 66.8929 52.9735C66.8997 53.13 66.9052 53.2864 66.9113 53.4429C66.9329 54.3361 66.9113 55.2292 66.9206 56.1211C66.872 57.9586 66.6334 59.793 66.3099 61.6033C66.3001 61.6492 66.3049 61.697 66.3235 61.7401C66.3253 61.7958 66.3428 61.85 66.374 61.8962C66.4053 61.9424 66.4489 61.9788 66.4999 62.0012C67.5927 62.7613 68.6959 63.5017 69.5132 64.5803C69.6079 64.709 69.7019 64.8384 69.7874 64.9739C69.7993 65.0112 69.8205 65.0449 69.8489 65.0718C69.8612 65.0928 69.8735 65.1131 69.8852 65.1334C69.9467 65.2357 69.994 65.41 70.1262 65.455C70.1674 65.4686 70.2117 65.47 70.2537 65.4591C70.2957 65.4482 70.3336 65.4254 70.363 65.3934C70.4325 65.3269 70.4257 65.2221 70.411 65.1304Z" fill="#8DC1D4"/>
<path d="M22.6918 53.0349C22.9126 53.4292 22.9193 53.9028 23.0061 54.3383C22.9968 54.3571 22.9888 54.3764 22.9821 54.3962C23.0436 54.3654 23.1001 54.3346 23.1579 54.3032C24.9579 53.5277 26.4946 52.8773 27.9188 52.3648C27.9182 52.3543 27.9182 52.3438 27.9188 52.3333C27.8745 52.3013 27.8321 52.2718 27.7921 52.2428C27.8567 52.1985 27.92 52.1529 27.9815 52.1061C28.0164 52.0426 28.0649 51.9876 28.1236 51.9453C28.1761 51.905 28.2333 51.8713 28.2939 51.8449C29.1997 51.0182 29.7821 49.8343 30.0453 48.6498C30.3613 47.2602 29.8141 45.8613 28.9458 44.7846C29.1733 44.099 29.3516 43.2582 28.7613 42.6946C28.2269 42.1907 27.4355 42.1402 26.8304 41.7503C25.8514 41.0647 25.1202 40.0995 24.2341 39.2987C24.18 39.2599 24.1252 39.2217 24.0724 39.1817C23.9736 39.1072 23.8709 39.0379 23.7649 38.9741C23.6419 38.9039 23.5189 38.8411 23.3959 38.777C23.2729 38.713 23.15 38.6489 23.0208 38.5922C22.8363 38.5214 22.6519 38.4598 22.4674 38.3957C22.2546 38.3218 22.0412 38.2491 21.8235 38.1906C21.7417 38.1703 21.6606 38.1537 21.5776 38.1389C21.5039 38.1562 21.4264 38.1462 21.3595 38.1106C21.2927 38.075 21.241 38.0163 21.2141 37.9455C21.1891 37.8798 21.1875 37.8076 21.2098 37.741C21.2098 37.736 21.2129 37.7317 21.2147 37.7274L21.2024 37.7237C21.1254 37.7044 21.0583 37.6569 21.0143 37.5907C20.9923 37.5562 20.9774 37.5177 20.9704 37.4774C20.9634 37.4371 20.9646 37.3958 20.9737 37.356C20.9844 37.3107 21.0054 37.2685 21.0352 37.2328C21.0063 37.2235 20.9737 37.2149 20.9448 37.2075C19.991 37.1053 19.0766 37.7453 18.7033 38.6076C18.3645 39.3185 18.4973 40.1278 18.4069 40.8867C18.3522 41.2415 18.1788 41.56 18.006 41.8723C17.6104 42.5753 17.3269 43.336 17.166 44.1267C16.9514 44.938 17.1949 45.7283 17.4913 46.4779C17.3683 46.8684 17.11 47.2023 16.9815 47.5916C16.4053 49.1457 16.674 51.0583 17.7809 52.313C19.0022 53.7088 21.1545 54.1856 22.6918 53.0349Z" fill="#F89393"/>
<path d="M72.7988 70.1215C73.8682 71.7317 73.7501 73.8907 72.9894 75.6037C70.6121 81.1635 58.4633 80.9534 53.2499 80.7267C50.2158 80.5968 47.1669 80.3436 44.1943 79.6993C41.7634 79.1086 39.4476 78.1212 37.1372 77.1775C34.806 76.1304 32.4409 75.1337 30.3268 73.6782C29.181 72.9844 28.1439 72.1249 27.249 71.1274C27.1303 70.9858 26.9606 70.8552 26.8598 70.6962C26.4719 70.309 26.0964 69.9086 25.7332 69.4951C24.0286 67.6355 22.597 65.5584 21.4114 63.3354C21.0799 62.7397 20.7294 62.1435 20.4115 61.5324C19.874 61.2029 19.5057 59.9235 19.2394 59.5243C18.9812 58.9041 18.6472 58.2788 18.6436 57.592C19.1822 55.6893 21.6045 55.1534 23.1584 54.3034C30.1011 51.3103 33.1574 50.1917 40.7906 51.5734C43.2793 52.0366 45.7716 52.6981 48.0309 53.8599C50.0928 54.8867 51.9997 56.2326 54.2067 56.9502C59.6114 58.5332 65.6286 59.8323 69.4818 64.2895C69.9738 64.7466 71.294 67.2166 71.3918 68.4991C71.8752 69.027 72.3966 69.5222 72.7988 70.1215Z" fill="#EA5372"/>
<path d="M49.9342 79.048C49.8666 78.8903 49.7621 78.9501 49.668 79.0098C49.5505 79.0844 49.4558 79.061 49.3667 78.9673L49.2185 79.2137C49.1308 79.1542 49.0401 79.0993 48.9467 79.0493C48.8634 79.0151 48.7779 78.9865 48.6908 78.9636C48.4086 79.04 48.6293 79.3332 48.4565 79.4564C48.74 79.518 48.74 79.518 48.7757 79.7823L48.4387 79.5654H47.8435C47.8348 79.4422 47.8269 79.332 47.8127 79.1256L47.7205 79.3985C47.536 79.4096 47.357 79.247 47.1984 79.2661C47.0397 79.2852 46.8669 79.0813 46.7359 79.3314L46.5582 79.053L46.474 79.1287L45.6444 78.9174L45.535 78.7671L45.428 78.8645L45.1765 78.429L45.1082 78.4616C45.142 78.5559 45.1758 78.6464 45.2201 78.7739C44.9231 78.745 44.6052 79.0468 44.3764 78.6396C44.2663 78.5992 44.1532 78.5673 44.0382 78.5442C43.9497 78.5318 43.85 78.7259 43.775 78.5103L43.6416 78.6335C43.6606 78.6791 43.6791 78.7228 43.6982 78.7671C43.4811 78.6101 43.3692 78.3434 43.0629 78.3507L42.9252 78.4314C42.8908 78.3942 42.8489 78.3648 42.8022 78.3452C42.8161 78.3437 42.8301 78.3437 42.844 78.3452L42.8108 78.174L42.7542 78.1814C42.7539 78.2405 42.7705 78.2984 42.8022 78.3483C42.8489 78.3678 42.8908 78.3973 42.9252 78.4345L42.8458 78.5768L42.6079 78.2657L42.4517 78.4431L42.1596 78.1506L41.8982 78.2423C41.8367 78.1746 41.7648 78.0877 41.6762 77.9867C41.2882 78.1136 41.1535 77.6787 40.8424 77.6227L40.787 77.4601L40.5251 77.7274L40.4384 77.659C40.343 77.8795 40.0147 77.8943 40.0042 78.1672H39.8074C39.8037 78.1426 39.7902 78.1118 39.7988 78.1056C39.9833 77.9245 40.0719 77.6978 40.1297 77.4656L39.5301 76.9802C39.5258 76.9931 39.5104 77.0418 39.492 77.0954C39.3444 77.1705 39.206 77.112 39.0486 77.0547C39.0424 77.0621 39.0578 77.0473 39.0732 77.0326C39.0695 76.9808 39.0658 76.9291 39.0603 76.8589L38.8936 76.8699C38.9314 76.942 38.9843 77.005 39.0486 77.0547C38.9158 77.1287 38.6889 77.1231 38.6452 76.9704C38.5683 76.7024 38.3334 76.7683 38.1766 76.6944C38.0715 76.6439 37.938 76.6642 37.839 76.5533C37.74 76.4425 37.6324 76.4831 37.5524 76.5792C37.2401 76.5275 37.1755 76.0384 36.7985 76.1585L36.3509 75.7082L36.202 75.8043C36.1744 75.8041 36.1471 75.7986 36.1215 75.7883C35.8288 75.5881 35.5551 75.3571 35.1948 75.2721C35.1216 75.2549 35.0675 75.1619 35.0011 75.1076C34.7834 74.9296 34.5626 74.7547 34.3462 74.5748C34.2736 74.5132 34.209 74.4442 34.0688 74.31C34.1229 74.4824 34.1463 74.5564 34.182 74.6722L33.976 74.5711C34.0221 74.7233 34.0596 74.8459 34.102 74.9851C34.3154 75.0541 34.4298 75.2653 34.6456 75.4409C34.5626 75.4511 34.4789 75.454 34.3953 75.4495C34.3591 75.444 34.3295 75.3984 34.2963 75.3701L34.198 75.4563C34.1155 75.423 34.0135 75.4058 33.9428 75.3491C33.7583 75.2013 33.5935 75.0263 33.3377 75.0091C33.3155 74.7966 32.9865 74.8298 33.0154 74.5551C32.7781 74.69 32.7658 74.419 32.6206 74.3617C32.5038 74.3155 32.4362 74.14 32.3132 73.9699C32.2658 74.0851 32.2424 74.1406 32.2068 74.2268L32.0487 74.1726L31.7942 74.4276L31.7204 74.382C31.7474 74.2878 31.7751 74.1936 31.8052 74.0882C31.6626 73.957 31.4922 74.0882 31.3336 74.0636C31.1319 74.0303 30.9646 73.9318 30.8035 73.8529C30.6553 73.7815 30.568 73.5837 30.4536 73.4408L30.3226 73.5252C30.2595 73.4873 30.1895 73.4621 30.1166 73.4513C30.1098 73.4581 30.1258 73.4439 30.1412 73.4291C30.1375 73.3774 30.1332 73.3256 30.1283 73.2554L29.961 73.2665C29.9996 73.3382 30.0526 73.4011 30.1166 73.4513C30.1203 73.4612 30.1025 73.4932 30.0729 73.5449C29.8011 73.3466 29.5238 73.1821 29.2944 72.9665C29.097 72.7817 28.8234 72.7306 28.6426 72.515C28.4698 72.3062 28.2686 72.1227 28.0449 71.9699C27.8678 71.8467 27.6759 71.7019 27.591 71.466C27.5603 71.3792 27.4588 71.3163 27.3875 71.2449C27.0991 70.9554 26.7996 70.6763 26.5266 70.3751C26.1047 69.9125 25.6829 69.4512 25.2967 68.9584C25.1992 68.8327 25.1284 68.6883 25.0886 68.5342C25.0487 68.3801 25.0406 68.2195 25.0649 68.0622L24.7039 67.5601V67.2041H24.6424C24.632 67.3384 24.6215 67.4727 24.6061 67.6661C24.4979 67.5429 24.418 67.445 24.2913 67.2965L24.1904 66.7988L24.3073 66.6824C24.5366 66.7889 24.4038 67.0101 24.4813 67.2294C24.4957 67.1803 24.5136 67.1323 24.5348 67.0858C24.5625 67.039 24.5963 66.9965 24.632 66.9485L24.509 66.7323L24.9228 66.4046L25.2819 66.7643L25.4578 67.3606C25.3643 67.4647 25.3748 67.5959 25.5624 67.7375C25.6239 67.6076 25.6798 67.4856 25.7536 67.3255C25.8262 67.4351 25.8766 67.5102 25.9239 67.5823C25.9713 67.6544 26.0266 67.7308 26.0783 67.8053L26.1539 67.7295L26.3716 68.149C26.339 68.2414 26.3034 68.3437 26.2708 68.4354L26.716 68.7835V68.3073C26.7573 68.2566 26.8045 68.2111 26.8568 68.1718C26.89 68.1533 26.9417 68.1681 27.0345 68.1681C27.0776 68.2469 27.1391 68.3597 27.219 68.5013C27.2276 68.4853 27.1963 68.5451 27.1618 68.6048H27.0216L26.9275 68.3997C26.842 68.6288 26.938 68.7878 27.0333 68.9541C27.0739 68.8309 27.1126 68.7176 27.1563 68.6048C27.195 68.6252 27.2436 68.6375 27.2627 68.6664C27.3543 68.8161 27.3936 68.9929 27.5086 69.1327C27.5296 69.1592 27.5117 69.2177 27.5117 69.2725C27.6655 69.3526 27.7122 69.5965 27.9539 69.5645L27.9403 69.5768L28.0018 69.6489L28.0295 69.6212C28.0064 69.5999 27.9812 69.581 27.9545 69.5645C27.9502 69.4413 27.9502 69.3077 27.9502 69.2356L27.7171 68.7933L27.4779 68.6319C27.612 68.4755 27.6175 68.3449 27.5222 68.1699C27.4269 67.995 27.4152 67.7813 27.3647 67.5768C27.3749 67.5636 27.3896 67.5548 27.4059 67.5521C27.5781 67.5312 27.4896 67.7462 27.6076 67.7794C27.698 67.8047 27.8112 67.8158 27.8684 67.8761C27.9366 67.9482 27.9569 68.0665 28.0043 68.1804L28.1236 68.1268L28.46 68.4582C28.4489 68.4829 28.4132 68.5666 28.3671 68.6757H28.773C28.6229 68.3178 28.5657 67.9581 28.388 67.6384L28.7717 67.7375C28.8207 67.8477 28.8781 67.954 28.9433 68.0554C28.9845 68.1114 29.0663 68.1379 29.1573 68.194C29.1686 68.1418 29.1735 68.0884 29.1721 68.0351C28.9876 67.9642 29.0607 67.7308 28.9169 67.6377C28.773 67.5447 28.8025 67.384 28.741 67.2583C28.6795 67.1327 28.6414 67.0119 28.5651 66.813V66.5863C28.4925 66.4631 28.4421 66.3627 28.3806 66.274C28.3179 66.1953 28.251 66.12 28.1802 66.0485L28.3234 65.9352C28.3892 66.0664 28.4464 66.1816 28.5079 66.3048C28.7896 66.3664 28.7883 66.63 28.8683 66.8635L29.0097 66.7255C28.8941 66.3424 28.6186 66.1015 28.364 65.8015C28.4304 65.7399 28.4975 65.6839 28.5639 65.6241L28.5928 65.6968L28.6543 65.6241L28.8068 65.7085C28.8142 65.6525 28.8215 65.5946 28.8295 65.5367H29.0048L29.2379 65.7215C29.2532 65.6654 29.2655 65.6186 29.2827 65.5551H29.4519C29.4137 65.6032 29.3904 65.6321 29.367 65.6623C29.4863 65.8299 29.5625 66.0153 29.5244 66.2315H29.7673C29.7728 66.2173 29.7778 66.2032 29.7833 66.1896L29.6099 66.1175C29.6302 66.0602 29.6517 66.0011 29.68 65.921C29.6333 65.7923 29.4777 65.6629 29.549 65.4646C29.7458 65.5478 29.9284 65.6352 29.9967 65.8767H30.453L30.4142 65.9309L30.5987 66.0362C30.5579 66.1044 30.528 66.1786 30.5102 66.2561C30.3478 66.2247 30.2107 66.189 30.068 66.1514L30.3939 66.4822C30.4409 66.4113 30.4798 66.3355 30.5102 66.2561C30.6158 66.3003 30.7149 66.3588 30.8047 66.4298C30.8785 66.4988 30.9142 66.6078 30.9892 66.7427C31.1921 66.7625 31.3754 66.8807 31.3815 67.1739L31.8286 67.384L32.3132 67.9956H32.47C32.5087 68.1804 32.6286 68.3129 32.7159 68.5408C32.7338 68.5857 32.7658 68.5685 32.7639 68.5555C32.7552 68.5134 32.7426 68.4722 32.7264 68.4324C32.711 68.4853 32.6963 68.5383 32.7159 68.5408C33.0037 68.5377 33.0646 68.7872 33.2079 68.9689C33.2393 69.0083 33.2977 69.0268 33.3924 69.0095C33.3358 68.8863 33.2798 68.757 33.222 68.6264C33.3893 68.6701 33.3893 68.6701 33.5295 68.8167C33.4717 69.0255 33.6058 69.1758 33.6464 69.3452L33.5849 69.4124C33.6709 69.5805 33.7515 69.7376 33.8308 69.8947C34.0817 69.9058 33.9981 70.1509 34.0627 70.2747C34.1371 70.4195 34.0424 70.64 34.2582 70.7909L34.4882 70.6954C34.5269 70.6172 34.5632 70.5451 34.602 70.4681C34.4728 70.1959 34.5134 69.8306 34.1863 69.615C34.1678 69.4851 34.1451 69.3249 34.1192 69.1383L34.2164 68.9498C34.372 69.1703 34.5706 69.3674 34.6641 69.6058C34.7686 69.8725 35.0865 69.9138 35.156 70.2218C35.2218 70.0918 35.2679 70 35.3245 69.8891L34.9808 69.7247C34.9242 69.5232 34.7194 69.3477 34.7963 69.0625L34.9605 69.1395L35.145 69.0323C35.3743 69.2867 35.5914 69.5479 35.8312 69.7856C36.0711 70.0234 36.3281 70.2168 36.5636 70.4423C36.7991 70.6677 37.1743 70.6887 37.363 70.9819L37.4442 70.9006C37.7154 71.1291 37.9854 71.357 38.2399 71.5707L38.5382 71.6557C38.7098 71.551 38.6175 71.3595 38.6378 71.1814L38.3193 70.8217C38.3346 70.7897 38.3672 70.7195 38.4072 70.6369L38.5917 70.6252C38.7012 70.7484 38.8506 70.8562 38.9656 71.0619C39.1966 71.1718 39.4155 71.3056 39.6186 71.4611C39.907 71.6828 40.2686 71.803 40.5601 72.0333C40.6351 72.0949 40.7157 72.1436 40.7944 72.1996L40.9789 72.0149C41.0404 72.1454 41.0896 72.2612 41.1443 72.3844C41.1609 72.3376 41.1775 72.289 41.2058 72.2095L41.4229 72.3943C41.4315 72.3376 41.4573 72.2822 41.4407 72.26C41.3552 72.151 41.2046 72.0752 41.2907 71.8769C41.4862 71.9077 41.584 72.0925 41.7267 72.2003C41.8982 72.3296 42.0341 72.5082 42.1663 72.6475H42.3705L42.4793 72.422V72.6869L42.9098 72.9099C42.9209 72.807 42.9332 72.6992 42.951 72.5403L43.2376 72.8273L43.2991 72.7657L43.6889 72.9684C43.7689 73.2875 44.2424 73.2185 44.3654 73.5449C44.4945 73.4156 44.5806 73.6928 44.7171 73.5585C44.7368 73.5394 44.8942 73.6453 44.976 73.7088C45.075 73.7864 45.1605 73.88 45.2515 73.9638L45.3745 73.8591L45.6002 74.0488L45.6899 73.9687C45.7699 74.0506 45.8394 74.1535 45.9359 74.2151C46.0772 74.2924 46.2232 74.3607 46.3731 74.4196L46.4506 74.3475C46.6763 74.4356 46.9376 74.4707 47.0902 74.6149C47.2648 74.7824 47.5495 74.7048 47.6264 74.9783L47.7906 74.8613L48.3778 75.2013H48.6238C48.6523 75.2312 48.6829 75.259 48.7154 75.2844L48.7025 75.2968L48.764 75.3688L48.7917 75.3411C48.7685 75.3196 48.7432 75.3006 48.7161 75.2844C48.6835 75.259 48.6529 75.2312 48.6244 75.2013V75.1132H48.8889C48.8563 75.0571 48.836 75.0226 48.8046 74.9678L49.0186 74.7954C49.2332 75.1329 49.5567 75.2783 50.013 75.237L50.1747 75.3904L50.5879 75.2672L50.6709 75.452L51.3197 75.5752C51.3283 75.4908 51.332 75.452 51.3388 75.3805H50.6992L50.7896 75.1403L50.476 74.6407C50.6304 74.7023 50.6937 74.7405 50.7613 74.751C50.8466 74.7585 50.9323 74.7595 51.0178 74.7541L51.2299 74.9561L51.931 74.7935C52.1542 74.7658 52.2212 74.9684 52.3294 75.1255C52.4198 74.9894 52.5416 75.0288 52.6517 75.0245V75.112L53.0003 75.4618L53.3183 75.3097C53.6079 75.468 53.892 75.7156 54.2831 75.7292L54.3391 75.5696L54.6379 75.683L54.3919 75.3916H54.6471C54.6607 75.2592 54.673 75.1403 54.6853 75.022L54.8193 75.0288C54.8316 75.1058 54.8452 75.1859 54.8599 75.2752C55.1157 75.4471 55.3918 75.5715 55.7085 75.5475C56.0098 75.5247 56.2872 75.6454 56.5793 75.6706C56.602 75.6706 56.6223 75.707 56.6641 75.7452C56.8554 75.5425 57.0805 75.6263 57.2594 75.7501C57.4187 75.8604 57.5158 75.7877 57.6634 75.7095L57.8516 75.8856C58.0976 75.9509 58.3811 75.8166 58.651 76.0187C58.6873 75.9312 58.723 75.8468 58.734 75.8191L59.4646 76.1659C59.4756 76.116 59.4849 76.076 59.5002 76.0045L59.7296 75.9854C59.7413 76.0439 59.7499 76.084 59.7591 76.1302C59.8206 76.1918 59.9239 76.1825 60.1496 76.0766L60.2855 76.2336H60.7738L60.4534 76.0273V75.8536C60.4762 75.8474 60.4989 75.8333 60.5149 75.8376C60.5942 75.8561 60.6895 75.8585 60.7467 75.9066C60.823 75.9682 60.8697 75.9903 60.938 75.9066C61.0345 75.9922 61.1839 75.8949 61.2676 75.9891C61.3733 76.108 61.5049 76.0612 61.6322 76.0784L61.7177 75.8936C61.8893 75.8936 61.9206 76.0242 61.9637 76.14C62.1814 76.2238 62.3087 76.0008 62.5048 75.9805L62.5891 76.1567H62.7865C62.8006 76.0809 62.816 76.0008 62.8357 75.8973C62.8972 75.8973 62.9913 75.869 63.0331 75.9023C63.2176 76.0513 63.3928 75.9934 63.5791 75.914L63.7458 76.0809C63.8602 76.0193 64.0323 76.031 64.0606 75.8142L64.3484 75.9589L64.6085 75.8246L65.0581 76.0002L65.181 75.7729C65.3655 75.9959 65.5107 75.8049 65.6582 75.8117C65.8058 75.8185 65.954 75.8733 66.1176 75.9066C66.1348 75.816 66.1496 75.7359 66.1643 75.6559L66.7178 75.5715C66.8217 75.6553 67.0019 75.6873 67.1962 75.529L67.3235 75.6177L67.8548 75.5179L67.9323 75.7433L68.0055 75.582C68.1457 75.4889 68.3056 75.3664 68.4974 75.5431C68.5737 75.5136 68.6487 75.4612 68.7249 75.4594C68.9642 75.4532 69.1837 75.375 69.4069 75.3048C69.584 75.2487 69.9499 75.2777 70.1553 75.3602C70.1645 75.3183 70.1731 75.2783 70.1891 75.2019L70.4099 75.2518C70.5083 75.1686 70.6288 75.1385 70.7272 75.2518L70.9971 75.1785C71.0586 75.2832 71.1078 75.3633 71.154 75.4427C71.3292 75.3744 71.5063 75.3368 71.6459 75.2426C71.8169 75.1267 71.9878 75.2512 72.1471 75.1686L72.3666 75.4883V75.1107L72.4183 75.0935L72.5179 75.322L72.6864 75.1939L73.1433 75.6516C73.1175 75.7039 73.0701 75.8012 73.0271 75.8881C72.8838 76.0322 72.7706 76.0581 72.2166 76.0827C72.1769 76.1232 72.1398 76.1659 72.1053 76.2109C72.0917 76.2312 72.0991 76.2663 72.0954 76.3125H71.8212L71.5955 76.5238L71.3846 76.408L71.1773 76.6944L70.7469 76.4616L70.6749 76.6722H70.2783C70.2721 76.7338 70.2672 76.7849 70.2592 76.8687L70.44 76.7535L70.6202 76.9057C70.4837 76.9414 70.3662 76.9759 70.2463 77.0018C70.1467 77.0233 70.0618 77.157 69.9388 77.0424C69.9185 77.0935 69.8989 77.1441 69.8773 77.1946C69.8644 77.1989 69.8472 77.2118 69.8398 77.2075C69.4985 77.0073 69.1579 77.3529 68.8233 77.1995L68.5239 76.9858V77.489L68.1936 77.712C68.0848 77.6202 67.9637 77.5888 67.8474 77.7274C67.6629 77.5426 67.4262 77.7144 67.171 77.5888C67.1605 77.5586 67.1316 77.4693 67.1021 77.3769C67.2147 77.335 67.3297 77.2962 67.4606 77.2537C67.4471 77.2069 67.433 77.1595 67.4133 77.0935L67.1021 77.2475V77.3787C66.9176 77.4403 67.0708 77.611 66.9921 77.7132C66.8567 77.7444 66.7192 77.765 66.5807 77.7748C66.451 77.7667 66.3222 77.7477 66.1957 77.7181L66.0038 77.9103C65.7948 77.8777 65.5599 77.9762 65.3311 77.8001C65.178 77.9849 64.9621 78.0606 64.7088 78.0896L64.5243 77.8068C64.4271 77.9362 64.5077 78.1863 64.2556 78.1703C64.1092 78.3686 63.9567 78.1844 63.806 78.1598C63.7821 78.2257 63.7642 78.2762 63.739 78.3446C63.5742 78.3446 63.3959 78.3169 63.2317 78.3526C63.0675 78.3883 62.939 78.283 62.7705 78.3181C62.6364 78.3458 62.4784 78.4549 62.3167 78.3551L62.2367 78.4284L62.1439 78.3458L61.7558 78.4641C61.7558 78.3649 61.7558 78.3107 61.7558 78.2226C61.7568 78.2366 61.7568 78.2506 61.7558 78.2645L61.9268 78.2306L61.9194 78.174C61.8604 78.1741 61.8026 78.1909 61.7528 78.2226C61.7173 78.2957 61.6715 78.3634 61.6169 78.4234C60.9718 78.5546 60.2763 78.5294 59.5697 78.639L59.6312 78.7253L59.5285 78.979L59.8821 78.7942C59.9276 78.8626 59.9307 78.9562 60.0574 78.979C60.1398 78.9951 60.2019 79.1109 60.2591 79.1681V79.3733C60.2154 79.3807 60.1675 79.4041 60.1361 79.3899C60.0254 79.3394 59.9209 79.2759 59.7843 79.2014L59.0655 79.5285C58.8539 79.6258 58.6965 79.4342 58.4985 79.401C58.287 79.3659 58.0644 79.393 57.8885 79.393L57.621 79.2519L57.2182 79.3289C57.2077 79.3683 57.1973 79.4078 57.1788 79.4798C56.939 79.47 56.6869 79.5353 56.4532 79.3776C56.3524 79.5174 56.4957 79.7287 56.2687 79.8155L55.9176 79.5839L55.8377 79.6566C55.3574 79.3961 55.3457 79.393 54.5168 79.393L54.3692 79.5962C54.2849 79.4336 54.2462 79.295 54.0353 79.295C53.9123 79.295 53.809 79.1521 53.6589 79.2846C53.5796 79.3542 53.4671 79.2975 53.127 79.133L52.929 79.3178C52.8164 79.2758 52.7006 79.2429 52.5828 79.2193C52.4537 79.202 52.2944 79.2605 52.196 79.2039C52.073 79.1318 51.9562 79.1423 51.8319 79.1256C51.7237 79.1127 51.6389 79.2488 51.5011 79.1398C51.4396 79.0899 51.2717 79.1712 51.0854 79.2051C51.0725 79.178 51.0356 79.0973 51.0202 79.0647C50.7853 79.0332 50.6088 79.0308 50.4465 78.9827C50.3615 78.9558 50.2716 78.9476 50.1832 78.9589C50.0947 78.9702 50.0098 79.0006 49.9342 79.048ZM25.2364 68.0837L25.2192 68.0665L25.1479 68.1281L25.1756 68.1558C25.1977 68.1326 25.2152 68.1054 25.2272 68.0757C25.258 68.0479 25.2845 68.0158 25.3059 67.9802L25.3231 67.9975L25.3945 67.9359L25.3668 67.9088C25.3446 67.9317 25.3271 67.9587 25.3152 67.9882C25.2851 68.0167 25.2594 68.0495 25.2389 68.0856L25.2364 68.0837ZM26.7092 69.3157L26.7258 69.2984L26.6643 69.227L26.6367 69.2547C26.6597 69.2789 26.6907 69.294 26.724 69.2972L26.7074 69.3144L26.7689 69.3859L26.7965 69.3582C26.7741 69.3345 26.7441 69.3194 26.7117 69.3157H26.7092ZM30.4763 71.5098C30.4818 71.5037 30.4875 71.4979 30.4936 71.4925L30.4321 71.4204L30.405 71.4482C30.4277 71.473 30.4588 71.4884 30.4923 71.4913L30.4751 71.5085L30.5366 71.58L30.5643 71.5523C30.5418 71.5283 30.5115 71.5132 30.4788 71.5098H30.4763ZM30.2304 71.3157L30.2131 71.333L30.2746 71.4044L30.3023 71.3767C30.261 71.3423 30.2084 71.3247 30.1547 71.3274L30.2304 71.3231C30.2193 71.2664 30.2082 71.2092 30.1965 71.1519L30.14 71.1593C30.1382 71.1915 30.146 71.2235 30.1623 71.2513C30.1786 71.2791 30.2027 71.3015 30.2316 71.3157H30.2304ZM40.3061 77.4588L40.2889 77.4761L40.3504 77.5475L40.3781 77.5198C40.3363 77.485 40.283 77.467 40.2287 77.4693H40.3086C40.2975 77.3831 40.2859 77.2968 40.2748 77.2106L40.2164 77.2155C40.2129 77.2603 40.2193 77.3052 40.235 77.3472C40.2507 77.3893 40.2754 77.4274 40.3074 77.4588H40.3061ZM28.9033 68.9646L28.9205 68.9473L28.859 68.8759L28.8314 68.9036C28.853 68.925 28.879 68.9414 28.9076 68.9516C28.9119 69.0083 28.9156 69.0606 28.9212 69.1321L29.0878 69.1118C29.0829 69.0502 29.0792 69.0151 29.0749 68.9621C29.0178 68.9564 28.9602 68.9572 28.9033 68.9646ZM32.3279 69.1339L32.3722 69.0871L32.1656 68.9535C32.1619 69.0151 32.1588 69.0594 32.1545 69.121C32.2246 69.1266 32.2775 69.1303 32.3095 69.1309C32.3906 69.2541 32.4651 69.3668 32.5395 69.4795L32.601 69.4462L32.4718 69.1309C32.4134 69.1309 32.3697 69.1309 32.3261 69.1339H32.3279ZM70.2758 76.3464C70.44 76.209 70.44 76.209 70.2758 76.0778C70.2758 76.1542 70.2758 76.2232 70.4376 76.2515C70.4412 76.2928 70.4455 76.3458 70.4492 76.3963H70.7038C70.6983 76.339 70.6946 76.3008 70.6903 76.2515C70.5999 76.2515 70.5193 76.2515 70.274 76.3464H70.2758ZM29.1647 66.5949L29.1819 66.5777L29.1204 66.5062L29.0927 66.5339C29.1167 66.5543 29.1407 66.5746 29.1714 66.5955C29.1462 66.8358 29.3307 66.8419 29.4365 66.8579C29.5459 66.9663 29.621 67.0366 29.6917 67.1123C29.7624 67.1881 29.8436 67.286 29.9198 67.3747C29.9702 66.9824 29.8682 66.8142 29.5029 66.7126L29.6019 66.5327L29.4894 66.42C29.3842 66.4785 29.2803 66.5358 29.1647 66.5949ZM31.8274 68.5272C31.7626 68.5071 31.6967 68.4908 31.63 68.4786C31.4492 68.4539 31.4566 68.2359 31.3225 68.1773C31.0058 68.0357 30.8379 67.7357 30.5919 67.5195C30.5409 67.4751 30.5729 67.3624 30.4388 67.3661C30.37 67.3661 30.4222 67.1616 30.2543 67.1949C30.1929 67.2072 30.1197 67.1579 30.0465 67.1333C30.0465 67.5644 30.0465 67.5688 30.2869 67.7887C30.3042 67.7375 30.322 67.687 30.3484 67.6174C30.4025 67.7763 30.4505 67.9156 30.4979 68.0529C30.8115 68.2235 31.1202 68.3905 31.4399 68.5636C31.4455 68.6153 31.4535 68.6868 31.4639 68.7748C31.705 68.7022 31.7812 68.9442 31.9436 69.0354L32.0783 68.8722L31.8274 68.5272ZM67.6937 76.8989C67.7503 77.2636 68.0627 77.2137 68.2102 77.3812C68.2521 77.2944 68.2865 77.2223 68.3234 77.1465C68.1444 77.0942 67.9397 77.072 67.813 76.8903L67.952 76.7634C68.0516 76.7954 68.1401 76.8299 68.2318 76.8509C68.2619 76.8576 68.3 76.8299 68.332 76.8182L68.1377 76.61L67.741 76.5435C67.4293 76.7363 67.0831 76.7326 66.6889 76.5743L66.4853 77.0714C66.7313 77.2469 66.9539 76.8792 67.1403 77.0714L67.6937 76.8989ZM64.9326 77.2925H65.5826C65.6693 77.2925 65.7634 77.311 65.8397 77.282C65.9011 77.2599 65.9356 77.1786 65.9958 77.2746L66.1459 77.1681L65.8108 76.9463L66.1361 76.7763H65.6281L65.2512 77.1336L65.0433 76.9396L64.9326 77.2925ZM43.5942 77.1077L43.1275 77.1453L43.304 77.3683H43.7043L43.5942 77.1077ZM30.6153 69.2079C30.718 69.53 30.718 69.53 30.9609 69.3686L30.6153 69.2079ZM54.7923 75.8955L54.4393 75.7723C54.5615 75.932 54.7386 76.0404 54.9362 76.0766C54.9312 75.962 54.9276 75.8832 54.9226 75.7754L54.7923 75.8955ZM26.3759 68.7219C26.4024 69.0841 26.4024 69.0841 26.633 69.1025C26.6447 68.9325 26.486 68.8845 26.3735 68.7219H26.3759ZM47.9787 78.74C48.0747 78.902 48.1306 79.0006 48.1915 79.0961C48.2001 79.1096 48.2296 79.1102 48.2444 79.1152C48.2801 79.0394 48.312 78.9698 48.344 78.9008L47.9787 78.74ZM42.063 76.6673C41.9148 76.3593 41.8263 76.2811 41.7174 76.355L41.8238 76.57L42.063 76.6673ZM30.7703 66.9651L30.8318 66.9164L30.6405 66.5888L30.4751 66.72L30.7703 66.9651ZM25.8772 68.4157C25.7678 68.3116 25.6976 68.2346 25.5697 68.1207C25.5827 68.2765 25.5888 68.3535 25.5943 68.4157H25.8772ZM31.9897 72.0555V72.2933L32.2314 72.2791L31.9897 72.0555ZM31.7862 67.9987C31.8267 67.9106 31.8618 67.8355 31.9178 67.7129L31.6183 67.8583L31.7862 67.9987ZM63.292 77.4718C63.327 77.6331 63.327 77.6331 63.5379 77.6522L63.292 77.4718ZM66.4952 77.0153L66.2492 76.9075L66.0469 76.9734C66.0567 76.9876 66.0672 77.0012 66.0776 77.0153H66.4952ZM29.0521 66.1625C29.07 66.2068 29.0946 66.2697 29.1382 66.3799C29.1997 66.2413 29.2335 66.1656 29.2858 66.0467L29.0521 66.1625ZM30.7801 72.3653C30.7592 72.4195 30.7469 72.4368 30.7506 72.443C30.7924 72.5101 30.8373 72.5754 30.881 72.6413C30.8921 72.6328 30.9019 72.6226 30.9099 72.6111C30.9634 72.5082 30.8742 72.4657 30.8232 72.4078C30.8139 72.3974 30.8035 72.3881 30.7801 72.3653ZM44.3524 77.5561V77.7409L44.5117 77.7089L44.4797 77.5549L44.3524 77.5561ZM65.6115 77.5789H65.3459C65.3588 77.6405 65.3668 77.6812 65.3834 77.7637L65.6115 77.5789ZM63.8712 77.5173C63.7901 77.4557 63.7636 77.3233 63.6007 77.4188C63.6818 77.4779 63.7089 77.6122 63.8712 77.5173ZM29.3547 67.9143L29.525 67.8829L29.3547 67.7702V67.9143ZM25.2444 67.6236L25.3225 67.6193C25.3115 67.5417 25.301 67.464 25.2899 67.3864L25.2444 67.3907V67.6236ZM29.8374 73.1427C29.8651 73.0103 29.8651 73.0103 29.6529 73.0269L29.8374 73.1427ZM31.9983 68.1262V68.263L32.1139 68.2426L31.9983 68.1262ZM64.6928 77.3726L64.6221 77.1952L64.5833 77.2204V77.3726H64.6928ZM64.8724 77.0646C64.9726 76.8114 64.8588 76.8552 64.7746 76.8693L64.8724 77.0646ZM45.6992 78.413C45.7133 78.1752 45.7133 78.1752 45.6217 78.1974C45.6297 78.2282 45.6549 78.2898 45.6992 78.413ZM34.8012 73.6133C34.8369 73.6804 34.8676 73.7365 34.9408 73.872V73.6133H34.8012ZM29.6911 70.4343L29.5183 70.4669L29.6886 70.5796L29.6911 70.4343ZM32.2541 71.1346L32.3298 71.1254C32.3181 71.078 32.307 71.0299 32.2953 70.9825L32.2541 70.9893V71.1346ZM38.9711 71.7506L38.9619 71.6748L38.8192 71.7087L38.826 71.7506H38.9711ZM30.0268 70.7133H29.9832V70.8882H30.0268V70.7133ZM29.3326 70.4669L29.2575 70.4706C29.268 70.5199 29.2791 70.5692 29.2895 70.6184L29.3326 70.6129V70.4669ZM69.5496 76.1714L69.4746 76.1764C69.485 76.225 69.4961 76.2743 69.5065 76.323L69.5496 76.3174V76.1714ZM28.2269 69.7314L28.3025 69.7216L28.2687 69.5787L28.2269 69.5855V69.7314ZM30.9129 71.8676L30.8379 71.8726C30.8484 71.9212 30.8588 71.9699 30.8699 72.0192L30.9129 72.013V71.8676ZM32.7461 69.3064H32.7018V69.4814H32.7461V69.3064ZM32.7018 72.9043H32.7461V72.7288H32.7018V72.9043ZM51.8879 75.1834H51.9316V75.0079H51.8879V75.1834ZM47.2427 75.2715H47.2863V75.0959H47.2427V75.2715ZM56.436 78.8848L56.4409 78.9599L56.5873 78.9279L56.5817 78.8848H56.436ZM47.7315 78.7979L47.6565 78.8029C47.667 78.8515 47.678 78.9008 47.6885 78.9495L47.7315 78.9439V78.7979ZM59.6398 78.3434H59.5962V78.5189H59.6398V78.3434ZM28.8418 66.059H28.8861V65.8835H28.8418V66.059ZM25.3367 68.5167H25.381V68.3412H25.3367V68.5167ZM48.8981 75.3479L48.9737 75.3386L48.9393 75.1957L48.8981 75.2025V75.3479ZM63.6314 78.2577H63.6603V78.1703H63.6314V78.2577ZM67.8948 77.4976V77.5266H67.9827V77.4976H67.8948ZM67.6322 77.4095V77.4391H67.7195V77.4095H67.6322ZM63.0472 77.205H63.0177V77.2925H63.0472V77.205ZM38.778 76.6784H38.7491V76.7659H38.778V76.6784ZM49.3525 76.5034H49.3808V76.4154H49.3513L49.3525 76.5034ZM58.6688 76.2398H58.6399V76.3279H58.6664L58.6688 76.2398ZM71.2849 76.1523H71.256V76.2398H71.2849V76.1523ZM30.1652 67.9907H30.1947V67.9026H30.1652V67.9907ZM24.7918 67.3181V67.347H24.8792V67.3181H24.7918ZM33.1464 74.6598H33.1753V74.5718H33.1464V74.6598ZM32.7959 73.6065H32.8248V73.5191H32.7959V73.6065ZM34.5177 73.3725V73.402H34.605V73.3725H34.5177ZM34.0208 73.3435H34.0504V73.2554H34.0208V73.3435ZM32.2689 73.168H32.2978V73.0799H32.2689V73.168ZM31.5679 71.6761H31.5974V71.588H31.5679V71.6761ZM34.6346 70.7983H34.6635V70.7133H34.6346V70.7983ZM28.3554 69.8331H28.3259V69.9205H28.3554V69.8331ZM30.0772 69.6575H30.1061V69.5694H30.0772V69.6575ZM29.3762 69.3939H29.4057V69.3064H29.3762V69.3939ZM35.1001 69.2183H35.0712V69.3064H35.1001V69.2183ZM27.1569 68.8968V68.9264H27.243V68.8968H27.1569ZM29.8147 68.6923H29.8436V68.6042H29.8147V68.6923ZM29.4346 68.4872V68.4582H29.3473V68.4872H29.4346Z" fill="#C95372"/>
<path d="M24.0034 65.7961H23.8687C23.8214 65.7012 23.774 65.6045 23.7211 65.4973L23.2827 65.1542L23.1935 65.3248C23.1837 65.3248 23.1572 65.3359 23.1431 65.3248C23.0742 65.2793 23.0066 65.2306 22.942 65.1789C22.8594 65.1241 22.7845 65.0584 22.7194 64.9836C22.6315 64.8604 22.6142 64.7095 22.4531 64.6097C22.3281 64.5242 22.2294 64.4057 22.1678 64.2672C22.0943 64.1212 22.0122 63.9796 21.9218 63.8434C21.9037 63.8207 21.883 63.8 21.8603 63.7818L21.7693 63.8638C21.5129 63.371 21.2712 62.8702 20.9422 62.4168C20.8574 62.2998 20.8266 62.1446 20.7577 62.0128C20.6373 61.7628 20.4823 61.5312 20.2971 61.3247C20.0895 61.1053 19.9238 60.8495 19.8083 60.5701C19.7056 60.304 19.5555 60.0632 19.4719 59.7694L19.55 59.6283C19.3772 59.5279 19.1946 59.3696 19.1896 59.2464C19.1823 59.0653 19.0703 58.9434 19.0101 58.7931C18.9412 58.6181 18.8982 58.4327 18.8379 58.2301C18.8717 58.1648 18.9166 58.0773 18.9953 57.927V58.4555L19.1312 58.5923C19.178 58.5651 19.2241 58.538 19.2739 58.5066C19.269 58.5105 19.2645 58.5149 19.2604 58.5196L19.3218 58.591L19.3489 58.5633C19.3258 58.5421 19.3006 58.5231 19.2739 58.5066C19.2315 58.4001 19.1097 58.3021 19.221 58.1642L19.3114 58.243L19.4633 57.9886C19.5025 58.0218 19.5464 58.049 19.5936 58.0693C19.6492 58.0758 19.7053 58.0758 19.7609 58.0693C19.8163 58.3662 20.0456 58.575 20.0684 58.859H20.2178C20.2149 58.9403 20.2211 59.0217 20.2363 59.1017C20.2685 59.1742 20.3098 59.2423 20.3592 59.3043C20.4103 59.1873 20.4933 59.0863 20.4878 58.9902C20.4814 58.8262 20.4395 58.6656 20.3648 58.5196C20.2719 58.3502 20.331 58.2559 20.4773 58.1426C20.4878 58.2658 20.497 58.3754 20.5081 58.4986L20.754 58.5165V58.8861L21.1439 58.7752C21.3573 58.8448 21.2528 59.0635 21.3075 59.2242L21.4354 59.1091L21.6623 59.5636L21.7133 59.5445C21.6322 59.1799 21.5504 58.8159 21.4674 58.442C21.5971 58.57 21.7129 58.7115 21.813 58.8639C21.9009 59.0869 21.9679 59.1633 22.1487 59.3308C22.3861 59.5513 22.5097 59.8427 22.6407 60.1593H22.9629L22.6886 60.0361V59.6918L22.5115 59.608V59.5125L22.7052 59.4214L22.621 59.2421L22.6868 59.1546C22.5355 58.8688 22.6653 58.4894 22.34 58.1598L22.7538 58.2707L22.6825 58.5571L22.8092 58.442L23.1289 58.7321L23.0422 58.8189L23.5655 59.2156L23.493 59.2446L23.5655 59.3062C23.5754 59.3302 23.5852 59.3548 23.5944 59.3789L23.6559 59.3062L23.9972 59.4078C24.0003 59.4645 24.0046 59.531 24.0077 59.5772L24.6749 60.4186L24.8311 60.3428L24.9854 60.7802C25.4159 60.7531 25.3987 61.1941 25.6102 61.4042C25.8494 61.2982 25.7203 61.0802 25.7701 60.9058L25.8931 60.8775C25.9386 61.0685 25.9835 61.2539 26.0296 61.4479C26.1071 61.504 26.27 61.5711 26.267 61.6327C26.2571 61.8052 26.4182 61.7349 26.4619 61.8132C26.5154 61.9087 26.5744 61.998 26.6335 62.0922C26.6644 62.1394 26.7067 62.178 26.7565 62.2043H26.7146L26.7479 62.3762L26.8044 62.3682C26.8049 62.3092 26.7882 62.2515 26.7565 62.2019C26.7385 62.1321 26.7402 62.0588 26.7614 61.99L27.1605 62.378C27.1968 62.5394 27.2337 62.7002 27.2718 62.8708L27.5147 63.0334L27.4267 63.1221C27.4624 63.1615 27.4987 63.201 27.5559 63.2626L27.7404 62.9989L28.0368 63.3531V63.5558C28.2311 63.666 28.2311 63.666 28.3787 63.9253L28.3172 63.9869L28.6523 64.2487V64.5389L28.5121 64.5912L28.3621 64.9072H27.9654C27.9599 64.8314 27.9519 64.736 27.9427 64.6146C27.8449 64.4964 27.7582 64.3208 27.6125 64.2321C27.465 64.1424 27.3491 64.0089 27.281 63.8502C27.2371 63.8821 27.1904 63.9099 27.1414 63.9334C27.0888 63.949 27.0349 63.9599 26.9803 63.966C26.8733 63.8323 26.7712 63.7042 26.6667 63.5724C26.687 63.4874 26.7116 63.3876 26.7509 63.2274L26.4262 63.3543L26.2866 63.1036V63.6075H26.0874L26.2135 63.4523L25.8728 63.3057L25.6207 62.8954C25.7437 62.9472 25.7953 62.9706 25.8525 62.9885L25.8396 63.0014L25.9011 63.0728L25.9288 63.0451C25.9053 63.024 25.88 63.005 25.8531 62.9885C25.8951 62.933 25.9233 62.8683 25.9353 62.7997C25.9473 62.7311 25.9427 62.6607 25.922 62.5942L25.5825 62.4593L25.4596 62.285C25.3107 62.3725 25.3114 62.3749 25.1472 62.3725V62.2376L24.9012 62.1144C24.8963 62.1686 24.8926 62.208 24.8895 62.2444L25.1502 62.3719C25.1791 62.4593 25.208 62.548 25.2382 62.6417C25.3808 62.5751 25.4276 62.4088 25.5881 62.4569V62.6324C25.5592 62.6546 25.5057 62.6749 25.5044 62.6983C25.4965 62.8394 25.5008 62.9811 25.5008 63.1597L25.6852 63.2829L25.6496 63.3414L25.4509 63.2669L25.3212 63.4289C25.3261 63.425 25.3306 63.4206 25.3347 63.4159L25.2732 63.3445L25.2462 63.3722C25.2693 63.3934 25.2944 63.4124 25.3212 63.4289C25.3255 63.4825 25.3255 63.541 25.3255 63.5995H25.0906C24.9276 63.3913 24.67 63.2576 24.5716 62.9866H24.4C24.3742 62.8074 24.1602 62.8129 24.0993 62.6823C24.0434 62.5622 24.0255 62.4242 23.9665 62.2949C23.9204 62.6029 23.7033 62.8924 23.905 63.2318H23.6885C23.6855 63.2268 23.6559 63.2059 23.6547 63.1843C23.6504 63.0531 23.6547 62.9219 23.6486 62.7913C23.6486 62.7667 23.5944 62.7451 23.5612 62.7297C23.5659 62.7258 23.5702 62.7214 23.5742 62.7168L23.5127 62.6454L23.485 62.6731C23.5085 62.6942 23.5338 62.7132 23.5606 62.7297C23.5428 62.8431 23.5207 62.9607 23.493 63.1073C23.5102 63.1622 23.5373 63.2509 23.5643 63.3396H23.3952C23.4063 63.443 23.4167 63.5434 23.4321 63.69L23.3017 63.7861L23.4795 64.1292H23.1357C23.1136 64.0485 23.0853 63.9746 23.0545 63.8939L23.1929 63.7553V63.4098L23.0207 63.5656L22.811 63.233C22.7618 63.4547 22.7206 63.6395 22.688 63.78L23.0379 64.1292H23.1339C23.1046 64.1733 23.0796 64.2201 23.0594 64.2691L23.2243 64.4649L23.1308 64.6411H23.504C23.6367 64.7692 23.7232 64.9377 23.75 65.1203C23.7814 65.2879 24.0575 65.283 24.0667 65.5029C23.9671 65.5638 24.0083 65.6864 24.0034 65.7961ZM21.821 59.8211L21.8037 59.8384L21.8652 59.9098L21.8929 59.8821C21.8517 59.8475 21.799 59.8299 21.7453 59.8328L21.821 59.8285L21.7878 59.6573L21.7312 59.664C21.7295 59.6959 21.737 59.7275 21.753 59.7551C21.7689 59.7826 21.7925 59.8049 21.821 59.8193V59.8211ZM24.258 62.4698L24.2752 62.4526L24.2137 62.3811L24.186 62.4088C24.1982 62.423 24.2149 62.4325 24.2332 62.4359C24.2515 62.4392 24.2705 62.4362 24.2869 62.4273C24.3164 62.5579 24.3545 62.6737 24.5568 62.6022C24.4474 62.5314 24.3674 62.4797 24.258 62.4704V62.4698ZM23.9234 62.0128L23.9062 62.0294L23.9677 62.1015L23.9954 62.0737C23.9714 62.0534 23.9474 62.0331 23.9339 62.1027C23.9118 61.9308 23.9001 61.8427 23.8853 61.7263L23.6953 61.8218C23.7537 61.9037 23.8318 61.9695 23.9222 62.0134L23.9234 62.0128ZM22.8836 62.9897L22.9598 62.9854C22.9481 62.9281 22.9371 62.8714 22.926 62.8141L22.8694 62.8215C22.8678 62.8486 22.8718 62.8757 22.881 62.9013C22.8902 62.9268 22.9044 62.9502 22.9229 62.97C22.9807 63.1067 23.0281 63.2164 23.0877 63.3611C23.1689 63.1535 23.1129 63.0464 22.8836 62.9903V62.9897ZM22.6185 63.1893L22.4261 62.8197C22.4333 62.9074 22.4333 62.9956 22.4261 63.0833C22.4089 63.1338 22.386 63.1822 22.3578 63.2274L22.474 63.3383L22.6185 63.1893ZM24.7321 62.2216C24.6632 62.1316 24.6343 62.0879 24.5993 62.0497C24.5642 62.0115 24.5193 61.9727 24.448 61.905C24.432 62.1261 24.5267 62.1797 24.7321 62.2222V62.2216ZM27.749 63.4942L27.602 63.5428L27.749 63.7276V63.4942ZM20.652 59.6135V59.4706L20.4281 59.5101L20.652 59.6135ZM23.4918 65.0772H23.5692L23.5379 64.8425L23.4918 64.8462V65.0772ZM26.7706 63.0501C26.7977 62.9176 26.7977 62.9176 26.5861 62.9342L26.7706 63.0501ZM23.1997 59.3179L23.124 59.3277C23.1357 59.3752 23.1468 59.4226 23.1578 59.4706L23.1997 59.4639V59.3179ZM23.806 62.3756H23.7623V62.5511H23.806V62.3756ZM22.5798 63.78H22.5355V63.9555H22.5798V63.78ZM23.1947 60.2689H23.1511V60.4445H23.1947V60.2689ZM24.2678 61.8779V61.9074H24.3527V61.8779H24.2678ZM23.0416 64.8912V64.8616H22.9537V64.8912H23.0416ZM26.2227 62.4593H26.2522V62.3712H26.2227V62.4593ZM20.8198 59.8267H20.7909V59.9141H20.8198V59.8267Z" fill="#C95372"/>
<path d="M23.9833 65.7361L24.2243 65.8722L24.375 65.7626C24.4223 65.8488 24.4457 65.927 24.498 65.9775C24.5502 66.0281 24.6345 66.0619 24.7353 66.1205C24.5656 66.235 24.6855 66.503 24.4211 66.5966C24.2366 66.4426 24.145 66.1328 23.8203 66.1389C23.8898 66.0047 24.0528 65.9572 23.9833 65.7361Z" fill="#C95372"/>
<path d="M28.0537 65.5057V65.0554L28.2892 65.2008V65.6006L28.0537 65.5057Z" fill="#C95372"/>
<path d="M28.7343 64.6633H28.9188L28.853 64.8962C28.853 64.8999 28.8807 64.9387 28.9244 65.0046L28.7799 65.1851L28.6729 65.0779C28.6967 65.0115 28.716 64.9436 28.7307 64.8746C28.7368 64.8044 28.7381 64.7338 28.7343 64.6633Z" fill="#C95372"/>
<path d="M48.8857 79.374C48.9399 79.4178 48.9811 79.4523 49.0358 79.4972L49.3057 79.374V79.6685L48.8857 79.5385V79.374Z" fill="#C95372"/>
<path d="M49.9291 79.0381L50.0466 79.2802C49.851 79.3565 49.8147 79.2216 49.7139 79.0954L49.9291 79.0381Z" fill="#C95372"/>
<path d="M70.8027 76.5491L70.9638 76.8312L70.8027 76.8595V76.5491Z" fill="#C95372"/>
<path d="M60.5971 79.4707L60.4065 79.6623L60.2607 79.5163L60.5971 79.4707Z" fill="#C95372"/>
<path d="M23.5596 63.3389H23.7188C23.7256 63.4202 23.7324 63.5046 23.7477 63.6881C23.6524 63.5113 23.6063 63.4263 23.5596 63.3389Z" fill="#C95372"/>
<path d="M50.2441 74.4705L50.4797 74.6023C50.3229 74.7396 50.2786 74.582 50.2441 74.4705Z" fill="#C95372"/>
<path d="M26.4727 68.0608V67.8279L26.5182 67.8242C26.5286 67.9024 26.5391 67.9807 26.5501 68.0589L26.4727 68.0608Z" fill="#C95372"/>
<path d="M23.6453 65.6543V65.7806H23.4946L23.4639 65.7387L23.6453 65.6543Z" fill="#C95372"/>
<path d="M28.7516 65.5341C28.7473 65.4485 28.7429 65.3629 28.7393 65.2779L28.8008 65.2729C28.8118 65.3586 28.8235 65.4448 28.8346 65.531L28.7516 65.5341Z" fill="#C95372"/>
<path d="M28.4775 64.9408V64.8459H28.6288L28.6559 64.8835L28.4775 64.9408Z" fill="#C95372"/>
<path d="M54.0981 75.5733C54.1151 75.5733 54.1289 75.5179 54.1289 75.4495C54.1289 75.3811 54.1151 75.3257 54.0981 75.3257C54.0811 75.3257 54.0674 75.3811 54.0674 75.4495C54.0674 75.5179 54.0811 75.5733 54.0981 75.5733Z" fill="#C95372"/>
<path d="M48.8175 79.3987L48.8027 79.2312L48.8593 79.2231C48.871 79.2804 48.8821 79.3377 48.8931 79.395L48.8175 79.3987Z" fill="#C95372"/>
<path d="M29.0845 65.0809C29.1528 65.0809 29.2081 65.0671 29.2081 65.0501C29.2081 65.0331 29.1528 65.0193 29.0845 65.0193C29.0163 65.0193 28.9609 65.0331 28.9609 65.0501C28.9609 65.0671 29.0163 65.0809 29.0845 65.0809Z" fill="#C95372"/>
<path d="M28.5586 65.6205V65.4604L28.6201 65.4536L28.6496 65.6205H28.5586Z" fill="#C95372"/>
<path d="M24.2514 65.5491V65.6944L24.2084 65.7006C24.1973 65.6507 24.1869 65.6014 24.1758 65.5521L24.2514 65.5491Z" fill="#C95372"/>
<path d="M23.4624 65.9851V66.1311L23.4205 66.1379C23.4089 66.0898 23.3978 66.0424 23.3867 65.995L23.4624 65.9851Z" fill="#C95372"/>
<path d="M28.165 67.5361L28.3815 67.5977C28.3418 67.6141 28.3006 67.6267 28.2585 67.6353C28.2481 67.6378 28.2302 67.6051 28.165 67.5361Z" fill="#C95372"/>
<path d="M27.3988 68.1658V68.3413H27.3545V68.1658H27.3988Z" fill="#C95372"/>
<path d="M48.6143 75.1076L48.543 75.046L48.5706 75.0183L48.6321 75.0898L48.6143 75.1076Z" fill="#C95372"/>
<path d="M55.851 75.38C55.8625 75.38 55.8719 75.3522 55.8719 75.3178C55.8719 75.2835 55.8625 75.2556 55.851 75.2556C55.8394 75.2556 55.8301 75.2835 55.8301 75.3178C55.8301 75.3522 55.8394 75.38 55.851 75.38Z" fill="#C95372"/>
<path d="M71.4014 75.0398H71.4893V75.0694H71.4014V75.0398Z" fill="#C95372"/>
<path d="M53.0473 75.2924C53.0588 75.2924 53.0682 75.2645 53.0682 75.2302C53.0682 75.1958 53.0588 75.168 53.0473 75.168C53.0357 75.168 53.0264 75.1958 53.0264 75.2302C53.0264 75.2645 53.0357 75.2924 53.0473 75.2924Z" fill="#C95372"/>
<path d="M53.5006 75.0986V75.1867H53.4717V75.0986H53.5006Z" fill="#C95372"/>
<path d="M56.5514 79.8151C56.5857 79.8151 56.6135 79.8057 56.6135 79.7941C56.6135 79.7826 56.5857 79.7732 56.5514 79.7732C56.5171 79.7732 56.4893 79.7826 56.4893 79.7941C56.4893 79.8057 56.5171 79.8151 56.5514 79.8151Z" fill="#C95372"/>
<path d="M19.5635 57.8973V57.8098H19.593V57.8973H19.5635Z" fill="#C95372"/>
<path d="M53.5727 79.505C53.5842 79.505 53.5936 79.4772 53.5936 79.4428C53.5936 79.4085 53.5842 79.3806 53.5727 79.3806C53.5611 79.3806 53.5518 79.4085 53.5518 79.4428C53.5518 79.4772 53.5611 79.505 53.5727 79.505Z" fill="#C95372"/>
<path d="M23.5645 59.2139L23.6524 59.302H23.5645V59.2139Z" fill="#C95372"/>
<path d="M59.2672 75.8654C59.3015 75.8654 59.3293 75.856 59.3293 75.8444C59.3293 75.8329 59.3015 75.8235 59.2672 75.8235C59.2329 75.8235 59.2051 75.8329 59.2051 75.8444C59.2051 75.856 59.2329 75.8654 59.2672 75.8654Z" fill="#C95372"/>
<path d="M57.7053 75.5378V75.6253H57.6758V75.5378H57.7053Z" fill="#C95372"/>
<path d="M27.2432 67.8433H27.3311V67.8728H27.2432V67.8433Z" fill="#C95372"/>
<path d="M27.6539 67.551V67.6391H27.625V67.551H27.6539Z" fill="#C95372"/>
<path d="M27.1865 67.6391V67.551H27.216V67.6391H27.1865Z" fill="#C95372"/>
<path d="M27.1571 67.2292H27.2426V67.2588H27.1553L27.1571 67.2292Z" fill="#C95372"/>
<path d="M28.3547 66.6738V66.7613H28.3252V66.6738H28.3547Z" fill="#C95372"/>
<path d="M28.2672 66.4102V66.4982H28.2383V66.4102H28.2672Z" fill="#C95372"/>
<path d="M24.791 66.2639H24.8783V66.2929H24.791V66.2639Z" fill="#C95372"/>
<path d="M30.6914 66.0592V65.9705H30.7209V66.0579L30.6914 66.0592Z" fill="#C95372"/>
<path d="M30.0922 65.5507C30.1037 65.5507 30.1131 65.5228 30.1131 65.4885C30.1131 65.4541 30.1037 65.4263 30.0922 65.4263C30.0806 65.4263 30.0713 65.4541 30.0713 65.4885C30.0713 65.5228 30.0806 65.5507 30.0922 65.5507Z" fill="#C95372"/>
<path d="M28.9883 65.5252L29.0498 65.4531L29.0774 65.4808L29.0061 65.5424L28.9883 65.5252Z" fill="#C95372"/>
<path d="M26.2893 63.5925C26.3133 63.6129 26.3373 63.6332 26.3606 63.6541L26.333 63.6812L26.2715 63.6098L26.2893 63.5925Z" fill="#C95372"/>
<path d="M25.3255 63.5925L25.3968 63.6541L25.3691 63.6812L25.3076 63.6098L25.3255 63.5925Z" fill="#C95372"/>
<path d="M25.5875 62.6274L25.6595 62.689L25.6318 62.7168L25.5703 62.6453L25.5875 62.6274Z" fill="#C95372"/>
<path d="M27.1484 62.3658L27.2099 62.2937L27.2376 62.3214L27.1663 62.383L27.1484 62.3658Z" fill="#C95372"/>
<path d="M52.6436 75.0027L52.705 74.9307L52.7327 74.9584L52.6614 75.02L52.6436 75.0027Z" fill="#C95372"/>
<path d="M48.4027 75.0294C48.4143 75.0294 48.4237 75.0016 48.4237 74.9672C48.4237 74.9329 48.4143 74.905 48.4027 74.905C48.3912 74.905 48.3818 74.9329 48.3818 74.9672C48.3818 75.0016 48.3912 75.0294 48.4027 75.0294Z" fill="#C95372"/>
<path d="M48.5785 74.7658C48.5901 74.7658 48.5994 74.7379 48.5994 74.7036C48.5994 74.6692 48.5901 74.6414 48.5785 74.6414C48.567 74.6414 48.5576 74.6692 48.5576 74.7036C48.5576 74.7379 48.567 74.7658 48.5785 74.7658Z" fill="#C95372"/>
<path d="M41.1172 71.8518V71.7637H41.1461V71.8518H41.1172Z" fill="#C95372"/>
<path d="M38.2832 70.4768H38.3724V70.5058H38.2844L38.2832 70.4768Z" fill="#C95372"/>
<path d="M35.6256 22.3859C35.6256 22.3828 35.6225 22.3798 35.6213 22.3773C35.6121 22.3631 35.6028 22.349 35.593 22.3348C35.5763 22.3143 35.5578 22.2953 35.5377 22.2781C35.572 22.3096 35.6016 22.3459 35.6256 22.3859ZM47.3439 50.7743C45.9344 50.4724 45.1584 49.0803 44.2015 48.1256C42.9087 46.7197 41.8082 45.1479 40.9288 43.4516C39.699 41.2526 38.8559 38.8478 37.709 36.6094C37.0006 35.2665 36.4656 33.7069 35.2068 32.7694C34.5704 32.3382 34.3459 32.4866 34.1128 32.7078C34.0052 32.8575 33.8982 33.0071 33.7882 33.1544C31.7693 35.9342 28.9018 38.971 25.1569 38.5306C24.989 38.5238 24.6372 38.4998 24.2277 38.4474L24.1305 38.3778C24.0321 38.3088 23.9301 38.2454 23.8292 38.1801C23.8152 38.1572 23.798 38.1365 23.7782 38.1185C23.7049 38.057 23.6268 38.0016 23.5445 37.9528C23.5339 37.9324 23.5211 37.9132 23.5064 37.8955L23.5113 37.901L23.5064 37.8949C23.5001 37.8873 23.4933 37.8801 23.4861 37.8733C23.4935 37.8801 23.5002 37.8875 23.507 37.8949C23.4478 37.8389 23.3799 37.7929 23.3059 37.7588C23.2536 37.731 23.1995 37.7064 23.1454 37.6836C23.0839 37.6417 23.0175 37.6005 22.9523 37.5604C22.9066 37.5318 22.8572 37.5098 22.8053 37.4951C22.7441 37.4796 22.6795 37.4839 22.6209 37.5074L22.4979 37.4705C22.4032 37.4354 22.3072 37.4015 22.2119 37.3688C21.9912 37.2931 21.7642 37.2395 21.5398 37.1797C21.4746 37.16 21.4094 37.1409 21.3436 37.1249C21.284 37.1111 21.2215 37.1154 21.1643 37.1374C21.1071 37.1593 21.0578 37.1979 21.0226 37.2481C19.8985 36.4578 18.7633 35.5419 17.6811 35.4821C17.3121 35.9133 16.4739 36.3143 16.1603 36.2157C14.409 35.9724 14.4631 33.7549 13.9914 32.4343C13.795 31.9456 13.5559 31.4752 13.2769 31.0286C13.2226 30.9877 13.1802 30.9331 13.1539 30.8703C12.8618 30.5248 12.5088 30.2297 12.17 29.9297C11.4702 29.2713 10.7882 28.5919 10.1511 27.8724C8.5941 25.99 7.34023 23.9086 6.3305 21.6911C6.29513 21.6193 6.28505 21.5376 6.30191 21.4593C6.31877 21.381 6.36157 21.3108 6.42336 21.2599C6.20998 18.4265 8.15195 15.6232 10.7771 14.5963C12.5125 13.5849 14.0714 13.883 15.6966 14.9327C16.3915 14.2705 16.9456 13.4414 17.8182 12.9769C20.0012 11.6834 22.6762 11.0323 25.1901 11.543C26.1912 11.7524 27.1905 12.0154 28.1246 12.4404C28.5888 12.5926 29.0113 13.0564 29.518 12.9745C31.075 12.5168 32.7631 12.308 34.3508 12.7447C37.468 13.588 40.542 16.4664 39.4142 19.9448C39.0287 21.2279 38.3559 22.4087 37.5627 23.4842C38.1536 23.9117 38.731 24.3706 39.2962 24.7574C40.7388 25.8409 42.4096 26.5357 44.0005 27.3562C45.5378 28.0233 47.1065 28.7514 48.725 29.1598C49.1683 29.2403 49.6176 29.2833 50.0681 29.2885C50.3552 29.2854 50.4819 29.5435 50.4432 29.7653C50.6891 29.9889 50.5932 30.5482 50.6762 30.8605C51.178 36.0963 51.3527 41.4435 49.859 46.537C49.7169 47.0242 49.5558 47.5053 49.3824 47.9821C49.0466 49.6058 48.4969 50.8038 47.5991 50.8038C47.5131 50.8042 47.4275 50.7942 47.3439 50.7743Z" fill="#F89393"/>
<path d="M10.8023 72.6629C7.78914 72.4621 4.78393 71.3946 3.26933 68.6215C1.68464 65.8059 2.55969 62.3213 3.90088 59.5821C4.47461 58.4826 5.223 57.4878 5.89697 56.4505C6.10297 56.1604 6.32743 55.593 6.76588 55.8604C6.79075 55.8782 6.81345 55.8989 6.83352 55.922C7.64524 56.002 8.40654 56.3125 9.17029 56.578C9.66593 56.7572 10.2366 56.9531 10.6388 57.2894C12.0039 58.2047 13.2884 59.2351 14.4784 60.3693C14.4961 60.375 14.5133 60.3818 14.5301 60.3896C15.1998 60.5787 15.9076 60.5485 16.6098 60.4512C16.6416 60.5025 16.6858 60.5449 16.7383 60.5744C16.8019 60.6055 16.8725 60.6197 16.9431 60.6157H17.0102C17.0483 60.6157 17.0864 60.6157 17.1245 60.6108C17.2051 60.6064 17.2856 60.6009 17.3656 60.5898C17.5624 60.5615 17.7591 60.5282 17.9547 60.4937C18.3206 60.426 18.6865 60.3619 19.0542 60.3052C19.3002 60.2701 19.5462 60.2362 19.7921 60.1981L20.1931 60.1365H20.2287L20.3929 60.1229L20.5608 60.1069L20.7287 60.0884L20.8966 60.0687L21.0638 60.0471L21.2268 60.0243L21.3879 60.0009L21.549 59.9745L21.7095 59.9467L21.8694 59.9166L22.0274 59.8839L22.1775 59.8506L22.3251 59.8149L22.4647 59.7786L22.6381 59.7564C23.1583 59.7157 23.6786 59.6696 24.1969 59.6073C27.2538 59.2649 30.3174 58.9409 33.3528 58.437C33.6756 58.291 34.2137 58.2621 34.4757 58.1444C35.5426 57.9097 36.5209 57.4268 37.5504 57.0818C39.6258 56.4148 46.6256 53.7685 48.3696 54.6321C49.4076 55.0528 48.9845 56.2491 48.2361 56.7388C47.481 57.3245 46.5758 57.6362 45.6921 57.9842C47.0525 58.1478 48.4015 58.3946 49.7317 58.7234C51.2752 59.0462 52.8347 59.3714 54.3167 59.9172C55.1776 60.2621 56.1332 60.5664 56.7623 61.2816C57.3532 62.1384 56.3583 62.8215 55.5324 62.7106C53.6777 62.5511 51.7948 62.2283 49.9365 62.1334C49.7971 62.1252 49.6571 62.1178 49.5165 62.1113C51.8434 62.9736 54.1623 63.86 56.3109 65.1006C56.9874 65.5773 58.0057 66.2026 57.8968 67.1462C57.6915 67.894 56.8515 68.0388 56.1787 67.9384C56.2962 68.6664 55.0718 69.1703 54.3253 69.0687C52.0844 68.9245 49.8707 68.5143 47.6501 68.1804C48.5885 68.6917 49.5773 69.1697 50.319 69.9495C50.9653 70.571 50.9499 71.6397 49.8565 71.596C48.9341 71.5344 48.0929 71.0724 47.2344 70.7626C46.4178 70.4546 45.6061 70.1312 44.7802 69.8479C42.1858 69.0286 39.4382 68.9208 36.7995 68.2845C36.6261 68.2143 36.3076 68.1774 35.9921 68.117C35.9705 68.1409 35.9456 68.1616 35.9183 68.1786C35.8697 68.2122 35.8143 68.2347 35.7561 68.2444C35.6979 68.2542 35.6382 68.2511 35.5813 68.2353C34.7604 68.2753 33.9376 68.3166 33.1216 68.409C31.1433 68.717 29.1909 69.1746 27.2181 69.4986C26.7748 69.6181 26.3308 69.7333 25.8843 69.8386C21.2108 70.8858 16.533 72.3518 11.7192 72.4664C11.6898 72.5243 11.645 72.5729 11.5898 72.6069C11.5346 72.6409 11.471 72.659 11.4062 72.6592C11.2685 72.6647 11.1301 72.6697 10.9917 72.6697C10.9315 72.6666 10.8669 72.6653 10.8023 72.6629Z" fill="#F89393"/>
<path d="M61.4075 89.7524C57.6127 89.3317 53.8019 88.8833 50.0699 88.0567C44.8687 86.781 39.8336 84.6072 35.3728 81.6327C32.9008 79.8538 29.906 77.5617 28.7419 74.6722C28.5636 74.241 28.5519 73.7938 28.6995 73.492C28.6967 73.4693 28.6955 73.4465 28.6958 73.4236C28.809 73.0393 29.1324 73.0263 29.4848 73.1156C29.3237 72.5348 29.4817 72.042 30.3721 72.0235C32.4838 72.5878 34.3828 73.9207 36.2208 75.0652C38.1394 76.339 40.0999 77.5821 42.2915 78.2738C41.9361 76.947 38.8478 73.5099 40.1306 72.4775C42.5117 71.7907 44.7998 75.7231 46.3224 77.1503C46.9183 77.8642 47.6858 78.3822 48.4815 78.8534C48.666 78.7844 48.9212 78.8534 49.1241 78.9033C50.4733 78.9544 51.8421 79.0117 53.1827 78.8356C57.6336 78.243 62.1048 77.5297 66.4039 76.198C67.5538 75.898 68.6675 75.4804 69.8039 75.136C70.0689 75.0788 70.5916 74.8718 70.9723 74.849C70.968 74.6322 71.0885 74.3679 71.0953 74.1573C71.2047 73.1255 71.1174 72.0882 71.0848 71.0546C70.77 67.2491 69.7934 63.5231 69.042 59.7854C68.9743 59.4983 69.2099 59.3142 69.4398 59.3111C69.7971 59.1725 70.3149 59.1337 70.5529 59.061C71.5515 58.8394 72.5643 58.6877 73.5839 58.607C75.1889 58.4222 76.773 58.0687 78.386 57.9375C79.7966 57.8192 81.1969 57.6208 82.5891 57.3689C82.6684 57.3572 82.7493 57.3717 82.8197 57.4102C83.022 57.2377 83.3983 57.2593 83.4715 57.6017C84.3263 62.7981 85.5303 67.9261 86.0444 73.1581C86.3089 76.3193 86.5794 79.5963 85.7253 82.6897C85.2247 84.3171 83.9659 85.6525 82.5239 86.5087C82.2921 86.579 81.9895 86.8019 81.6999 86.9294C80.9484 87.4456 79.3705 87.9704 79.0606 88.1756C75.6108 89.6835 71.7428 89.9896 68.0175 89.9995C65.8049 89.8929 63.617 89.875 61.4075 89.7524Z" fill="#F89393"/>
<path d="M21.6419 59.9134L21.7704 59.8906L21.9875 59.9029L21.9494 59.9085L21.7962 59.9276L21.645 59.9436L21.4918 59.9565L21.3314 59.9682L21.2754 59.9713C21.3996 59.9537 21.5218 59.9344 21.6419 59.9134Z" fill="#F89393"/>
<path d="M24.3415 38.4671C23.6629 38.3285 23.0041 38.1065 22.3798 37.8061C22.1671 37.7063 21.9574 37.6016 21.7464 37.4981C21.5921 37.3996 21.3031 37.3676 21.316 37.136C21.1444 37.0128 20.7724 36.8464 20.9845 36.5939C21.1592 36.4171 21.3535 36.6413 21.5177 36.7171C21.544 36.6717 21.5854 36.6372 21.6347 36.6195C21.684 36.6018 21.738 36.6021 21.787 36.6204C21.9156 36.669 22.0447 36.7177 22.1726 36.7695C22.33 36.8421 22.5557 36.8994 22.6221 37.0774C22.8958 37.1852 23.1756 37.2838 23.4486 37.3854C23.4833 37.3959 23.5152 37.4141 23.5419 37.4386C23.5687 37.4631 23.5895 37.4934 23.6029 37.5271C23.622 37.5337 23.6407 37.5413 23.6589 37.5499C23.7033 37.572 23.7378 37.61 23.7555 37.6565C23.9628 37.7276 24.1754 37.7824 24.3913 37.8203C24.5549 37.8277 24.7092 37.9577 24.6471 38.132C24.7904 38.3463 24.5592 38.5471 24.3415 38.4671Z" fill="#F99393"/>
<path d="M14.7442 61.2094C14.7153 61.2067 14.6872 61.1983 14.6615 61.1847C14.6359 61.171 14.6132 61.1524 14.5948 61.1299C14.587 61.1199 14.5798 61.1094 14.5733 61.0985C14.5499 61.0985 14.5265 61.1022 14.5025 61.1028C14.4673 61.1045 14.4321 61.0976 14.4 61.0828C14.3679 61.068 14.3398 61.0457 14.3181 61.0178L13.8366 61.0424C13.5549 61.0486 13.5291 60.6242 13.82 60.6039C15.4096 60.5651 16.9734 60.2756 18.555 60.1142C20.4035 59.9121 22.236 59.6719 24.0962 59.683C24.2444 59.6935 24.4074 59.6614 24.5457 59.7261C24.7148 59.8099 24.6939 60.0821 24.5082 60.1308C24.2069 60.1825 23.905 60.1862 23.6104 60.2349C23.5924 60.2686 23.5659 60.297 23.5335 60.3173C23.5012 60.3376 23.4641 60.3491 23.4259 60.3507C23.1941 60.3581 22.9629 60.363 22.7304 60.3636C22.3233 60.3556 21.9175 60.4024 21.5122 60.4363C21.369 60.5497 21.1562 60.4856 20.9852 60.5152C20.9237 60.6125 20.8038 60.6236 20.7005 60.631C20.532 60.6445 20.3623 60.6568 20.1926 60.6685C19.526 60.7154 18.8582 60.7548 18.1903 60.7917C17.0343 60.8576 15.8985 61.1361 14.7442 61.2094Z" fill="#F99393"/>
<path d="M44.8354 40.017C42.8676 39.6215 42.2483 37.3381 41.8019 35.6473C41.4231 34.0784 40.9004 32.5717 40.2934 31.0848C39.7965 29.6514 39.0457 28.34 38.2278 27.0711C37.4733 25.642 36.6794 24.2425 35.3671 23.2705C35.1273 23.0205 34.8014 22.8578 34.5751 22.6047C34.5497 22.5644 34.5326 22.5195 34.5248 22.4725C34.517 22.4256 34.5186 22.3775 34.5296 22.3312C34.3716 21.8932 35.1876 20.9976 35.0652 19.9024C34.9293 17.1305 31.6566 16.3501 29.773 18.0606C29.4336 18.3625 29.1329 18.7382 29.0609 19.1996C29.0173 19.624 28.8494 20.0878 28.9613 20.5024C29.0726 20.9951 28.4405 21.1904 28.2234 20.8498C28.0774 20.8435 27.9319 20.8296 27.7874 20.8079C27.3802 20.7902 26.9724 20.7978 26.5661 20.8307C24.725 21.0321 22.9005 21.5378 21.0317 21.3481C20.5702 21.2858 20.1129 21.1957 19.6622 21.0783C18.8898 22.0811 17.7042 22.7174 16.526 23.1523C15.3835 23.5551 14.1579 23.5397 12.9594 23.5219C11.3402 23.573 9.79919 23.063 8.29382 22.5264C7.84614 22.3811 7.39929 22.2343 6.95325 22.086C7.68073 23.8514 8.73166 25.4462 9.86376 26.9805C10.437 27.7102 11.056 28.4025 11.7172 29.0533C12.0579 29.2744 11.8469 29.7925 11.4866 29.7771C10.9568 30.1173 10.3858 30.3884 9.78751 30.584C8.64241 31.0156 7.40988 31.1625 6.19565 31.0121C3.13632 30.7029 0.952059 28.4983 0.193224 25.581C-0.218785 23.3851 -0.0736594 20.7075 1.64018 19.0825C2.17025 18.6754 2.73907 18.1709 3.3823 17.9547C3.34663 16.4357 3.46716 14.8798 3.83551 13.4076C4.18295 11.9828 4.87476 10.6887 5.63359 9.44564C6.94346 7.16765 8.73583 5.2049 10.8846 3.69554C11.533 3.13585 12.2135 2.61447 12.9225 2.13405C15.8121 0.326165 20.1904 -0.289808 23.5449 0.122894C27.1983 0.667414 30.5208 2.54921 33.3298 4.88868C33.6816 5.2059 34.0346 5.52374 34.3931 5.83543C34.4523 5.86245 34.5051 5.9017 34.548 5.95061C35.1389 6.40897 35.7548 6.83403 36.3929 7.22383C38.5747 8.43237 41.0664 8.97812 43.4917 9.47336C46.1273 9.93164 48.7605 10.4934 51.2473 11.5128C52.9427 12.3524 54.6067 13.4279 55.8981 14.82C56.4516 15.4588 56.9306 16.1628 57.4035 16.8644C58.5171 18.5657 59.367 20.5319 59.5447 22.5739C59.5638 23.8335 59.4248 26.6966 57.5062 25.9802C56.6969 25.5324 56.2923 24.6398 55.7192 23.9352C56.1699 25.0581 56.451 26.2426 56.3685 27.4665C56.347 28.2008 56.6287 29.4715 56.2142 29.4155C53.5601 29.28 49.472 29.7487 46.9421 28.9264C45.9537 28.5519 44.9795 28.1367 44.0193 27.6809C44.2234 28.4257 44.3694 29.1852 44.4559 29.9526C44.6146 31.4008 44.4775 32.868 44.7234 34.3082C44.8292 35.067 44.9583 35.8265 45.2086 36.5534C45.4454 37.2741 45.8851 37.9264 46.008 38.6828C46.1544 39.3604 45.6299 40.0231 44.9467 40.0231C44.9095 40.0233 44.8723 40.0212 44.8354 40.017Z" fill="#652424"/>
<path d="M17.5288 56.4433C15.8187 56.1852 14.0852 55.7121 12.6905 54.649C10.4288 52.9606 8.91908 50.3082 8.80101 47.4679C8.6645 45.896 8.81085 44.2772 9.42272 42.8124C10.3808 40.5992 12.1217 38.6749 14.2998 37.6216C15.5297 37.0389 16.9213 36.8824 18.2668 36.9564C18.3216 36.9691 18.3749 36.9881 18.4254 37.013C19.0527 36.9102 19.7168 36.8843 20.3114 37.0906C21.3138 37.499 21.8328 38.6398 21.6698 39.682C21.614 40.0228 21.4884 40.3483 21.3009 40.638C21.1484 40.8678 20.8175 41.2731 20.4892 41.4271C20.4105 42.3024 19.9646 43.1475 19.6867 44.0998C19.3325 45.1303 19.5526 46.0487 20.3121 46.8242C20.9553 47.5111 20.2297 47.7728 19.7162 48.1276C18.7569 48.8533 18.6874 50.6094 19.8878 51.1262C20.7659 51.5697 21.7233 51.0948 22.3045 50.3969C22.3912 50.3441 22.4908 50.3166 22.5923 50.3174L22.5984 50.3236C22.6218 50.3513 22.6433 50.3796 22.6642 50.4092L22.6722 50.4215C22.7429 50.525 22.8032 50.6347 22.869 50.7406C22.9348 50.8465 23.008 50.9568 23.0676 51.0701C23.1046 51.1459 23.1374 51.2236 23.166 51.303C23.2115 51.4323 23.249 51.5629 23.2859 51.6947C23.3228 51.8266 23.356 51.9411 23.3843 52.0705C23.4073 52.1752 23.4306 52.2795 23.4544 52.3834C23.4702 52.4562 23.4823 52.5298 23.4907 52.6039C23.4974 52.6803 23.503 52.7573 23.503 52.8343C23.4974 53.0068 23.4741 53.1786 23.4538 53.3505C23.4464 53.4053 23.4366 53.4595 23.4237 53.5143C23.3861 53.6548 23.3437 53.7946 23.2957 53.9313C23.2496 54.0545 23.1949 54.1697 23.1389 54.2868C23.0959 54.3761 23.0504 54.4642 23 54.5498C22.9379 54.6502 22.8708 54.7475 22.7989 54.8411C22.7495 54.9008 22.6969 54.9577 22.6415 55.0118C22.5056 55.1417 22.3672 55.2717 22.2233 55.3924C22.1618 55.4405 22.1003 55.4854 22.0388 55.5279C21.8906 55.6234 21.7412 55.717 21.5899 55.8064C21.4226 55.9043 21.2486 55.9912 21.074 56.0774C20.9368 56.139 20.7966 56.2006 20.6577 56.2622C20.582 56.2954 20.5076 56.3299 20.432 56.3626C19.5273 56.5425 18.5996 56.5757 17.6844 56.4611L17.5288 56.4433Z" fill="#652424"/>
<path d="M15.8302 37.4892C15.8856 37.3703 16.011 37.3506 16.1291 37.366C16.4046 37.3404 16.6776 37.292 16.9451 37.2213C17.3006 37.0981 17.6394 36.9305 17.9979 36.8141C18.3481 36.7113 18.7053 36.6341 19.0667 36.5831C19.1239 36.5768 19.1814 36.5932 19.2268 36.6288C19.2722 36.6643 19.3019 36.7162 19.3096 36.7734C19.3274 36.9367 19.178 37.0248 19.0328 37.0266C18.7512 37.082 18.4659 37.1258 18.1904 37.2114C17.8731 37.3143 17.5693 37.4523 17.26 37.5748C16.855 37.7213 16.428 37.7971 15.9975 37.799C15.9639 37.7938 15.9319 37.7809 15.904 37.7612C15.8762 37.7415 15.8533 37.7157 15.8371 37.6857C15.8209 37.6557 15.8119 37.6223 15.8107 37.5883C15.8095 37.5542 15.8162 37.5203 15.8302 37.4892Z" fill="#652525"/>
<path d="M19.807 41.4233C19.8261 41.3038 19.9177 41.2595 20.0118 41.2293C20.1883 41.1184 20.3574 40.9934 20.5216 40.8658C21.0467 40.4648 21.3394 39.8433 21.5295 39.2249C21.1691 39.1633 21.3198 38.6798 21.3099 38.4241C21.2681 38.4068 21.2301 38.3815 21.198 38.3496C21.124 38.2728 21.0661 38.1819 21.0277 38.0823C20.6655 38.004 20.3678 37.6819 20.2012 37.3622C20.1572 37.3422 20.1158 37.3168 20.0782 37.2864C19.9386 37.2864 19.8095 37.2125 19.6865 37.1546C18.9762 37.0715 18.277 37.2975 17.5926 37.457C17.3503 37.5402 17.0853 37.3918 17.2236 37.1195C17.338 36.9809 17.517 36.907 17.6621 36.8054C18.226 36.445 18.8957 36.2805 19.5586 36.251C20.7466 36.2695 22.1555 37.0123 22.094 38.3601C22.0767 39.4688 21.5485 40.7119 20.6181 41.3438C20.4195 41.467 20.2362 41.6795 19.9878 41.6771C19.9303 41.6673 19.879 41.6351 19.8452 41.5875C19.8113 41.54 19.7976 41.4809 19.807 41.4233Z" fill="#652525"/>
<path d="M14.7808 37.7994C14.7521 37.7776 14.7291 37.749 14.7139 37.7162C14.6987 37.6834 14.6917 37.6474 14.6937 37.6113C14.6956 37.5751 14.7064 37.5401 14.725 37.5091C14.7436 37.4781 14.7696 37.4522 14.8005 37.4335C14.9152 37.3683 15.0349 37.3123 15.1584 37.266C15.7113 37.0421 16.2819 36.8647 16.8643 36.7356C17.473 36.5983 18.099 36.5687 18.714 36.4893C18.8896 36.5016 19.0659 36.5016 19.2416 36.4893C19.2996 36.4891 19.3553 36.5118 19.3966 36.5525C19.4379 36.5932 19.4616 36.6486 19.4624 36.7067C19.4562 36.9759 19.1463 36.926 18.9587 36.9383C19.086 37.1539 18.8105 37.4169 18.6138 37.2426C18.3395 37.2561 17.5936 37.5001 17.4165 37.2869C17.1846 37.3375 16.9534 37.391 16.721 37.4391C16.6791 37.4478 16.6358 37.4459 16.5949 37.4335C16.419 37.4847 16.2438 37.5376 16.0685 37.5894C15.9646 37.6245 15.8422 37.651 15.7524 37.5672C15.5532 37.6325 15.4019 37.6867 15.2131 37.7557C15.1086 37.7896 14.993 37.8592 14.8835 37.8462C14.8456 37.8406 14.81 37.8244 14.7808 37.7994Z" fill="#652525"/>
<path d="M19.5284 21.1043C19.4183 21.018 19.4472 20.8807 19.4915 20.7698C19.553 20.4797 19.6145 20.1865 19.6077 19.8883C19.5917 19.4418 19.3783 19.0223 19.1428 18.6564C18.8747 18.2043 18.5635 17.7577 18.0777 17.5218C17.9609 17.4602 17.8373 17.4121 17.7155 17.3585C17.4591 17.2353 17.6368 16.8461 17.9 16.9612C18.6484 17.2298 19.1213 17.7404 19.5038 18.4112C19.9453 19.0482 20.1661 19.815 19.9742 20.5819C19.9367 20.779 19.8979 21.1579 19.6827 21.1579C19.6274 21.1543 19.5741 21.1358 19.5284 21.1043Z" fill="#401717"/>
<path d="M32.8822 21.5383C32.8619 21.0185 32.4044 20.676 31.902 20.7203C31.7779 20.7228 31.6544 20.7373 31.5331 20.7635C31.3209 20.8023 31.1075 20.8411 30.9077 20.7554C30.3438 20.4068 30.6617 19.4508 30.904 18.9796C31.0054 18.8108 31.1499 18.6747 31.2822 18.5318C31.3916 18.4221 31.5097 18.3014 31.6567 18.2472C31.9986 18.1376 32.1412 18.6168 31.7796 18.6735C31.5337 18.8804 31.3043 19.0966 31.1862 19.3948C31.0958 19.6929 30.9403 20.06 31.094 20.3575C31.1973 20.3889 31.3184 20.3421 31.4261 20.3341C32.3042 20.1315 33.2094 20.4789 33.309 21.4657C33.3167 21.4983 33.3168 21.5322 33.3092 21.5649C33.3016 21.5975 33.2867 21.628 33.2654 21.6538C33.2441 21.6797 33.2172 21.7003 33.1867 21.7141C33.1562 21.7278 33.1229 21.7343 33.0895 21.733C33.0368 21.7327 32.9862 21.7124 32.9478 21.6763C32.9094 21.6403 32.8859 21.591 32.8822 21.5383Z" fill="#E8728A"/>
<path d="M16.3236 30.0991C16.0831 30.0252 16.1471 29.6568 16.3974 29.6679C16.6014 29.6423 16.804 29.6061 17.0043 29.5595C17.2486 29.4608 17.4766 29.3258 17.6807 29.1591C18.3449 28.5912 18.7624 27.6678 18.6333 26.7944C18.5951 26.6238 18.5453 26.4285 18.7643 26.3632C18.8208 26.3506 18.88 26.3607 18.9292 26.3913C18.9784 26.422 19.0137 26.4707 19.0274 26.5271C19.4118 28.1631 18.0952 30.0997 16.3697 30.0997L16.3236 30.0991Z" fill="#2E1010"/>
<path d="M13.4975 27.7876C12.6285 27.4531 13.2017 26.3179 13.5516 25.7764C13.9962 25.1279 14.6034 24.6081 15.3121 24.2692C15.8207 24.0148 16.7265 24.0708 16.4971 24.8506C16.3126 25.405 15.7697 25.6748 15.3195 25.9834C15.012 26.2156 14.7206 26.4897 14.5459 26.8408C14.3338 27.2566 14.2341 27.8221 13.7348 27.8221C13.6545 27.8214 13.5746 27.8098 13.4975 27.7876Z" fill="#652424"/>
<path d="M20.4426 36.4425C20.4148 36.4184 20.3824 36.4004 20.3473 36.3895C20.271 36.3652 20.1904 36.3582 20.1111 36.3692C20.0829 36.3614 20.0536 36.3587 20.0244 36.3612C20.0314 36.3532 20.039 36.3458 20.0472 36.339C20.1911 36.1949 20.3257 36.0421 20.4598 35.8893C21.1633 35.0054 21.2149 33.7464 20.9032 32.6955C20.8343 32.4177 21.2445 32.3056 21.3269 32.5834C21.6884 33.8092 21.5888 35.3042 20.6984 36.2793C20.6409 36.3376 20.5869 36.3993 20.5367 36.464C20.5041 36.456 20.4733 36.4486 20.4426 36.4425Z" fill="#E85875"/>
<path d="M56.1166 67.978C55.6032 67.7058 55.1026 67.4089 54.5602 67.2019C53.6735 66.812 52.7769 66.4369 51.8735 66.0932C50.6713 65.6441 49.4224 65.3793 48.1802 65.0768C48.0806 65.0454 47.9705 65.0509 47.8764 65.0054C47.8292 64.9781 47.7938 64.9341 47.7771 64.8821C47.7604 64.83 47.7637 64.7736 47.7863 64.7239C47.8088 64.6741 47.8491 64.6346 47.8992 64.613C47.9493 64.5913 48.0056 64.5891 48.0572 64.6068C48.7269 64.73 49.3843 64.9148 50.0441 65.0879C50.7229 65.24 51.3902 65.4401 52.0408 65.6866C52.9312 66.0229 53.8131 66.3931 54.6851 66.7757C55.2539 66.9937 55.7827 67.2955 56.3171 67.5838C56.5342 67.6996 56.4229 67.999 56.2199 67.999C56.1844 67.9997 56.1491 67.9926 56.1166 67.978Z" fill="#E8728A"/>
<path d="M35.6264 79.7684C34.1893 78.7736 32.8419 77.695 31.6723 76.4083C30.82 75.5354 30.1393 74.5203 29.4327 73.5304C29.2759 73.2945 29.6172 73.0457 29.7931 73.2804C30.2481 73.9136 30.6896 74.5573 31.1681 75.1732C31.7207 75.831 32.3065 76.4601 32.9231 77.0581C33.8511 77.9316 34.8682 78.7021 35.9074 79.4265C36.0802 79.5725 35.9431 79.8164 35.7654 79.8164C35.7149 79.8169 35.6658 79.7999 35.6264 79.7684Z" fill="#E8728A"/>
<path d="M39.6158 77.181L39.3502 77.0319L39.3317 77.0196C39.2266 76.9487 39.1196 76.8791 39.0107 76.8151C39.0512 76.7977 39.0958 76.7923 39.1393 76.7997C39.5931 76.7442 40.0494 76.7116 40.505 76.6722C40.8076 76.6463 41.1108 76.6229 41.4016 76.5989C41.4201 76.634 41.4404 76.6691 41.4594 76.703C41.4976 76.7701 41.5357 76.8373 41.5757 76.9038C41.5972 76.9401 41.6187 76.9795 41.6415 77.0184C41.5627 77.0264 41.484 77.0331 41.4053 77.0374C40.8133 77.0855 40.2207 77.1358 39.6275 77.1884L39.6158 77.181Z" fill="#C95372"/>
<path d="M41.4375 76.6152C41.4392 76.6172 41.4406 76.6192 41.4418 76.6214L41.4499 76.6345L41.4375 76.6152Z" fill="#132935"/>
<path d="M45.4803 76.2404C45.385 76.1104 45.2749 75.994 45.1729 75.8708C48.2851 75.1371 51.2835 73.9693 54.2783 72.8605C56.8788 71.8682 59.4087 70.7046 61.9927 69.6716C64.1517 68.8672 66.3483 68.1588 68.61 67.7091C69.268 67.5859 69.9309 67.4985 70.5957 67.4258H70.6043C70.6307 67.5693 70.6547 67.7134 70.6744 67.857C70.3011 67.897 69.9285 67.9426 69.557 67.9968C67.1809 68.3522 64.8755 69.1055 62.6181 69.9063C60.6638 70.6325 58.7784 71.5294 56.8444 72.3086C54.9166 73.1094 52.9574 73.8257 50.9969 74.5397C49.1878 75.1858 47.359 75.8067 45.4877 76.2508L45.4803 76.2404Z" fill="#C95372"/>
<path d="M51.8693 59.1805C51.7653 59.1509 51.6608 59.1251 51.5556 59.0998L51.4111 59.061C52.6441 58.7068 53.8924 58.4075 55.1463 58.1734C55.8731 58.0274 56.6061 57.9202 57.3422 57.834L57.3969 57.8488C57.5052 57.8779 57.6132 57.9075 57.721 57.9375L57.9252 57.9991L57.9547 58.0083C58.1187 58.06 58.2849 58.1097 58.4534 58.1574C56.3513 58.355 54.27 58.7336 52.2327 59.2889C52.1122 59.2507 51.991 59.2146 51.8693 59.1805Z" fill="#C95372"/>
<path d="M24.7246 44.5383C24.7289 44.485 24.7524 44.435 24.7907 44.3977C24.8291 44.3604 24.8797 44.3384 24.9331 44.3357C25.091 44.3006 25.2465 44.2554 25.3986 44.2002C25.6505 44.0778 25.8738 43.9034 26.0535 43.6883C26.1928 43.5103 26.2954 43.3064 26.3554 43.0883C26.4003 42.9036 26.4083 42.6572 26.6629 42.6966C26.7194 42.7091 26.7687 42.7434 26.8002 42.792C26.8317 42.8407 26.8429 42.8997 26.8314 42.9565C26.768 43.354 26.5965 43.7263 26.3358 44.0326C26.0793 44.3092 25.7596 44.5494 25.3974 44.664C25.2744 44.6966 25.0831 44.773 24.9355 44.7675C24.8199 44.7638 24.7301 44.7084 24.7246 44.5383Z" fill="#2E1010"/>
<path d="M23.2194 42.0706C23.0903 41.9178 23.1856 41.7109 23.249 41.5501C23.3566 41.2132 23.6899 41.0616 23.9832 40.9156C24.2433 40.7924 24.4309 41.1762 24.1757 41.3092C24.0238 41.3918 23.8534 41.4565 23.7274 41.5778C23.6719 41.6662 23.629 41.762 23.6001 41.8624C23.6542 42.0213 23.5103 42.1494 23.3707 42.1445C23.3417 42.1438 23.3131 42.1369 23.287 42.1241C23.2609 42.1114 23.2379 42.0931 23.2194 42.0706Z" fill="#652424"/>
<path d="M20.252 49.9951C20.0896 49.9896 20.0164 49.8165 20.0324 49.6761C20.0589 49.4777 20.1819 49.3133 20.3276 49.1833C20.5189 48.9917 20.7719 48.8743 21.0415 48.8519C21.3121 48.7848 21.4326 49.1784 21.1694 49.2708C21.0495 49.3071 20.9173 49.3003 20.8066 49.365C20.6787 49.4549 20.5311 49.5541 20.4746 49.7056C20.4858 49.7394 20.4887 49.7753 20.483 49.8104C20.4774 49.8455 20.4634 49.8788 20.4422 49.9073C20.421 49.9358 20.3933 49.9588 20.3613 49.9743C20.3294 49.9898 20.2942 49.9974 20.2587 49.9964L20.252 49.9951Z" fill="#E8728A"/>
<path d="M23.1558 24.3245L23.5648 24.6756H24.0044C24.0186 24.7526 24.034 24.8327 24.053 24.9337L24.1791 24.8561C24.1975 24.9085 24.216 24.959 24.2369 25.0181H24.5253L24.5868 24.8641L24.9754 25.1684L24.8936 25.267L25.254 25.3039V25.7548L25.5049 25.6556C25.5104 25.6975 25.5153 25.7376 25.5215 25.7844L25.3044 25.8608L25.5443 25.9285C25.5074 25.9618 25.5375 25.9347 25.5688 25.907L25.6961 26.2809L25.5941 26.4121C25.6211 26.4583 25.6556 26.5137 25.706 26.6005L25.5203 26.7909L25.5978 26.9141C25.516 27.0582 25.4053 27.203 25.4366 27.3964L25.2522 27.6292L25.5326 27.6859L25.4422 27.7851L25.7552 28.3019L25.5338 28.1885C25.3376 28.1793 25.4188 28.4965 25.1956 28.4411C25.2177 28.3561 25.2374 28.2785 25.2638 28.175C24.9637 28.2101 24.9939 28.462 24.8297 28.6191L24.6889 28.632C24.6378 28.7176 24.5892 28.8002 24.5413 28.8815L24.3463 28.7762C24.3255 28.8154 24.3088 28.8567 24.2965 28.8994C24.2793 29.033 24.3445 29.1143 24.4706 29.1501C24.4521 29.1821 24.4343 29.2147 24.3986 29.2782L24.0666 28.9733H23.7136L23.6601 28.8181C23.6398 28.8242 23.6066 28.8261 23.6017 28.839C23.5402 29.0016 23.4787 29.1667 23.384 29.4211C23.3188 29.1802 23.2764 29.0435 23.403 28.9412L22.9953 28.7361C22.9394 28.8556 23.0568 29.0589 22.8404 29.1359L22.7241 29.0269L22.8041 28.9265C22.7594 28.8795 22.7093 28.8381 22.6547 28.8033C22.5655 28.7577 22.421 28.8827 22.3632 28.709C22.3632 28.709 22.3699 28.7164 22.3761 28.722L22.4474 28.6604L22.4197 28.6326C22.3985 28.656 22.3796 28.6814 22.3632 28.7084C22.3217 28.7372 22.2786 28.7635 22.234 28.7873C22.0858 28.7257 22.0969 28.5852 22.111 28.4423C22.1978 28.3339 22.1978 28.3339 22.1166 28.1885C22.1166 28.2883 22.1166 28.3684 22.111 28.4423C21.9444 28.3086 21.7833 28.1682 21.6074 28.0154L21.4266 27.9994C21.4414 27.8849 21.4543 27.782 21.4684 27.6705L21.3541 27.6625L21.271 27.8417C21.0681 27.8079 21.0392 27.6785 21.049 27.522L20.8338 27.4167C20.9115 27.3428 20.9963 27.277 21.0872 27.2202C21.0734 27.2227 21.0594 27.2237 21.0454 27.2233C21.057 27.2806 21.0681 27.3373 21.0792 27.3945L21.1358 27.3878C21.1357 27.3284 21.1189 27.2703 21.0872 27.2202C20.9924 27.1188 20.9079 27.0082 20.835 26.8901L20.709 26.9609L20.7908 26.5199H20.9697L20.8916 26.3825L20.9617 26.3012L20.8695 26.2008L21.156 26.016L21.073 25.8608C21.0958 25.7887 21.2384 25.6932 21.0583 25.6193C21.1407 25.4228 21.2428 25.2436 21.2286 25.0304L21.359 24.9688C21.3541 24.9688 21.386 24.9658 21.3922 24.9775C21.4419 25.0864 21.5078 25.1871 21.5877 25.2762C21.5527 25.0551 21.5176 24.8346 21.4807 24.5986H21.9536L22.0502 24.7785L22.1012 24.7459L22.0151 24.3405L22.0766 24.3196L22.2433 24.5875H22.3712C22.3792 24.6448 22.3878 24.7021 22.3988 24.7791C22.4603 24.7175 22.5144 24.6849 22.5347 24.6381C22.5618 24.5765 22.5618 24.5025 22.4585 24.5001L22.2961 24.3683C22.3189 24.3282 22.3447 24.2826 22.3712 24.2371L22.6786 24.3886L22.8441 24.3067C22.8748 24.3738 22.9006 24.4299 22.9271 24.4915L23.1558 24.3245ZM23.8569 24.829V24.7853H23.5937V24.829H23.8569ZM23.7031 25.1142H23.7468V24.9387H23.7031V25.1142ZM25.5074 26.2402C25.5043 26.2149 25.5006 26.1897 25.4975 26.1644L25.3548 26.1983L25.3622 26.2402H25.5074ZM21.2944 26.4305H21.2501V26.6061H21.2944V26.4305ZM21.0693 26.972L21.073 27.0477L21.2206 27.0151L21.2151 26.972H21.0693ZM23.245 28.7417V28.7706H23.3329V28.7417H23.245ZM21.5514 27.4839H21.5232V27.5713H21.5521L21.5514 27.4839ZM24.9053 25.6698V25.6994H24.9933V25.6698H24.9053ZM22.0151 24.8801V24.9097H22.1024V24.8801H22.0151ZM21.723 24.7631H21.6941V24.8512H21.723V24.7631Z" fill="#F87A7A"/>
<path d="M26.1862 48.377C26.2336 48.5076 26.2705 48.6093 26.3166 48.738L25.8948 49.046C25.6279 49.086 25.4065 48.9721 25.2694 48.6696L25.0978 48.799L24.965 48.6142L24.7971 48.7189L24.3094 47.9995L24.2006 47.9613L24.2984 47.8541C24.2449 47.835 24.1938 47.8177 24.1373 47.7986C24.0696 47.5843 24.1323 47.3915 24.2467 47.2061H24.4312C24.4835 46.8901 24.8481 46.8691 24.9847 46.6258L24.8918 46.5328L25.0763 46.5045L25.0148 46.4275H26.0602L26.1678 46.603L26.2527 46.5187L26.5601 46.9049L26.4722 47.0077L26.8461 47.0459L26.7342 47.1894L26.9039 47.4217L26.8215 47.5874L27.0103 47.6816V47.8664L26.8375 47.9489L26.9094 48.0253C26.8824 48.0768 26.859 48.1301 26.8393 48.1849C26.7606 48.4608 26.7489 48.4664 26.4568 48.3623C26.4168 48.3514 26.3753 48.347 26.3338 48.3493C26.284 48.3546 26.2346 48.3639 26.1862 48.377ZM25.0523 47.9077H25.0228V47.9958H25.0523V47.9077ZM25.6057 48.5514V48.5809H25.6931V48.5514H25.6057Z" fill="#F87A7A"/>
<path d="M24.6211 29.0157L24.7785 28.7656L24.8763 28.9584C24.7828 29.0379 24.7828 29.0379 24.6211 29.0157Z" fill="#F87A7A"/>
<path d="M25.4337 27.3957H25.569L25.6532 27.2109C25.7553 27.3736 25.6919 27.4783 25.6175 27.5232L25.3906 27.4376L25.4337 27.3957Z" fill="#F87A7A"/>
<path d="M26.4615 48.4324L26.5666 48.5722C26.4209 48.6812 26.3864 48.5371 26.2764 48.449L26.4615 48.4324Z" fill="#F87A7A"/>
<path d="M24.1939 29.3114H24.0488C24.0488 29.2972 24.0438 29.2836 24.042 29.2695L24.184 29.2356L24.1939 29.3114Z" fill="#F87A7A"/>
<path d="M22.5439 29.0046H22.6313V29.0336H22.5439V29.0046Z" fill="#F87A7A"/>
<path d="M23.1137 29.0817C23.1252 29.0817 23.1346 29.0538 23.1346 29.0195C23.1346 28.9851 23.1252 28.9573 23.1137 28.9573C23.1021 28.9573 23.0928 28.9851 23.0928 29.0195C23.0928 29.0538 23.1021 29.0817 23.1137 29.0817Z" fill="#F87A7A"/>
<path d="M24.4619 29.1425L24.5234 29.071L24.5511 29.0988L24.4797 29.1604L24.4619 29.1425Z" fill="#F87A7A"/>
<path d="M22.36 24.2463L22.2881 24.1847L22.3158 24.157L22.3773 24.2291C22.3712 24.2345 22.3655 24.2402 22.36 24.2463Z" fill="#F87A7A"/>
<path d="M20.5865 27.1328V27.2203H20.5576V27.1328H20.5865Z" fill="#F87A7A"/>
<path d="M25.7266 26.9572V26.8691H25.7555V26.9572H25.7266Z" fill="#F87A7A"/>
<path d="M20.7848 26.5271L20.7129 26.4655L20.7406 26.4377L20.8021 26.5098L20.7848 26.5271Z" fill="#F87A7A"/>
<path d="M21.2207 25.0359L21.1494 24.9743L21.1765 24.9465L21.238 25.0186C21.2319 25.024 21.2262 25.0298 21.2207 25.0359Z" fill="#F87A7A"/>
<path d="M23.1475 24.3166L23.209 24.2451L23.2366 24.2728L23.1653 24.3344L23.1475 24.3166Z" fill="#F87A7A"/>
</svg>
