<svg width="90" height="91" viewBox="0 0 90 91" fill="none" xmlns="http://www.w3.org/2000/svg">
<path d="M44.925 91C69.7364 91 89.85 70.8 89.85 45.882C89.85 20.964 69.7364 0.763916 44.925 0.763916C20.1136 0.763916 0 20.964 0 45.882C0 70.8 20.1136 91 44.925 91Z" fill="white"/>
<path d="M85.8332 35.1597C85.8232 35.2919 85.8055 35.4233 85.7803 35.5534C85.7336 35.594 85.6838 35.6378 85.6341 35.6753C85.0225 36.1976 84.3678 36.6669 83.6772 37.0781C83.4159 37.2343 83.1483 37.3906 82.8714 37.528C82.1926 37.8738 81.4179 37.9811 80.6713 37.8327C79.9246 37.6843 79.249 37.2888 78.7524 36.7094C77.9591 35.7909 77.1036 34.6786 76.6836 33.7256C78.2013 32.7556 79.8624 32.0333 81.6053 31.5854C82.1283 31.4568 82.6742 31.454 83.1986 31.5772C83.723 31.7004 84.211 31.9461 84.6229 32.2944C85.0349 32.6427 85.3592 33.0837 85.5695 33.5816C85.7798 34.0795 85.8702 34.6202 85.8332 35.1597Z" fill="#BC42AD"/>
<path d="M28.3158 36.3283C28.1731 36.9302 27.9913 37.522 27.7714 38.0999C27.6967 38.3082 27.6159 38.5113 27.5288 38.7091C27.2921 39.2578 26.8791 39.7111 26.3559 39.9964C24.7319 39.8339 22.5355 39.4777 21.5929 38.7154C21.5832 38.7112 21.5747 38.7048 21.568 38.6966C21.4261 38.5972 21.3121 38.4628 21.2369 38.3063C21.1617 38.1498 21.1279 37.9765 21.1387 37.8031C21.1564 37.1303 21.224 36.4598 21.3409 35.7972C21.3409 35.7222 21.3658 35.6441 21.3814 35.5629C21.3969 35.4816 21.3969 35.4691 21.4094 35.4223C21.5898 34.4535 21.8467 33.5006 22.1778 32.5728C22.8649 30.6178 23.9212 28.8143 25.2888 27.2613C25.4786 27.0487 25.7013 26.8683 25.9484 26.7271C26.4647 26.7938 26.9496 27.0133 27.3413 27.3577C27.733 27.7021 28.0138 28.1558 28.1479 28.6611C28.2754 29.1328 28.3905 29.6421 28.4838 30.1826C28.8479 32.2211 28.7907 34.313 28.3158 36.3283Z" fill="#BC42AD"/>
<path d="M49.5459 1H48.4209V37H49.5459V1Z" fill="#FCA824"/>
<path d="M28.4962 30.1886L27.7589 30.6041L27.2829 35.8813L26.4865 35.1439L23.7519 32.6194L23.4004 32.3069L22.1777 32.585C22.8648 30.63 23.9212 28.8265 25.2888 27.2735C25.4785 27.0609 25.7012 26.8805 25.9483 26.7393C26.4647 26.806 26.9496 27.0255 27.3413 27.3699C27.733 27.7143 28.0137 28.1681 28.1478 28.6733C28.2878 29.1388 28.4029 29.6481 28.4962 30.1886Z" fill="#FF80C3"/>
<path d="M44.3674 34.888C41.3124 34.5162 38.4565 32.3885 37.4765 29.4734C37.1434 28.4339 37.0476 27.3324 37.1962 26.2507C37.3449 25.1689 37.7341 24.1346 38.3352 23.2246C37.4875 24.1663 36.9015 25.3154 36.6361 26.5565C36.3707 27.7976 36.4352 29.087 36.8232 30.2951C37.8032 33.2227 40.656 35.3379 43.711 35.7097C44.803 35.8409 45.9976 35.6347 47.0958 35.5785C47.2576 35.5785 47.4349 35.5535 47.6123 35.5316C46.9568 35.4091 46.3206 35.1989 45.7207 34.9067C45.2701 34.9429 44.817 34.9366 44.3674 34.888Z" fill="#FCA824"/>
<path d="M49.1142 34.4786C49.7364 33.6007 49.2946 32.5103 49.0271 31.6011C48.6631 30.3513 48.3862 29.0672 47.82 27.8736C47.0204 26.1896 45.5551 24.4368 43.5112 24.6055C42.9835 24.6451 42.4739 24.8157 42.028 25.1021C41.5822 25.3884 41.2142 25.7814 40.957 26.2458C41.4852 25.7761 42.1514 25.492 42.8548 25.4366C44.8987 25.2648 46.3671 27.0207 47.1635 28.7016C47.7298 29.8951 48.0066 31.1668 48.3737 32.429C48.6382 33.3414 49.0706 34.4286 48.4608 35.3097C48.4362 35.3438 48.408 35.3752 48.3769 35.4035C49.0446 35.2793 49.6692 34.9844 50.1906 34.5474C50.1906 34.4193 50.1906 34.2912 50.1906 34.1631C49.8185 34.3463 49.4257 34.4837 49.0208 34.5724C49.0569 34.5466 49.0885 34.5149 49.1142 34.4786Z" fill="#FCA824"/>
<path d="M50.2035 34.1628C49.8314 34.346 49.4386 34.4834 49.0337 34.5721C49.0654 34.5453 49.0926 34.5136 49.1146 34.4784C49.7368 33.6004 49.295 32.51 49.0275 31.6008C48.6635 30.351 48.3866 29.0669 47.8204 27.8734C47.0209 26.1893 45.5556 24.4365 43.5116 24.6052C42.9839 24.6449 42.4743 24.8155 42.0285 25.1018C41.5827 25.3881 41.2146 25.7811 40.9575 26.2456C40.6388 26.5302 40.3819 26.8777 40.2026 27.2663C40.0234 27.6549 39.9255 28.0763 39.9153 28.5045C39.853 30.3104 40.9295 31.6633 42.2983 32.7256C43.3583 33.5748 44.5055 34.308 45.7204 34.9126C45.2695 34.9456 44.8164 34.9362 44.3671 34.8845C41.3121 34.5127 38.4562 32.385 37.4762 29.4699C37.1431 28.4304 37.0473 27.3289 37.1959 26.2472C37.3446 25.1654 37.7338 24.1312 38.3348 23.2211C38.7079 22.817 39.1351 22.4668 39.6041 22.1807C40.5425 21.6261 41.6058 21.3202 42.6943 21.2917C43.7827 21.2633 44.8605 21.5133 45.8262 22.0182C47.8795 23.118 49.1799 25.302 49.7555 27.5641C50.2874 29.7293 50.2626 31.9538 50.2035 34.1628Z" fill="#FEC02F"/>
<path d="M56.1375 33.6752C59.0525 32.6879 61.4263 30.0353 61.7871 26.9671C61.9024 25.8826 61.7733 24.7859 61.4092 23.7583C61.0452 22.7306 60.4556 21.7985 59.6841 21.0308C60.7043 21.7801 61.5103 22.7857 62.0214 23.9466C62.5325 25.1075 62.7306 26.383 62.596 27.6451C62.2289 30.7133 59.8614 33.3659 56.9464 34.3532C55.9042 34.7063 54.694 34.7469 53.6051 34.9156C53.4465 34.9406 53.2691 34.9593 53.0918 34.975C53.7083 34.722 54.288 34.3867 54.8153 33.9783C55.2641 33.9168 55.7066 33.8154 56.1375 33.6752Z" fill="#FCA824"/>
<path d="M51.4035 34.244C50.6289 33.5066 50.8311 32.3506 50.9089 31.4071C51.0115 30.0979 51.024 28.7951 51.3382 27.5109C51.78 25.6988 52.8564 23.6804 54.8941 23.4304C55.419 23.3615 55.9527 23.4245 56.4473 23.6137C56.942 23.8029 57.3821 24.1125 57.7283 24.5146C57.1151 24.1615 56.4044 24.0179 55.703 24.1053C53.6684 24.3553 52.592 26.3736 52.1471 28.167C51.836 29.4512 51.8204 30.7541 51.7147 32.0632C51.64 33.0005 51.4378 34.1628 52.2124 34.9001C52.2437 34.9298 52.2781 34.956 52.3151 34.9782C51.6357 34.9916 50.9642 34.8303 50.3645 34.5096C50.3365 34.3846 50.3053 34.2596 50.2773 34.1347C50.6782 34.2369 51.0896 34.2915 51.5031 34.2971C51.4682 34.2829 51.4348 34.2651 51.4035 34.244Z" fill="#FCA824"/>
<path d="M50.2768 34.1565C50.6776 34.2588 51.089 34.3133 51.5026 34.319C51.4667 34.2978 51.4333 34.2726 51.403 34.244C50.6284 33.5066 50.8306 32.3506 50.9084 31.407C51.011 30.0979 51.0235 28.795 51.3377 27.5109C51.7794 25.6987 52.8559 23.6804 54.8936 23.4304C55.4184 23.3615 55.9521 23.4244 56.4468 23.6137C56.9414 23.8029 57.3816 24.1124 57.7277 24.5146C58.0961 24.7295 58.4169 25.0178 58.6705 25.3616C58.9241 25.7054 59.105 26.0976 59.2024 26.5142C59.6286 28.2701 58.8508 29.8167 57.7246 31.1321C56.8594 32.1828 55.8842 33.137 54.8158 33.9784C55.2649 33.9139 55.7074 33.8093 56.138 33.666C59.0531 32.6786 61.4268 30.026 61.7876 26.9579C61.9029 25.8733 61.7738 24.7766 61.4097 23.749C61.0457 22.7214 60.4561 21.7892 59.6846 21.0215C59.2379 20.7024 58.7489 20.4479 58.2317 20.2654C57.2024 19.9145 56.1012 19.8319 55.0314 20.0254C53.9616 20.2188 52.9582 20.682 52.1154 21.3714C50.3266 22.8649 49.4928 25.2707 49.3902 27.6202C49.2906 29.8198 49.7697 32.0038 50.2768 34.1565Z" fill="#FEC02F"/>
<path d="M53.5163 33.1661C53.5475 33.4161 53.5475 33.6691 53.5163 33.9191C53.4185 34.6279 53.0864 35.2832 52.5734 35.7798C52.0603 36.2764 51.396 36.5856 50.6871 36.6576C49.9782 36.7297 49.2657 36.5605 48.664 36.1772C48.0623 35.7939 47.6062 35.2187 47.3689 34.544C47.2837 34.3071 47.2283 34.0604 47.204 33.8097C47.1764 33.0003 47.456 32.2105 47.9864 31.6004C48.5167 30.9902 49.2581 30.6052 50.0605 30.5234C50.8628 30.4416 51.6661 30.6691 52.3078 31.1597C52.9494 31.6504 53.3814 32.3676 53.5163 33.1661Z" fill="#FEC02F"/>
<path d="M53.5019 33.9064C53.4041 34.6152 53.072 35.2705 52.559 35.7671C52.0459 36.2637 51.3816 36.5728 50.6727 36.6449C49.9638 36.717 49.2513 36.5478 48.6496 36.1645C48.0478 35.7812 47.5918 35.206 47.3545 34.5313C47.4497 33.8205 47.7805 33.1627 48.2936 32.664C48.8068 32.1653 49.4722 31.8548 50.1827 31.7826C50.8931 31.7104 51.607 31.8807 52.2093 32.266C52.8115 32.6513 53.2669 33.2292 53.5019 33.9064Z" fill="#FCA824"/>
<path d="M70.8148 83.8692L68.522 80.1886L67.7598 78.9826L62.8723 71.1341L60.4519 67.2505L57.4933 62.4733L56.9209 61.5547L55.5303 59.3239L57.7329 58.1366L65.5323 53.9343L68.802 52.1721L69.1722 54.7091L69.2002 54.9091L69.5766 57.493L69.7384 58.5865L70.8117 65.9507L71.3561 69.7L71.7108 72.1246L72.0997 74.799L73.1699 82.1351L73.2912 82.96C73.3392 83.2687 73.279 83.5846 73.121 83.8537C72.963 84.1228 72.7169 84.3286 72.4248 84.4359C72.1326 84.5432 71.8124 84.5453 71.5188 84.442C71.2252 84.3386 70.9764 84.1362 70.8148 83.8692Z" fill="#922081"/>
<path d="M24.7852 55.7373L27.6442 84.5474C27.6742 84.8562 27.8092 85.1452 28.0265 85.3657C28.2438 85.5863 28.5301 85.7249 28.8372 85.7583C29.1444 85.7917 29.4536 85.7177 29.7128 85.549C29.9721 85.3802 30.1655 85.1269 30.2606 84.8317L39.8364 55.2405L24.7852 55.7373Z" fill="#922081"/>
<path d="M21.5913 38.7029V38.7185C21.5913 38.8591 21.5913 38.9997 21.5695 39.1403C21.5561 39.3351 21.5217 39.5279 21.4669 39.7152C21.442 39.7933 21.4171 39.8652 21.386 39.9402C21.2322 40.3327 20.987 40.6825 20.6709 40.9603C20.3547 41.2381 19.977 41.4357 19.5692 41.5367C19.2176 41.6242 18.8318 41.7148 18.4336 41.7961C17.4483 42.0228 16.4391 42.1278 15.4284 42.1085C14.5853 42.0585 13.9537 41.8148 13.8168 41.2399C13.8168 41.2399 13.736 41.0118 13.6302 40.5963C13.2071 38.9716 12.364 34.5099 14.2711 29.9108C14.4567 29.4757 14.7554 29.0988 15.1359 28.8194C15.5163 28.54 15.9646 28.3685 16.4337 28.3229C16.9028 28.2772 17.3756 28.359 17.8024 28.5598C18.2292 28.7605 18.5944 29.0729 18.8598 29.464C19.0994 29.814 19.342 30.1951 19.5723 30.6044C19.9743 31.298 20.3197 32.0232 20.6051 32.7728C20.6285 32.8248 20.6493 32.878 20.6673 32.9321C20.9721 33.7432 21.2053 34.5796 21.3642 35.4316C21.3642 35.4754 21.3642 35.5191 21.386 35.5629C21.4078 35.6066 21.4078 35.6816 21.4202 35.7441C21.5753 36.7222 21.6327 37.7134 21.5913 38.7029Z" fill="#922081"/>
<path d="M85.7793 35.5536C85.6903 36.0252 85.5026 36.4725 85.2287 36.8658C85.1944 36.9189 85.1571 36.9689 85.1198 37.022C84.8709 37.3782 84.5971 37.7375 84.2953 38.0937C83.454 39.1026 82.4807 39.9928 81.4021 40.7401C81.1719 40.9057 80.9323 41.0525 80.6834 41.2118C80.3723 41.3962 80.0612 41.5712 79.7501 41.7399C79.6866 41.7739 79.6212 41.8042 79.5541 41.8305C79.0654 42.047 78.5314 42.1403 77.9986 42.1023C77.5462 42.0725 77.1043 41.9528 76.6984 41.7501C76.2925 41.5473 75.9308 41.2656 75.6342 40.9213C74.7507 39.9027 73.7894 38.6342 73.4565 37.6157C73.2512 37.0189 73.2574 36.5096 73.6183 36.1878C73.6183 36.1878 73.864 35.916 74.3307 35.4942C75.0657 34.8422 75.8511 34.2498 76.6795 33.7227C77.0995 34.66 77.955 35.7879 78.7484 36.7065C79.2431 37.2891 79.9183 37.6881 80.6658 37.8394C81.4133 37.9906 82.1897 37.8855 82.8705 37.5407C83.1474 37.397 83.4149 37.247 83.6762 37.0908C84.3668 36.6796 85.0215 36.2103 85.6331 35.6879C85.6829 35.6379 85.7326 35.5942 85.7793 35.5536Z" fill="#AA35A2"/>
<path d="M84.0468 51.9664C84.0438 54.781 83.4056 57.5584 82.1802 60.0898C82.09 60.1898 81.9967 60.2866 81.9033 60.3835L81.7136 60.5772C81.6233 60.6709 81.5331 60.7615 81.4398 60.8459C81.4087 60.8803 81.3745 60.9115 81.3433 60.9396C81.2251 61.0552 81.1038 61.1677 80.9825 61.2771C80.8611 61.3864 80.7118 61.5177 80.5749 61.6364L80.55 61.6551L80.5034 61.6957C80.3945 61.7895 80.2887 61.877 80.1767 61.9644C79.8656 62.2269 79.5172 62.48 79.175 62.7205C79.0412 62.8143 78.9043 62.9049 78.7674 62.9955C78.6305 63.0861 78.4563 63.1892 78.3163 63.2829C78.1763 63.3767 77.9741 63.4923 77.7999 63.5954C77.6257 63.6985 77.4888 63.7797 77.3146 63.8672L77.1746 63.9391L77.1372 63.9578L76.6332 64.2109L76.5741 64.239H76.5399C76.4248 64.2921 76.3097 64.3484 76.1915 64.3984C76.0732 64.4483 75.983 64.4952 75.8804 64.539L75.7093 64.6108C75.5475 64.6796 75.3982 64.7452 75.2271 64.8045L74.7106 64.9951H74.6826C74.5706 65.0357 74.4555 65.0732 74.3435 65.1076C74.0137 65.2201 73.6778 65.3169 73.3387 65.42C73.2049 65.4575 73.068 65.4919 72.9342 65.5231C72.8004 65.5544 72.6604 65.5888 72.5236 65.6169L72.2125 65.6794L71.9263 65.7356L71.5871 65.795L71.2605 65.845L70.8374 65.9043H70.8187L65.6171 66.5979L62.7425 66.9604L60.4621 67.2447L57.8364 67.5759L57.659 67.5977L57.0368 67.6758L54.8933 67.9445L46.8855 68.9475L46.4438 69.0037L44.3034 69.2724L44.1665 69.288H44.1447L43.7029 69.3318L43.2518 69.3662H43.0092H42.6981H41.7834C41.6465 69.3662 41.5128 69.3662 41.3759 69.3474H41.2328L40.8999 69.3224H40.875C40.7226 69.3224 40.5639 69.2912 40.4177 69.2724L39.9666 69.2131L39.699 69.1693C39.4408 69.1256 39.1826 69.0756 38.9275 69.0193L38.6164 68.9506L38.3488 68.8819C38.2306 68.8527 38.1155 68.8215 38.0035 68.7881L37.7142 68.7038C37.6803 68.6973 37.6469 68.6879 37.6146 68.6757C37.4249 68.6194 37.2351 68.5538 37.0484 68.4882L36.6844 68.3538L36.252 68.182C36.0716 68.107 35.8942 68.0289 35.7169 67.9477H35.692H35.6702L35.6173 67.9227C35.4991 67.8696 35.384 67.8133 35.2689 67.754L34.9267 67.579C34.7929 67.5071 34.6591 67.4353 34.5285 67.3603C34.3978 67.2853 34.3449 67.2572 34.2547 67.2009L33.9249 67.001L33.6667 66.8354C33.5018 66.726 33.337 66.6167 33.1752 66.5011L32.973 66.3542H32.9543C32.8299 66.2667 32.7085 66.173 32.5872 66.0793C32.4659 65.9855 32.2761 65.8231 32.1112 65.6919L32.0676 65.6544L31.8343 65.4544L31.7317 65.3607C31.6508 65.2888 31.5699 65.2169 31.4921 65.142C31.4143 65.067 31.3054 64.967 31.2152 64.8764C31.125 64.7858 31.0908 64.7577 31.0317 64.6952C30.9726 64.6327 30.9041 64.5671 30.8419 64.4983C30.6957 64.3484 30.5557 64.1859 30.4188 64.039C30.3379 63.9453 30.257 63.8547 30.1793 63.761V63.7454L30.1077 63.6579C30.0113 63.5454 29.921 63.4329 29.8308 63.3142C29.7157 63.1673 29.6068 63.0205 29.4979 62.8705C29.4966 62.8654 29.4966 62.86 29.4979 62.8549C29.3922 62.7081 29.2895 62.5612 29.1868 62.4112C28.9784 62.0988 28.7793 61.7864 28.5926 61.4583C28.4962 61.2958 28.406 61.1459 28.3189 60.9615C28.2317 60.7772 28.1664 60.6678 28.0917 60.521C27.9891 60.3116 27.8926 60.1023 27.7993 59.8961C27.7371 59.7555 27.678 59.6149 27.622 59.4712C27.539 59.2629 27.4612 59.0546 27.3887 58.8463C27.3482 58.7338 27.3078 58.6182 27.2704 58.5026C27.2704 58.4589 27.2393 58.4151 27.2269 58.3683C27.2144 58.3214 27.1709 58.1933 27.146 58.1058C27.1211 58.0183 27.1118 57.9933 27.0962 57.9371C27.0807 57.8808 27.0433 57.7527 27.0184 57.659C26.9936 57.5653 26.9531 57.4091 26.922 57.281C26.9033 57.2029 26.8878 57.1247 26.8691 57.0435C26.8504 56.9623 26.8318 56.8842 26.8162 56.8029C26.8007 56.7217 26.782 56.6498 26.7696 56.5717C26.7416 56.4405 26.7198 56.3093 26.698 56.178C26.6913 56.1481 26.6861 56.1179 26.6824 56.0874L26.6638 55.9718V55.9062C26.6638 55.8406 26.642 55.775 26.6327 55.7094C26.6233 55.6438 26.6078 55.5375 26.5985 55.4501L25.9016 49.848C25.8006 49.0482 25.7611 48.2418 25.7834 47.436V47.186C25.7834 47.1048 25.7834 47.0235 25.7834 46.9423V46.9111C25.7989 46.6674 25.8176 46.4237 25.8425 46.1831C25.844 46.1759 25.844 46.1684 25.8425 46.1612C25.8425 46.0237 25.8767 45.8831 25.8954 45.7425C25.9327 45.4645 25.9762 45.1895 26.0291 44.9146C26.054 44.7771 26.082 44.6396 26.1131 44.5053C26.1442 44.3709 26.1722 44.2335 26.2065 44.0991C26.2407 43.9648 26.2718 43.8367 26.306 43.7054C26.3433 43.5711 26.3807 43.4399 26.4211 43.3086C26.4616 43.1774 26.502 43.0431 26.5456 42.9118L26.6576 42.5838C26.7167 42.4213 26.7758 42.2713 26.8411 42.0995C26.8691 42.0245 26.9002 41.9495 26.9313 41.8745C26.9967 41.7058 27.0682 41.5402 27.1429 41.3778C27.6094 40.8983 28.1061 40.4496 28.63 40.0343C29.0882 39.6698 29.5659 39.3308 30.061 39.0188C32.0029 37.7992 34.1872 37.0218 36.4604 36.7411L37.9195 36.5568L44.0358 35.7882L46.4375 35.4758L46.9384 35.4133L47.7162 35.3164L48.5281 35.2164L48.7739 35.1852L49.3463 35.1133L49.9437 35.0383L51.1445 34.8852L52.0218 34.7759L53.3067 34.6165L54.0285 34.5259L54.8653 34.4197L57.7306 34.0604L63.094 33.3605C63.6913 33.2856 64.2855 33.2397 64.8766 33.2231C67.1453 33.1554 69.407 33.5059 71.5498 34.2572C72.198 34.4838 72.8327 34.7477 73.4507 35.0477C73.7462 35.1883 74.0355 35.3383 74.3218 35.4945C75.8186 36.3151 77.197 37.3368 78.419 38.5314C81.3931 41.4301 83.3143 45.2461 83.8757 49.37C83.8757 49.4543 83.9006 49.5356 83.9099 49.6199C84.0033 50.3985 84.049 51.1821 84.0468 51.9664Z" fill="#BC42AD"/>
<path d="M82.1829 60.1018C81.4248 61.6706 80.4532 63.1259 79.2959 64.4259C78.8001 64.9853 78.2702 65.5133 77.7093 66.0069C77.2924 66.3787 76.8569 66.7317 76.4058 67.0598C76.0729 67.3066 75.7307 67.5441 75.3822 67.7659C75.3045 67.8159 75.2267 67.8659 75.1458 67.9128C75.0058 68.0002 74.8627 68.0846 74.7196 68.1658L74.62 68.2221L74.4396 68.3252C74.3556 68.3752 74.2685 68.422 74.1814 68.4689C74.1036 68.5095 74.0289 68.5533 73.948 68.5908L73.8205 68.6532C73.7023 68.7157 73.5809 68.772 73.4627 68.8313C73.2978 68.9094 73.133 68.9876 72.965 69.0594L72.573 69.2313L72.5356 69.2469C72.3459 69.3281 72.1499 69.4062 71.9539 69.4781L71.8699 69.5093L71.6552 69.5843L71.4437 69.6624L71.3628 69.6905C71.2725 69.7218 71.1792 69.7437 71.089 69.7749L70.557 69.9374L70.3486 69.9999L70.0032 70.0905L69.8757 70.1217L69.6984 70.1623L69.5335 70.2029L69.4464 70.2217C69.2825 70.2592 69.1176 70.2936 68.9517 70.3248L68.8335 70.3467L68.7122 70.3685L68.5971 70.3904C68.3088 70.4404 68.0163 70.4841 67.7197 70.5216L65.5762 70.7903L62.8945 71.1278L54.9054 72.1276L46.4527 73.1899L44.6141 73.4211L42.4146 73.696L41.195 73.8491L40.8062 73.8929C40.2773 73.946 39.7546 73.971 39.2351 73.9741H39.0329C38.8369 73.9741 38.644 73.9741 38.448 73.9554H38.2053H38.0405L37.8414 73.9397H37.7916L37.5147 73.9116L37.2036 73.8773L36.9236 73.8366L36.8023 73.821L36.5689 73.7804L36.2983 73.7335C36.2018 73.7179 36.1054 73.6992 36.0121 73.6773H35.9374L35.6263 73.6086L35.2965 73.5273L35.0196 73.4555L34.917 73.4273L34.693 73.3617L34.6183 73.3399L34.4814 73.2961L34.357 73.2586L34.0646 73.1586H34.0366C33.7472 73.0555 33.4579 72.9462 33.1748 72.8306H33.1561L33.0877 72.8025C32.9135 72.7275 32.7361 72.6494 32.565 72.5681C32.453 72.5181 32.3379 72.4681 32.229 72.4119L32.1948 72.3932C32.0517 72.3244 31.9148 72.2494 31.7748 72.1745L31.7375 72.1557C31.4762 72.0151 31.218 71.8683 30.966 71.712L30.91 71.6777C30.6735 71.5308 30.4371 71.3652 30.2069 71.2153L30.1789 71.1965L30.1478 71.1746C29.9269 71.0184 29.7091 70.8622 29.4944 70.6935C28.0846 69.5954 26.868 68.2679 25.895 66.7661C25.459 66.0938 25.0752 65.3887 24.747 64.6571C24.5339 64.1838 24.345 63.7 24.1808 63.2074C23.8392 62.1927 23.6005 61.1459 23.4684 60.083L22.7715 54.481C22.7155 54.0404 22.6782 53.603 22.6626 53.1687C22.5712 51.0062 22.923 48.848 23.6963 46.8277C24.4696 44.8074 25.6478 42.9682 27.1581 41.4241C27.0834 41.5865 27.0118 41.7365 26.9465 41.9209C26.9154 41.9958 26.8843 42.0708 26.8563 42.1458C26.791 42.3052 26.7318 42.4582 26.6727 42.6301L26.5607 42.9582C26.5172 43.0894 26.4767 43.2206 26.4363 43.355C26.3959 43.4893 26.3585 43.6174 26.3212 43.7518C26.287 43.883 26.2527 44.0142 26.2216 44.1454C26.1905 44.2767 26.1563 44.4141 26.1283 44.5516C26.1003 44.6891 26.0692 44.8234 26.0443 44.9609C25.9914 45.2358 25.9479 45.5108 25.9105 45.7889C25.8919 45.9295 25.8732 46.0701 25.8576 46.2075C25.8592 46.2147 25.8592 46.2222 25.8576 46.2294C25.8328 46.47 25.8141 46.7137 25.7985 46.9574V46.9886C25.7985 47.0699 25.7985 47.1511 25.7985 47.2323V47.4823C25.7763 48.2882 25.8158 49.0946 25.9168 49.8943L26.6136 55.4964C26.6136 55.5839 26.6354 55.6714 26.651 55.7557C26.6665 55.8401 26.6665 55.8869 26.679 55.9525V56.0182L26.6976 56.1338C26.7013 56.1642 26.7065 56.1945 26.7132 56.2244C26.735 56.3556 26.7567 56.4868 26.7847 56.618C26.7847 56.6962 26.8127 56.7711 26.8314 56.8493C26.8501 56.9274 26.8656 57.0117 26.8843 57.0898C26.9029 57.1679 26.9185 57.2492 26.9372 57.3273C26.9683 57.4554 26.9994 57.5804 27.0336 57.7053C27.0678 57.8303 27.0834 57.8928 27.1114 57.9834C27.1394 58.074 27.1425 58.0959 27.1612 58.1521C27.1798 58.2084 27.2141 58.3271 27.2421 58.4146C27.2701 58.5021 27.2701 58.5052 27.2856 58.5489C27.3229 58.6645 27.3634 58.7801 27.4038 58.8926C27.4764 59.1009 27.5542 59.3092 27.6372 59.5175C27.6932 59.6612 27.7523 59.8018 27.8145 59.9424C27.9078 60.1549 28.0043 60.3642 28.1069 60.5673C28.1816 60.7141 28.2562 60.8797 28.334 61.0078C28.4118 61.1359 28.5114 61.3421 28.6078 61.5046C28.7945 61.8171 28.9936 62.1482 29.202 62.4576C29.3047 62.6075 29.4073 62.7544 29.5131 62.9012C29.5118 62.9063 29.5118 62.9117 29.5131 62.9168C29.622 63.0668 29.7309 63.2137 29.846 63.3605C29.9362 63.4792 30.0264 63.5917 30.1229 63.7042L30.1944 63.7917C30.9877 62.426 32.2802 61.425 33.797 61.0016C34.3213 60.8528 34.8637 60.7781 35.4085 60.7798H35.617C36.5069 60.8066 37.3795 61.0329 38.1711 61.4421C38.2056 61.4574 38.2388 61.4751 38.2707 61.4952C39.5598 62.203 40.5483 63.3579 41.0515 64.7442C41.5547 66.1304 41.5383 67.6532 41.0053 69.0282L40.8839 69.3406H40.9088L41.2417 69.3656H41.3848C41.5217 69.3656 41.6555 69.3812 41.7924 69.3844H42.7008H43.0119H43.2546L43.7057 69.35C43.8519 69.35 44.0012 69.325 44.1474 69.3062H44.1692L44.3061 69.2906L46.4465 69.0219L46.8882 68.9657L54.8961 67.9628L57.0396 67.6941L57.6618 67.6159L57.8391 67.5941L60.4648 67.2816L62.7452 66.9973C62.3659 66.1539 62.1838 65.2345 62.213 64.3095C62.2421 63.3845 62.4816 62.4785 62.9132 61.6608C63.3554 60.8082 63.9957 60.0752 64.7798 59.5237C64.993 59.3727 65.2165 59.237 65.4487 59.1176C66.2503 58.699 67.1353 58.4664 68.0383 58.437C68.9414 58.4076 69.8395 58.582 70.6664 58.9475C71.4934 59.313 72.2282 59.8602 72.8166 60.5488C73.405 61.2374 73.832 62.0498 74.0663 62.9262L74.6418 65.0852H74.6698L75.1862 64.8946C75.348 64.8352 75.4973 64.7696 75.6684 64.7009L75.8395 64.629C75.9453 64.5853 76.0511 64.5384 76.1506 64.4884C76.2502 64.4384 76.384 64.3822 76.4991 64.3291H76.5333L76.5924 64.301L77.0964 64.0479L77.1337 64.026L77.2737 63.9541C77.4397 63.8667 77.6014 63.7761 77.7591 63.6823C77.9333 63.5823 78.1044 63.4792 78.2755 63.3699C78.4466 63.2605 78.5866 63.1793 78.7266 63.0824C78.8666 62.9856 79.0004 62.9012 79.1341 62.8075C79.4763 62.5669 79.8124 62.3138 80.1359 62.0514C80.2479 61.9639 80.3537 61.8764 80.4626 61.7827L80.5092 61.7421L80.5341 61.7233C80.671 61.6046 80.8079 61.4859 80.9416 61.364C81.0754 61.2422 81.1843 61.1422 81.3025 61.0266C81.3336 60.9985 81.3679 60.9672 81.399 60.9328C81.4923 60.8485 81.5825 60.7579 81.6727 60.6641L81.8625 60.4704C81.9994 60.2986 82.0927 60.2017 82.1829 60.1018Z" fill="#AA35A2"/>
<path d="M69.3755 54.7497L64.2111 53.6562L62.1827 48.7603L59.5508 53.3531L54.29 53.7874L57.8242 57.7242L56.6015 62.8794L61.4205 60.7173L62.9107 61.6328C63.353 60.7811 63.9933 60.0491 64.7773 59.4988C64.9905 59.3478 65.214 59.2121 65.4462 59.0927L65.9098 63.4668L65.3529 58.1959L69.3755 54.7497Z" fill="#FF80C3"/>
<path d="M42.2875 54.9903L41.2453 49.7944L37.7733 53.7874L32.5312 53.1625L35.2378 57.7117L33.7726 60.9236C34.2968 60.7747 34.8392 60.7001 35.3841 60.7017H35.5925C36.4814 60.7286 37.353 60.955 38.1436 61.3641H38.1809L42.0635 64.9509L42.5394 59.6738L47.1376 57.0743L42.2875 54.9903Z" fill="#FF80C3"/>
<path d="M35.5944 60.7115C36.4843 60.7384 37.3569 60.9647 38.1485 61.3739L33.0371 62.5362L33.7744 60.924C34.2987 60.7752 34.8411 60.7005 35.3859 60.7022L35.5944 60.7115Z" fill="#F85CA7"/>
<path d="M40.4464 63.4545L38.25 61.4268C39.1401 61.9067 39.8955 62.604 40.4464 63.4545Z" fill="#F85CA7"/>
<path d="M65.9238 63.4733L62.9092 61.6268C63.3514 60.7741 63.9917 60.0411 64.7758 59.4897C64.989 59.3386 65.2125 59.2029 65.4447 59.0835L65.9238 63.4733Z" fill="#F85CA7"/>
<path d="M44.2933 69.0751C44.2684 69.1469 44.2404 69.2188 44.2124 69.2906L42.4546 73.6961L40.672 78.1577L35.8841 90.1554C35.7683 90.4424 35.5579 90.6808 35.2882 90.8308C35.0184 90.9808 34.7056 91.0332 34.4019 90.9795C34.0982 90.9257 33.8221 90.769 33.6197 90.5354C33.4172 90.3018 33.3007 90.0056 33.2895 89.6961L32.8789 76.8861L32.7575 73.1368V73.0462L32.742 72.5431L32.5678 67.2223C32.5548 66.8271 32.5798 66.4316 32.6424 66.0413C32.8452 64.8079 33.4223 63.6676 34.2949 62.7761C35.1675 61.8847 36.293 61.2857 37.5174 61.061C37.6823 61.0297 37.8503 61.0079 38.0214 60.9922C38.1925 60.9766 38.401 60.9641 38.5938 60.9641H38.8085C38.9423 60.9641 39.0761 60.9641 39.2067 60.9922C40.3133 61.0976 41.3684 61.5122 42.2524 62.1889C43.2785 62.9688 44.0297 64.0574 44.3968 65.296C44.7639 66.5346 44.7276 67.8586 44.2933 69.0751Z" fill="#BC42AD"/>
<path d="M80.0535 84.766L76.566 80.3918L72.0923 74.7897L69.0964 71.0405L68.5831 70.3968L66.0569 67.2224C65.8961 67.0242 65.7485 66.8154 65.6152 66.5976C65.0341 65.6497 64.7271 64.5581 64.7285 63.445C64.7285 63.2164 64.741 62.988 64.7659 62.7608C64.8623 61.8972 65.1435 61.0648 65.5903 60.3206C66.0223 59.5979 66.599 58.9731 67.284 58.4859C67.9689 57.9986 68.7471 57.6595 69.5693 57.4899C71.0757 57.1798 72.6433 57.4601 73.9505 58.2734C75.2578 59.0867 76.2058 60.3714 76.6002 61.8641L77.1602 63.9543V63.9824L77.7015 65.9977L80.881 77.8923L81.1423 78.8702L82.3868 83.5568C82.4657 83.8542 82.4411 84.1697 82.317 84.4511C82.1929 84.7325 81.9768 84.9629 81.7044 85.104C81.4321 85.2451 81.1199 85.2886 80.8197 85.2271C80.5194 85.1656 80.2491 85.0029 80.0535 84.766Z" fill="#BC42AD"/>
<path d="M44.2941 69.0755C44.2692 69.1474 44.2412 69.2192 44.2132 69.2911L42.4555 73.6965L40.6728 78.1581L38.5822 80.2515L38.0471 80.7858L37.736 78.3206L37.372 75.5305L33.9063 73.7527L32.7584 73.1591L32.665 73.1122L32.7553 73.0685L33.2997 72.8092L34.3606 72.303L37.428 70.8377L37.7671 68.7131L38.2618 65.6074L41.1675 68.6881L41.8301 69.3911L41.8893 69.4536L42.2501 69.4098L44.2941 69.0755Z" fill="#FF80C3"/>
<path d="M80.4399 46.2637C80.1145 46.3866 79.7553 46.3845 79.4314 46.2576C79.1076 46.1307 78.8418 45.8881 78.6852 45.5763C78.3013 44.8228 77.8292 44.118 77.2791 43.4767C76.057 42.0851 74.5164 41.0128 72.7898 40.3523C68.4655 38.6183 63.7896 39.2525 63.4785 39.2963L61.391 39.5712L54.8921 40.4242L48.2687 41.2896L46.4394 41.5302L39.9062 42.3894L38.7053 42.5456C38.337 42.5935 37.9648 42.4928 37.6703 42.2656C37.3758 42.0383 37.1831 41.7031 37.1343 41.3334C37.1297 41.2731 37.1297 41.2125 37.1343 41.1522C37.135 40.8106 37.259 40.4809 37.4832 40.2241C37.7074 39.9674 38.0167 39.8009 38.3538 39.7555L40.5751 39.4619L46.4549 38.6901L50.2193 38.1965L54.9076 37.5716L63.0927 36.5062C63.1363 36.5062 63.6527 36.4249 64.4865 36.3781C66.5712 36.2643 68.6619 36.4166 70.7086 36.8311C71.281 36.9498 71.8379 37.0936 72.3761 37.2529C74.5245 37.869 76.5124 38.9504 78.1999 40.421C79.4374 41.5214 80.457 42.8464 81.2052 44.3266C81.2919 44.5026 81.3409 44.6951 81.3489 44.8914C81.3569 45.0877 81.3238 45.2835 81.2516 45.4661C81.1795 45.6487 81.0699 45.8141 80.9301 45.9515C80.7903 46.0889 80.6233 46.1952 80.4399 46.2637Z" fill="#D362CB"/>
<path d="M36.34 41.6993C36.341 42.0348 36.2223 42.3594 36.0054 42.6145C35.7885 42.8696 35.4878 43.0382 35.1578 43.0897L33.7298 43.3147L33.6365 43.3303C33.4549 43.3592 33.2694 43.352 33.0906 43.3089C32.9118 43.2659 32.7432 43.1878 32.5944 43.0793C32.4456 42.9708 32.3195 42.8339 32.2234 42.6765C32.1273 42.5191 32.0631 42.3441 32.0343 42.1618C32.022 42.0884 32.0158 42.0143 32.0156 41.9399C32.0154 41.6804 32.0876 41.426 32.2241 41.2057C32.3303 41.0325 32.4726 40.8844 32.6413 40.7717C32.8099 40.659 33.0008 40.5843 33.2009 40.5527L34.7222 40.3121C35.0889 40.2545 35.4633 40.3451 35.7636 40.5641C36.0639 40.7831 36.2655 41.1127 36.3244 41.4806C36.3358 41.553 36.341 41.6261 36.34 41.6993Z" fill="#D362CB"/>
<path d="M26.4855 35.1442C26.3361 35.8347 26.2117 36.3159 26.2117 36.3159C25.7886 36.9408 23.8131 36.5627 23.3184 36.1378C22.9327 35.8066 23.278 34.1757 23.7509 32.6197C23.8815 32.1823 24.0246 31.7511 24.1646 31.37C24.7868 29.5609 26.1775 29.4953 26.7779 30.6607C27.1823 31.4324 26.7872 33.7289 26.4855 35.1442Z" fill="#D362CB"/>
<path d="M81.1488 78.8797L79.5124 79.2765L79.2511 79.339L76.7405 79.9451L76.5663 80.3981L72.0926 74.7961L69.0967 71.0405L71.7037 72.1216L73.7539 72.9714L76.1898 71.3811L77.4591 70.5563L78.1809 70.0845L78.0036 72.3653L77.7703 75.3678L79.276 76.5926L80.8875 77.9017L81.1488 78.8797Z" fill="#FF80C3"/>
<path d="M41.7715 71.0312C41.7721 71.1154 41.7574 71.1991 41.7279 71.278L38.5173 80.345L37.0862 84.3599C37.0281 84.5211 36.9153 84.6567 36.7676 84.7429C36.62 84.8291 36.4468 84.8604 36.2785 84.8314C36.1102 84.8024 35.9574 84.7148 35.8469 84.5841C35.7363 84.4533 35.6751 84.2877 35.6738 84.1162C35.6744 84.032 35.6891 83.9486 35.7174 83.8694L37.7271 78.2454L40.3746 70.8156C40.407 70.725 40.4568 70.6418 40.5212 70.5706C40.5857 70.4994 40.6635 70.4417 40.7502 70.4007C40.8369 70.3598 40.9308 70.3365 41.0265 70.3321C41.1222 70.3277 41.2178 70.3423 41.3079 70.3751C41.4411 70.4262 41.5562 70.5158 41.6386 70.6326C41.7211 70.7494 41.7674 70.8881 41.7715 71.0312Z" fill="#D362CB"/>
<path d="M34.6383 86.85L34.7907 86.4251C34.8227 86.3343 34.8724 86.2508 34.9367 86.1794C35.0011 86.1079 35.079 86.0501 35.1658 86.0091C35.2526 85.9681 35.3466 85.9448 35.4425 85.9406C35.5383 85.9364 35.634 85.9514 35.724 85.9846C35.8142 86.0171 35.8971 86.0671 35.968 86.1318C36.0389 86.1966 36.0964 86.2747 36.1371 86.3618C36.1779 86.4489 36.2011 86.5432 36.2055 86.6393C36.2099 86.7354 36.1954 86.8314 36.1627 86.9219L36.0103 87.3468C35.9779 87.4374 35.9281 87.5207 35.8636 87.5919C35.7992 87.663 35.7214 87.7208 35.6347 87.7617C35.548 87.8026 35.4541 87.8259 35.3584 87.8304C35.2627 87.8348 35.167 87.8202 35.077 87.7874C34.9868 87.7549 34.9039 87.7048 34.833 87.6401C34.7621 87.5754 34.7046 87.4972 34.6639 87.4102C34.6231 87.3231 34.5999 87.2288 34.5955 87.1327C34.5911 87.0365 34.6057 86.9405 34.6383 86.85Z" fill="#D362CB"/>
<path d="M29.0183 49.3446C28.6812 51.4873 28.1607 53.5968 27.4628 55.6496C27.4285 55.7465 27.3943 55.8465 27.3632 55.9433C27.2139 56.3776 27.0521 56.8119 26.8903 57.2493C26.5854 58.0554 26.2515 58.8636 25.8886 59.6739C25.6957 60.1019 25.4997 60.5237 25.2975 60.9236C24.9304 61.6776 24.5487 62.4067 24.1526 63.1107C23.4046 64.4531 22.5799 65.7508 21.6825 66.9975C19.6696 69.7875 17.467 71.9965 15.2986 73.4743C14.8978 73.531 14.4928 73.5508 14.0884 73.5337C13.9733 73.5337 13.8613 73.5181 13.7493 73.5056L13.5098 73.4743L13.3169 73.4712C13.2592 73.4631 13.2021 73.4516 13.1458 73.4368L13.0151 73.4087L12.8347 73.3587C12.7538 73.3369 12.6729 73.3119 12.5951 73.2837C12.4364 73.2306 12.284 73.1681 12.1253 73.0994C12.0382 73.0619 11.9542 73.0182 11.8702 72.9744C11.7862 72.9307 11.7054 72.887 11.6245 72.8401C11.4814 72.7557 11.3414 72.662 11.2076 72.5651C11.1578 72.5308 11.1111 72.4933 11.0614 72.4527C11.0116 72.412 10.9432 72.3589 10.8872 72.3121C10.8312 72.2652 10.7845 72.2246 10.7347 72.1746C10.6849 72.1246 10.576 72.0277 10.4983 71.9496L10.3147 71.7528C10.2712 71.7059 10.2307 71.6591 10.1903 71.6091L10.0969 71.4935C9.80567 71.1287 9.55041 70.7363 9.33475 70.3218C9.28808 70.2343 9.24452 70.1469 9.20097 70.0594C9.15741 69.9719 9.11697 69.8813 9.07653 69.7907L8.97387 69.5532C8.92098 69.422 8.86809 69.2908 8.81831 69.1533C8.79032 69.0783 8.76543 69.0033 8.74054 68.9283C8.63787 68.6159 8.54454 68.3035 8.46365 67.991C8.38277 67.6786 8.3081 67.338 8.24899 66.9943C8.22721 66.8787 8.20855 66.7662 8.18988 66.6506C8.17121 66.535 8.15566 66.4194 8.1401 66.3007C8.12455 66.182 8.109 66.0601 8.09655 65.9414C8.08411 65.8227 8.06855 65.6977 8.05922 65.5727C8.04989 65.4478 8.03744 65.3259 8.02811 65.1978C8.01878 65.0697 8.00945 64.9478 8.00322 64.8197C8.00166 64.8104 8.00166 64.8009 8.00322 64.7916C8.00322 64.6448 7.98767 64.4948 7.98145 64.3417C7.98145 63.9105 7.98145 63.47 7.98145 63.017C7.98145 62.8639 7.98144 62.7045 7.997 62.5546C7.997 62.5171 7.997 62.4827 7.997 62.4452C7.997 62.2702 8.01566 62.0953 8.02811 61.9172C8.04055 61.7391 8.04988 61.6047 8.06544 61.4266C8.08722 61.1923 8.11211 60.9549 8.137 60.7143C8.15877 60.5268 8.18055 60.3394 8.20544 60.1519C8.20544 60.0675 8.22721 59.9832 8.23966 59.8988C8.2801 59.6051 8.32365 59.3114 8.37343 59.0177V58.9646C8.38898 58.8678 8.40454 58.7709 8.42321 58.6772C8.45121 58.5209 8.47921 58.3647 8.51032 58.2085C8.55076 57.9929 8.59432 57.7805 8.64098 57.5618C8.68765 57.3431 8.72499 57.1712 8.77165 56.9744C8.81832 56.7775 8.88053 56.4963 8.93964 56.2558C8.99875 56.0152 9.04853 55.8277 9.10452 55.6309C9.16052 55.434 9.23519 55.1497 9.30674 54.906C9.43118 54.4749 9.56496 54.0374 9.70807 53.6C9.76718 53.4157 9.82629 53.2345 9.88851 53.0501C10.0534 52.5596 10.2307 52.0691 10.4205 51.5723C10.4765 51.4223 10.5356 51.2598 10.5947 51.1192C10.8498 50.4694 11.1267 49.8132 11.4191 49.1602C11.5218 48.9322 11.6245 48.7072 11.7302 48.4822L11.8982 48.1261C12.1637 47.5762 12.4375 47.0367 12.7195 46.5076C12.844 46.2733 12.9684 46.039 13.096 45.8109C13.3262 45.3953 13.5626 44.986 13.8022 44.5892C13.88 44.458 13.9577 44.3299 14.0386 44.2018C14.1195 44.0737 14.1569 44.005 14.2222 43.9081C14.3155 43.755 14.4151 43.5957 14.5115 43.452L14.7635 43.0645C14.9719 42.7521 15.1866 42.4397 15.3857 42.1272L15.4542 42.0335C15.5941 41.8335 15.7373 41.6336 15.8835 41.4398C16.0297 41.2461 16.1728 41.0493 16.319 40.8618C16.3532 40.8212 16.3875 40.7775 16.4186 40.7337C16.5555 40.5588 16.6923 40.3869 16.8355 40.2182C17.6639 39.1897 18.5631 38.2209 19.5265 37.3188L19.5856 37.2656L19.9216 36.9532C20.0865 36.8095 20.2327 36.6658 20.4131 36.5314C20.5936 36.3971 20.7087 36.2846 20.858 36.169C21.0073 36.0534 21.1536 35.9346 21.3029 35.8253L21.3776 35.7722C21.5829 35.6191 21.7882 35.4597 21.9998 35.3348C22.3758 35.2811 22.7558 35.2613 23.1353 35.2754C23.8362 35.2959 24.5264 35.454 25.1668 35.7409C25.526 35.9032 25.8652 36.1066 26.1779 36.3471C26.603 36.673 26.9819 37.0556 27.3041 37.4844C27.4603 37.6922 27.6057 37.9081 27.7396 38.1311C28.0924 38.7217 28.3773 39.3506 28.5889 40.0057C29.4352 42.4584 29.572 45.7109 29.0183 49.3446Z" fill="#BC42AD"/>
<path d="M35.1896 42.483L30.5915 45.0825L30.1155 50.3502L29.0142 49.3348L26.2143 46.7634L25.7476 46.8697L21.0811 47.9413L23.2806 43.1235L21.1962 39.621L21.4606 39.7054C22.568 40.0031 23.6998 40.2008 24.8423 40.2959C25.3641 40.347 25.8891 40.238 26.348 39.9835C24.7241 39.821 22.5277 39.4648 21.585 38.7025C21.5754 38.6983 21.5668 38.6919 21.5602 38.6837L25.8161 39.1774L27.328 37.4402L28.308 36.3154C28.1653 36.9173 27.9834 37.509 27.7636 38.087C28.1163 38.6776 28.4013 39.3065 28.6129 39.9616C29.0711 39.5971 29.5488 39.2582 30.0439 38.9462L30.3302 40.3678L35.1896 42.483Z" fill="#FF80C3"/>
<path d="M78.9604 78.0863C78.8929 78.1073 78.8226 78.1179 78.7519 78.1175C78.5956 78.1181 78.4433 78.0679 78.3177 77.9744C78.1922 77.8809 78.1 77.7492 78.0551 77.5988L76.1885 71.3813L74.0574 64.3139C74.0017 64.1287 74.0215 63.9289 74.1126 63.7583C74.2036 63.5878 74.3583 63.4606 74.5427 63.4047C74.7271 63.3488 74.9261 63.3687 75.0959 63.4601C75.2657 63.5515 75.3923 63.7069 75.448 63.8921L77.4577 70.5564L78.0022 72.3655L79.2715 76.5959L79.4457 77.1802C79.5009 77.365 79.4807 77.5642 79.3897 77.7341C79.2987 77.904 79.1443 78.0306 78.9604 78.0863Z" fill="#D362CB"/>
<path d="M14.477 69.5191L13.5437 70.4189L13.609 70.797L14.0788 73.5558C13.9637 73.5558 13.8517 73.5402 13.7397 73.5277C13.6277 73.5152 13.5779 73.509 13.5001 73.4965L13.3166 73.4715C13.2589 73.4634 13.2018 73.4519 13.1455 73.4371L13.0148 73.409L12.8344 73.359C12.7535 73.3371 12.6726 73.3121 12.5948 73.284C12.4361 73.2309 12.2837 73.1684 12.1251 73.0997C12.0379 73.0622 11.9539 73.0185 11.8699 72.9747C11.7859 72.931 11.7051 72.8872 11.6242 72.8404C11.4811 72.756 11.3411 72.6623 11.2073 72.5654C11.1575 72.531 11.1109 72.4936 11.0611 72.4529C11.0113 72.4123 10.9429 72.3592 10.8869 72.3123C10.8309 72.2655 10.7842 72.2249 10.7344 72.1749C10.6591 72.1113 10.5875 72.0435 10.5198 71.9718L10.498 71.9499L10.3144 71.7531C10.2709 71.7062 10.2304 71.6593 10.19 71.6093L10.0967 71.4937C10.0438 71.4281 9.99088 71.3594 9.9411 71.2907C9.89132 71.2219 9.84777 71.1626 9.80111 71.0938L9.77933 71.0657C9.73577 71.0001 9.68911 70.9313 9.64556 70.8595C9.53667 70.6876 9.43089 70.5096 9.33445 70.3221C9.28779 70.2346 9.24423 70.1471 9.20067 70.0596C9.15712 69.9722 9.11667 69.8816 9.07623 69.7909L8.97357 69.5535C8.92068 69.4223 8.8678 69.291 8.81802 69.1536C8.79002 69.0786 8.76513 69.0036 8.74024 68.9286C8.68736 68.7786 8.64069 68.6162 8.59402 68.4693C8.54736 68.3225 8.5038 68.1569 8.46336 67.9944C8.43536 67.8882 8.40736 67.7788 8.38558 67.682C8.3638 67.5851 8.33581 67.4601 8.31403 67.3477C8.29226 67.2352 8.26736 67.1227 8.24869 67.0102C8.23003 66.8977 8.20825 66.7821 8.18958 66.6665C8.17092 66.5509 8.15536 66.4353 8.13981 66.3166C8.12425 66.1979 8.1087 66.076 8.09626 65.9573C8.08381 65.8386 8.06826 65.7136 8.05893 65.5886C8.04959 65.4636 8.03715 65.3418 8.02781 65.2137C8.01848 65.0856 8.00915 64.9637 8.00293 64.8356L9.7731 61.2363L11.3504 64.4107L12.1126 65.9729L13.2481 66.1385L17.336 66.7353L14.477 69.5191Z" fill="#FF80C3"/>
<path d="M19.3716 53.319L14.3628 53.3878H14.0921L11.734 56.934L11.1615 57.7963L9.73047 53.5659C9.78958 53.3815 9.84868 53.2003 9.9109 53.016C10.0758 52.5254 10.2531 52.0349 10.4429 51.5381C10.4989 51.3882 10.558 51.2257 10.6171 51.0851C10.8722 50.4352 11.1491 49.7791 11.4415 49.1261C11.5442 48.898 11.6469 48.6731 11.7526 48.4481L11.9206 48.0919C12.1861 47.542 12.4599 47.0025 12.7419 46.4735C12.8664 46.2391 12.9908 46.0048 13.1184 45.7767L16.7583 44.427L17.6729 44.1021L16.1765 48.9574L16.1112 49.1667L19.3716 53.319Z" fill="#FF80C3"/>
<path d="M35.1916 42.4835L33.72 43.3145L33.6267 43.3302C33.4451 43.3591 33.2596 43.3518 33.0808 43.3088C32.902 43.2657 32.7334 43.1877 32.5846 43.0792C32.4358 42.9707 32.3098 42.8338 32.2137 42.6764C32.1176 42.5189 32.0533 42.344 32.0245 42.1616C32.0123 42.0883 32.006 42.0141 32.0059 41.9398C32.0056 41.6803 32.0778 41.4259 32.2143 41.2056L35.1916 42.4835Z" fill="#FFA4D8"/>
<path d="M74.3462 43.1239L69.1228 42.3803L65.5513 46.2889L64.6491 41.0618L61.4012 39.5683L59.8457 38.8528L64.4967 36.3783L64.8607 33.2289C65.7019 33.2029 66.5439 33.2353 67.3806 33.3257L68.8957 34.7973L71.5339 34.2631C72.1821 34.4896 72.8168 34.7535 73.4347 35.0535L72.3614 37.2594L71.7392 38.5091L72.7721 40.3525L74.3462 43.1239Z" fill="#FF80C3"/>
<path d="M83.8672 49.3696L82.4952 49.1758L78.9238 53.0751L78.0278 47.8511L73.2119 45.664L77.2811 43.4769L77.8754 43.1645L77.9967 42.1022L78.1927 40.4213L78.4105 38.531C81.3846 41.4297 83.3058 45.2457 83.8672 49.3696Z" fill="#FF80C3"/>
<path d="M48.1319 39.9838L48.6887 45.2547L44.184 42.4927L39.365 44.6548L40.5907 39.4996L37.9121 36.5158L44.0284 35.7471H44.0377L46.4395 35.4472L46.9403 35.3847H46.9466L46.9528 35.3816L46.9777 35.441L52.1389 36.5345L48.1319 39.9838Z" fill="#FF80C3"/>
<path d="M26.4865 35.1442L23.752 32.6197C23.8826 32.1823 24.0257 31.7511 24.1657 31.37C24.7879 29.5609 26.1786 29.4953 26.779 30.6607C27.1834 31.4324 26.7883 33.7289 26.4865 35.1442Z" fill="#FFA4D8"/>
<path d="M78.9853 80.6575L78.8546 80.2295C78.8268 80.1378 78.8174 80.0415 78.8267 79.9461C78.8361 79.8507 78.8642 79.7581 78.9093 79.6736C78.9543 79.5891 79.0156 79.5144 79.0895 79.4538C79.1634 79.3932 79.2485 79.3478 79.3399 79.3203C79.4308 79.2923 79.5263 79.2827 79.621 79.292C79.7156 79.3012 79.8074 79.3292 79.8912 79.3742C79.9751 79.4192 80.0492 79.4803 80.1094 79.5542C80.1697 79.6281 80.2148 79.7131 80.2422 79.8045L80.3728 80.2357C80.4282 80.4205 80.4086 80.6198 80.3182 80.7901C80.2279 80.9604 80.0742 81.0879 79.8906 81.1449C79.7993 81.1728 79.7034 81.1823 79.6084 81.1729C79.5135 81.1635 79.4213 81.1353 79.3372 81.09C79.253 81.0448 79.1787 80.9832 79.1183 80.909C79.0579 80.8348 79.0127 80.7493 78.9853 80.6575Z" fill="#D362CB"/>
<path d="M81.5984 31.5731C79.8556 32.021 78.1945 32.7433 76.6768 33.7133H76.6985L81.8069 33.982L83.6922 37.0658C84.3828 36.6546 85.0374 36.1853 85.649 35.663L85.8481 35.1474C85.8861 34.6055 85.7957 34.0623 85.5842 33.5623C85.3728 33.0623 85.0463 32.6198 84.6316 32.271C84.2169 31.9222 83.7258 31.6771 83.1986 31.5558C82.6713 31.4345 82.1229 31.4404 81.5984 31.5731Z" fill="#FF80C3"/>
<path d="M26.3548 39.9992C25.8959 40.2538 25.3709 40.3627 24.8491 40.3117C23.7068 40.2186 22.575 40.023 21.4674 39.7274L21.203 39.643C20.1794 39.2994 19.4452 38.812 19.5168 38.1152C19.5168 38.1152 19.5168 37.8028 19.5634 37.3029C18.7262 38.0868 17.9376 38.9215 17.2022 39.8024C17.0871 39.9336 16.9782 40.068 16.8724 40.2023L16.7635 40.3335C16.6608 40.4585 16.5551 40.5866 16.4524 40.7178C16.4213 40.7616 16.3871 40.8053 16.3529 40.8459C16.2066 41.0334 16.0604 41.2271 15.9173 41.424C15.7742 41.6208 15.6498 41.7864 15.5191 41.9739L15.488 42.0176L15.4195 42.1113C15.2049 42.4238 14.9902 42.7362 14.7973 43.0486L14.5453 43.4361C14.4489 43.586 14.3493 43.7485 14.256 43.8922C14.1907 43.9891 14.1316 44.0859 14.0725 44.1859C14.0133 44.2859 13.9138 44.4421 13.836 44.5734C13.5965 44.9701 13.36 45.3794 13.1298 45.795C13.0023 46.0231 12.8778 46.2574 12.7534 46.4917C12.4713 47.0187 12.1975 47.5582 11.9321 48.1102L11.7641 48.4664C11.6583 48.6913 11.5556 48.9163 11.453 49.1444C11.1605 49.7974 10.8836 50.4535 10.6285 51.1034C10.5694 51.2565 10.5103 51.4158 10.4543 51.5564C10.2645 52.0532 10.0872 52.5437 9.92234 53.0342C9.86012 53.2186 9.80101 53.3998 9.7419 53.5841C9.59879 54.0215 9.46502 54.459 9.34058 54.8901V54.9276C9.27524 55.1526 9.21302 55.3744 9.15391 55.5962C9.15391 55.5962 9.15391 55.5962 9.15391 55.615C9.09791 55.8275 9.04503 56.043 8.98903 56.2399C8.93303 56.4367 8.87392 56.721 8.82103 56.9585C8.76814 57.1959 8.73081 57.3522 8.69037 57.5459C8.64993 57.7396 8.60015 57.977 8.5597 58.1926C8.52859 58.3488 8.50059 58.5051 8.47259 58.6613C8.45393 58.755 8.43837 58.8519 8.42282 58.9487V59.0018C8.37304 59.2955 8.32949 59.5892 8.28904 59.8829C8.28904 59.9673 8.26727 60.0516 8.25483 60.136C8.22994 60.3235 8.20816 60.5109 8.18638 60.6984C8.1615 60.939 8.1366 61.1764 8.11483 61.4108C8.09927 61.5764 8.08683 61.7232 8.0775 61.9013C8.06816 62.0794 8.05261 62.2543 8.04638 62.4293C8.04638 62.4668 8.04638 62.5012 8.04638 62.5387C8.04638 62.6949 8.04639 62.8511 8.03083 63.0011C8.03083 63.4541 8.03083 63.8947 8.03083 64.3258C8.03083 64.4789 8.03082 64.6383 8.0526 64.7757C8.05104 64.785 8.05104 64.7946 8.0526 64.8039C8.0526 64.932 8.06816 65.0569 8.0775 65.1819C8.08683 65.3069 8.09616 65.4319 8.10861 65.5568C8.12105 65.6818 8.13038 65.8037 8.14594 65.9255C8.16149 66.0474 8.17393 66.1661 8.18949 66.2848C8.20504 66.4036 8.2206 66.5192 8.23927 66.6348C8.25793 66.7504 8.2766 66.8628 8.29838 66.9784C8.32015 67.094 8.33882 67.2034 8.36371 67.3159C8.38859 67.4284 8.41037 67.5408 8.43526 67.6502C8.46015 67.7595 8.48504 67.8689 8.51304 67.9626C8.55348 68.1251 8.59704 68.2751 8.64371 68.4375C8.69037 68.6 8.73704 68.75 8.78993 68.8968C8.81481 68.9718 8.8397 69.0468 8.8677 69.1218C8.91748 69.2593 8.97037 69.3905 9.02325 69.5217L9.12591 69.7592C9.16636 69.8498 9.2068 69.9404 9.25035 70.0279C9.29391 70.1153 9.33746 70.2028 9.38413 70.2903C9.48057 70.4778 9.58634 70.6559 9.69523 70.8277C9.73878 70.8996 9.78546 70.9683 9.82901 71.0339L9.85078 71.062C9.89745 71.1308 9.94412 71.1933 9.99078 71.2589C10.0374 71.3245 10.0934 71.3964 10.1463 71.462L10.2397 71.5776C10.2801 71.6276 10.3206 71.6744 10.3641 71.7213L10.5477 71.9181L10.5694 71.94C10.6371 72.0117 10.7088 72.0795 10.7841 72.1431C10.8339 72.1931 10.8837 72.2368 10.9365 72.2806C10.9894 72.3243 11.0516 72.3774 11.1108 72.4212C11.1699 72.4649 11.2072 72.4993 11.257 72.5336C11.3907 72.6305 11.5307 72.7242 11.6739 72.8086C11.7547 72.8554 11.8356 72.9023 11.9196 72.9429C12.0036 72.9835 12.0876 73.0304 12.1747 73.0679C12.3272 73.1366 12.4858 73.1991 12.6445 73.2522C12.7223 73.2804 12.8032 73.3054 12.884 73.3272L13.0645 73.3772L13.1951 73.4053C13.2515 73.4201 13.3086 73.4316 13.3663 73.4397L13.556 73.4741C13.6338 73.4741 13.7147 73.4991 13.7956 73.5053C13.8765 73.5116 14.0196 73.5241 14.1347 73.5334C14.539 73.5506 14.9441 73.5307 15.3449 73.4741C14.9747 73.724 14.6076 73.9521 14.2405 74.1552C13.8158 74.3945 13.3774 74.6084 12.9276 74.7957C10.9988 75.5956 9.16947 75.708 7.60151 74.9988C7.38679 74.8993 7.17893 74.7855 6.9793 74.6582C6.42809 74.3102 5.94254 73.867 5.54511 73.3491C4.51535 72.0462 3.86515 70.2028 3.59449 67.997C3.53849 67.5221 3.49805 67.0316 3.47627 66.5223C3.29272 62.3668 4.3007 57.1834 6.53131 51.9157C6.65575 51.6251 6.78331 51.3314 6.91397 51.0377C7.29663 50.1817 7.70417 49.3474 8.12727 48.5382C8.29216 48.2258 8.46326 47.9133 8.63748 47.6009C9.25969 46.4667 9.93478 45.3951 10.6285 44.389C11.5341 43.0494 12.5365 41.7785 13.6276 40.5866C15.6373 38.4214 17.7373 36.8373 19.7408 35.9719C19.9213 34.9444 20.1867 33.9338 20.5341 32.9506C20.5559 32.8881 20.5776 32.8256 20.6025 32.7631C21.2925 30.8501 22.3376 29.0859 23.6825 27.5641C23.9635 27.2457 24.3193 27.0028 24.7176 26.8577C25.1158 26.7126 25.5439 26.6697 25.9628 26.733C25.7158 26.8743 25.493 27.0547 25.3033 27.2673C23.9357 28.8203 22.8794 30.6238 22.1923 32.5788C21.8612 33.5066 21.6043 34.4594 21.4238 35.4282C21.6323 35.3782 21.8407 35.3407 22.046 35.3126C21.8407 35.4501 21.6354 35.5969 21.4238 35.75L21.3492 35.8032C21.2323 36.4658 21.1647 37.1363 21.147 37.809C21.1361 37.9824 21.1699 38.1558 21.2451 38.3123C21.3203 38.4688 21.4344 38.6032 21.5763 38.7026C21.5829 38.7108 21.5915 38.7172 21.6012 38.7213C22.5345 39.4806 24.7309 39.8368 26.3548 39.9992Z" fill="#AA35A2"/>
<path d="M82.2767 33.2574L81.8629 33.4355C81.6858 33.5106 81.4864 33.5124 81.308 33.4404C81.1297 33.3684 80.9869 33.2285 80.9109 33.0512C80.8361 32.8734 80.8344 32.6731 80.906 32.4939C80.9777 32.3148 81.117 32.1715 81.2936 32.0951L81.7073 31.917C81.8844 31.8419 82.0839 31.8401 82.2622 31.9121C82.4405 31.9841 82.5833 32.124 82.6593 32.3013C82.7341 32.4791 82.7359 32.6795 82.6642 32.8586C82.5925 33.0377 82.4532 33.1811 82.2767 33.2574Z" fill="#FFA4D8"/>
<path d="M81.012 35.8475L80.5516 36.0443C80.353 36.1279 80.1296 36.1295 79.9299 36.0488C79.7301 35.9681 79.5701 35.8116 79.4845 35.6131C79.4013 35.4137 79.3997 35.1894 79.48 34.9888C79.5604 34.7881 79.7163 34.6274 79.9138 34.5415L80.3743 34.3446C80.5728 34.2602 80.7965 34.2581 80.9965 34.3389C81.1964 34.4198 81.3564 34.5768 81.4413 34.7758C81.4834 34.8745 81.5057 34.9805 81.5068 35.0878C81.508 35.1951 81.4881 35.3016 81.4482 35.4011C81.4083 35.5007 81.3493 35.5914 81.2744 35.668C81.1996 35.7446 81.1104 35.8056 81.012 35.8475Z" fill="#D362CB"/>
<path d="M19.7631 42.6176C18.4068 44.6306 17.2056 46.7447 16.1698 48.9414C15.4819 50.3844 14.8793 51.8669 14.3654 53.3812C13.0245 57.3429 12.253 61.8577 13.2517 66.1162C13.5289 67.2945 13.9467 68.4348 14.4961 69.5125L14.5894 69.6968C14.6816 69.8735 14.7027 70.0791 14.6482 70.271C14.5938 70.4629 14.4681 70.6264 14.297 70.7278C14.1777 70.8 14.0411 70.8378 13.9019 70.8372C13.8127 70.8374 13.7242 70.8215 13.6405 70.7903C13.4538 70.7258 13.2989 70.5916 13.2081 70.4154C12.2278 68.545 11.5982 66.5094 11.3508 64.4103C11.0782 61.9167 11.2074 59.3953 11.7335 56.943C12.7508 51.9252 15.0281 47.3698 16.7578 44.4454C17.464 43.2487 18.0769 42.3208 18.4782 41.7428C18.5377 41.6565 18.6138 41.5832 18.7021 41.5272C18.7904 41.4712 18.889 41.4336 18.9921 41.4167C19.0952 41.3998 19.2006 41.4039 19.302 41.4288C19.4035 41.4537 19.4989 41.4988 19.5826 41.5615C19.7405 41.6818 19.8469 41.8577 19.8804 42.0538C19.9139 42.2499 19.872 42.4514 19.7631 42.6176Z" fill="#D362CB"/>
<path d="M29.6986 55.5746L27.3684 55.9433C27.2191 56.3776 27.0573 56.8119 26.8955 57.2493C26.9266 57.3774 26.9577 57.5024 26.9919 57.6274C27.0262 57.7523 27.0417 57.8148 27.0697 57.9054C27.0977 57.996 27.1008 58.0179 27.1195 58.0741C27.1382 58.1304 27.1724 58.2491 27.2004 58.3366C27.2284 58.4241 27.2284 58.4272 27.2439 58.4709C27.2813 58.5865 27.3217 58.7021 27.3622 58.8146C27.4348 59.0229 27.5125 59.2312 27.5955 59.4395C27.6515 59.5832 27.7106 59.7238 27.7728 59.8644C27.8662 60.0769 27.9626 60.2862 28.0653 60.4893C28.1399 60.6362 28.2146 60.8017 28.2924 60.9299C28.3701 61.058 28.4697 61.2642 28.5661 61.4266C28.7528 61.7391 28.9519 62.0703 29.1603 62.3796C29.263 62.5295 29.3657 62.6764 29.4714 62.8232C29.4701 62.8284 29.4701 62.8337 29.4714 62.8389C29.5803 62.9888 29.6892 63.1357 29.8043 63.2825C29.8945 63.4013 29.9848 63.5137 30.0812 63.6262L28.2737 60.0519L30.7376 55.5403L30.8154 55.3997L29.6986 55.5746Z" fill="#FF80C3"/>
<path d="M72.7913 40.3524C68.4669 38.6183 63.791 39.2526 63.4799 39.2963L61.3924 39.5713L59.8369 38.8558L64.4879 36.3812C66.5727 36.2675 68.6634 36.4197 70.71 36.8343C71.2824 36.953 71.8393 37.0967 72.3775 37.2561L71.7553 38.5058L72.7913 40.3524Z" fill="#FFA4D8"/>
<path d="M80.4401 46.2638C80.1147 46.3868 79.7556 46.3846 79.4317 46.2577C79.1078 46.1308 78.842 45.8882 78.6855 45.5765C78.3015 44.823 77.8294 44.1181 77.2793 43.4769L77.8735 43.1644L77.9949 42.1021L78.1908 40.4243C79.4284 41.5247 80.4479 42.8497 81.1961 44.3298C81.2826 44.5052 81.3315 44.6967 81.3399 44.8922C81.3482 45.0877 81.3158 45.2828 81.2446 45.465C81.1734 45.6471 81.065 45.8123 80.9265 45.9498C80.7879 46.0874 80.6223 46.1944 80.4401 46.2638Z" fill="#FFA4D8"/>
<path d="M78.9594 78.0862C78.8919 78.1073 78.8217 78.1178 78.751 78.1175C78.5947 78.118 78.4424 78.0678 78.3168 77.9744C78.1912 77.8809 78.0991 77.7492 78.0541 77.5988L76.1875 71.3812L77.4568 70.5564L78.0012 72.3654L77.7679 75.368L79.2705 76.5959L79.4447 77.1801C79.4999 77.3649 79.4798 77.5641 79.3888 77.734C79.2978 77.9039 79.1433 78.0306 78.9594 78.0862Z" fill="#FFA4D8"/>
<path d="M48.133 39.984L48.2699 41.2931L46.4406 41.5337L39.9043 42.3929L40.5918 39.4997L40.5607 39.4653L46.4406 38.6936L50.2049 38.2L48.133 39.984Z" fill="#FFA4D8"/>
<path d="M46.4404 69.0063L54.8931 67.9471V40.4211L46.4404 41.5334V69.0063Z" fill="#FEC02F"/>
<path d="M46.4404 35.4471V38.6934L54.8931 37.5842V34.3879L46.4404 35.4471Z" fill="#FEC02F"/>
<path d="M54.8931 67.9475V72.1342L46.4404 73.1965V69.0067L54.8931 67.9475Z" fill="#FCA824"/>
<path d="M54.8931 37.5845V40.4214L46.4404 41.5337V38.6936L54.8931 37.5845Z" fill="#FEE5A5"/>
<path d="M27.3709 55.9434C27.2216 56.3777 27.0598 56.812 26.898 57.2494C26.5932 58.0555 26.2592 58.8637 25.8963 59.6739C25.7034 60.102 25.5074 60.5238 25.3052 60.9237C24.9381 61.6777 24.5565 62.4068 24.1603 63.1108C23.4124 64.4532 22.5876 65.7509 21.6902 66.9975L21.068 62.2734L16.3672 59.8614L21.1333 57.5837L21.9671 52.3503L22.6359 53.0596L25.1248 55.7028L25.5914 56.1996L26.6461 56.034L27.3709 55.9434Z" fill="#FF80C3"/>
<path d="M30.6803 64.7789L29.747 64.604L25.5844 63.8291L25.488 63.8104L24.7195 64.5821C24.5065 64.1088 24.3175 63.6249 24.1533 63.1324C24.5495 62.4221 24.9311 61.6931 25.2982 60.9453C25.5004 60.5298 25.6964 60.108 25.8893 59.6955C26.2522 58.8853 26.5862 58.0771 26.891 57.271C26.9221 57.3991 26.9533 57.5241 26.9875 57.6491C27.0217 57.774 27.0373 57.8365 27.0653 57.9271C27.0933 58.0177 27.0964 58.0396 27.115 58.0958C27.1337 58.1521 27.1679 58.2708 27.1959 58.3583C27.2239 58.4458 27.2239 58.4489 27.2395 58.4926C27.2768 58.6082 27.3172 58.7238 27.3577 58.8363C27.4303 59.0446 27.5081 59.2529 27.591 59.4612C27.647 59.6049 27.7061 59.7455 27.7684 59.8861C27.8617 60.0986 27.9581 60.3079 28.0608 60.511C28.1355 60.6579 28.2101 60.8234 28.2879 60.9515C28.3657 61.0796 28.4652 61.2859 28.5617 61.4483C28.7483 61.7608 28.9474 62.092 29.1559 62.4013C29.2585 62.5512 29.3612 62.6981 29.467 62.8449C29.4657 62.8501 29.4657 62.8554 29.467 62.8606C29.5759 63.0105 29.6847 63.1574 29.7999 63.3042C29.8901 63.4229 29.9803 63.5354 30.0767 63.6479L30.1327 63.7604L30.6803 64.7789Z" fill="#F85CA7"/>
<path d="M46.4902 68.7281L44.2938 69.0749C44.269 69.1467 44.2409 69.2186 44.2129 69.2905L42.4552 73.6959L40.6726 78.1575L42.4521 73.7021L44.6516 73.4272L44.5832 73.2897L46.4902 69.7685L46.932 68.9499L47.1031 68.6375L46.4902 68.7281Z" fill="#F85CA7"/>
<path d="M80.7519 56.6867L75.877 54.6621L77.2427 59.783L76.2689 60.9297C76.4052 61.2325 76.5165 61.5459 76.6018 61.867L77.1618 63.9572L77.3018 63.8853C77.4677 63.7979 77.6295 63.7073 77.7871 63.6135C77.9613 63.5135 78.1325 63.4104 78.3036 63.3011C78.4747 63.1917 78.6147 63.1105 78.7547 63.0136C78.8947 62.9168 79.0284 62.8324 79.1622 62.7387C79.5044 62.4981 79.8404 62.245 80.164 61.9826C80.2759 61.8951 80.3817 61.8076 80.4906 61.7139L80.5373 61.6733L80.5622 61.6545C80.6991 61.5358 80.8359 61.4171 80.9697 61.2952C81.1035 61.1734 81.2124 61.0734 81.3306 60.9578C81.3617 60.9297 81.3959 60.8984 81.427 60.864C81.5204 60.7797 81.6106 60.6891 81.7008 60.5953L81.8906 60.4016C81.9839 60.3048 82.0772 60.2079 82.1675 60.1079C82.9984 58.3927 83.5608 56.559 83.835 54.6715L80.7519 56.6867Z" fill="#FF80C3"/>
<path d="M41.7706 71.0307C41.7713 71.115 41.7565 71.1987 41.7271 71.2776L38.5165 80.3446L38.0592 80.8007L37.748 78.3356V78.2325L40.3955 70.8027C40.4279 70.7121 40.4777 70.6288 40.5422 70.5576C40.6066 70.4864 40.6844 70.4287 40.7711 70.3878C40.8578 70.3469 40.9517 70.3235 41.0474 70.3191C41.1431 70.3147 41.2388 70.3293 41.3289 70.3621C41.4599 70.4175 41.5717 70.5105 41.6503 70.6294C41.7288 70.7484 41.7707 70.888 41.7706 71.0307Z" fill="#FFA4D8"/>
<path d="M26.3542 39.9995C25.8952 40.2541 25.3702 40.363 24.8484 40.312C23.7061 40.2189 22.5744 40.0233 21.4667 39.7277L21.2023 39.6434L20.5801 38.5967L21.5663 38.7123C21.5729 38.7205 21.5815 38.7269 21.5912 38.731C22.5338 39.4809 24.7302 39.8371 26.3542 39.9995Z" fill="#F85CA7"/>
<path d="M14.1975 74.1774C13.7728 74.4167 13.3345 74.6306 12.8847 74.8179L9.77363 73.1776L6.92393 74.6804C6.37272 74.3324 5.88717 73.8892 5.48974 73.3713L5.99372 70.4188L3.53912 68.0192C3.48312 67.5443 3.44268 67.0538 3.4209 66.5445L7.44347 65.9727L8.00968 64.8198C8.00968 64.9479 8.02523 65.0729 8.03456 65.1979C8.04389 65.3229 8.05323 65.4478 8.06567 65.5728C8.07812 65.6978 8.08745 65.8196 8.103 65.9415C8.11856 66.0633 8.13101 66.1821 8.14656 66.3008C8.16212 66.4195 8.17768 66.5351 8.19634 66.6507C8.21501 66.7663 8.23367 66.8788 8.25545 66.9944C8.27723 67.11 8.29589 67.2194 8.32078 67.3318C8.34567 67.4443 8.36745 67.5568 8.39234 67.6662C8.41723 67.7755 8.44211 67.8849 8.47011 67.9786C8.51056 68.1411 8.55411 68.291 8.60077 68.4535C8.64744 68.616 8.6941 68.7659 8.74699 68.9128C8.77188 68.9878 8.79677 69.0628 8.82477 69.1378C8.87454 69.2752 8.92743 69.4064 8.98032 69.5377L9.08299 69.7751C9.12343 69.8657 9.16387 69.9563 9.20743 70.0438C9.25098 70.1313 9.29453 70.2188 9.3412 70.3063C9.43764 70.4937 9.54342 70.6718 9.6523 70.8437C9.69586 70.9155 9.74252 70.9843 9.78608 71.0499L9.80786 71.078C9.85452 71.1467 9.90119 71.2092 9.94786 71.2748C9.99452 71.3405 10.0505 71.4123 10.1034 71.4779L10.1967 71.5935C10.2372 71.6435 10.2776 71.6904 10.3212 71.7373L10.5047 71.9341L10.5265 71.956C10.5942 72.0276 10.6659 72.0954 10.7412 72.159C10.7909 72.209 10.8407 72.2528 10.8936 72.2965C10.9465 72.3403 11.0087 72.3934 11.0678 72.4371C11.1269 72.4809 11.1643 72.5152 11.214 72.5496C11.3478 72.6465 11.4878 72.7402 11.6309 72.8245C11.7118 72.8714 11.7927 72.9183 11.8767 72.9589C11.9607 72.9995 12.0447 73.0464 12.1318 73.0839C12.2842 73.1526 12.4429 73.2151 12.6016 73.2682C12.6793 73.2963 12.7602 73.3213 12.8411 73.3432L13.0216 73.3932L13.1522 73.4213C13.2085 73.4361 13.2657 73.4475 13.3233 73.4557L13.5131 73.49C13.5909 73.49 13.6718 73.515 13.7526 73.5213C13.8335 73.5275 13.9766 73.54 14.0917 73.5494L14.1975 74.1774Z" fill="#F85CA7"/>
<path d="M13.1183 45.7796C12.9907 46.0077 12.8663 46.242 12.7418 46.4763C12.4598 47.0033 12.186 47.5428 11.9205 48.0948L11.7525 48.4509C11.6467 48.6759 11.5441 48.9008 11.4414 49.1289C11.149 49.7819 10.8721 50.4381 10.617 51.0879C10.5579 51.241 10.4988 51.4004 10.4428 51.541C10.253 52.0378 10.0757 52.5283 9.91078 53.0188C9.84856 53.2032 9.78945 53.3844 9.73034 53.5687L9.46279 52.7814L6.48242 51.9378C6.60686 51.6472 6.73442 51.3535 6.86508 51.0598C7.24774 50.2037 7.65528 49.3695 8.07838 48.5603L8.61037 48.1604L8.58859 47.6198C9.2108 46.4857 9.8859 45.414 10.5797 44.408L12.7138 45.9233L13.1183 45.7796Z" fill="#F85CA7"/>
<path d="M25.9612 26.7334C25.7142 26.8746 25.4914 27.055 25.3017 27.2676C23.9341 28.8206 22.8778 30.6241 22.1907 32.5791L20.6756 32.929L20.5449 32.9572C20.5667 32.8947 20.5885 32.8322 20.6134 32.7697C21.3033 30.8567 22.3485 29.0925 23.6933 27.5707C23.9724 27.2531 24.3259 27.0102 24.7218 26.864C25.1178 26.7179 25.5437 26.673 25.9612 26.7334Z" fill="#F85CA7"/>
<path d="M82.183 60.1021C81.4249 61.6709 80.4532 63.1262 79.2959 64.4262L79.0906 64.0919L77.168 63.9919V63.9638L77.308 63.8919C77.4739 63.8045 77.6357 63.7139 77.7933 63.6201C77.9675 63.5201 78.1386 63.417 78.3097 63.3077C78.4808 63.1983 78.6208 63.1171 78.7608 63.0202C78.9008 62.9234 79.0346 62.839 79.1684 62.7453C79.5106 62.5047 79.8466 62.2516 80.1701 61.9892C80.2821 61.9017 80.3879 61.8142 80.4968 61.7205L80.5435 61.6799L80.5683 61.6611C80.7052 61.5424 80.8421 61.4237 80.9759 61.3018C81.1096 61.18 81.2185 61.08 81.3368 60.9644C81.3679 60.9363 81.4021 60.905 81.4332 60.8707C81.5265 60.7863 81.6168 60.6957 81.707 60.602L81.8967 60.4082C81.9994 60.2989 82.0927 60.202 82.183 60.1021Z" fill="#F85CA7"/>
<path d="M85.6328 35.6663L85.1195 37.0129C84.8706 37.3691 84.5968 37.7284 84.2951 38.0845L83.6729 37.0691C84.3645 36.6581 85.0202 36.1888 85.6328 35.6663Z" fill="#F85CA7"/>
<path d="M13.5563 70.4189L13.6216 70.7969C13.4349 70.7324 13.28 70.5981 13.1892 70.422C12.2146 68.5483 11.5914 66.5107 11.3506 64.4106L12.1128 65.9728L13.2483 66.1384C13.5255 67.3167 13.9433 68.457 14.4927 69.5347L13.5563 70.4189Z" fill="#FFA4D8"/>
<path d="M17.6716 44.1021L16.1783 48.9511C15.4904 50.3941 14.8879 51.8766 14.3739 53.3909H14.1033L11.7451 56.9371C12.7624 51.9193 15.0397 47.3639 16.7694 44.4395L17.6716 44.1021Z" fill="#FFA4D8"/>
</svg>
