<svg width="130" height="90" viewBox="0 0 130 90" fill="none" xmlns="http://www.w3.org/2000/svg">
<g clip-path="url(#clip0_227_3146)">
<path d="M125.458 54.1337C117.208 68.7571 95.0942 78.1578 78.2436 83.686C55.068 91.3807 19.9358 95.5174 6.88555 75.0853C-2.5251 60.3343 19.8571 35.2549 48.7091 17.6184C59.0596 11.283 70.6858 5.65044 82.2637 1.94157C115.7 -8.76976 140.614 27.2637 125.458 54.1337Z" fill="#FAEEEE"/>
<path d="M95.3946 15.8062C93.4096 14.5837 90.2399 16.0453 90.2399 16.0453C91.3352 14.4956 95.3339 15.0026 95.3339 15.0026C87.3705 13.2965 85.707 18.4184 85.5695 18.9003C79.793 13.6543 70.5449 24.833 70.5449 24.833L83.8167 42.5342C83.8167 42.5342 85.0281 39.7189 86.6272 40.598C89.1286 41.9679 93.9438 36.4217 92.4019 29.1244C92.2483 28.3899 92.0514 27.6653 91.8123 26.9544C92.3315 27.2017 92.8947 27.3417 93.4685 27.3661C94.9194 27.3661 97.1117 23.6411 97.3993 22.388C97.687 21.1349 97.3761 17.0287 95.3946 15.8062Z" fill="#233862"/>
<path d="M96.5897 76.6118C97.1972 66.8784 92.4999 56.3343 88.6656 53.314C88.1642 52.8853 87.572 52.5778 86.9342 52.4151C86.8031 52.375 86.6815 52.3083 86.5769 52.2191C85.4959 51.3436 84.0415 47.863 83.8075 42.5235C83.7843 41.9842 83.7718 41.4449 83.7735 40.8857L83.2375 40.99L82.7301 41.0907L74.295 42.7716C74.3432 43.3811 74.504 46.2144 74.504 48.2729C74.504 50.4968 74.3772 52.6056 73.8751 52.8699L73.6053 52.8951C73.3087 52.9257 72.8692 52.9724 72.837 52.9778C70.5947 56.2558 68.7016 59.7623 67.1892 63.4392C65.9707 66.4488 64.9826 69.8035 64.7682 73.0755C64.6578 74.9417 64.7839 76.8145 65.1434 78.6487C65.6187 81.2177 66.4191 83.9144 66.8944 86.888C70.8752 85.9532 74.6988 84.8601 78.2436 83.6843C83.9987 81.8002 90.3683 79.4631 96.5897 76.6118Z" fill="#FFB27D"/>
<path d="M74.2969 42.7733C74.2969 42.7733 74.5006 45.6067 74.5059 48.2746C79.5087 48.1326 82.1567 43.5392 83.2412 40.9917L74.2969 42.7733Z" fill="#E8945B"/>
<path d="M84.1654 40.0118C84.1654 40.0118 86.7883 35.8409 87.419 32.2813C87.8675 29.7356 86.5792 20.2989 77.1543 21.658C75.2562 21.922 73.4414 22.612 71.8441 23.677C69.7984 25.0685 66.8413 28.0708 70.1468 36.3048L71.0044 39.086L84.1654 40.0118Z" fill="#233862"/>
<path d="M72.6246 45.3046C72.6246 45.3046 84.4688 45.5005 84.4759 38.0774C84.4831 30.6542 86.0179 25.6815 78.4565 25.2428C70.8951 24.8042 69.4246 27.6339 68.8225 30.1113C68.2204 32.5887 69.5443 45.0583 72.6246 45.3046Z" fill="#FFB27D"/>
<path d="M73.0645 25.0577C73.0645 25.0577 76.3056 33.7645 81.2834 35.0535C86.2612 36.3425 88.4195 34.9996 88.4195 34.9996C88.4195 34.9996 87.1313 30.0484 86.3398 24.7233C86.338 24.7233 75.5087 20.912 73.0645 25.0577Z" fill="#233862"/>
<path d="M73.8663 25.7643C73.8663 25.7643 71.4453 27.7077 70.8557 29.599C70.266 31.4903 69.9998 35.3789 68.8724 35.2477C68.8724 35.2477 66.43 29.3275 69.1744 25.98C72.0867 22.4293 73.8663 25.7643 73.8663 25.7643Z" fill="#233862"/>
<path d="M102.249 73.692C100.278 74.6831 98.3435 75.615 96.4436 76.4875C95.3358 77.0005 94.2423 77.4925 93.1632 77.9635L92.7397 78.1433C91.3586 73.1292 90.1972 69.0123 90.1972 69.0123L89.3217 65.1991L87.5582 57.5099L86.3379 52.1902L86.5773 52.219C86.9668 52.2621 87.8012 52.3646 88.8464 52.5318C90.7493 52.8356 93.3526 53.3534 95.2536 54.1246L95.2965 54.1426L95.3983 54.1858C96.3596 54.5903 97.1225 55.0613 97.4995 55.6042C97.5512 55.6801 97.5966 55.7601 97.6353 55.8433C99.2469 59.4066 100.85 66.4845 102.249 73.692Z" fill="#FFB27D"/>
<path d="M73.418 26.0573C73.418 26.0573 75.7282 35.1775 82.0067 38.1026C82.0067 38.1026 75.7282 32.5006 75.194 26.4797C74.6597 20.4589 73.418 26.0573 73.418 26.0573Z" fill="#233862"/>
<path d="M57.1749 72.9604C56.9962 73.7496 56.8354 74.5784 56.6817 75.427C56.2744 77.6761 55.9456 80.1624 55.7187 82.9023C55.7187 82.9023 45.7845 76.6603 43.569 73.4099C43.569 73.142 43.7316 70.2224 43.4529 68.2376C43.3492 67.5077 43.1866 66.9018 42.9329 66.6016C42.8132 66.4595 42.6774 66.3103 42.5309 66.1539C42.0225 65.6297 41.4767 65.1436 40.8978 64.6995C40.319 64.2608 39.7901 63.948 39.5042 63.9426H39.4631C39.4421 63.9435 39.4215 63.9484 39.4024 63.957C38.727 64.1817 36.5275 67.238 37.2172 69.5751C37.9319 72.0004 40.9282 75.2778 40.9282 75.2778C40.9282 75.2778 45.9686 84.0709 52.0059 89.4499C55.6329 89.0652 59.2493 88.4953 62.7798 87.7851C63.6875 85.2988 64.5129 81.9459 65.1365 78.6505C66.1013 73.5555 66.7571 67.9715 67.1823 63.45C67.4056 61.0661 67.5682 58.9807 67.6754 57.4148C67.7648 56.1419 67.8184 55.2161 67.8434 54.7558C67.8577 54.5419 67.8613 54.4304 67.8613 54.4304C67.7143 54.4926 67.5716 54.5647 67.4342 54.6462C65.8458 55.5522 60.1319 59.6351 57.1749 72.9604Z" fill="#FFB27D"/>
<path d="M78.2433 83.6861C85.9994 81.1422 94.8723 77.7749 102.993 73.4566C101.422 66.6249 99.4195 59.2036 97.6756 55.8723C97.6291 55.7824 97.5728 55.698 97.5077 55.6206C97.3539 55.4379 97.1774 55.276 96.9824 55.1388L97.0092 55.1046C96.4769 54.7279 95.9054 54.4108 95.3047 54.159L95.2618 54.141C92.4709 52.94 88.8564 52.5427 88.8564 52.5427C88.8475 52.5859 88.7813 52.8753 88.6777 53.3212C88.449 54.2794 88.0345 55.9604 87.57 57.5209C87.084 59.1515 86.5444 60.649 86.1084 61.0499C85.0364 62.0333 69.5795 63.6424 69.2239 61.8554C68.8844 60.1474 73.2941 53.4884 73.6192 52.9023C72.3364 53.0227 69.9547 53.3697 68.9648 53.5387C67.2085 53.8425 66.1347 54.5994 66.0328 54.7145C63.9531 56.3019 59.0646 61.1722 57.1475 72.9083L57.1886 72.9658C57.5298 73.4117 59.8293 76.3205 62.974 77.2284C63.0633 77.2554 63.1526 77.2787 63.2438 77.3003C63.074 80.1552 62.5505 84.2255 62.0556 87.9379C67.5347 86.8636 72.9413 85.4435 78.2433 83.6861Z" fill="#80BDCC"/>
<path d="M34.6677 50.1035C34.6201 48.9703 44.0054 46.0572 44.8379 46.4789C46.1193 47.1014 50.2294 65.7419 49.5847 66.794C49.1443 67.5167 41.3315 70.4874 40.549 70.4146C39.7666 70.3418 34.7127 51.503 34.6677 50.1035Z" fill="#474849"/>
<path d="M45.0663 47.1319C45.0503 47.1112 45.0294 47.0947 45.0053 47.0836C45.0053 47.0836 44.9799 47.0961 44.9556 47.0719C44.5584 47.0218 44.1508 47.073 43.772 47.2205C43.269 47.3355 42.7609 47.4529 42.2626 47.5776C41.2257 47.8388 40.2005 48.1284 39.187 48.4463C38.2552 48.6976 37.3409 49.0146 36.4514 49.3947C35.9445 49.6441 35.5884 50.1266 35.8247 50.6007C36.064 51.9293 36.376 53.2417 36.7594 54.5325C37.1428 55.9825 37.5691 57.4174 37.9852 58.8573C38.4013 60.2972 38.7737 61.608 39.1716 62.9845C39.4322 64.096 39.7667 65.1871 40.1728 66.2511C40.3979 67.2067 40.6429 68.1645 40.9261 69.0974C40.9707 69.3253 41.0789 69.5344 41.2389 69.7021C41.3988 69.8698 41.6044 69.9897 41.8334 70.0487C42.4316 70.0493 43.0265 69.9075 43.5668 69.6356C44.8499 69.1759 46.1006 68.6269 47.3092 67.993C47.3585 67.9963 47.4083 67.9883 47.4548 67.9695C47.5482 67.9294 47.6396 67.8845 47.7285 67.8349L48.4397 67.515C48.7513 67.3881 49.0296 67.1904 49.2508 66.9388C49.4721 66.6873 49.6297 66.3894 49.7103 66.0706C49.8788 65.331 49.5214 64.7237 49.4163 64.0284C49.2847 63.1232 49.1282 62.2183 48.9615 61.3184C48.7948 60.4184 48.6263 59.5796 48.4312 58.7117C48.3428 58.3094 48.2567 57.912 48.1557 57.5098L48.1229 57.1706C48.0389 56.5774 47.9179 55.9911 47.7608 55.4149C47.4423 54.2282 47.1013 53.0466 46.7676 51.8673C46.434 50.688 46.1048 49.5307 45.7657 48.3661C45.6823 47.885 45.4362 47.4507 45.0663 47.1319Z" fill="#57585A"/>
<path d="M38.3273 50.2737C38.2875 50.2309 38.2434 50.1921 38.1958 50.1578C38.1462 50.1238 38.0925 50.0956 38.0358 50.0739L37.9913 50.0597C37.9332 50.0468 37.8743 50.0376 37.8147 50.0321L37.6344 50.0486C37.5747 50.0717 37.517 50.1001 37.4622 50.1334L37.4217 50.1533L37.3507 50.1882L37.2443 50.2405C37.159 50.2802 37.0843 50.3397 37.0271 50.4137C36.9625 50.4775 36.914 50.555 36.8858 50.6398L36.8485 50.8087C36.8355 50.9295 36.8571 51.0503 36.911 51.1573C36.9541 51.2373 37.0037 51.3135 37.0593 51.3854L37.1983 51.5037L37.2101 51.528C37.2617 51.5568 37.3235 51.5806 37.3802 51.6069C37.4133 51.6226 37.4496 51.6314 37.4868 51.6327C37.5769 51.6547 37.6719 51.6554 37.764 51.6348L37.8045 51.6149L37.9717 51.5326L38.0223 51.5077L38.1895 51.4254C38.2436 51.3785 38.2863 51.3204 38.3143 51.2557C38.3311 51.2347 38.3429 51.2103 38.3487 51.1845L38.3741 51.172L38.3876 51.1353L38.3217 51.258C38.3567 51.2075 38.3851 51.1531 38.4062 51.096C38.4264 51.0371 38.439 50.9763 38.4439 50.9149C38.449 50.8546 38.4491 50.7941 38.444 50.7342C38.4394 50.7185 38.4322 50.7037 38.4228 50.6904C38.4018 50.6346 38.3758 50.5809 38.345 50.53C38.351 50.4437 38.345 50.3575 38.3273 50.2737Z" fill="#2C2D2D"/>
<path d="M39.0419 52.6234L39.0985 52.7401C39.079 52.6935 39.0569 52.6481 39.0324 52.604C38.9886 52.5128 38.9189 52.4365 38.8314 52.3837L38.7778 52.3378C38.6742 52.2718 38.5541 52.2335 38.4288 52.2265C38.3019 52.2219 38.1748 52.2493 38.0595 52.3061C37.9441 52.3628 37.8445 52.447 37.7702 52.5506C37.6987 52.6544 37.6549 52.7734 37.6429 52.8963C37.6393 52.9298 37.6409 52.9636 37.6475 52.9964C37.6475 52.9964 37.6482 53.0623 37.6522 53.0964C37.6647 53.1264 37.6789 53.1556 37.6946 53.184C37.7077 53.2814 37.7514 53.3713 37.8196 53.4416C37.8438 53.4668 37.8698 53.4902 37.8976 53.5117C37.9192 53.5347 37.9438 53.555 37.9708 53.572C38.0281 53.6026 38.0874 53.6297 38.1483 53.6533C38.2137 53.6686 38.2801 53.6802 38.3471 53.6879L38.5348 53.6739L38.7071 53.5891C38.7958 53.5515 38.8728 53.4906 38.9294 53.4135C38.9962 53.3495 39.0465 53.2709 39.0758 53.1848L39.1158 53.0086C39.1265 52.886 39.1042 52.7641 39.051 52.6551L39.0419 52.6234Z" fill="#2C2D2D"/>
<path d="M92.6763 78.3303C92.1564 76.955 91.5507 75.7936 91.1487 75.8871C90.7467 75.9806 89.5103 77.7407 88.4043 80.0598C89.8212 79.5079 91.2488 78.9326 92.6763 78.3303Z" fill="#5F9AA8"/>
<path d="M39.0021 64.302C39.0021 64.302 40.7317 62.7236 42.145 64.2158C43.5582 65.7079 41.6089 68.3795 40.1796 69.0141C38.7502 69.6487 38.2803 70.0101 38.2803 70.0101L39.0021 64.302Z" fill="#FFB27D"/>
<path d="M74.9381 40.8947C74.9381 40.8947 74.7345 41.7684 72.5707 41.6336C72.5707 41.6336 70.7554 41.5221 70.8108 40.5549C70.8108 40.5603 72.5707 39.8754 74.9381 40.8947Z" fill="white"/>
</g>
<defs>
<clipPath id="clip0_227_3146">
<rect width="130" height="90" fill="white"/>
</clipPath>
</defs>
</svg>
