<svg width="20" height="20" viewBox="0 0 20 20" fill="none" xmlns="http://www.w3.org/2000/svg">
<g clip-path="url(#clip0_113_79)">
<path d="M17.0856 2.90641C15.2055 1.03328 12.7055 0.00114284 10.0419 0C4.55319 0 0.0864911 4.44562 0.0842937 9.90993C0.0836541 11.6566 0.542057 13.3616 1.41336 14.8646L0.000694275 20L5.27933 18.622C6.73369 19.4116 8.37121 19.8277 10.0376 19.8284H10.0418H10.0419C15.5297 19.8284 19.9971 15.382 19.9994 9.91796C20.0003 7.2697 18.9654 4.77968 17.0856 2.90641ZM10.0419 18.1546H10.0387C8.55332 18.1538 7.09674 17.7568 5.82625 17.0062L5.5239 16.8278L2.39144 17.6454L3.22777 14.6059L3.03077 14.2942C2.20224 12.9827 1.76484 11.4669 1.76546 9.91057C1.76729 5.36881 5.47983 1.67389 10.045 1.67389C12.2557 1.6748 14.3335 2.53272 15.8962 4.08961C17.4588 5.64649 18.3187 7.71614 18.3181 9.91726C18.3161 14.4592 14.6035 18.1546 10.0419 18.1546Z" fill="#E0E0E0"/>
<path d="M0.457756 19.4302L1.80589 14.5294C0.974177 13.0951 0.536797 11.4678 0.537321 9.80126C0.539502 4.58666 4.8022 0.344238 10.0397 0.344238C12.5818 0.345381 14.9676 1.33032 16.7614 3.11793C18.5556 4.90553 19.5431 7.28165 19.5421 9.80865C19.5399 15.0234 15.277 19.2662 10.0401 19.2662C10.0404 19.2662 10.0397 19.2662 10.0401 19.2662H10.0359C8.4456 19.2657 6.883 18.8682 5.49517 18.1152L0.457756 19.4302Z" fill="url(#paint0_linear_113_79)"/>
<path fill-rule="evenodd" clip-rule="evenodd" d="M7.58122 5.70276C7.397 5.29497 7.20304 5.28681 7.02777 5.27968C6.88442 5.27355 6.7203 5.27393 6.55645 5.27393C6.39246 5.27393 6.12599 5.33528 5.90064 5.58031C5.67516 5.82534 5.03972 6.41767 5.03972 7.62237C5.03972 8.82721 5.92114 9.99135 6.04399 10.1549C6.16698 10.3181 7.74547 12.8694 10.2453 13.8509C12.3229 14.6665 12.7457 14.5043 13.1967 14.4635C13.6476 14.4227 14.6518 13.8713 14.8568 13.2995C15.0617 12.7278 15.0617 12.2377 15.0002 12.1353C14.9388 12.0333 14.7748 11.972 14.5288 11.8496C14.2828 11.7272 13.0737 11.1347 12.8482 11.0531C12.6227 10.9714 12.4587 10.9306 12.2948 11.1758C12.1308 11.4207 11.6597 11.972 11.5162 12.1353C11.3727 12.2989 11.2292 12.3194 10.9833 12.1969C10.7373 12.0741 9.94516 11.8158 9.00546 10.9816C8.27432 10.3326 7.78069 9.53111 7.6372 9.28598C7.49372 9.04108 7.62182 8.90843 7.7452 8.78636C7.85563 8.67666 7.99118 8.50052 8.11417 8.35753C8.2369 8.21454 8.27789 8.11251 8.35988 7.94924C8.44188 7.78572 8.40088 7.64275 8.33939 7.5203C8.27789 7.39785 7.79991 6.18693 7.58122 5.70276Z" fill="white"/>
<path d="M17.0042 2.87501C15.1457 1.02338 12.6744 0.00311229 10.0414 0.00195312C4.61567 0.00195312 0.200253 4.39654 0.198072 9.79812C0.197433 11.5248 0.650572 13.2102 1.51187 14.6959L0.11544 19.7724L5.33348 18.4101C6.77117 19.1907 8.38988 19.6021 10.0372 19.6027H10.0413H10.0414C15.4662 19.6027 19.8823 15.2074 19.8846 9.80602C19.8855 7.18821 18.8625 4.72677 17.0042 2.87501ZM10.0414 17.9482H10.0382C8.56989 17.9474 7.13002 17.5549 5.87412 16.813L5.57523 16.6366L2.47874 17.4448L3.30545 14.4402L3.11072 14.1321C2.2917 12.8356 1.85932 11.3373 1.85996 9.79877C1.86175 5.30917 5.53167 1.65666 10.0445 1.65666C12.2298 1.65756 14.2837 2.50563 15.8285 4.04464C17.3732 5.58366 18.2232 7.62954 18.2226 9.80542C18.2206 14.2951 14.5506 17.9482 10.0414 17.9482Z" fill="white"/>
</g>
<defs>
<linearGradient id="paint0_linear_113_79" x1="9.99994" y1="19.4302" x2="9.99994" y2="0.34427" gradientUnits="userSpaceOnUse">
<stop stop-color="#20B038"/>
<stop offset="1" stop-color="#60D66A"/>
</linearGradient>
<clipPath id="clip0_113_79">
<rect width="20" height="20" fill="white"/>
</clipPath>
</defs>
</svg>
