<svg width="91" height="90" viewBox="0 0 91 90" fill="none" xmlns="http://www.w3.org/2000/svg">
<path d="M39.1478 31.0506C35.7549 32.6391 35.7 52.5538 36.1693 54.0586C36.2865 54.435 40.9557 54.4079 41.3612 54.4612L39.7532 47.48C39.7532 47.48 39.9055 42.8277 40.1505 38.3665C40.3888 34.0136 39.9563 30.6685 39.1478 31.0506Z" fill="#F7A491"/>
<path d="M46.9159 0.0208546C23.6203 -0.678798 3.44155 16.5167 0.392965 39.0791C-2.94162 63.7482 15.4057 85.9447 37.9795 89.4997C66.0577 93.9217 93.292 68.3405 90.8468 40.5886C89.0045 19.6799 70.5963 0.732249 46.9159 0.0208546Z" fill="#FAEEEE"/>
<path d="M56.782 10.6222C56.4292 7.39303 56.0578 4.14909 53.3847 1.78641C51.2214 -0.128697 48.4706 -0.452353 45.7503 0.571319C38.0439 3.47496 42.0149 10.3263 32.1886 17.2349C29.1349 19.3812 26.4423 20.5269 24.1441 23.4176C20.926 27.4633 22.0418 32.0305 24.9755 35.28C39.0073 50.8265 54.0996 30.4529 55.2247 25.4132C56.0597 21.6634 57.0092 12.7 56.782 10.6222Z" fill="#13375B"/>
<path d="M39.4453 36.805C39.412 37.2081 39.0333 38.5129 38.9982 38.8393C37.2783 38.6655 35.0429 38.7219 33.347 38.8874C32.7771 32.9202 35.7717 22.3062 39.8332 22.5198C40.8188 22.5734 39.8545 31.6995 39.4453 36.805Z" fill="#96D9C9"/>
<path d="M57.7093 56.4665C54.3193 58.2697 40.9987 56.4267 40.9987 56.4267C40.6754 53.032 39.5642 44.3997 38.8086 37.0999C39.2187 31.9945 40.4518 26.0319 39.8422 22.5216C39.833 22.4708 45.1017 22.1036 45.1017 22.1036L50.5691 22.2386C50.5691 22.2386 55.3252 22.6215 56.8364 23.6137C56.9417 23.6831 57.8589 31.7948 57.0728 38.3307C55.9016 48.0829 57.7093 56.4665 57.7093 56.4665Z" fill="#466EB6"/>
<path d="M40.8312 54.7946L28.8896 65.0572C28.8896 65.0572 52.4079 77.3607 60.566 75.0267L62.7902 63.8911L57.4319 54.9157L40.8312 54.7946Z" fill="#355389"/>
<path d="M39.2782 68.3455C39.2782 68.3455 30.2731 66.9668 24.8686 71.3148C19.464 75.6629 15.9697 84.3599 18.7241 85.7406C21.4786 87.1212 29.5314 85.5288 35.8864 83.1957C42.2414 80.8626 44.4694 69.618 39.2782 68.3455Z" fill="#13375B"/>
<path d="M19.1481 77.3607C18.3981 78.9827 19.0622 80.5362 20.3055 81.387C21.8509 82.4439 43.1208 85.5584 50.394 86.5488C56.0664 87.32 64.5968 89.1325 66.9282 89.5569C69.2596 89.9814 77.4694 90.1312 77.6282 89.875C78.0633 89.1732 77.0981 87.8601 75.4031 87.4356C73.7081 87.0112 72.5396 87.3302 69.2586 85.1025C65.9777 82.8749 64.7039 84.6781 63.8559 85.2089C63.008 85.7397 25.8237 73.2244 25.8237 73.2244C25.8237 73.2244 20.8246 73.7404 19.1481 77.3607Z" fill="#FFCC8B"/>
<path d="M39.8059 56.7846C39.8059 56.7846 23.3475 64.5107 19.8808 66.7504C13.3743 70.9533 17.0802 83.0459 18.0011 84.961C18.0011 84.961 19.8892 74.1787 25.8221 73.2244L26.8815 68.1328L39.8059 56.7846Z" fill="#355389"/>
<path d="M56.3328 58.8004C56.3328 58.8004 33.1323 52.5428 24.445 60.6027C24.445 60.6027 20.3751 64.346 21.8586 68.8004C22.6992 71.324 25.8222 73.2243 25.8222 73.2243C25.8222 73.2243 33.8731 66.3305 37.1578 67.4966C40.4424 68.6626 53.1894 77.663 56.8621 77.2543C62.5834 76.6181 69.2562 63.4666 56.3328 58.8004Z" fill="#466EB6"/>
<path d="M41.7758 69.1537C39.3086 67.9109 33.4496 65.1635 29.5294 66.3305C25.6093 67.4975 24.0593 70.6694 25.8217 73.2244C26.8553 74.7224 61.0995 84.9961 62.6883 85.9514C64.277 86.9066 70.8464 88.2845 72.8591 88.2845C74.8718 88.2845 78.5795 89.0242 78.8973 88.4962C79.215 87.9682 77.4148 86.1631 75.1896 85.7387C72.9644 85.3142 69.8922 82.3449 68.6212 81.2843C67.3502 80.2236 65.8667 80.33 64.5957 80.7544C63.3247 81.1789 47.4907 72.0342 41.7758 69.1537Z" fill="#FCAE49"/>
<path d="M57.3855 36.4156C57.3855 39.6567 54.2273 40.5167 48.2944 40.5167C42.3615 40.5167 37.5537 37.8896 37.5537 34.6484C37.5537 31.4072 41.4942 26.8465 47.4262 26.8465C53.3582 26.8465 57.3855 33.1744 57.3855 36.4156Z" fill="#F47458"/>
<path d="M46.3796 14.0557C46.3796 14.0557 46.265 14.8778 46.0877 16.0115C45.7635 18.0866 45.5981 21.4905 45.1825 22.5253C44.813 23.4362 40.6702 28.9318 39.7724 33.0367C39.0935 36.1428 40.7441 38.0958 42.2423 38.5434C43.4431 38.9013 46.8183 39.04 48.069 36.7402C50.442 32.3773 50.817 24.1759 50.9112 23.0542C51.0054 21.9325 51.3038 18.1458 51.5024 15.6139C51.6095 14.2444 51.6871 13.2457 51.6871 13.2457L46.3796 14.0557Z" fill="#FCAE49"/>
<path d="M51.5127 15.5695C51.6143 14.2296 51.6882 13.2466 51.6882 13.2466L46.3806 14.0557C46.3806 14.0557 46.2467 14.8288 46.1035 15.9227C48.2511 17.173 50.1853 16.7772 51.5127 15.5695Z" fill="#F47458"/>
<path d="M48.0454 2.02962C48.0454 2.02962 45.9532 2.50123 44.6619 4.47552C43.3706 6.44981 42.4838 12.2589 46.7384 14.9702C50.9929 17.6815 54.3016 13.8458 54.3561 10.1043C54.4106 6.36289 53.6097 1.36937 48.0454 2.02962Z" fill="#FCAE49"/>
<path d="M55.3288 8.93364C54.9658 9.83618 54.2462 10.3966 53.7207 10.1848C53.1951 9.97304 53.0639 9.06958 53.4269 8.16705C53.7899 7.26451 54.5095 6.70413 55.0351 6.91589C55.5607 7.12765 55.6918 8.03111 55.3288 8.93364Z" fill="#FCAE49"/>
<path d="M48.6738 1.90676C48.6738 1.90676 46.0062 7.89621 43.6628 8.43163C41.3194 8.96705 41.3535 11.9798 41.3535 11.9798C41.3535 11.9798 41.4062 5.02031 43.6018 3.42423C45.7974 1.82816 48.6738 1.90676 48.6738 1.90676Z" fill="#13375B"/>
<path d="M44.5925 9.67624C44.901 10.6481 44.6184 11.6061 43.9626 11.8151C43.3067 12.0241 42.5234 11.4046 42.2149 10.428C41.9064 9.45153 42.1881 8.49814 42.8449 8.28915C43.5016 8.08016 44.2831 8.70343 44.5925 9.67624Z" fill="#FCAE49"/>
<path d="M35.8801 42.4522C38.7066 43.8679 38.6669 41.8974 41.45 40.7701C44.4714 39.5485 44.1481 35.4067 42.1658 34.3655C41.6606 34.1001 40.3923 34.1223 39.8234 33.965C37.237 33.2521 35.4635 31.2972 34.3625 33.5027C33.0185 36.1872 33.0536 41.0355 35.8801 42.4522Z" fill="#FFDDB2"/>
<path d="M37.788 43.3297C37.8462 45.5685 38.841 46.1908 40.9831 47.6186C43.1251 49.0464 47.0074 49.6928 48.8696 50.2356C54.5254 51.8871 57.1367 50.648 56.8439 46.7466C56.5511 42.8452 57.0803 42.7518 52.9413 40.8764C48.9878 39.0852 48.5999 40.6915 45.3983 40.3049C42.1968 39.9184 37.7141 40.4769 37.788 43.3297Z" fill="#466EB6"/>
<path d="M39.4864 38.4887C39.8042 36.3119 39.2093 33.9169 37.3241 33.7033C37.6935 33.2964 36.4521 30.4177 33.3734 31.0576C31.1159 31.5265 29.1761 33.3371 29.0163 35.2771C28.9443 36.151 28.6219 37.3985 28.7254 38.2696C28.9443 40.1098 28.8454 40.8163 30.2956 42.3985C32.9503 45.2984 38.0381 44.6178 40.1533 43.0337C41.9721 41.6698 41.7347 39.2017 39.4864 38.4887Z" fill="#F7CC7F"/>
<path d="M48.1953 40.7914C49.3287 39.1047 50.245 37.2191 50.1351 36.4008C49.9503 35.0433 49.4682 32.577 47.8711 30.2504C47.8277 30.1875 47.4296 29.5938 47.3769 29.2905C47.2845 28.7745 47.0148 27.9747 46.7617 27.9747C46.5899 27.9747 46.9363 28.6858 46.8975 29.1768C46.5788 28.3445 46.3433 27.8572 46.2278 27.896C46.0496 27.9525 46.2879 28.6201 46.4329 29.2498C46.2833 28.99 45.6136 27.7046 45.4002 27.9127C45.2155 28.0902 45.62 28.9299 45.9249 29.4967C45.6662 29.2369 44.8857 28.0264 44.7139 28.3482C44.64 28.4869 44.8986 29.0594 45.0381 29.2646C45.3679 29.7566 45.6385 30.3743 45.5628 30.5167C45.5184 30.599 45.1573 30.4067 44.8146 30.4067C44.5541 30.4067 44.4451 30.5704 44.6455 30.8395C44.7379 30.9634 45.2395 31.0318 45.7983 31.2297C46.2066 31.3749 46.5373 31.4146 46.5123 31.7133C46.4403 32.798 47.0268 35.7821 47.0666 36.2768C46.8338 36.4165 45.8879 36.9242 44.8127 37.5937C45.7683 38.8282 46.9094 39.907 48.1953 40.7914Z" fill="#FFDDB2"/>
<path d="M44.649 37.3588C43.0991 38.3233 41.4512 39.8555 41.103 40.8921C40.074 43.9437 43.6607 44.8962 45.5062 43.7875C46.2747 43.3251 47.3028 42.1229 48.1969 40.7913C47.2853 39.248 46.0614 38.2539 44.649 37.3588Z" fill="#9BC1F9"/>
<path d="M55.4615 49.2249C58.301 47.7241 56.2346 40.2033 56.2346 40.2033C56.2346 40.2033 61.2651 43.9752 62.331 42.7333C63.397 41.4914 63.1356 37.0731 62.8437 36.8382C62.5518 36.6033 62.441 37.2617 62.441 37.2617C62.441 37.2617 62.3181 36.8918 62.0835 36.6977C61.8489 36.5035 61.6983 37.2155 61.6983 37.2155C61.6983 37.2155 61.8018 36.5099 61.2947 36.6607C60.7875 36.8114 61.2568 37.6945 61.0693 37.2432C60.8818 36.792 60.0735 36.6607 60.346 37.5355C60.6185 38.4102 61.1487 40.0618 60.153 39.7234C59.1572 39.3849 58.3906 38.032 56.9718 36.8003C56.1681 36.1031 54.2007 35.256 52.9195 35.7535C51.9432 36.1345 51.1645 37.3598 50.8874 38.6026C50.2408 41.4692 50.686 45.7831 51.8877 47.7417C52.3976 48.5656 54.269 49.8556 55.4615 49.2249Z" fill="#FFDDB2"/>
<path d="M56.856 23.6201C56.4487 23.3899 54.1515 43.67 53.9409 45.5435H53.9252C53.9252 45.5435 49.2282 45.181 44.6494 44.3654L43.8984 48.7643C49.5265 51.0207 56.6815 53.3787 58.3515 51.9084C62.5137 48.2317 62.2948 26.693 56.856 23.6201Z" fill="#FCAE49"/>
<path d="M61.2447 43.3437C61.5874 38.488 61.2669 32.4606 59.9515 28.3003C59.2264 26.0069 58.0811 24.3101 56.8562 23.6174C56.5311 23.4325 54.7816 36.35 54.0713 42.5041C56.2771 42.6243 59.0583 42.9951 61.2447 43.3437Z" fill="#96D9C9"/>
<path d="M57.5794 50.9967C58.7027 50.8422 61.5846 48.0153 58.6084 49.5005C55.6323 50.9856 51.7066 49.8972 52.4769 49.2499C53.2473 48.6025 54.8111 48.1568 54.2431 47.7647C53.675 47.3727 51.7158 48.5045 50.0402 48.9789C49.7363 49.0649 48.6316 50.0729 47.7569 49.874C47.2885 49.7677 34.9101 44.5106 32.1279 42.9941C32.1279 42.9941 33.2133 49.1676 33.301 49.2138C42.9998 54.2998 48.2714 53.5165 51.3824 53.5276C54.4934 53.5387 57.4427 52.5049 57.8094 51.9722C58.1761 51.4396 54.5257 52.2543 54.5257 52.2543C54.5257 52.2543 55.5565 52.1618 56.6096 52.0102C57.718 51.8474 59.389 51.0115 59.364 50.734C59.3391 50.4566 57.7152 51.1455 56.6086 51.2787C55.502 51.4119 54.3133 51.6356 54.3133 51.5478C54.3133 51.4063 56.4562 51.1511 57.5794 50.9967Z" fill="#FFCC8A"/>
<path d="M30.5465 39.3322C29.6847 38.5924 28.3019 34.2305 30.0043 37.0906C31.7067 39.9508 35.5991 41.1594 35.2989 40.195C34.9987 39.2305 33.9254 38.0126 34.6144 37.9904C35.3035 37.9682 36.3418 39.9804 37.4964 41.2852C37.7061 41.5219 38.0903 42.9673 38.9346 43.2743C39.3863 43.438 50.8733 45.3411 54.0315 45.5722C54.0315 45.5722 47.8316 49.445 47.7328 49.4265C46.3555 49.1648 45.2878 48.6747 44.1544 48.401C39.1572 47.1988 36.0508 45.7516 33.9115 44.3867C31.2873 42.713 29.3632 40.2486 29.3429 39.6013C29.3226 38.954 31.9542 41.6153 31.9542 41.6153C31.9542 41.6153 31.1349 40.9828 30.3322 40.2828C29.4842 39.543 28.6991 37.6779 28.8691 37.4587C29.039 37.2395 29.8463 38.8513 30.7054 39.5624C31.5644 40.2736 32.4659 41.2094 32.514 41.1345C32.586 41.0161 31.4083 40.0701 30.5465 39.3322Z" fill="#FCAE49"/>
</svg>
