<svg width="90" height="90" viewBox="0 0 90 90" fill="none" xmlns="http://www.w3.org/2000/svg">
<g clip-path="url(#clip0_190_488)">
<path d="M46.3716 0.0203584C23.3463 -0.672807 3.40162 16.3632 0.388406 38.7164C-2.9075 63.1569 15.2269 85.1475 37.5389 88.6696C65.2914 93.0506 92.2097 67.7066 89.7929 40.212C87.9719 19.4972 69.7773 0.725157 46.3716 0.0203584Z" fill="#FAEEEE"/>
<path d="M63.0771 4.38296C61.7717 3.45389 59.8718 3.04736 58.2952 3.06546C47.1186 3.19472 47.4051 27.0134 49.5348 32.1635C51.6644 37.3136 50.7007 39.1437 42.1725 42.6466C33.6444 46.1496 38.272 51.1291 39.59 54.158C40.908 57.187 43.2323 59.6436 37.1022 63.2765C30.9722 66.9094 33.344 68.6428 33.344 68.6428C33.344 68.6428 46.0978 79.9289 45.1312 76.0543C44.1647 72.1797 44.8644 66.149 55.3764 64.8147C59.9042 64.2398 66.6839 61.4471 67.8251 56.3571C68.0907 55.1721 68.1981 53.3867 67.8289 52.2139C67.3168 50.5872 66.1439 49.3702 65.4251 47.8582C63.7505 44.3358 67.0008 41.3818 68.799 38.7833C69.7374 37.4261 70.6732 36.0365 71.3536 34.5235C72.7667 31.3802 71.8876 28.2094 69.8622 25.5906C68.8909 24.3345 67.5763 23.026 67.0734 21.4733C66.5315 19.8052 66.6969 17.4507 66.6522 15.6917C66.617 14.3122 66.6348 12.9336 66.4484 11.5634C66.0998 9.01601 65.2597 5.93571 63.0771 4.38296Z" fill="url(#paint0_linear_190_488)"/>
<mask id="mask0_190_488" style="mask-type:luminance" maskUnits="userSpaceOnUse" x="32" y="3" width="41" height="74">
<path d="M63.0771 4.38296C61.7717 3.45389 59.8718 3.04736 58.2952 3.06546C47.1186 3.19472 47.4051 27.0134 49.5348 32.1635C51.6644 37.3136 50.7007 39.1437 42.1725 42.6466C33.6444 46.1496 38.272 51.1291 39.59 54.158C40.908 57.187 43.2323 59.6436 37.1022 63.2765C30.9722 66.9094 33.344 68.6428 33.344 68.6428C33.344 68.6428 46.0978 79.9289 45.1312 76.0543C44.1647 72.1797 44.8644 66.149 55.3764 64.8147C59.9042 64.2398 66.6839 61.4471 67.8251 56.3571C68.0907 55.1721 68.1981 53.3867 67.8289 52.2139C67.3168 50.5872 66.1439 49.3702 65.4251 47.8582C63.7505 44.3358 67.0008 41.3818 68.799 38.7833C69.7374 37.4261 70.6732 36.0365 71.3536 34.5235C72.7667 31.3802 71.8876 28.2094 69.8622 25.5906C68.8909 24.3345 67.5763 23.026 67.0734 21.4733C66.5315 19.8052 66.6969 17.4507 66.6522 15.6917C66.617 14.3122 66.6348 12.9336 66.4484 11.5634C66.0998 9.01601 65.2597 5.93571 63.0771 4.38296Z" fill="white"/>
</mask>
<g mask="url(#mask0_190_488)">
<g style="mix-blend-mode:soft-light" opacity="0.8">
<path d="M32.9733 75.6077C32.9353 75.6254 32.8921 75.6276 32.8525 75.6141C32.8129 75.6005 32.7799 75.5721 32.76 75.5346C32.7402 75.4971 32.735 75.4534 32.7456 75.4122C32.7562 75.371 32.7817 75.3354 32.8171 75.3127C32.8643 75.2804 37.6025 72.2104 42.7764 67.3721C47.5428 62.9142 53.6633 56.0013 55.7534 48.3865C57.4989 42.0262 58.7222 31.6513 59.1098 19.9221C59.4584 9.40413 59.0242 1.68334 58.4044 0.295067C58.3954 0.274973 58.3904 0.253275 58.3897 0.23121C58.3889 0.209146 58.3924 0.187149 58.4 0.166473C58.4076 0.145798 58.4191 0.12685 58.4339 0.110711C58.4487 0.0945727 58.4664 0.0815592 58.4861 0.072414C58.5058 0.0632688 58.5271 0.0581709 58.5488 0.0574115C58.5704 0.0566521 58.592 0.0602459 58.6122 0.0679879C58.6325 0.0757299 58.6511 0.0874683 58.6669 0.102533C58.6828 0.117598 58.6955 0.135694 58.7045 0.155788C59.4293 1.77964 59.7522 10.467 59.4394 19.9328C59.0512 31.6879 57.8231 42.0915 56.0709 48.4763C53.9593 56.1694 47.7944 63.1349 42.9948 67.6236C37.8009 72.4809 33.0408 75.5654 32.9933 75.5961C32.9869 75.6004 32.9802 75.6043 32.9733 75.6077Z" fill="white"/>
<path d="M59.2542 21.9422C59.1715 21.9807 59.0831 21.9639 59.0451 21.8798C58.9943 21.7687 53.9367 10.7514 48.3882 8.63311C48.3681 8.62593 48.3497 8.61469 48.3339 8.60007C48.3182 8.58545 48.3055 8.56775 48.2967 8.54803C48.2878 8.5283 48.2829 8.50696 48.2823 8.48527C48.2817 8.46357 48.2854 8.44198 48.2931 8.42177C48.3008 8.40107 48.3124 8.38213 48.3274 8.36604C48.3423 8.34994 48.3601 8.33702 48.38 8.32801C48.3998 8.31899 48.4212 8.31407 48.4429 8.31353C48.4646 8.31298 48.4862 8.31682 48.5064 8.32482C54.1817 10.4916 59.1344 21.2775 59.3426 21.7357C59.381 21.8197 59.3369 21.9018 59.2542 21.9403V21.9422Z" fill="white"/>
<path d="M58.2962 35.2913C58.2608 35.3079 58.2208 35.3112 58.1833 35.3006C58.1458 35.29 58.1131 35.2662 58.0912 35.2334C58.0692 35.2006 58.0594 35.1609 58.0634 35.1214C58.0674 35.0819 58.0849 35.0452 58.113 35.0176C58.1412 34.9895 60.9855 32.1829 64.5761 29.7269C69.4278 26.4085 73.2596 25.2748 75.9644 26.3571C75.9848 26.365 76.0035 26.3769 76.0194 26.3922C76.0352 26.4074 76.0479 26.4258 76.0568 26.4461C76.0656 26.4664 76.0705 26.4884 76.0709 26.5106C76.0714 26.5329 76.0675 26.555 76.0596 26.5757C76.0516 26.5964 76.0397 26.6153 76.0245 26.6313C76.0093 26.6472 75.9912 26.66 75.9711 26.6687C75.951 26.6775 75.9295 26.6821 75.9077 26.6823C75.8858 26.6825 75.8642 26.6783 75.844 26.6699C69.6201 24.1816 58.4546 35.1475 58.3428 35.2587C58.3292 35.2722 58.3134 35.2833 58.2962 35.2913Z" fill="white"/>
<path d="M47.1888 63.3411C47.1723 63.349 47.1546 63.3538 47.1365 63.3553C47.0929 63.3597 47.0495 63.3462 47.0157 63.3179C46.9819 63.2896 46.9605 63.2488 46.9561 63.2044C46.9517 63.156 46.4741 58.287 45.0594 53.2335C43.7623 48.6001 41.3921 42.8603 37.4671 41.8187C37.4248 41.8075 37.3886 41.7796 37.3664 41.7412C37.3443 41.7027 37.3381 41.6569 37.3491 41.6137C37.3601 41.5706 37.3874 41.5336 37.4252 41.5111C37.4629 41.4885 37.5078 41.4821 37.5501 41.4933C40.8229 42.3607 43.4565 46.2809 45.3779 53.1456C46.8005 58.2279 47.2794 63.123 47.2848 63.1718C47.2881 63.2067 47.2806 63.2418 47.2634 63.2721C47.2461 63.3025 47.2201 63.3266 47.1888 63.3411Z" fill="white"/>
<path d="M53.3428 54.8952C53.3068 54.912 53.266 54.9151 53.228 54.9037C53.1899 54.8924 53.1572 54.8675 53.1357 54.8335C53.1142 54.7996 53.1054 54.7588 53.111 54.7188C53.1166 54.6788 53.1361 54.6422 53.166 54.6157C53.6626 54.1726 65.3903 43.7703 70.3297 44.2563C70.3516 44.2581 70.3728 44.2642 70.3923 44.2744C70.4118 44.2846 70.4291 44.2987 70.4431 44.3158C70.4572 44.3329 70.4678 44.3527 70.4743 44.374C70.4808 44.3954 70.4831 44.4178 70.481 44.44C70.4789 44.4622 70.4724 44.4838 70.4621 44.5035C70.4517 44.5231 70.4376 44.5405 70.4205 44.5545C70.4035 44.5686 70.3839 44.579 70.3629 44.5852C70.3418 44.5915 70.3198 44.5933 70.298 44.5908C65.4987 44.119 53.5035 54.7614 53.3831 54.8687C53.3711 54.8796 53.3575 54.8885 53.3428 54.8952Z" fill="white"/>
</g>
</g>
<path d="M87.1518 16.151C86.3409 14.754 84.7772 13.5816 83.3346 12.932C73.1103 8.32707 63.6936 30.1277 63.5392 35.7144C63.3849 41.3011 61.7645 42.5607 52.5794 42.1451C43.3943 41.7296 45.5832 48.2178 45.5522 51.5311C45.5211 54.8444 46.6385 58.0627 39.5834 58.7792C32.5283 59.4956 33.9823 62.0753 33.9823 62.0753C33.9823 62.0753 41.0048 77.7351 41.6994 73.8003C42.3941 69.8656 45.4808 64.6722 55.5904 67.8986C59.9451 69.2881 67.2503 69.6113 70.3567 65.4597C71.0799 64.4932 71.9032 62.9136 72.0436 61.6905C72.2382 59.9933 71.6655 58.3898 71.6256 56.7107C71.5324 52.7976 75.6906 51.4817 78.3828 49.8763C79.7883 49.0383 81.2034 48.169 82.4393 47.0787C85.0022 44.8144 85.4903 41.5573 84.711 38.318C84.3373 36.7646 83.6724 35.0183 83.8442 33.3919C84.0286 31.6449 85.1359 29.5715 85.8091 27.9519C86.3377 26.6816 86.9141 25.4345 87.3008 24.1086C88.0211 21.6436 88.5076 18.4864 87.1518 16.151Z" fill="url(#paint1_linear_190_488)"/>
<mask id="mask1_190_488" style="mask-type:luminance" maskUnits="userSpaceOnUse" x="33" y="12" width="56" height="63">
<path d="M87.1518 16.151C86.3409 14.754 84.7772 13.5816 83.3346 12.932C73.1103 8.32707 63.6936 30.1277 63.5392 35.7144C63.3849 41.3011 61.7645 42.5607 52.5794 42.1451C43.3943 41.7296 45.5832 48.2178 45.5522 51.5311C45.5211 54.8444 46.6385 58.0627 39.5834 58.7792C32.5283 59.4956 33.9823 62.0753 33.9823 62.0753C33.9823 62.0753 41.0048 77.7351 41.6994 73.8003C42.3941 69.8656 45.4808 64.6722 55.5904 67.8986C59.9451 69.2881 67.2503 69.6113 70.3567 65.4597C71.0799 64.4932 71.9032 62.9136 72.0436 61.6905C72.2382 59.9933 71.6655 58.3898 71.6256 56.7107C71.5324 52.7976 75.6906 51.4817 78.3828 49.8763C79.7883 49.0383 81.2034 48.169 82.4393 47.0787C85.0022 44.8144 85.4903 41.5573 84.711 38.318C84.3373 36.7646 83.6724 35.0183 83.8442 33.3919C84.0286 31.6449 85.1359 29.5715 85.8091 27.9519C86.3377 26.6816 86.9141 25.4345 87.3008 24.1086C88.0211 21.6436 88.5076 18.4864 87.1518 16.151Z" fill="white"/>
</mask>
<g mask="url(#mask1_190_488)">
<g style="mix-blend-mode:soft-light" opacity="0.8">
<path d="M30.8161 68.2592C30.774 68.2597 30.7333 68.2437 30.7024 68.2146C30.6714 68.1855 30.6526 68.1453 30.6498 68.1025C30.647 68.0597 30.6603 68.0173 30.6871 67.9842C30.7139 67.9511 30.7521 67.9297 30.7939 67.9244C30.8494 67.9167 36.4106 67.1233 43.0841 64.9049C49.2322 62.8609 57.6127 59.1547 62.6089 53.1068C66.7817 48.0556 72.1103 39.1298 77.2284 28.6182C81.818 19.1922 84.5605 11.9819 84.5605 10.457C84.5605 10.4124 84.5779 10.3697 84.6088 10.3382C84.6397 10.3066 84.6816 10.2889 84.7253 10.2889C84.769 10.2889 84.8109 10.3066 84.8418 10.3382C84.8727 10.3697 84.8901 10.4124 84.8901 10.457C84.8901 12.2411 81.6544 20.2844 77.5238 28.7682C72.3945 39.303 67.0501 48.2544 62.8611 53.3237C57.8136 59.4339 49.373 63.1692 43.1808 65.2267C36.48 67.4536 30.8944 68.2502 30.8389 68.2579C30.8313 68.2588 30.8237 68.2593 30.8161 68.2592Z" fill="white"/>
<path d="M76.5392 30.5187C76.4486 30.5187 76.3751 30.466 76.3744 30.3736C76.3744 30.2511 76.2477 18.0873 72.0571 13.8155C72.0418 13.8005 72.0297 13.7824 72.0214 13.7625C72.0131 13.7425 72.0088 13.721 72.0088 13.6994C72.0088 13.6777 72.0131 13.6562 72.0214 13.6363C72.0297 13.6163 72.0418 13.5982 72.0571 13.5832C72.0884 13.552 72.1305 13.5348 72.1743 13.5353C72.218 13.5358 72.2598 13.5539 72.2904 13.5858C76.5754 17.9555 76.7009 29.8643 76.7043 30.3701C76.7043 30.4628 76.6314 30.5187 76.5405 30.5187H76.5392Z" fill="white"/>
<path d="M70.2432 42.2627C70.2043 42.2628 70.1667 42.2489 70.1369 42.2234C70.1071 42.1979 70.0872 42.1625 70.0805 42.1234C70.0739 42.0843 70.081 42.0441 70.1007 42.0099C70.1203 41.9757 70.1511 41.9496 70.1878 41.9364C70.2248 41.9228 73.954 40.5697 78.2196 39.8514C83.9836 38.8819 87.9314 39.4671 89.954 41.5964C89.9844 41.6284 90.0011 41.6714 90.0004 41.716C89.9998 41.7606 89.9817 41.8031 89.9503 41.8341C89.9189 41.8651 89.8768 41.8821 89.833 41.8814C89.7893 41.8807 89.7477 41.8624 89.7172 41.8304C85.064 36.9349 70.446 42.2004 70.299 42.254C70.281 42.2602 70.2622 42.2632 70.2432 42.2627Z" fill="white"/>
<path d="M48.738 63.0997C48.7118 63.0997 48.686 63.0933 48.6627 63.0811C48.6393 63.0689 48.6192 63.0512 48.604 63.0294C48.5887 63.0077 48.5788 62.9826 48.575 62.9561C48.5712 62.9297 48.5736 62.9027 48.5821 62.8774C48.5976 62.8312 50.1413 58.1981 50.907 53.0008C51.6086 48.2359 51.7842 42.0091 48.6344 39.4045C48.6176 39.3906 48.6036 39.3734 48.5933 39.354C48.583 39.3346 48.5765 39.3133 48.5742 39.2914C48.572 39.2694 48.574 39.2472 48.5802 39.2261C48.5863 39.2049 48.5965 39.1852 48.6101 39.1681C48.6238 39.1509 48.6406 39.1367 48.6596 39.1262C48.6786 39.1156 48.6995 39.109 48.721 39.1067C48.7425 39.1045 48.7643 39.1065 48.7851 39.1128C48.8058 39.1191 48.8251 39.1294 48.8419 39.1433C51.4685 41.3153 52.2729 45.9942 51.2321 53.0554C50.462 58.2818 48.9098 62.9398 48.8939 62.9863C48.8828 63.0194 48.8618 63.0482 48.8338 63.0685C48.8059 63.0889 48.7724 63.0998 48.738 63.0997Z" fill="white"/>
<path d="M57.7711 58.013C57.7314 58.0132 57.6929 57.9988 57.6628 57.9724C57.6327 57.946 57.613 57.9093 57.6072 57.8693C57.6015 57.8292 57.6101 57.7883 57.6315 57.7542C57.653 57.7201 57.6858 57.6951 57.7239 57.6837C58.3558 57.4898 73.2562 52.9769 77.5541 55.5056C77.5736 55.5162 77.5909 55.5308 77.6047 55.5483C77.6186 55.5658 77.6289 55.586 77.635 55.6077C77.641 55.6294 77.6428 55.6521 77.6401 55.6744C77.6374 55.6968 77.6303 55.7184 77.6192 55.7379C77.6081 55.7574 77.5933 55.7745 77.5757 55.788C77.558 55.8016 77.5379 55.8114 77.5165 55.8169C77.495 55.8223 77.4727 55.8233 77.4509 55.8198C77.429 55.8163 77.4081 55.8084 77.3894 55.7965C73.2131 53.3405 57.9721 57.9584 57.8187 58.0052C57.8033 58.0103 57.7873 58.0129 57.7711 58.013Z" fill="white"/>
</g>
</g>
<path d="M29.0932 40.562C22.2248 43.2622 18.5663 44.6337 13.9802 43.2519C8.66307 41.6474 4.04691 36.9252 2.76943 31.1475C1.8583 27.0312 2.28233 20.7465 5.40615 19.2115C8.85829 17.5156 13.1151 22.8425 16.4382 20.795C18.0995 19.7722 17.5341 18.1341 19.3101 14.951C20.9226 12.0611 24.8681 7.17498 28.6521 7.51171C33.3782 7.93181 34.424 16.1942 39.7536 16.4631C41.9517 16.5742 42.4923 15.2054 44.5348 15.6229C47.8254 16.2947 50.9048 20.7626 50.7999 24.5888C50.5949 32.1083 38.1059 37.0183 29.0932 40.562Z" fill="url(#paint2_linear_190_488)"/>
<path d="M28.7127 77.6378C28.1352 78.3565 28.3184 78.0763 27.3005 79.6226C24.937 79.2396 17.6479 78.4621 13.7366 74.0042C6.72551 66.0133 10.5795 57.3359 11.1379 55.324C14.9611 41.5356 29.2654 33.5172 41.122 31.7176C45.4581 31.0596 59.4872 29.7121 70.358 39.5644C77.8568 46.361 85.6332 60.1012 80.1766 68.7042C76.946 73.798 70.3916 75.0167 67.4731 75.365C67.4332 74.6142 67.3934 73.8634 67.3536 73.1126C69.1661 72.0931 71.3705 70.3959 72.2629 67.7328C74.3074 61.6332 64.2213 60.8819 59.1674 57.4917C46.984 49.3159 31.9148 49.5072 23.9751 59.6633C22.5436 61.4946 19.9126 61.789 19.9288 66.3458C19.95 72.5423 27.6193 76.6867 28.7127 77.6378Z" fill="url(#paint3_linear_190_488)"/>
<path d="M79.6707 61.1107C78.7751 61.1559 77.8725 61.2244 76.9769 61.2115C76.248 61.2008 75.5169 61.1633 74.7868 61.1543C74.0018 61.1446 73.2111 61.1601 72.433 61.2761C72.2659 61.3009 72.0997 61.331 71.9345 61.3663C72.7227 63.5059 72.9464 65.6965 72.2638 67.7324C71.3714 70.3955 69.1669 72.0927 67.3545 73.1123C67.3942 73.8629 67.434 74.6137 67.474 75.3647C70.3924 75.0163 76.9468 73.7977 80.1775 68.7038C81.6283 66.4165 82.1423 63.7657 81.9772 60.9788C81.2082 61.0266 80.4393 61.0706 79.6707 61.1107Z" fill="url(#paint4_linear_190_488)"/>
<path d="M43.9788 27.2448C43.9788 27.2448 44.2514 30.7749 41.3408 31.4998C39.6805 31.9134 38.3197 32.2534 37.4571 32.4692C37.1512 32.5455 37.1287 32.9795 37.4254 33.0897L46.6983 36.5384L51.67 32.2576C51.7038 32.2287 51.7285 32.1903 51.7413 32.1473C51.754 32.1042 51.7541 32.0583 51.7416 32.0152C51.7291 31.9721 51.7046 31.9336 51.671 31.9045C51.6374 31.8754 51.5962 31.857 51.5524 31.8514C50.1675 31.674 46.5281 31.006 46.7056 28.8926L43.9788 27.2448Z" fill="url(#paint5_linear_190_488)"/>
<path d="M42.7572 27.4661C42.7572 27.4661 44.5535 29.9806 47.3708 28.9326C49.8938 27.9955 48.3881 21.3504 46.3884 20.5923C45.721 20.3399 44.4952 20.4514 43.6756 20.9727C43.0998 21.3395 41.5609 23.2884 42.4428 25.4729C41.8055 25.2845 41.2446 25.4555 41.1042 25.7773C40.9258 26.1858 41.4655 26.7416 41.5878 26.8673C42.0102 27.3039 42.5214 27.4261 42.7572 27.4661Z" fill="url(#paint6_linear_190_488)"/>
<path d="M68.6162 71.2105L59.3284 79.7024L48.7752 89.3517C48.4908 89.615 48.1502 89.8072 47.7804 89.9131C47.0934 90.107 46.342 89.9777 45.6888 89.5204L22.6397 73.3883C18.8196 69.9499 16.2298 64.5914 16.0681 58.5403C15.8244 49.3812 21.4693 41.7754 29.106 40.9223C29.3782 40.8916 29.6488 40.8703 29.9192 40.8576C30.1781 40.8441 30.4357 40.8392 30.6931 40.8412C36.0885 40.8877 41.021 44.2395 43.9997 49.2913C44.1213 48.9953 44.2491 48.7048 44.385 48.4188C46.6925 43.5392 50.9768 40.2181 56.1089 39.9703C56.5013 39.9522 56.8993 39.9502 57.3008 39.9683C64.8025 40.2983 71.3718 47.3152 72.5583 56.223C73.3427 62.1028 71.7182 67.5243 68.6162 71.2105Z" fill="url(#paint7_linear_190_488)"/>
<path d="M69.5003 71.1366L60.0337 79.7919L49.6586 89.2778C49.1199 89.7706 48.4493 89.9842 47.7809 89.9131C47.3453 89.8636 46.9288 89.7031 46.57 89.4465L23.5218 73.313C19.7017 69.8759 17.1119 64.5174 16.9499 58.4663C16.7075 49.3353 22.3188 41.747 29.9193 40.8564C29.9421 40.8535 29.9653 40.8515 29.9881 40.8486C30.1994 40.8249 30.4106 40.8064 30.6219 40.793C36.0934 40.4453 41.1843 43.5285 44.3848 48.4175C44.5558 48.6789 44.7213 48.945 44.8815 49.216C46.9572 44.1538 51.0739 40.5672 56.1088 39.969C56.797 39.8877 57.4905 39.8625 58.1826 39.8934C65.684 40.2233 72.2517 47.2403 73.4401 56.148C74.2251 62.0291 72.6016 67.4503 69.5003 71.1366Z" fill="url(#paint8_linear_190_488)"/>
<path style="mix-blend-mode:multiply" opacity="0.3" d="M60.0326 79.7919L49.6581 89.2777C49.1194 89.7706 48.4488 89.9842 47.7804 89.9131C47.0934 90.107 46.342 89.9777 45.6888 89.5204L22.6397 73.3883C18.8196 69.9499 16.2298 64.5914 16.0681 58.5403C15.8244 49.3812 21.4693 41.7754 29.106 40.9223C29.3782 40.8916 29.6488 40.8703 29.9192 40.8576C29.942 40.8547 29.9651 40.8528 29.9879 40.8499C30.1992 40.8262 30.4105 40.8077 30.6218 40.7943C30.6449 40.8105 30.6693 40.8266 30.6928 40.8412C32.7327 42.21 34.4875 44.0727 35.8331 46.0898C38.7921 50.5258 39.4716 55.6765 40.0037 60.8903C40.4959 65.6982 41.1496 70.8871 44.8452 74.338C48.6336 77.8759 54.0991 79.0195 59.3281 79.705C59.5635 79.7343 59.7983 79.7632 60.0326 79.7919Z" fill="url(#paint9_linear_190_488)"/>
<path d="M67.3783 73.5498C67.3783 73.5498 66.5138 73.703 66.2251 73.4649C65.9364 73.2267 64.4187 72.0979 64.3971 72.4808C64.3756 72.8638 65.301 73.5059 65.0424 73.6839C64.7838 73.862 63.7921 75.406 63.009 75.5321C62.226 75.6581 63.6844 76.7646 64.7549 75.9942C65.8255 75.2238 66.2511 74.7888 66.9518 74.7888H67.4465L67.3783 73.5498Z" fill="url(#paint10_linear_190_488)"/>
<path d="M28.5579 77.8293C28.5579 77.8293 28.8406 78.1231 29.4082 78.2071C29.9758 78.2911 30.8831 78.347 30.9839 78.5248C31.0847 78.7025 31.5059 78.8421 30.8831 78.8515C30.2604 78.8609 30.1501 78.9261 30.764 79.1598C31.3778 79.3934 32.495 79.86 31.8906 79.9909C31.2863 80.1218 29.3718 80.159 28.7947 79.5521C28.2176 78.9452 27.8867 78.7351 27.8867 78.7351L28.5579 77.8293Z" fill="url(#paint11_linear_190_488)"/>
</g>
<defs>
<linearGradient id="paint0_linear_190_488" x1="55.9538" y1="-2.1244" x2="45.6702" y2="144.667" gradientUnits="userSpaceOnUse">
<stop stop-color="#E38DDD"/>
<stop offset="1" stop-color="#9571F6"/>
</linearGradient>
<linearGradient id="paint1_linear_190_488" x1="82.5198" y1="19.3111" x2="-0.0447662" y2="134.129" gradientUnits="userSpaceOnUse">
<stop stop-color="#FCB148"/>
<stop offset="0.05" stop-color="#FDBA46"/>
<stop offset="0.14" stop-color="#FFC244"/>
<stop offset="0.32" stop-color="#FFC444"/>
<stop offset="0.48" stop-color="#FDB946"/>
<stop offset="0.78" stop-color="#F99C4D"/>
<stop offset="0.87" stop-color="#F8924F"/>
<stop offset="1" stop-color="#F8924F"/>
</linearGradient>
<linearGradient id="paint2_linear_190_488" x1="2.34635" y1="25.6474" x2="50.8025" y2="25.6474" gradientUnits="userSpaceOnUse">
<stop stop-color="#444B8C"/>
<stop offset="1" stop-color="#26264F"/>
</linearGradient>
<linearGradient id="paint3_linear_190_488" x1="47.0629" y1="33.2723" x2="45.3532" y2="71.2115" gradientUnits="userSpaceOnUse">
<stop stop-color="#AA80F9"/>
<stop offset="1" stop-color="#6165D7"/>
</linearGradient>
<linearGradient id="paint4_linear_190_488" x1="76.1095" y1="34.7242" x2="74.2812" y2="75.2927" gradientUnits="userSpaceOnUse">
<stop stop-color="#AA80F9"/>
<stop offset="1" stop-color="#6165D7"/>
</linearGradient>
<linearGradient id="paint5_linear_190_488" x1="42.0035" y1="49.4574" x2="46.3425" y2="20.7905" gradientUnits="userSpaceOnUse">
<stop stop-color="#FCB148"/>
<stop offset="0.05" stop-color="#FDBA46"/>
<stop offset="0.14" stop-color="#FFC244"/>
<stop offset="0.32" stop-color="#FFC444"/>
<stop offset="0.48" stop-color="#FDB946"/>
<stop offset="0.78" stop-color="#F99C4D"/>
<stop offset="0.87" stop-color="#F8924F"/>
<stop offset="1" stop-color="#F8924F"/>
</linearGradient>
<linearGradient id="paint6_linear_190_488" x1="47.5379" y1="12.476" x2="40.691" y2="46.7209" gradientUnits="userSpaceOnUse">
<stop stop-color="#FCB148"/>
<stop offset="0.05" stop-color="#FDBA46"/>
<stop offset="0.14" stop-color="#FFC244"/>
<stop offset="0.32" stop-color="#FFC444"/>
<stop offset="0.48" stop-color="#FDB946"/>
<stop offset="0.78" stop-color="#F99C4D"/>
<stop offset="0.87" stop-color="#F8924F"/>
<stop offset="1" stop-color="#F8924F"/>
</linearGradient>
<linearGradient id="paint7_linear_190_488" x1="16.7347" y1="67.2568" x2="73.1124" y2="62.7209" gradientUnits="userSpaceOnUse">
<stop stop-color="#311944"/>
<stop offset="1" stop-color="#893976"/>
</linearGradient>
<linearGradient id="paint8_linear_190_488" x1="17.617" y1="67.183" x2="73.9947" y2="62.6471" gradientUnits="userSpaceOnUse">
<stop stop-color="#FF9085"/>
<stop offset="1" stop-color="#FB6FBB"/>
</linearGradient>
<linearGradient id="paint9_linear_190_488" x1="16.7347" y1="67.2568" x2="58.751" y2="63.8763" gradientUnits="userSpaceOnUse">
<stop stop-color="#FF9085"/>
<stop offset="1" stop-color="#FB6FBB"/>
</linearGradient>
<linearGradient id="paint10_linear_190_488" x1="63.5307" y1="49.3075" x2="65.6913" y2="83.2124" gradientUnits="userSpaceOnUse">
<stop stop-color="#FCB148"/>
<stop offset="0.05" stop-color="#FDBA46"/>
<stop offset="0.14" stop-color="#FFC244"/>
<stop offset="0.32" stop-color="#FFC444"/>
<stop offset="0.48" stop-color="#FDB946"/>
<stop offset="0.78" stop-color="#F99C4D"/>
<stop offset="0.87" stop-color="#F8924F"/>
<stop offset="1" stop-color="#F8924F"/>
</linearGradient>
<linearGradient id="paint11_linear_190_488" x1="30.0329" y1="77.9854" x2="29.9584" y2="79.6344" gradientUnits="userSpaceOnUse">
<stop stop-color="#FCB148"/>
<stop offset="0.05" stop-color="#FDBA46"/>
<stop offset="0.14" stop-color="#FFC244"/>
<stop offset="0.32" stop-color="#FFC444"/>
<stop offset="0.48" stop-color="#FDB946"/>
<stop offset="0.78" stop-color="#F99C4D"/>
<stop offset="0.87" stop-color="#F8924F"/>
<stop offset="1" stop-color="#F8924F"/>
</linearGradient>
<clipPath id="clip0_190_488">
<rect width="90" height="90" fill="white"/>
</clipPath>
</defs>
</svg>
