<svg width="95" height="90" viewBox="0 0 95 90" fill="none" xmlns="http://www.w3.org/2000/svg">
<g clip-path="url(#clip0_194_832)">
<path opacity="0.7" d="M48.9537 89.9978C68.5903 89.9978 84.509 86.9072 84.509 83.0947C84.509 79.2823 68.5903 76.1917 48.9537 76.1917C29.3171 76.1917 13.3984 79.2823 13.3984 83.0947C13.3984 86.9072 29.3171 89.9978 48.9537 89.9978Z" fill="#FDDEC0"/>
<path d="M61.0839 40.0211C59.3138 35.9788 51.7899 39.2452 50.3865 36.9773C48.9832 34.7093 50.0198 29.6246 50.0198 29.6246L47.5623 29.1617V28.8884L46.8376 29.0251L46.1129 28.8884V29.1617L43.6554 29.6246C43.6554 29.6246 44.692 34.7093 43.2887 36.9773C41.8853 39.2452 36.832 35.9788 35.062 40.0211C33.2919 44.0633 40.1899 48.7226 40.1899 48.7226L47.3471 49.2318V49.3354L48.0718 49.2825L48.7987 49.3354V49.2318L55.9559 48.7226C55.9559 48.7226 62.8539 44.0655 61.0839 40.0211Z" fill="#FFAC9D"/>
<path d="M48.0543 36.5166C48.9344 36.9851 49.8883 37.2983 50.8741 37.4423C50.676 37.3291 50.508 37.1696 50.3844 36.9773C48.9811 34.7093 50.0198 29.6246 50.0198 29.6246L47.5624 29.1617V28.8884L46.8377 29.0251L46.1129 28.8884V29.1617L44.042 29.5518C44.3626 32.1394 45.7813 35.2647 48.0543 36.5166Z" fill="#F28B8B"/>
<path d="M43.3323 16.5634C43.3323 16.5634 47.0306 12.2082 44.8916 8.62887C42.7525 5.0495 40.0227 8.53189 41.6127 11.0776C43.2027 13.6232 41.2108 4.54697 38.8215 5.22141C36.4321 5.89585 40.462 10.4494 40.462 10.4494C40.462 10.4494 38.4986 4.35522 34.4973 6.20662C30.4959 8.05802 36.3947 13.2397 36.3947 13.2397C36.3947 13.2397 33.4937 9.61407 31.8817 10.7999C30.2697 11.9856 35.883 14.4079 35.883 14.4079C35.883 14.4079 33.0281 12.7681 32.4176 14.7583C31.807 16.7486 36.4299 18.2187 37.9364 17.1828C39.443 16.1469 33.665 16.742 34.3238 19.6072C34.9826 22.4725 41.1274 18.6903 43.3323 16.5634Z" fill="#76413B"/>
<path d="M45.4254 14.6746C45.4254 14.6746 40.6291 11.5073 39.6935 18.6881C38.758 25.8689 45.4254 14.6746 45.4254 14.6746Z" fill="#6F96BD"/>
<path d="M43.2183 27.8636C43.2183 27.8636 42.5792 23.4819 40.2447 24.4142C37.9102 25.3465 39.9109 32.4656 43.4379 29.7546C46.9648 27.0436 43.2183 27.8636 43.2183 27.8636Z" fill="#FFAC9D"/>
<path d="M48.816 15.3446C48.816 15.3446 58.2418 14.1192 59.0609 26.669C59.8801 39.2188 46.6594 37.6892 43.5036 30.1051C40.3477 22.521 41.795 15.3821 48.816 15.3446Z" fill="#FFAC9D"/>
<path d="M41.2096 24.3525C41.2096 24.3525 42.7469 24.9587 43.2367 27.4735C43.2367 27.4735 44.8025 26.2943 43.2542 23.1579C43.2542 23.1579 46.4584 21.7452 46.1092 17.9498C46.1092 17.9498 51.7159 15.0206 56.0401 18.1041C56.0401 18.1041 52.131 11.1283 43.1532 15.111C43.1532 15.111 36.6593 17.7294 40.0984 24.5729C40.4274 24.3602 40.8248 24.2814 41.2096 24.3525Z" fill="#965450"/>
<path d="M44.4176 22.3645C43.5043 21.6216 42.8663 20.5924 42.6058 19.4419C42.3126 18.0148 42.4463 16.5326 42.9901 15.1815C42.0106 15.6422 36.9815 18.3752 40.0956 24.573C40.4257 24.3591 40.8249 24.2802 41.2112 24.3526C41.2112 24.3526 42.7485 24.9587 43.2383 27.4735C43.2383 27.4735 44.8041 26.2943 43.2558 23.158C43.6783 22.9496 44.0694 22.6825 44.4176 22.3645Z" fill="#76413B"/>
<path d="M50.709 30.515C50.709 30.515 50.7815 30.5635 50.9132 30.6362C50.9769 30.6737 51.0604 30.7112 51.1504 30.7641C51.2404 30.817 51.3437 30.8611 51.4601 30.9095C51.5765 30.958 51.7016 31.0109 51.8334 31.0594C51.9652 31.1079 52.1123 31.1454 52.2573 31.1961C52.4022 31.2468 52.5603 31.2732 52.7184 31.2908L52.9556 31.3283L53.1972 31.3393C53.358 31.3515 53.5195 31.3515 53.6803 31.3393C53.8385 31.3393 53.9922 31.2975 54.1437 31.2798C54.2953 31.2622 54.4358 31.2071 54.5829 31.1762C54.6509 31.163 54.7172 31.1423 54.7806 31.1145L54.9651 31.0484C55.0739 31.0127 55.181 30.9715 55.2857 30.925L55.5295 30.8126L55.7491 30.72C55.7491 30.72 55.6876 30.7795 55.5712 30.8787C55.5141 30.9301 55.4409 30.9896 55.3516 31.0572C55.2586 31.1321 55.1585 31.1978 55.0529 31.2534C54.9336 31.332 54.8071 31.3992 54.6752 31.4539C54.5286 31.518 54.3782 31.5732 54.225 31.6192L53.9746 31.6765C53.89 31.7003 53.8032 31.7151 53.7155 31.7206C53.5377 31.7416 53.3585 31.7483 53.1796 31.7405L52.9117 31.7206L52.6482 31.6743C52.4795 31.6396 52.3136 31.5924 52.1518 31.5333C52.0009 31.4779 51.8541 31.4116 51.7126 31.3349L51.5194 31.2291L51.3481 31.1123C51.2482 31.0452 51.1528 30.9715 51.0626 30.8919C50.9835 30.8214 50.9154 30.7597 50.8627 30.7024C50.8071 30.6436 50.7557 30.581 50.709 30.515Z" fill="#FC6A5A"/>
<path d="M58.727 47.3474C58.727 47.3474 65.8314 60.8119 69.5802 59.2294C73.329 57.6469 82.4056 42.8599 82.4056 42.8599C82.4056 42.8599 94.638 46.2916 85.7591 43.0561C85.7591 43.0561 94.638 45.4342 86.6793 42.3309C86.6793 42.3309 96.0853 44.2463 86.811 41.2752C86.811 41.2752 96.3488 42.1326 84.4436 40.0872C84.4436 40.0872 91.5459 37.9758 83.1259 39.426C82.3472 39.4777 81.5878 39.6924 80.8968 40.0565C80.2057 40.4205 79.5983 40.9258 79.1136 41.5397L70.0392 50.4506C70.0392 50.4506 64.1865 39.3599 61.3579 39.4921C58.5293 39.6244 56.0301 42.0003 58.727 47.3474Z" fill="#FFAC9D"/>
<path d="M61.3579 39.4921C63.0621 39.4128 65.8644 43.4087 67.8233 46.5958C66.7077 49.2891 64.6455 51.5042 62.1749 53.0558C60.2094 50.1553 58.727 47.3474 58.727 47.3474C56.0301 42.0003 58.5293 39.6244 61.3579 39.4921Z" fill="#F28B8B"/>
<path d="M58.1162 37.5129C58.1162 37.5129 61.272 36.9178 64.7573 40.484C68.2426 44.0501 68.3106 44.3763 68.3106 44.3763C68.3106 44.3763 65.8839 48.6676 60.4836 51.1758L57.1895 46.4239L58.1162 37.5129Z" fill="#588AAF"/>
<path d="M59.7523 70.9461C59.3504 66.0972 56.043 61.5348 55.2348 60.4813C57.89 56.4853 57.9471 50.6005 57.9471 50.6005L38.362 52.0949C38.362 52.0949 38.1424 56.9438 40.9095 60.4702C40.1057 61.515 36.7896 66.0928 36.3877 70.9373L47.7307 73.322V73.4653L48.0755 73.3926L48.4181 73.4653V73.322L59.7523 70.9461Z" fill="#F28B8B"/>
<path d="M63.969 39.8933C63.969 39.8933 61.7992 37.2484 58.1163 37.5173C58.1163 37.5173 55.5512 44.3498 48.3567 44.6518C41.16 44.3498 38.3117 37.5173 38.3117 37.5173C34.6288 37.2484 32.459 39.8933 32.459 39.8933C34.4355 43.325 37.7187 47.2195 37.7187 47.2195C36.813 50.7765 36.6122 54.4773 37.1279 58.1119C39.8474 58.7959 42.6256 59.2181 45.4249 59.3726C45.4249 59.3991 45.4249 59.4255 45.4139 59.4542C46.2924 59.4806 47.2389 59.4894 48.214 59.4762C49.1891 59.463 50.1268 59.4762 51.0119 59.4542C51.0119 59.4255 51.0119 59.3991 51.0119 59.3726C53.8069 59.2158 56.5807 58.7922 59.2956 58.1075C59.8113 54.4728 59.6098 50.7718 58.7027 47.2151C58.7027 47.2151 61.9969 43.3206 63.969 39.8933Z" fill="#6F96BD"/>
<path d="M59.5658 55.0373C51.7124 57.0363 43.1278 53.6112 37.5804 47.7639C36.7928 51.1509 36.6394 54.6554 37.128 58.0987C44.2594 60.5298 51.954 60.7548 59.2144 58.7445C59.403 57.5166 59.5203 56.2788 59.5658 55.0373Z" fill="#588AAF"/>
<path d="M37.7187 47.3474C37.7187 47.3474 30.6164 60.8119 26.8676 59.2294C23.1188 57.6469 14.0423 42.8599 14.0423 42.8599C14.0423 42.8599 1.80983 46.2916 10.6888 43.0561C10.6888 43.0561 1.80983 45.4342 9.76859 42.3309C9.76859 42.3309 0.362587 44.2463 9.63682 41.2752C9.63682 41.2752 0.099052 42.1326 12.0042 40.0872C12.0042 40.0872 4.89978 37.9758 13.3219 39.426C14.1007 39.4777 14.86 39.6924 15.5511 40.0565C16.2421 40.4205 16.8496 40.9258 17.3342 41.5397L26.4086 50.4506C26.4086 50.4506 32.2635 39.3599 35.0921 39.4921C37.9207 39.6244 40.4089 42.0003 37.7187 47.3474Z" fill="#FFAC9D"/>
<path d="M35.0904 39.4921C33.384 39.4128 30.5817 43.4087 28.625 46.5958C29.7406 49.2891 31.8028 51.5042 34.2734 53.0558C36.239 50.1553 37.7192 47.3474 37.7192 47.3474C40.4094 42.0003 37.9168 39.6244 35.0904 39.4921Z" fill="#F28B8B"/>
<path d="M38.3114 37.5129C38.3114 37.5129 35.1533 36.9178 31.6681 40.484C28.1828 44.0501 28.1104 44.3763 28.1104 44.3763C28.1104 44.3763 30.5437 48.6676 35.9373 51.1758L39.2315 46.4239L38.3114 37.5129Z" fill="#6F96BD"/>
<path d="M74.7412 70.7499C74.2822 66.7099 62.9195 65.901 59.6978 65.7511C58.82 64.4718 57.8666 63.2463 56.8428 62.0814C51.0187 64.065 45.6118 63.2914 42.5943 62.5398C41.7927 62.3194 40.9604 62.0505 40.1039 61.7618L39.7855 61.6538C38.6953 62.9517 37.6847 64.3149 36.7592 65.7357C34.1898 65.8349 21.8256 66.5314 21.338 70.7499C21.1184 72.6564 26.1124 75.1404 32.1298 77.4215C32.0979 77.9443 32.1023 78.4687 32.143 78.9908C32.6942 85.7132 44.931 85.3826 48.3328 85.1622C51.7346 85.3826 63.9714 85.7154 64.5226 78.9908C64.5699 78.3974 64.5699 77.8012 64.5226 77.2078C70.2765 74.9817 74.9498 72.5925 74.7412 70.7499Z" fill="#604D57"/>
<path d="M67.6937 75.9052C67.2505 75.9689 66.8039 76.0064 66.3563 76.0176C56.0872 76.3063 53.7834 71.8762 53.7834 71.8762C46.299 74.7657 42.0759 71.3957 42.0759 71.3957C36.3374 74.7547 26.714 72.6013 21.3291 70.9747C21.5114 72.8482 26.3385 75.2263 32.1187 77.4172C32.0868 77.9399 32.0912 78.4643 32.1318 78.9864C32.6831 85.7088 44.9199 85.3782 48.3217 85.1578C51.7235 85.3782 63.9603 85.711 64.5115 78.9864C64.5587 78.393 64.5587 77.7968 64.5115 77.2034C65.6206 76.7758 66.6923 76.3394 67.6937 75.9052Z" fill="#54424C"/>
<path d="M37.5654 66.5798C37.5654 66.5798 37.7455 66.679 38.0464 66.8818C38.3473 67.0846 38.7711 67.3821 39.2477 67.7788C39.4892 67.9772 39.744 68.1976 40.0053 68.44C40.2667 68.6825 40.5368 68.9448 40.8025 69.2291C41.0682 69.5134 41.3406 69.8132 41.5975 70.1328C41.8545 70.4523 42.1092 70.783 42.3464 71.1246C42.5836 71.4662 42.8054 71.8233 43.0052 72.1825C43.1106 72.361 43.2029 72.5418 43.2929 72.7225C43.383 72.9032 43.4642 73.0862 43.5455 73.2647C43.6978 73.6095 43.8305 73.9627 43.943 74.3226C44.0023 74.4902 44.0462 74.6621 44.0901 74.8252C44.134 74.9883 44.1692 75.147 44.1999 75.3012C44.2587 75.5794 44.3034 75.8605 44.3339 76.1432C44.3558 76.3945 44.3712 76.6171 44.3822 76.8044C44.3822 77.1681 44.3822 77.373 44.3822 77.373C44.3822 77.373 44.3515 77.1681 44.3097 76.811C44.279 76.6325 44.2438 76.4165 44.1955 76.1718C44.1472 75.9272 44.0769 75.6539 43.9869 75.3608C43.9474 75.2131 43.9013 75.0588 43.8442 74.9045C43.7871 74.7502 43.7431 74.5849 43.675 74.424C43.5521 74.0956 43.4027 73.7628 43.2358 73.4124C43.0689 73.0619 42.8844 72.7203 42.6824 72.3743C42.4804 72.0282 42.2586 71.6866 42.0236 71.3516C41.7886 71.0166 41.5514 70.6904 41.301 70.3708C41.0507 70.0512 40.8003 69.7515 40.5456 69.4649C40.2908 69.1784 40.0405 68.9051 39.7967 68.6516C39.5529 68.3982 39.3157 68.1645 39.0939 67.9508C38.6547 67.5254 38.2682 67.1793 37.9959 66.9479C37.7235 66.7165 37.5654 66.5798 37.5654 66.5798Z" fill="#352C38"/>
<path d="M58.8724 66.5798C58.8724 66.5798 58.7099 66.7077 58.4332 66.9413C58.1565 67.1749 57.7744 67.5188 57.3351 67.9441C57.1155 68.1645 56.8783 68.385 56.6324 68.645C56.3864 68.9051 56.1361 69.1718 55.8835 69.4583C55.631 69.7448 55.3784 70.0512 55.1258 70.3642C54.8733 70.6772 54.6339 71.0078 54.4055 71.345C54.1771 71.6822 53.9509 72.0194 53.7467 72.3677C53.5424 72.7159 53.3558 73.0619 53.1933 73.4058C53.0307 73.7496 52.8814 74.089 52.754 74.4174C52.6859 74.5783 52.6376 74.7414 52.5827 74.8979C52.5278 75.0544 52.4817 75.2065 52.44 75.3541C52.3521 75.6473 52.2928 75.9228 52.2335 76.1652C52.1742 76.4077 52.1479 76.6259 52.1193 76.8044C52.0754 77.1615 52.0469 77.3664 52.0469 77.3664C52.0469 77.3664 52.0469 77.1615 52.0469 76.7978C52.0579 76.6171 52.071 76.3945 52.0952 76.1366C52.1246 75.8537 52.1693 75.5726 52.2292 75.2946C52.2577 75.1403 52.2928 74.9795 52.339 74.8186C52.3851 74.6577 52.4246 74.4835 52.4839 74.316C52.5971 73.9561 52.7306 73.6029 52.8836 73.2581C52.9649 73.0796 53.0439 72.8966 53.1362 72.7159C53.2284 72.5352 53.3184 72.3544 53.4238 72.1759C53.6215 71.8166 53.8477 71.464 54.0827 71.118C54.3177 70.7719 54.5724 70.4435 54.8316 70.1261C55.0907 69.8088 55.3608 69.5068 55.6266 69.2225C55.8923 68.9382 56.1646 68.6759 56.4259 68.4334C56.6873 68.191 56.942 67.9706 57.1814 67.7722C57.6602 67.3755 58.0884 67.0824 58.3849 66.8752C58.6814 66.668 58.8724 66.5798 58.8724 66.5798Z" fill="#352C38"/>
<path d="M50.5445 79.414C49.1171 79.0393 40.6883 83.7163 33.9396 82.9757H33.9265L33.6058 83.0132H33.5333C33.0678 83.0683 32.6154 83.1278 32.1827 83.1873H32.1432L31.8313 83.2314C31.5195 83.2755 31.223 83.3217 30.9529 83.3636L30.8936 83.3746L30.6542 83.4121H30.5818L29.9537 83.5157L29.8373 83.5355L29.7055 83.5576L29.5759 83.5796L29.4727 83.5994L29.3234 83.6259H29.2773C28.9401 83.5543 28.5963 83.5188 28.2517 83.5201C28.076 83.573 27.5731 84.2761 27.8124 84.9593C28.2949 85.1117 28.8009 85.1745 29.3058 85.1445C28.9083 85.204 28.3373 85.3054 28.2539 85.4024C28.0935 85.5853 28.177 85.8983 28.2802 86.0746C28.3834 86.2509 29.3322 85.9357 29.6484 85.8366C29.3541 85.9424 28.5064 86.2774 28.5789 86.4537C28.6518 86.609 28.7592 86.7455 28.8929 86.8526L30.013 86.4779L30.0261 86.5022C29.7516 86.6454 29.2004 86.943 29.1477 87.0311C29.095 87.1193 29.4947 87.3706 29.4947 87.3706L30.3512 86.9915L30.3709 87.0157C30.1228 87.181 29.655 87.5094 29.7121 87.58C29.7692 87.6505 29.778 87.9414 30.0415 87.9635C30.226 87.9811 30.6235 87.6924 30.8475 87.5227C31.9455 87.9789 38.6218 86.641 38.6218 86.641C38.6218 86.641 50.1009 85.841 57.5238 83.3967L59.5003 78.691C50.5116 80.1435 53.6455 80.2273 50.5445 79.414Z" fill="#F28B8B"/>
<path d="M74.8091 68.9051C74.8091 68.9051 77.1875 70.3818 77.3017 73.3374C77.4159 76.293 70.8473 86.6322 39.939 87.0863C39.939 87.0863 38.2392 84.5869 39.032 82.1999C39.032 82.1999 46.3912 79.2465 51.8266 76.9741C57.262 74.7017 69.1497 65.4976 74.8091 68.9051Z" fill="#765E69"/>
<path d="M69.3978 80.5689C63.5935 80.1281 57.8067 79.0459 52.4877 76.6677C52.2527 76.7801 52.0243 76.8881 51.8069 76.9741C46.3912 79.2465 39.032 82.2109 39.032 82.2109C38.2392 84.5979 39.939 87.0973 39.939 87.0973C56.1903 86.857 65.7193 83.8838 71.0779 80.6857C70.5201 80.646 69.9644 80.613 69.3978 80.5689Z" fill="#604D57"/>
<path d="M42.4501 85.7837C50.1058 87.3441 61.5981 86.7975 61.5981 86.7975C61.5981 86.7975 68.3798 87.3507 69.4229 86.7667C69.6667 86.9165 70.0927 87.1568 70.275 87.1193C70.5342 87.0642 70.4793 86.8041 70.5583 86.6983C70.6374 86.5925 70.1191 86.3501 69.849 86.2134C69.8549 86.2051 69.8601 86.1963 69.8643 86.187L70.7604 86.4647C70.7604 86.4647 71.1447 86.2024 71.0656 86.0878C70.9866 85.9732 70.4244 85.7726 70.1345 85.6624L70.1477 85.6382L71.3028 85.8784C71.4249 85.7546 71.5159 85.6036 71.5685 85.4376C71.6191 85.2459 70.7384 85.0211 70.4353 84.9483C70.7604 85.0078 71.753 85.1687 71.8233 85.0233C71.8936 84.8778 71.9529 84.5141 71.7706 84.362C71.6762 84.2761 71.0986 84.2408 70.6967 84.2276C71.2018 84.199 71.6975 84.078 72.1593 83.8705C72.3086 83.163 71.7201 82.5261 71.5488 82.493C71.2059 82.5302 70.868 82.6041 70.5408 82.7134H70.4968H70.3453H70.2399H70.1103H69.9764H69.8578L69.2231 82.6848H69.1506H68.9068H68.8475L67.9493 82.6561H67.6353H67.5936C67.1543 82.6451 66.7019 82.6407 66.2342 82.6385H65.8257C59.2066 84.1615 50.2925 80.5028 48.9155 81.0406C45.931 82.2131 49.0363 81.7613 39.9443 81.402" fill="#FFAC9D"/>
<path d="M57.6536 86.8879C58.1085 85.5069 58.2067 84.0327 57.9391 82.6032C53.582 81.953 49.7674 80.6438 48.9087 80.981C45.9241 82.1536 49.0295 81.7018 39.9375 81.3425L42.4499 85.7837C47.2726 86.7667 53.6194 86.9143 57.6536 86.8879Z" fill="#F28B8B"/>
<path d="M20.822 68.9051C20.822 68.9051 18.448 70.3818 18.3316 73.3374C18.2152 76.293 24.7838 86.6322 55.6943 87.0863C55.6943 87.0863 57.3919 84.5869 56.5991 82.1999C56.5991 82.1999 49.2399 79.2465 43.8044 76.9741C38.369 74.7017 26.4836 65.4976 20.822 68.9051Z" fill="#765E69"/>
<g opacity="0.7">
<path d="M69.2857 25.6C66.4 22.5702 64.9572 19.0165 64.9572 14.939C64.9455 12.2608 65.7216 9.63863 67.1884 7.40119C68.6547 5.11373 70.6821 3.24289 73.0762 1.96822C75.4423 0.674204 78.0944 -0.00257597 80.789 7.36795e-06C84.7611 7.36795e-06 88.1219 1.31288 90.8714 3.93864C93.621 6.56439 94.9972 10.096 95.0002 14.5335C95.0002 18.8784 93.5785 22.5672 90.7353 25.6C87.892 28.6328 84.3512 30.1499 80.1126 30.1514C75.7819 30.1514 72.1729 28.6342 69.2857 25.6Z" fill="#FDDEC0"/>
</g>
<path d="M74.6821 23.5062C72.9604 22.1837 72.0285 20.5601 71.8865 18.6352C71.7948 17.3373 72.143 16.0463 72.8747 14.9721C73.6607 13.786 74.7307 12.8167 75.9866 12.1531C77.2958 11.4332 78.7448 11.0061 80.2339 10.9012C82.4564 10.7367 84.3839 11.2186 86.0164 12.3471C87.6488 13.4756 88.5419 15.0919 88.6956 17.196C88.842 19.2531 88.1751 21.0597 86.695 22.6157C85.2148 24.1718 83.2858 25.0372 80.9082 25.2121C78.4792 25.3928 76.4039 24.8242 74.6821 23.5062Z" fill="#FFAC9D"/>
<path d="M87.1341 19.3207L89.9319 23.8103L88.8339 23.9161L88.3639 24.7977L84.8809 20.9803L87.1341 19.3207Z" fill="#F28B8B"/>
<path d="M85.3045 21.0773L86.8177 26.151L85.7306 25.9615L85.0454 26.6866L82.6934 22.0802L85.3045 21.0773Z" fill="#FFAC9D"/>
<path d="M75.8939 21.776L75.1406 27.0172L76.1882 26.669L76.9722 27.2839L78.6237 22.3821L75.8939 21.776Z" fill="#F28B8B"/>
<path d="M74.2319 20.5814L71.8271 25.2959L72.9318 25.3069L73.4742 26.1444L76.6169 22.0405L74.2319 20.5814Z" fill="#FFAC9D"/>
<path d="M86.9457 19.5521C86.7792 19.424 86.6416 19.2619 86.542 19.0765C86.4425 18.8911 86.3832 18.6866 86.3682 18.4765C86.3465 18.1941 86.4158 17.912 86.5658 17.6721C86.7203 17.416 86.9372 17.2036 87.1961 17.0549C87.461 16.8979 87.7588 16.805 88.0658 16.7838C88.487 16.7412 88.909 16.8575 89.2495 17.11C89.4156 17.2353 89.5515 17.3964 89.6473 17.5814C89.7431 17.7664 89.7962 17.9706 89.8029 18.179C89.8221 18.3949 89.7963 18.6124 89.7271 18.8177C89.6579 19.023 89.5468 19.2115 89.401 19.3714C89.2518 19.5401 89.0703 19.6769 88.8673 19.7739C88.6643 19.8708 88.444 19.9258 88.2195 19.9356C87.9924 19.9599 87.7628 19.9385 87.5441 19.8726C87.3254 19.8068 87.122 19.6978 86.9457 19.5521Z" fill="#F28B8B"/>
<path d="M87.3411 18.9041C87.2612 18.8008 87.2029 18.6823 87.1697 18.5558C87.1364 18.4294 87.129 18.2974 87.1478 18.168C87.1605 18.079 87.1928 17.9939 87.2423 17.9189C87.2608 17.8899 87.285 17.8648 87.3132 17.8452C87.3415 17.8255 87.3733 17.8116 87.407 17.8043C87.4578 17.7968 87.5097 17.8035 87.557 17.8237C87.6043 17.844 87.6451 17.8769 87.6749 17.9189C87.7714 18.038 87.8337 18.1813 87.855 18.3333C87.8904 18.489 87.8867 18.6511 87.844 18.805C87.8023 18.9416 87.7298 19.0254 87.6244 19.0386C87.5694 19.0445 87.5139 19.035 87.4639 19.0113C87.4139 18.9876 87.3714 18.9505 87.3411 18.9041Z" fill="#352C38"/>
<path d="M88.8568 18.6397C88.7602 18.5191 88.6959 18.3757 88.6702 18.2231C88.6516 18.1174 88.6516 18.0092 88.6702 17.9035C88.6828 17.8145 88.7151 17.7294 88.7646 17.6544C88.7832 17.6254 88.8073 17.6003 88.8356 17.5807C88.8638 17.561 88.8957 17.5471 88.9293 17.5398C88.9801 17.5328 89.0319 17.5398 89.0791 17.5599C89.1263 17.5801 89.1671 17.6128 89.1972 17.6544C89.2934 17.7737 89.3556 17.9169 89.3773 18.0688C89.4128 18.2245 89.409 18.3866 89.3663 18.5405C89.356 18.5967 89.3298 18.6488 89.2909 18.6906C89.2519 18.7324 89.2019 18.7621 89.1467 18.7763C89.0905 18.783 89.0336 18.7737 88.9823 18.7495C88.9311 18.7254 88.8876 18.6873 88.8568 18.6397Z" fill="#352C38"/>
<path d="M80.8184 15.327L84.1565 14.2051C84.1565 14.2051 84.5759 18.0799 84.1565 17.9741C83.737 17.8683 80.8184 15.327 80.8184 15.327Z" fill="#F28B8B"/>
<path d="M86.126 13.588L89.4641 12.4639C89.4641 12.4639 89.8835 16.3386 89.4641 16.2351C89.0446 16.1315 86.126 13.588 86.126 13.588Z" fill="#F28B8B"/>
<path d="M85.2874 17.0175C85.2905 17.0672 85.3083 17.1147 85.3384 17.1542C85.3686 17.1937 85.4097 17.2234 85.4566 17.2394C85.5036 17.2554 85.5542 17.2571 85.602 17.2442C85.6499 17.2313 85.6929 17.2045 85.7256 17.1671C85.7582 17.1297 85.7791 17.0834 85.7855 17.034C85.7919 16.9847 85.7836 16.9346 85.7616 16.89C85.7396 16.8454 85.7049 16.8084 85.6619 16.7836C85.619 16.7589 85.5696 16.7474 85.5202 16.7508C85.4545 16.7565 85.3936 16.7874 85.3502 16.8371C85.3068 16.8868 85.2843 16.9515 85.2874 17.0175Z" fill="#352C38"/>
<path d="M87.4576 16.4004C87.4598 16.4334 87.4685 16.4657 87.4832 16.4953C87.4979 16.5249 87.5183 16.5514 87.5432 16.5731C87.5681 16.5948 87.597 16.6113 87.6283 16.6218C87.6596 16.6323 87.6926 16.6364 87.7255 16.634C87.7749 16.6304 87.822 16.6122 87.8611 16.5817C87.9001 16.5513 87.9293 16.5099 87.9449 16.4628C87.9605 16.4157 87.9619 16.365 87.9489 16.3171C87.9358 16.2692 87.9089 16.2263 87.8716 16.1937C87.8342 16.1612 87.7881 16.1404 87.7391 16.1342C87.69 16.1279 87.6402 16.1363 87.5959 16.1584C87.5516 16.1805 87.5148 16.2153 87.4902 16.2584C87.4656 16.3014 87.4543 16.3508 87.4576 16.4004Z" fill="#352C38"/>
<path d="M76.3492 13.3918L76.0352 13.0744C76.1274 12.9819 78.3433 10.8175 82.3842 11.5316L82.3073 11.9724C78.5036 11.3002 76.3712 13.3698 76.3492 13.3918Z" fill="#352C38"/>
<path d="M77.2339 12.7482C77.8953 12.3877 78.6012 12.1165 79.3334 11.9415L77.1746 5.52112C76.8298 5.61148 76.7046 5.64234 76.2962 5.76797C75.4859 6.01219 74.7888 6.53822 74.3301 7.25166C73.8714 7.9651 73.681 8.81926 73.7931 9.66086C73.9052 10.5025 74.3125 11.2764 74.9419 11.8438C75.5713 12.4113 76.3816 12.735 77.2273 12.757L77.2339 12.7482Z" fill="#C47549"/>
<path d="M81.4768 7.93455C81.3618 7.46453 81.1529 7.02286 80.8626 6.63639C80.5723 6.24992 80.2068 5.9267 79.7882 5.68638C79.3696 5.44606 78.9067 5.29366 78.4276 5.23842C77.9486 5.18318 77.4633 5.22627 77.0013 5.36506C76.5393 5.50386 76.1103 5.73546 75.7402 6.0458C75.3702 6.35615 75.0669 6.73875 74.8487 7.17037C74.6306 7.60199 74.5021 8.07361 74.4712 8.55659C74.4403 9.03956 74.5075 9.52381 74.6688 9.97991C74.8813 10.6508 75.2809 11.2466 75.8204 11.6966C76.3598 12.1466 77.0165 12.432 77.7126 12.519C78.482 12.1638 79.3052 11.9403 80.1481 11.8578C80.7491 11.4242 81.2002 10.813 81.4384 10.1097C81.6766 9.40635 81.69 8.64591 81.4768 7.93455Z" fill="#FFA65B"/>
<path d="M75.3016 9.79036C75.4665 10.3397 75.7899 10.8277 76.2309 11.1927C76.672 11.5577 77.2109 11.7834 77.7797 11.8412C78.3485 11.899 78.9215 11.7863 79.4265 11.5174C79.9315 11.2485 80.3458 10.8355 80.617 10.3304C80.8883 9.82536 81.0043 9.25097 80.9504 8.67979C80.8966 8.1086 80.6753 7.56625 80.3145 7.12121C79.9537 6.67618 79.4696 6.34843 78.9233 6.17937C78.377 6.0103 77.7931 6.0075 77.2452 6.17132C76.8805 6.28037 76.5408 6.46058 76.2456 6.70162C75.9504 6.94266 75.7055 7.2398 75.525 7.576C75.3444 7.9122 75.2317 8.28086 75.1934 8.66084C75.1551 9.04082 75.1919 9.42466 75.3016 9.79036Z" fill="#D88A50"/>
<path d="M79.7308 9.44209L80.17 9.67793C80.0575 9.9238 79.889 10.1397 79.6781 10.3083C79.4508 10.4871 79.1913 10.6203 78.9138 10.7006C78.6172 10.7934 78.3043 10.8219 77.9959 10.7844C77.7051 10.7508 77.4257 10.6513 77.1789 10.4934C76.9318 10.3359 76.7244 10.1232 76.5728 9.87188L75.96 10.0548L75.87 9.75286L76.43 9.58536C76.3949 9.49499 76.3685 9.42226 76.3532 9.36495C76.3378 9.30765 76.318 9.23491 76.2983 9.14455L75.7404 9.31205L75.6504 9.0101L76.2609 8.82716C76.2518 8.53414 76.3094 8.24289 76.4292 7.97555C76.5491 7.70821 76.7281 7.47181 76.9527 7.28433C77.4206 6.89947 78.0185 6.71076 78.6217 6.75757C78.8882 6.78131 79.1455 6.86736 79.3728 7.00883L79.1291 7.44964C78.9505 7.34428 78.7516 7.27821 78.5456 7.25579C78.3397 7.23337 78.1313 7.25512 77.9344 7.3196C77.6272 7.40593 77.3537 7.58433 77.1503 7.83094C76.957 8.06511 76.8445 8.35589 76.8297 8.65966L78.5383 8.15493L78.6283 8.45688L76.8517 8.98806C76.8622 9.06284 76.8791 9.13658 76.9022 9.20846C76.9231 9.28408 76.9503 9.3578 76.9834 9.42887L78.7601 8.89549L78.8414 9.19083L77.1481 9.69776C77.3268 9.94291 77.5794 10.1238 77.8685 10.2135C78.173 10.3093 78.4995 10.3093 78.804 10.2135C79.0042 10.1583 79.1904 10.061 79.3502 9.92795C79.51 9.79494 79.6397 9.62932 79.7308 9.44209Z" fill="#FFA65B"/>
<path d="M81.8342 1.56045C81.4807 1.51196 81.3533 1.49433 80.9206 1.45025C80.4513 1.39378 79.9754 1.43175 79.5208 1.56197C79.0662 1.69218 78.642 1.91201 78.273 2.20862C77.904 2.50523 77.5977 2.87267 77.3718 3.28946C77.1459 3.70626 77.0051 4.16406 76.9575 4.6361C76.9099 5.10814 76.9566 5.58497 77.0947 6.03872C77.2328 6.49246 77.4597 6.91403 77.762 7.27879C78.0643 7.64354 78.4361 7.94417 78.8555 8.1631C79.2749 8.38204 79.7336 8.51489 80.2047 8.55389C80.6286 8.59797 80.7559 8.60679 81.1205 8.63764L81.8342 1.56045Z" fill="#C47549"/>
<path d="M84.7932 6.01384C85.3057 4.11014 84.1835 2.14991 82.2867 1.63554C80.3898 1.12117 78.4366 2.24744 77.9241 4.15114C77.4116 6.05484 78.5338 8.01506 80.4307 8.52943C82.3275 9.0438 84.2807 7.91753 84.7932 6.01384Z" fill="#FFA65B"/>
<path d="M81.5573 7.97965C83.1509 7.86921 84.3536 6.48318 84.2435 4.88386C84.1335 3.28453 82.7524 2.07755 81.1589 2.18798C79.5653 2.29842 78.3626 3.68445 78.4727 5.28377C78.5827 6.8831 79.9638 8.09008 81.5573 7.97965Z" fill="#D88A50"/>
<path d="M82.7066 6.17132L83.0294 6.56144C82.8321 6.74526 82.5943 6.87968 82.3354 6.95376C82.0571 7.03225 81.7663 7.0562 81.4789 7.02429C81.1703 6.99591 80.871 6.9028 80.6005 6.75099C80.3447 6.60846 80.1245 6.40936 79.9567 6.16879C79.7889 5.92821 79.6779 5.65247 79.632 5.36244L78.9951 5.28971L79.0259 4.97453L79.6056 5.03404C79.6056 4.93706 79.6056 4.85992 79.6188 4.81363C79.632 4.76735 79.6342 4.68139 79.6518 4.59323L79.072 4.53372L79.1049 4.22074L79.7396 4.28687C79.842 4.01103 80.0057 3.76228 80.2184 3.55953C80.432 3.35823 80.6879 3.20759 80.9672 3.11872C81.5463 2.94194 82.171 2.99642 82.711 3.2708C82.9473 3.39476 83.1518 3.57206 83.3083 3.78875L82.9174 4.10613C82.7914 3.94057 82.6319 3.80356 82.4495 3.70406C82.2671 3.60455 82.0658 3.54479 81.8589 3.52867C81.5426 3.4915 81.2225 3.55145 80.9409 3.70059C80.6734 3.8442 80.4592 4.07071 80.3304 4.34637L82.0873 4.5249L82.0565 4.83788L80.2118 4.65053C80.1936 4.72302 80.1804 4.79665 80.1722 4.87094C80.1662 4.94428 80.1662 5.018 80.1722 5.09134L82.017 5.27869L81.9862 5.59166L80.2184 5.41313C80.2895 5.71062 80.4553 5.97677 80.6905 6.17132C80.9358 6.376 81.2379 6.4999 81.5558 6.52618C81.7617 6.55222 81.9708 6.53405 82.1692 6.47288C82.3676 6.4117 82.5507 6.30891 82.7066 6.17132Z" fill="#FFA65B"/>
<path d="M68.6864 0.440796C68.3592 0.581855 68.2472 0.632548 67.8475 0.817688C67.4061 1.00492 67.0069 1.27973 66.6739 1.62562C66.3409 1.97151 66.081 2.38136 65.9098 2.83055C65.7385 3.27975 65.6594 3.75904 65.6773 4.23967C65.6951 4.72029 65.8096 5.19234 66.0137 5.62748C66.2178 6.06263 66.5075 6.4519 66.8652 6.77193C67.2229 7.09196 67.6414 7.33616 68.0955 7.48987C68.5496 7.64358 69.03 7.70363 69.5078 7.66642C69.9856 7.62921 70.4509 7.49551 70.876 7.27334C71.2625 7.0904 71.3767 7.0331 71.7039 6.8722L68.6864 0.440796Z" fill="#C47549"/>
<path d="M66.8634 5.22139C67.1631 5.86025 67.6449 6.39556 68.2477 6.75966C68.8506 7.12375 69.5475 7.30026 70.2503 7.26688C70.9531 7.2335 71.6303 6.99172 72.1962 6.57212C72.7621 6.15251 73.1914 5.57393 73.4296 4.90951C73.6679 4.2451 73.7045 3.5247 73.5349 2.83939C73.3652 2.15409 72.9969 1.53465 72.4765 1.05942C71.9561 0.584177 71.307 0.274474 70.6112 0.169464C69.9154 0.064455 69.2042 0.168855 68.5676 0.469465C68.1447 0.669118 67.7652 0.950419 67.4507 1.2973C67.1362 1.64418 66.8929 2.04984 66.7346 2.49112C66.5764 2.9324 66.5063 3.40064 66.5284 3.86911C66.5505 4.33757 66.6643 4.79708 66.8634 5.22139Z" fill="#FFA65B"/>
<path d="M67.4647 4.93706C67.7084 5.45637 68.1001 5.89149 68.5902 6.18742C69.0803 6.48335 69.6468 6.6268 70.2182 6.59963C70.7895 6.57246 71.3399 6.3759 71.8 6.0348C72.26 5.69369 72.6089 5.22336 72.8026 4.68325C72.9964 4.14315 73.0262 3.55753 72.8883 3.00043C72.7504 2.44333 72.451 1.93977 72.028 1.5534C71.605 1.16703 71.0774 0.915205 70.5118 0.829762C69.9462 0.74432 69.3681 0.829095 68.8505 1.07337C68.1568 1.40202 67.6214 1.99336 67.3616 2.71767C67.1018 3.44199 67.1389 4.24014 67.4647 4.93706Z" fill="#D88A50"/>
<path d="M71.7957 3.92979L72.2701 4.0973C72.1963 4.35694 72.0615 4.59502 71.877 4.79157C71.68 5.00309 71.4424 5.17251 71.1786 5.28969C70.8965 5.42589 70.589 5.50099 70.276 5.51009C69.9839 5.52059 69.6932 5.46405 69.4261 5.34479C69.1604 5.22739 68.9252 5.05016 68.7387 4.82684L68.1611 5.10014L68.0272 4.81361L68.5542 4.56455C68.5149 4.49889 68.479 4.4312 68.4466 4.36178C68.4135 4.28992 68.3842 4.21635 68.3588 4.14138L67.8361 4.40807L67.7021 4.12374L68.2797 3.85044C68.2259 3.56192 68.2386 3.26484 68.3171 2.98205C68.3965 2.69378 68.5408 2.42762 68.7387 2.20402C68.9444 1.97052 69.1965 1.78283 69.4788 1.65301C69.7397 1.52488 70.0234 1.44996 70.3133 1.43261C70.5794 1.41643 70.8455 1.46246 71.0908 1.56705L70.9173 2.04092C70.7247 1.96394 70.5181 1.92884 70.311 1.93796C70.1039 1.94708 69.9011 2.0002 69.716 2.09382C69.4253 2.22433 69.1815 2.44129 69.0176 2.71536C68.8602 2.97582 68.7916 3.28066 68.8222 3.58375L70.4297 2.82336L70.5637 3.10988L68.8859 3.90114C68.9075 3.97683 68.9354 4.05056 68.9693 4.12154C69.0018 4.19169 69.0393 4.25945 69.0813 4.32431L70.7592 3.53086L70.8931 3.81518L69.2856 4.57557C69.4996 4.79098 69.7766 4.93227 70.0762 4.97891C70.3912 5.02626 70.7131 4.97549 70.9985 4.83345C71.1877 4.74825 71.3567 4.62361 71.4941 4.46779C71.6316 4.31198 71.7344 4.12858 71.7957 3.92979Z" fill="#FFA65B"/>
<g opacity="0.7">
<path d="M4.33091 26.0871C1.44373 23.0544 0.000147285 19.5014 0.000147285 15.4284C-0.0122956 12.7486 0.763908 10.1249 2.23141 7.88611C3.69978 5.59861 5.72957 3.72848 8.12581 2.45534C10.4898 1.16163 13.1395 0.484125 15.832 0.484925C19.8011 0.484925 23.162 1.7978 25.9144 4.42355C28.6669 7.04931 30.0431 10.5809 30.0431 15.0184C30.0431 19.3618 28.6223 23.0514 25.7805 26.0871C22.9387 29.1228 19.3963 30.6392 15.1534 30.6363C10.8241 30.6363 7.21662 29.1199 4.33091 26.0871Z" fill="#FDDEC0"/>
</g>
<path d="M20.7799 25.038L6.70713 22.0626L6.28767 24.0616C6.13614 24.7868 9.1646 26.0453 13.0517 26.8652C16.9389 27.6851 20.2155 27.7666 20.3692 27.0393L20.7799 25.038Z" fill="#54424C"/>
<path d="M20.7822 25.0689C20.6307 25.794 17.3541 25.7147 13.4669 24.8926C9.57979 24.0705 6.54914 22.8164 6.70286 22.089C6.85659 21.3617 10.131 21.441 14.0182 22.2653C17.9053 23.0897 20.936 24.3416 20.7822 25.0689Z" fill="#604D57"/>
<path d="M17.2067 14.7209C20.1451 14.4079 22.8398 11.6815 23.6304 7.91477C23.7642 7.28482 23.8378 6.64346 23.85 5.99946L11.455 3.37885C11.2087 3.97337 11.0176 4.58944 10.884 5.21922C10.1022 8.98153 11.4638 12.5631 14.0245 14.0464C11.0883 14.3616 8.39145 17.0924 7.60304 20.8525C7.46688 21.5005 7.62719 21.0465 7.61402 21.6724L20.0068 24.293C20.2483 23.7156 20.211 24.1961 20.3472 23.5481C21.1378 19.788 19.7652 16.1976 17.2067 14.7209Z" fill="white"/>
<path d="M20.0336 24.2996C19.8798 25.0248 16.9722 25.0248 13.5352 24.2996C10.0983 23.5745 7.43659 22.3931 7.59032 21.668C7.74405 20.9429 10.6517 20.9429 14.0865 21.668C17.5212 22.3931 20.1851 23.5833 20.0336 24.2996Z" fill="white"/>
<path d="M24.7193 6.27059L10.6487 3.30615L10.2292 5.28979C10.0755 6.01492 13.104 7.27343 16.9933 8.09334C20.8826 8.91324 24.1571 8.99259 24.3086 8.26746L24.7193 6.27059Z" fill="#54424C"/>
<path d="M24.7237 6.29923C24.57 7.02656 21.2956 6.94722 17.4062 6.12511C13.5169 5.303 10.4906 4.04669 10.6422 3.32156C10.7937 2.59643 14.0703 2.67357 17.9597 3.49568C21.849 4.31779 24.8753 5.5741 24.7237 6.29923Z" fill="#604D57"/>
<path d="M19.2578 23.7641C19.1239 24.4055 16.561 24.4033 13.5325 23.7641C10.5041 23.1249 8.15861 22.0846 8.29257 21.4455C8.42654 20.8063 11.5253 18.2672 14.5515 18.9064C17.5778 19.5456 19.394 23.1249 19.2578 23.7641Z" fill="#FDDEC0"/>
<path d="M13.5611 22.0405C12.6233 21.5843 11.7515 20.965 11.3232 19.982C11.2338 19.7692 11.1668 19.5475 11.1234 19.3207C9.54437 19.982 8.37383 21.0553 8.29257 21.4432C8.15861 22.0824 10.5041 23.1205 13.5325 23.7619C16.561 24.4033 19.1239 24.4033 19.2578 23.7619C19.2952 23.5944 19.1941 23.2197 18.9723 22.7502C17.1389 23.0812 15.2482 22.8332 13.5611 22.0405Z" fill="#E5BFA5"/>
<path d="M12.7241 10.7999C12.8075 10.4054 14.3866 10.4054 16.2555 10.7999C18.1244 11.1944 19.5672 11.8358 19.486 12.2303C19.4047 12.6249 17.4919 14.1897 15.6252 13.7952C13.7585 13.4007 12.6406 11.1944 12.7241 10.7999Z" fill="#FDDEC0"/>
<path d="M19.5866 12.1223C19.5163 12.4662 17.9263 12.4199 16.0377 12.0209C14.149 11.622 12.6754 11.0181 12.7435 10.6765C12.8116 10.3348 14.4037 10.3789 16.2924 10.7779C18.1811 11.1768 19.6591 11.7741 19.5866 12.1223Z" fill="#E5BFA5"/>
</g>
<defs>
<clipPath id="clip0_194_832">
<rect width="95" height="90" fill="white"/>
</clipPath>
</defs>
</svg>
