<svg width="15" height="15" viewBox="0 0 15 15" fill="none" xmlns="http://www.w3.org/2000/svg">
<path d="M7.49962 0.288574C11.4824 0.288574 14.7112 3.51729 14.7112 7.50011C14.7112 11.4829 11.4824 14.7117 7.49962 14.7117C3.5168 14.7117 0.288086 11.4829 0.288086 7.50011C0.288086 3.51729 3.5168 0.288574 7.49962 0.288574ZM7.49962 1.37031C4.11423 1.37031 1.36982 4.11471 1.36982 7.50011C1.36982 10.8855 4.11423 13.6299 7.49962 13.6299C10.885 13.6299 13.6294 10.8855 13.6294 7.50011C13.6294 4.11471 10.885 1.37031 7.49962 1.37031ZM6.59818 8.53807L9.82152 5.31478C10.0327 5.10356 10.3752 5.10356 10.5864 5.31478C10.7784 5.5068 10.7959 5.80728 10.6387 6.01901L10.5864 6.07966L6.98061 9.68543C6.78864 9.87747 6.48813 9.89492 6.2764 9.73778L6.21575 9.68543L4.41285 7.88254C4.20163 7.67131 4.20163 7.32891 4.41285 7.11768C4.60487 6.92564 4.90535 6.90819 5.11708 7.06533L5.17775 7.11768L6.59818 8.53807Z" fill="#0DA72E"/>
</svg>
