<svg width="40" height="37" viewBox="0 0 40 37" fill="none" xmlns="http://www.w3.org/2000/svg">
<path d="M32.9791 10.6662C33.3523 10.5803 33.7444 10.6431 34.0723 10.8413C34.4019 11.0405 34.6405 11.3609 34.7369 11.7337L34.7373 11.7351L34.7954 11.9572C34.8944 12.3355 34.8391 12.7376 34.6417 13.0751C34.4442 13.4125 34.1208 13.6578 33.7426 13.7568L32.8345 13.9945C33.146 13.9129 33.4704 13.8931 33.7895 13.9361C33.7917 13.9364 33.794 13.9367 33.7962 13.937C33.9725 13.9613 34.1452 14.0044 34.3114 14.0655C34.6253 13.895 34.8899 13.641 35.0732 13.3276C35.3377 12.8756 35.4117 12.3371 35.2791 11.8306L35.221 11.6085C35.0918 11.1092 34.7724 10.6802 34.331 10.4134C33.8896 10.1466 33.3614 10.063 32.8592 10.1807M32.9791 10.6662L32.9858 10.6644L32.8592 10.1807M32.9791 10.6662C32.9772 10.6666 32.9752 10.6671 32.9733 10.6675L32.8592 10.1807M32.9791 10.6662L22.1285 13.5066L21.357 13.7085L21.5113 12.9262C21.5159 12.9026 21.5205 12.8793 21.5251 12.8564C21.5554 12.7041 21.5833 12.5634 21.6038 12.4055L21.6051 12.3956L21.6068 12.3857C21.997 10.1027 21.5608 7.7555 20.3766 5.7652C19.8747 4.95613 19.3394 4.30816 18.2743 4.225L18.273 4.2249C18.1032 4.21118 17.6902 4.27236 17.3598 4.44183C17.1997 4.52396 17.102 4.61014 17.0541 4.68242C17.0217 4.73126 17.0044 4.78198 17.0189 4.86097C17.0278 4.88162 17.0395 4.90916 17.0538 4.94299C17.0874 5.02261 17.1349 5.13721 17.1915 5.27903C17.3044 5.56226 17.4541 5.956 17.6008 6.39757C17.8854 7.25406 18.1915 8.38278 18.1324 9.22334L18.1315 9.23621L18.1314 9.23619C17.9484 11.137 17.4485 12.9938 16.6523 14.7296L16.5536 14.9448L16.3245 15.0048L14.6466 15.444L18.6501 30.738L34.1168 26.6892C34.3041 26.6402 34.4799 26.5547 34.6342 26.4378C34.7885 26.3208 34.9182 26.1746 35.016 26.0075C35.1137 25.8404 35.1776 25.6557 35.204 25.4639C35.2304 25.2721 35.2187 25.077 35.1697 24.8897L35.1051 24.6429C35.0061 24.2647 34.7609 23.9412 34.4234 23.7438C34.0859 23.5463 33.6838 23.491 33.3056 23.59L33.1789 23.1063L33.0523 22.6226L34.0393 22.3643C34.4176 22.2652 34.741 22.02 34.9385 21.6826C35.1359 21.3451 35.1912 20.943 35.0922 20.5647L35.0276 20.318C34.9286 19.9397 34.6834 19.6163 34.3459 19.4188C34.0084 19.2214 33.6063 19.1661 33.2281 19.2651L33.1015 18.7814L32.9748 18.2977L33.8977 18.0561C34.0844 18.0073 34.2596 17.9221 34.4133 17.8056C34.567 17.689 34.6963 17.5433 34.7937 17.3768C34.8912 17.2102 34.9548 17.0261 34.9811 16.835C35.0074 16.6439 34.9958 16.4494 34.9469 16.2628L34.881 16.0111C34.8322 15.8245 34.747 15.6493 34.6305 15.4955C34.5139 15.3418 34.3682 15.2125 34.2017 15.1151C34.0352 15.0177 33.8511 14.954 33.6599 14.9277C33.4688 14.9014 33.2744 14.913 33.0877 14.9619L32.9611 14.4782L22.539 12.8823M32.8592 10.1807L22.539 12.8823M22.539 12.8823C22.5276 12.9426 22.5162 13 22.5054 13.0542C22.5009 13.0766 22.4966 13.0983 22.4924 13.1196L22.0018 13.0229L22.539 12.8823Z" stroke="#2A2A2A"/>
<path d="M3.64687 16.815L10.6301 14.9869C11.1125 14.8607 11.606 15.1494 11.7322 15.6318L16.1505 32.51C16.2768 32.9924 15.9881 33.4858 15.5057 33.6121L8.52242 35.4401C8.04002 35.5664 7.54659 35.2777 7.42031 34.7953L3.00206 17.9171C2.87578 17.4347 3.16447 16.9412 3.64687 16.815Z" stroke="#2A2A2A"/>
</svg>
