<svg width="28" height="26" viewBox="0 0 28 26" fill="none" xmlns="http://www.w3.org/2000/svg">
<path d="M12.1238 10.0103L13.2765 11.0332L12.9439 9.52843C11.9688 5.11599 14.3721 1.92083 17.3636 1.13605C18.8632 0.742621 20.5318 0.945854 22.0488 1.92301C23.5676 2.90136 24.9676 4.67857 25.8677 7.48578C27.326 12.0371 26.2362 16.4517 24.7487 19.764C24.0067 21.4164 23.1714 22.7812 22.5217 23.7324C22.1972 24.2076 21.9196 24.5785 21.7243 24.8294C21.6452 24.931 21.5797 25.0129 21.53 25.074C21.4525 25.0878 21.3493 25.1055 21.2223 25.1254C20.9084 25.1746 20.4498 25.2375 19.8774 25.2909C18.7315 25.3979 17.1344 25.4665 15.3313 25.3136C11.717 25.0072 7.3327 23.8169 4.06434 20.3275C2.04835 18.1701 1.17538 16.0783 1.05839 14.2722C0.94154 12.4683 1.5749 10.9097 2.64717 9.78989C4.78586 7.55631 8.74441 7.0112 12.1238 10.0103Z" stroke="white"/>
</svg>
