<svg width="31" height="34" viewBox="0 0 31 34" fill="none" xmlns="http://www.w3.org/2000/svg">
<path d="M23.3672 32.5849L23.3451 32.5793L23.3225 32.5758C23.2892 32.5705 23.2565 32.5624 23.2246 32.5516L18.2891 29.5308L18.1252 29.4305L17.9363 29.4657C15.7969 29.8652 13.5943 29.7669 11.4991 29.1784L11.4979 29.1781C8.75755 28.4155 6.30486 26.8573 4.45017 24.7006C2.59547 22.5439 1.42207 19.8856 1.07837 17.062C0.734675 14.2383 1.23614 11.3761 2.51932 8.8375C3.80251 6.29887 5.80976 4.19784 8.28719 2.80015C10.7646 1.40246 13.6009 0.7709 16.4373 0.985392C19.2738 1.19988 21.9828 2.25079 24.2219 4.00514C26.461 5.7595 28.1294 8.13848 29.0163 10.8412C29.9031 13.5439 29.9684 16.449 29.204 19.1889L29.2036 19.1902C28.4184 22.0359 26.7646 24.5655 24.4729 26.4263L24.3022 26.5649L24.289 26.7844L23.9652 32.158C23.9578 32.2383 23.9311 32.3156 23.8874 32.3834C23.844 32.4507 23.7851 32.5065 23.7156 32.5462C23.608 32.6007 23.4842 32.6145 23.3672 32.5849Z" stroke="white"/>
</svg>
