<svg width="49" height="37" viewBox="0 0 49 37" fill="none" xmlns="http://www.w3.org/2000/svg">
<path d="M15.568 26.1674L15.6693 26.657L16.159 26.5557L18.1623 26.141C18.1625 26.1409 18.1627 26.1409 18.1629 26.1408C19.6325 25.8418 21.1632 26.1433 22.4201 26.9813C23.6773 27.8196 24.558 29.1265 24.8677 30.6166L25.2329 32.3805L5.77332 36.4089L5.40809 34.6446C5.09904 33.1517 5.38938 31.5996 6.21346 30.3298C7.0374 29.0603 8.32726 28.177 9.79861 27.8724L11.6965 27.4795L12.1861 27.3781L12.0848 26.8885L11.8474 25.7419L11.766 25.3488L11.3647 25.3433C9.9056 25.3232 8.60298 24.9023 7.5337 23.8989C6.45571 22.8873 5.56601 21.2378 5.03424 18.6691C4.44612 15.8281 4.84346 13.7077 5.81339 12.2103C6.78406 10.7117 8.37559 9.76356 10.3208 9.36088C12.2679 8.95779 14.1028 9.18752 15.5866 10.1723C17.0691 11.1563 18.2759 12.9437 18.8683 15.8052C19.4055 18.4003 19.2339 20.2792 18.6306 21.6391C18.0321 22.9884 16.9807 23.8894 15.6245 24.4808L15.2524 24.643L15.3347 25.0405L15.568 26.1674Z" stroke="white"/>
<path d="M36.733 27.093L37.2226 26.9917L36.8943 25.4057C36.7416 24.6585 36.4419 23.949 36.0125 23.3178C35.583 22.6866 35.0321 22.146 34.3914 21.7271C33.7506 21.3081 33.0326 21.019 32.2783 20.8762C31.5241 20.7334 30.7484 20.7397 29.9957 20.8949M36.733 27.093L36.4047 25.507L36.4044 25.5058C36.265 24.8235 35.9914 24.1756 35.5991 23.5991C35.2068 23.0225 34.7035 22.5285 34.1177 22.1455C33.532 21.7626 32.8754 21.4981 32.1853 21.3674C31.4953 21.2368 30.7855 21.2426 30.0967 21.3846M36.733 27.093L26.5064 29.2101C26.3174 28.4837 26.0045 27.7943 25.5804 27.1722C25.0924 26.4565 24.467 25.8439 23.7401 25.3695C23.0131 24.8951 22.1989 24.5681 21.344 24.407C20.7902 24.3026 20.2264 24.2692 19.6661 24.3066C19.8588 24.1309 20.0648 23.9691 20.2824 23.8226C20.8618 23.4329 21.5126 23.16 22.1977 23.0198L22.1988 23.0196L23.9958 22.6476L24.4854 22.5462L24.3841 22.0566L24.1628 20.9876L24.0789 20.5825L23.6652 20.589C22.7357 20.6038 21.8213 20.3793 21.01 19.9403C21.198 18.4889 21.1217 17.0156 20.7836 15.5908C20.2489 13.0138 19.198 11.1705 17.7909 9.98701C18.4837 7.6915 20.3336 6.31901 22.7537 5.81802C24.595 5.43685 26.3223 5.64182 27.7132 6.54466C29.1012 7.44559 30.2305 9.09104 30.7798 11.7443C31.2771 14.1466 31.1073 15.8828 30.5363 17.1387C29.9696 18.3852 28.9782 19.2227 27.6963 19.776L27.3222 19.9375L27.4048 20.3365L27.6221 21.3863L27.7235 21.8759L28.2131 21.7745L30.0967 21.3846M36.733 27.093L36.8343 27.5826L26.6158 29.698L26.5832 29.5406C26.5832 29.5405 26.5832 29.5404 26.5832 29.5403L26.5831 29.5398L26.0935 29.6412C26.0922 29.6348 26.0908 29.6284 26.0895 29.622L28.6013 21.1836M30.0967 21.3846L30.0971 21.3845L29.9957 20.8949M30.0967 21.3846L29.9957 20.8949M29.9957 20.8949L28.6013 21.1836M28.6013 21.1836L28.1117 21.2849L28.0104 20.7953L27.8944 20.2351L28.6013 21.1836Z" stroke="white"/>
<path d="M47.8404 23.7668L48.33 23.6655L48.0017 22.0795C47.849 21.3323 47.5494 20.6228 47.1199 19.9916C46.6904 19.3604 46.1395 18.8199 45.4988 18.4009C44.8581 17.9819 44.14 17.6928 43.3858 17.55C42.6315 17.4072 41.8558 17.4136 41.1032 17.5687M47.8404 23.7668L47.5121 22.1808L47.5118 22.1796C47.3724 21.4974 47.0988 20.8494 46.7065 20.2729C46.3142 19.6963 45.8109 19.2024 45.2252 18.8194C44.6394 18.4364 43.9828 18.1719 43.2928 18.0413C42.6027 17.9106 41.8929 17.9164 41.2041 18.0584M47.8404 23.7668L37.6138 25.8839C37.4249 25.1575 37.1119 24.4681 36.6878 23.846C36.1999 23.1303 35.5744 22.5177 34.8475 22.0433C34.1205 21.5689 33.3063 21.2419 32.4514 21.0808C31.8976 20.9765 31.3338 20.9431 30.7735 20.9805C30.9663 20.8047 31.1722 20.6429 31.3899 20.4965C31.9692 20.1067 32.62 19.8339 33.3051 19.6936L33.3062 19.6934L35.1032 19.3214L35.5929 19.22L35.4915 18.7304L35.2702 17.6615L35.1863 17.2563L34.7726 17.2629C33.8432 17.2776 32.9287 17.0531 32.1174 16.6141C32.3054 15.1628 32.2291 13.6894 31.891 12.2646C31.3563 9.68764 30.3055 7.84434 28.8983 6.66083C29.5911 4.36533 31.441 2.99284 33.8611 2.49185C35.7024 2.11067 37.4297 2.31565 38.8206 3.21848C40.2086 4.11942 41.3379 5.76486 41.8872 8.41818C42.3845 10.8204 42.2148 12.5567 41.6437 13.8125C41.077 15.059 40.0856 15.8966 38.8037 16.4499L38.4296 16.6113L38.5122 17.0103L38.7295 18.0601L38.8309 18.5497L39.3205 18.4484L41.2041 18.0584M47.8404 23.7668L47.9418 24.2565L37.7232 26.3718L37.6907 26.2145C37.6906 26.2144 37.6906 26.2143 37.6906 26.2142L37.6905 26.2137L37.2009 26.315C37.1996 26.3086 37.1982 26.3022 37.1969 26.2958L39.7088 17.8574M41.2041 18.0584L41.2045 18.0583L41.1032 17.5687M41.2041 18.0584L41.1032 17.5687M41.1032 17.5687L39.7088 17.8574M39.7088 17.8574L39.2191 17.9587L39.1178 17.4691L39.0018 16.9089L39.7088 17.8574Z" stroke="white"/>
</svg>
