<svg width="23" height="22" viewBox="0 0 23 22" fill="none" xmlns="http://www.w3.org/2000/svg">
<path d="M12.0862 7.53927L11.7934 9.08297L12.9245 7.99234C15.6989 5.31698 19.0212 5.6459 20.8516 7.4395C21.7712 8.34058 22.3386 9.62897 22.2837 11.1573C22.2287 12.6882 21.5464 14.4966 19.8957 16.4081C17.2218 19.5032 13.5482 20.6879 10.4987 21.0902C8.97762 21.2909 7.62514 21.2949 6.65356 21.2485C6.16821 21.2254 5.77913 21.1898 5.51303 21.1602C5.42188 21.1501 5.3452 21.1407 5.28408 21.1327C5.24389 21.0861 5.19394 21.0273 5.13545 20.9569C4.96459 20.7511 4.72113 20.4459 4.43526 20.0536C3.863 19.2682 3.1237 18.1373 2.45653 16.7574C1.11906 13.9912 0.0939293 10.2736 1.21727 6.33919C1.91461 3.90749 3.05556 2.34279 4.30775 1.45543C5.55784 0.56957 6.9475 0.336601 8.20543 0.610652C10.7091 1.1561 12.8041 3.75301 12.0862 7.53927Z" stroke="#2A2A2A"/>
</svg>
