<svg width="57" height="57" viewBox="0 0 57 57" fill="none" xmlns="http://www.w3.org/2000/svg">
<circle cx="28.5" cy="28.5" r="27.5" fill="url(#paint0_linear_1784_358)" stroke="#FFC70E" stroke-width="2"/>
<mask id="path-2-outside-1_1784_358" maskUnits="userSpaceOnUse" x="16" y="13" width="23" height="32" fill="black">
<rect fill="white" x="16" y="13" width="23" height="32"/>
<path d="M23.9555 32.6C23.9555 31.4533 24.2355 30.3867 24.7955 29.4C25.3821 28.4133 26.0088 27.64 26.6755 27.08C27.3688 26.52 27.9955 25.92 28.5555 25.28C29.1421 24.64 29.4355 24.04 29.4355 23.48C29.4355 23.0533 29.2888 22.7067 28.9955 22.44C28.7021 22.1733 28.3021 22.04 27.7955 22.04C26.4888 22.04 25.3955 23.0133 24.5155 24.96L17.7555 21.12C18.7155 18.8533 20.1155 17.16 21.9555 16.04C23.7955 14.92 25.8488 14.36 28.1155 14.36C30.8088 14.36 33.0355 15.08 34.7955 16.52C36.5555 17.9333 37.4355 19.84 37.4355 22.24C37.4355 23.36 37.2221 24.4 36.7955 25.36C36.3688 26.32 35.8488 27.12 35.2355 27.76C34.6221 28.3733 33.9955 28.9467 33.3555 29.48C32.7421 30.0133 32.2221 30.5467 31.7955 31.08C31.3688 31.5867 31.1555 32.0933 31.1555 32.6H23.9555ZM30.7955 42.28C29.9155 43.16 28.8355 43.6 27.5555 43.6C26.2755 43.6 25.1821 43.16 24.2755 42.28C23.3955 41.3733 22.9555 40.28 22.9555 39C22.9555 37.72 23.3955 36.64 24.2755 35.76C25.1821 34.8533 26.2755 34.4 27.5555 34.4C28.8355 34.4 29.9155 34.8533 30.7955 35.76C31.7021 36.64 32.1555 37.72 32.1555 39C32.1555 40.28 31.7021 41.3733 30.7955 42.28Z"/>
</mask>
<path d="M23.9555 32.6H22.9555V33.6H23.9555V32.6ZM24.7955 29.4L23.9359 28.8889L23.9308 28.8976L23.9258 28.9064L24.7955 29.4ZM26.6755 27.08L26.0471 26.3021L26.0396 26.3081L26.0323 26.3143L26.6755 27.08ZM28.5555 25.28L27.8183 24.6043L27.8105 24.6128L27.8029 24.6215L28.5555 25.28ZM28.9955 22.44L28.3228 23.1799L28.3228 23.1799L28.9955 22.44ZM24.5155 24.96L24.0215 25.8295L24.975 26.3711L25.4267 25.3719L24.5155 24.96ZM17.7555 21.12L16.8347 20.73L16.4875 21.5498L17.2615 21.9895L17.7555 21.12ZM21.9555 16.04L21.4355 15.1858L21.9555 16.04ZM34.7955 16.52L34.1622 17.294L34.1693 17.2997L34.7955 16.52ZM36.7955 25.36L37.7093 25.7661L36.7955 25.36ZM35.2355 27.76L35.9426 28.4671L35.9501 28.4596L35.9575 28.4519L35.2355 27.76ZM33.3555 29.48L32.7153 28.7118L32.7072 28.7185L32.6993 28.7254L33.3555 29.48ZM31.7955 31.08L32.5604 31.7241L32.5685 31.7145L32.5763 31.7047L31.7955 31.08ZM31.1555 32.6V33.6H32.1555V32.6H31.1555ZM30.7955 42.28L31.5026 42.9871H31.5026L30.7955 42.28ZM24.2755 42.28L23.5579 42.9765L23.5683 42.9872L23.579 42.9976L24.2755 42.28ZM24.2755 35.76L23.5684 35.0529L24.2755 35.76ZM30.7955 35.76L30.0779 36.4565L30.0883 36.4672L30.099 36.4776L30.7955 35.76ZM24.9555 32.6C24.9555 31.6244 25.1915 30.7281 25.6652 29.8936L23.9258 28.9064C23.2794 30.0452 22.9555 31.2822 22.9555 32.6H24.9555ZM25.655 29.9111C26.2015 28.9919 26.7603 28.3147 27.3187 27.8457L26.0323 26.3143C25.2573 26.9653 24.5627 27.8348 23.9359 28.8889L25.655 29.9111ZM27.3038 27.8579C28.0398 27.2635 28.7084 26.6238 29.308 25.9385L27.8029 24.6215C27.2826 25.2162 26.6978 25.7765 26.0471 26.3021L27.3038 27.8579ZM29.2926 25.9557C29.9588 25.229 30.4355 24.397 30.4355 23.48H28.4355C28.4355 23.683 28.3255 24.051 27.8183 24.6043L29.2926 25.9557ZM30.4355 23.48C30.4355 22.7957 30.1872 22.1719 29.6681 21.7001L28.3228 23.1799C28.3904 23.2414 28.4355 23.311 28.4355 23.48H30.4355ZM29.6681 21.7001C29.1439 21.2235 28.4794 21.04 27.7955 21.04V23.04C28.1249 23.04 28.2604 23.1232 28.3228 23.1799L29.6681 21.7001ZM27.7955 21.04C25.8813 21.04 24.5336 22.4922 23.6042 24.5481L25.4267 25.3719C26.2573 23.5344 27.0963 23.04 27.7955 23.04V21.04ZM25.0094 24.0905L18.2494 20.2505L17.2615 21.9895L24.0215 25.8295L25.0094 24.0905ZM18.6763 21.51C19.5667 19.4076 20.8392 17.8902 22.4754 16.8942L21.4355 15.1858C19.3917 16.4298 17.8642 18.299 16.8347 20.73L18.6763 21.51ZM22.4754 16.8942C24.1504 15.8746 26.0222 15.36 28.1155 15.36V13.36C25.6754 13.36 23.4405 13.9654 21.4355 15.1858L22.4754 16.8942ZM28.1155 15.36C30.6224 15.36 32.6125 16.026 34.1622 17.294L35.4287 15.746C33.4584 14.134 30.9952 13.36 28.1155 13.36V15.36ZM34.1693 17.2997C35.6763 18.5098 36.4355 20.1211 36.4355 22.24H38.4355C38.4355 19.5589 37.4347 17.3568 35.4216 15.7403L34.1693 17.2997ZM36.4355 22.24C36.4355 23.2295 36.2478 24.13 35.8817 24.9539L37.7093 25.7661C38.1965 24.67 38.4355 23.4905 38.4355 22.24H36.4355ZM35.8817 24.9539C35.4935 25.8273 35.0336 26.5254 34.5135 27.0681L35.9575 28.4519C36.664 27.7146 37.2442 26.8127 37.7093 25.7661L35.8817 24.9539ZM34.5284 27.0529C33.9355 27.6457 33.3311 28.1986 32.7153 28.7118L33.9957 30.2482C34.6598 29.6948 35.3087 29.1009 35.9426 28.4671L34.5284 27.0529ZM32.6993 28.7254C32.0488 29.291 31.4851 29.8672 31.0146 30.4553L32.5763 31.7047C32.9592 31.2262 33.4354 30.7357 34.0116 30.2346L32.6993 28.7254ZM31.0306 30.4359C30.4994 31.0666 30.1555 31.7933 30.1555 32.6H32.1555C32.1555 32.3934 32.2382 32.1067 32.5604 31.7241L31.0306 30.4359ZM31.1555 31.6H23.9555V33.6H31.1555V31.6ZM30.0884 41.5729C29.4018 42.2595 28.5787 42.6 27.5555 42.6V44.6C29.0922 44.6 30.4291 44.0605 31.5026 42.9871L30.0884 41.5729ZM27.5555 42.6C26.5317 42.6 25.6893 42.2587 24.9719 41.5624L23.579 42.9976C24.675 44.0613 26.0192 44.6 27.5555 44.6V42.6ZM24.993 41.5835C24.2968 40.8662 23.9555 40.0237 23.9555 39H21.9555C21.9555 40.5363 22.4941 41.8805 23.5579 42.9765L24.993 41.5835ZM23.9555 39C23.9555 37.9768 24.296 37.1537 24.9826 36.4671L23.5684 35.0529C22.4949 36.1263 21.9555 37.4632 21.9555 39H23.9555ZM24.9826 36.4671C25.7021 35.7476 26.5412 35.4 27.5555 35.4V33.4C26.0097 33.4 24.6622 33.9591 23.5684 35.0529L24.9826 36.4671ZM27.5555 35.4C28.5691 35.4 29.389 35.7467 30.0779 36.4565L31.5131 35.0635C30.442 33.96 29.1019 33.4 27.5555 33.4V35.4ZM30.099 36.4776C30.8088 37.1665 31.1555 37.9864 31.1555 39H33.1555C33.1555 37.4536 32.5955 36.1135 31.4919 35.0424L30.099 36.4776ZM31.1555 39C31.1555 40.0143 30.8079 40.8534 30.0884 41.5729L31.5026 42.9871C32.5964 41.8933 33.1555 40.5457 33.1555 39H31.1555Z" fill="white" mask="url(#path-2-outside-1_1784_358)"/>
<defs>
<linearGradient id="paint0_linear_1784_358" x1="83.5" y1="-16.5" x2="-4.41153e-07" y2="65.5" gradientUnits="userSpaceOnUse">
<stop stop-color="#FFC70E"/>
<stop offset="1" stop-color="#FF0E86"/>
</linearGradient>
</defs>
</svg>
