<svg width="57" height="58" viewBox="0 0 57 58" fill="none" xmlns="http://www.w3.org/2000/svg">
<circle cx="28.5" cy="28.5" r="27.5" fill="url(#paint0_linear_1784_356)" stroke="#FFC70E" stroke-width="2"/>
<path d="M32.5624 42.8846V43.3846H33.0624L36.7884 43.3846C36.7888 43.3846 36.7892 43.3846 36.7896 43.3846C39.6345 43.3939 42.3581 44.5105 44.3648 46.4872C46.3714 48.464 47.4977 51.1397 47.5 53.9281V57.5H10.5V53.9277C10.5 51.1343 11.6291 48.4536 13.6417 46.4757C15.6547 44.4975 18.3867 43.3846 21.2371 43.3846H24.7657H25.2657V42.8846V40.8129V40.409L24.8709 40.3241C22.1949 39.7483 19.9305 38.5048 18.3262 36.2885C16.7159 34.0639 15.7295 30.8025 15.7295 26.1154C15.7295 20.914 17.2413 17.277 19.6155 14.9395C21.9926 12.5992 25.2968 11.5 29 11.5C32.7052 11.5 36.0089 12.5826 38.3851 14.9135C40.7582 17.2414 42.2705 20.8776 42.2705 26.1154C42.2705 30.8505 41.2618 34.1302 39.6209 36.3561C37.9858 38.5742 35.68 39.8038 32.9624 40.3586L32.5624 40.4402V40.8485V42.8846Z" stroke="white"/>
<defs>
<linearGradient id="paint0_linear_1784_356" x1="83.5" y1="-16.5" x2="-4.41153e-07" y2="65.5" gradientUnits="userSpaceOnUse">
<stop stop-color="#FFC70E"/>
<stop offset="1" stop-color="#FF0E86"/>
</linearGradient>
</defs>
</svg>
