<svg width="57" height="57" viewBox="0 0 57 57" fill="none" xmlns="http://www.w3.org/2000/svg">
<circle cx="28.5" cy="28.5" r="27.5" fill="url(#paint0_linear_1784_368)" stroke="#FFC70E" stroke-width="2"/>
<path d="M28.5227 21.4093L28.9986 22.8953L29.475 21.4095C31.0362 16.541 35.1677 14.7989 38.4998 15.7503C40.171 16.2275 41.6684 17.3858 42.5795 19.2149C43.4917 21.0462 43.8318 23.5848 43.1107 26.8324C41.9398 32.1003 38.3963 35.7719 35.1012 38.1402C33.4567 39.322 31.8852 40.171 30.7252 40.7241C30.1456 41.0005 29.6699 41.2024 29.3407 41.3348C29.1977 41.3922 29.0824 41.4366 28.9983 41.4681C28.9143 41.4368 28.7991 41.3927 28.6562 41.3356C28.327 41.2041 27.8513 41.0032 27.2717 40.7281C26.1119 40.1776 24.5404 39.332 22.8961 38.1535C19.6013 35.7919 16.058 32.1265 14.8872 26.8565C14.1683 23.6029 14.5098 21.0596 15.4229 19.2248C16.335 17.3921 17.8327 16.2317 19.5036 15.7532C22.8347 14.7991 26.9638 16.5408 28.5227 21.4093Z" stroke="white"/>
<defs>
<linearGradient id="paint0_linear_1784_368" x1="83.5" y1="-16.5" x2="-4.41153e-07" y2="65.5" gradientUnits="userSpaceOnUse">
<stop stop-color="#FFC70E"/>
<stop offset="1" stop-color="#FF0E86"/>
</linearGradient>
</defs>
</svg>
